<?xml version="1.0" encoding="UTF-8"?>
<svg xmlns="http://www.w3.org/2000/svg" xmlns:xlink="http://www.w3.org/1999/xlink" width="75px" height="px" viewBox="0 0 75 75" version="1.1">
<g id="surface1">
<rect x="0" y="0" width="75" height="75" style="fill:rgb(0%,78.431373%,100%);fill-opacity:1;stroke:none;"/>
<path style=" stroke:none;fill-rule:nonzero;fill:rgb(0%,11.372549%,14.901961%);fill-opacity:1;" d="M 3.308594 3.308594 L 71.710938 3.308594 L 71.710938 71.710938 L 3.308594 71.710938 Z M 3.308594 3.308594 "/>
<path style=" stroke:none;fill-rule:nonzero;fill:rgb(0%,78.431373%,100%);fill-opacity:1;" d="M 18.226562 18.125 C 18.226562 17.855469 18.265625 17.753906 18.492188 17.753906 C 20.175781 17.691406 23.507812 17.652344 26.875 17.652344 C 35.566406 17.652344 38.894531 22.707031 38.9375 28.707031 C 38.9375 36.90625 32.8125 40.027344 26.300781 40.027344 C 25.066406 40.027344 23.855469 40.027344 23.546875 40.027344 L 23.546875 51.742188 C 23.546875 52.050781 23.464844 52.152344 23.238281 52.152344 L 18.53125 52.152344 C 18.308594 52.152344 18.226562 52.050781 18.226562 51.785156 Z M 23.546875 35.015625 C 23.894531 35.074219 24.574219 35.117188 26.425781 35.117188 C 29.9375 35.117188 33.308594 34.109375 33.308594 28.953125 C 33.308594 24.820312 31.046875 22.707031 26.875 22.707031 C 25.148438 22.707031 23.894531 22.769531 23.546875 22.808594 Z M 23.546875 35.015625 "/>
<path style=" stroke:none;fill-rule:nonzero;fill:rgb(0%,78.431373%,100%);fill-opacity:1;" d="M 50.015625 31.152344 C 47.875 31.152344 47.300781 32.488281 47.300781 33.472656 C 47.300781 34.707031 47.875 35.382812 51.144531 36.925781 C 55.644531 39.082031 57.554688 40.992188 57.554688 44.710938 C 57.554688 49.871094 54.207031 52.808594 49.398438 52.808594 C 47.097656 52.808594 44.179688 52.582031 42.328125 51.246094 C 42.164062 51.144531 42.0625 50.980469 42.0625 50.734375 L 42.0625 45.988281 C 42.0625 45.71875 42.226562 45.617188 42.371094 45.71875 C 44.632812 47.425781 47.15625 47.898438 49.4375 47.898438 C 51.453125 47.898438 52.152344 46.5625 52.152344 45.433594 C 52.152344 44.097656 51.65625 43.316406 48.535156 41.816406 C 44.035156 39.660156 42.164062 37.789062 42.164062 34.03125 C 42.164062 29.859375 45.308594 26.40625 50.445312 26.40625 C 53.097656 26.40625 54.988281 26.46875 56.199219 27.3125 C 56.425781 27.515625 56.464844 27.679688 56.464844 27.988281 L 56.464844 32.222656 C 56.464844 32.53125 56.300781 32.695312 56.074219 32.53125 C 54.515625 31.480469 52.296875 31.152344 50.015625 31.152344 Z M 50.015625 31.152344 "/>
</g>
</svg>
