<?xml version="1.0" encoding="UTF-8"?>
<svg xmlns="http://www.w3.org/2000/svg" xmlns:xlink="http://www.w3.org/1999/xlink" width="75px" height="px" viewBox="0 0 75 75" version="1.1">
<g id="surface1">
<path style=" stroke:none;fill-rule:evenodd;fill:rgb(70.980392%,18.039216%,19.215686%);fill-opacity:1;" d="M 22.0625 42.40625 L 22.0625 33.179688 L 23.246094 33.179688 L 28.886719 40.605469 L 28.886719 33.179688 L 30.015625 33.179688 L 30.015625 42.40625 L 28.828125 42.40625 L 23.1875 34.90625 L 23.1875 42.40625 Z M 22.0625 42.40625 "/>
<path style=" stroke:none;fill-rule:evenodd;fill:rgb(70.980392%,18.039216%,19.215686%);fill-opacity:1;" d="M 39.199219 42.039062 C 38.453125 42.320312 37.648438 42.464844 36.796875 42.464844 C 33.457031 42.464844 31.789062 40.867188 31.789062 37.660156 C 31.789062 34.628906 33.398438 33.105469 36.621094 33.105469 C 37.542969 33.105469 38.40625 33.238281 39.199219 33.484375 L 39.199219 34.511719 C 38.410156 34.203125 37.585938 34.058594 36.753906 34.058594 C 34.234375 34.058594 32.972656 35.257812 32.972656 37.632812 C 32.972656 40.195312 34.21875 41.46875 36.695312 41.46875 C 37.089844 41.46875 37.53125 41.410156 38.011719 41.308594 L 38.011719 38.21875 L 39.199219 38.21875 Z M 39.199219 42.039062 "/>
<path style=" stroke:none;fill-rule:evenodd;fill:rgb(70.980392%,18.039216%,19.215686%);fill-opacity:1;" d="M 41.101562 38.847656 L 41.101562 33.179688 L 42.289062 33.179688 L 42.289062 38.847656 C 42.289062 40.621094 43.167969 41.515625 44.941406 41.515625 C 46.699219 41.515625 47.59375 40.621094 47.59375 38.847656 L 47.59375 33.179688 L 48.78125 33.179688 L 48.78125 38.847656 C 48.78125 41.265625 47.503906 42.480469 44.941406 42.480469 C 42.378906 42.480469 41.101562 41.265625 41.101562 38.847656 Z M 41.101562 38.847656 "/>
<path style=" stroke:none;fill-rule:evenodd;fill:rgb(70.980392%,18.039216%,19.215686%);fill-opacity:1;" d="M 52.089844 33.179688 L 52.089844 41.441406 L 56.921875 41.441406 L 56.921875 42.40625 L 50.902344 42.40625 L 50.902344 33.179688 Z M 52.089844 33.179688 "/>
<path style=" stroke:none;fill-rule:evenodd;fill:rgb(70.980392%,18.039216%,19.215686%);fill-opacity:1;" d="M 58.636719 42.40625 L 57.390625 42.40625 L 61.976562 31.960938 L 66.5625 42.40625 L 65.242188 42.40625 L 64.058594 39.507812 L 61.011719 39.507812 L 61.332031 38.539062 L 63.664062 38.539062 L 61.933594 34.367188 Z M 58.636719 42.40625 "/>
<path style=" stroke:none;fill-rule:evenodd;fill:rgb(70.980392%,18.039216%,19.215686%);fill-opacity:1;" d="M 67.835938 42.40625 L 67.835938 33.179688 L 71.777344 33.179688 C 73.535156 33.179688 74.414062 33.910156 74.414062 35.390625 C 74.414062 36.59375 73.550781 37.484375 71.835938 38.054688 L 75 42.40625 L 73.433594 42.40625 L 70.503906 38.261719 L 70.503906 37.484375 C 72.261719 37.207031 73.15625 36.53125 73.15625 35.449219 C 73.15625 34.597656 72.671875 34.175781 71.6875 34.175781 L 69.054688 34.175781 L 69.054688 42.40625 Z M 67.835938 42.40625 "/>
<path style=" stroke:none;fill-rule:evenodd;fill:rgb(88.627451%,19.607843%,21.568627%);fill-opacity:1;" d="M 0 30.71875 L 9.449219 27.347656 L 19.144531 30.660156 L 17.578125 43.15625 L 9.449219 47.652344 L 1.449219 43.210938 Z M 0 30.71875 "/>
<path style=" stroke:none;fill-rule:evenodd;fill:rgb(70.980392%,18.039216%,19.215686%);fill-opacity:1;" d="M 19.144531 30.660156 L 9.449219 27.347656 L 9.449219 47.652344 L 17.578125 43.15625 Z M 19.144531 30.660156 "/>
<path style=" stroke:none;fill-rule:evenodd;fill:rgb(100%,100%,100%);fill-opacity:1;" d="M 9.460938 29.722656 L 3.574219 42.816406 L 5.769531 42.773438 L 6.957031 39.8125 L 12.214844 39.8125 L 13.503906 42.804688 L 15.601562 42.847656 Z M 9.476562 33.925781 L 11.46875 38.085938 L 7.734375 38.085938 Z M 9.476562 33.925781 "/>
</g>
</svg>
