<?xml version="1.0" encoding="UTF-8"?>
<svg xmlns="http://www.w3.org/2000/svg" xmlns:xlink="http://www.w3.org/1999/xlink" width="75px" height="px" viewBox="0 0 75 51" version="1.1">
<g id="surface1">
<path style=" stroke:none;fill-rule:nonzero;fill:rgb(14.509804%,18.431373%,24.313725%);fill-opacity:1;" d="M 21.316406 19.453125 C 21.316406 20.375 21.414062 21.121094 21.585938 21.667969 C 21.785156 22.214844 22.03125 22.8125 22.375 23.460938 C 22.5 23.660156 22.550781 23.859375 22.550781 24.03125 C 22.550781 24.28125 22.402344 24.53125 22.082031 24.777344 L 20.527344 25.824219 C 20.304688 25.972656 20.082031 26.046875 19.886719 26.046875 C 19.636719 26.046875 19.390625 25.921875 19.144531 25.699219 C 18.800781 25.324219 18.503906 24.929688 18.257812 24.53125 C 18.011719 24.105469 17.761719 23.632812 17.492188 23.0625 C 15.566406 25.351562 13.148438 26.496094 10.238281 26.496094 C 8.167969 26.496094 6.511719 25.898438 5.304688 24.703125 C 4.09375 23.507812 3.480469 21.917969 3.480469 19.925781 C 3.480469 17.8125 4.21875 16.097656 5.722656 14.800781 C 7.230469 13.507812 9.226562 12.863281 11.769531 12.863281 C 12.605469 12.863281 13.46875 12.9375 14.382812 13.0625 C 15.296875 13.183594 16.234375 13.382812 17.21875 13.609375 L 17.21875 11.792969 C 17.21875 9.902344 16.824219 8.582031 16.0625 7.8125 C 15.269531 7.039062 13.9375 6.667969 12.039062 6.667969 C 11.175781 6.667969 10.289062 6.765625 9.375 6.992188 C 8.460938 7.214844 7.574219 7.488281 6.710938 7.835938 C 6.316406 8.011719 6.019531 8.109375 5.847656 8.160156 C 5.675781 8.210938 5.550781 8.234375 5.453125 8.234375 C 5.105469 8.234375 4.933594 7.984375 4.933594 7.464844 L 4.933594 6.246094 C 4.933594 5.847656 4.984375 5.546875 5.105469 5.375 C 5.230469 5.199219 5.453125 5.023438 5.796875 4.851562 C 6.660156 4.402344 7.699219 4.03125 8.90625 3.730469 C 10.113281 3.410156 11.398438 3.257812 12.753906 3.257812 C 15.691406 3.257812 17.835938 3.929688 19.21875 5.273438 C 20.574219 6.617188 21.265625 8.65625 21.265625 11.394531 L 21.265625 19.453125 Z M 11.300781 23.234375 C 12.113281 23.234375 12.953125 23.085938 13.839844 22.789062 C 14.730469 22.488281 15.519531 21.941406 16.183594 21.195312 C 16.578125 20.722656 16.875 20.199219 17.023438 19.605469 C 17.171875 19.007812 17.269531 18.285156 17.269531 17.441406 L 17.269531 16.394531 C 16.554688 16.21875 15.789062 16.070312 15 15.972656 C 14.210938 15.871094 13.445312 15.824219 12.679688 15.824219 C 11.027344 15.824219 9.820312 16.144531 9.003906 16.816406 C 8.191406 17.488281 7.796875 18.433594 7.796875 19.679688 C 7.796875 20.847656 8.09375 21.71875 8.707031 22.316406 C 9.300781 22.9375 10.164062 23.234375 11.300781 23.234375 Z M 31.109375 25.921875 C 30.667969 25.921875 30.371094 25.847656 30.171875 25.675781 C 29.976562 25.523438 29.800781 25.175781 29.65625 24.703125 L 23.855469 5.472656 C 23.707031 4.976562 23.636719 4.652344 23.636719 4.476562 C 23.636719 4.078125 23.832031 3.855469 24.226562 3.855469 L 26.644531 3.855469 C 27.113281 3.855469 27.433594 3.929688 27.605469 4.105469 C 27.804688 4.253906 27.953125 4.601562 28.101562 5.074219 L 32.246094 21.542969 L 36.09375 5.074219 C 36.21875 4.578125 36.363281 4.253906 36.5625 4.105469 C 36.761719 3.957031 37.105469 3.855469 37.550781 3.855469 L 39.523438 3.855469 C 39.992188 3.855469 40.3125 3.929688 40.511719 4.105469 C 40.707031 4.253906 40.878906 4.601562 40.980469 5.074219 L 44.875 21.742188 L 49.144531 5.074219 C 49.292969 4.578125 49.464844 4.253906 49.636719 4.105469 C 49.835938 3.957031 50.15625 3.855469 50.601562 3.855469 L 52.894531 3.855469 C 53.289062 3.855469 53.511719 4.054688 53.511719 4.476562 C 53.511719 4.601562 53.488281 4.726562 53.460938 4.875 C 53.4375 5.023438 53.386719 5.222656 53.289062 5.5 L 47.34375 24.730469 C 47.195312 25.226562 47.023438 25.550781 46.824219 25.699219 C 46.628906 25.847656 46.308594 25.949219 45.886719 25.949219 L 43.765625 25.949219 C 43.296875 25.949219 42.976562 25.875 42.78125 25.699219 C 42.582031 25.523438 42.410156 25.203125 42.3125 24.703125 L 38.488281 8.65625 L 34.6875 24.679688 C 34.5625 25.175781 34.417969 25.5 34.21875 25.675781 C 34.019531 25.847656 33.675781 25.921875 33.230469 25.921875 Z M 62.8125 26.59375 C 61.53125 26.59375 60.246094 26.445312 59.011719 26.148438 C 57.78125 25.847656 56.816406 25.523438 56.175781 25.152344 C 55.78125 24.929688 55.511719 24.679688 55.410156 24.457031 C 55.3125 24.230469 55.261719 23.984375 55.261719 23.757812 L 55.261719 22.488281 C 55.261719 21.96875 55.460938 21.71875 55.832031 21.71875 C 55.980469 21.71875 56.125 21.742188 56.273438 21.792969 C 56.421875 21.84375 56.644531 21.941406 56.890625 22.042969 C 57.730469 22.414062 58.644531 22.714844 59.605469 22.914062 C 60.59375 23.113281 61.554688 23.210938 62.542969 23.210938 C 64.09375 23.210938 65.304688 22.9375 66.144531 22.390625 C 66.980469 21.84375 67.425781 21.046875 67.425781 20.027344 C 67.425781 19.332031 67.203125 18.757812 66.761719 18.285156 C 66.316406 17.8125 65.476562 17.390625 64.269531 16.992188 L 60.691406 15.871094 C 58.890625 15.300781 57.558594 14.453125 56.742188 13.335938 C 55.929688 12.238281 55.511719 11.019531 55.511719 9.726562 C 55.511719 8.683594 55.730469 7.761719 56.175781 6.964844 C 56.621094 6.167969 57.210938 5.472656 57.953125 4.925781 C 58.691406 4.355469 59.53125 3.929688 60.519531 3.632812 C 61.503906 3.332031 62.542969 3.210938 63.625 3.210938 C 64.167969 3.210938 64.738281 3.234375 65.28125 3.308594 C 65.847656 3.382812 66.363281 3.484375 66.882812 3.582031 C 67.375 3.707031 67.84375 3.832031 68.289062 3.980469 C 68.734375 4.128906 69.078125 4.277344 69.324219 4.429688 C 69.671875 4.628906 69.917969 4.828125 70.066406 5.050781 C 70.214844 5.25 70.289062 5.523438 70.289062 5.871094 L 70.289062 7.039062 C 70.289062 7.5625 70.089844 7.835938 69.71875 7.835938 C 69.523438 7.835938 69.203125 7.738281 68.78125 7.539062 C 67.375 6.890625 65.796875 6.566406 64.046875 6.566406 C 62.640625 6.566406 61.53125 6.792969 60.765625 7.265625 C 60 7.738281 59.605469 8.457031 59.605469 9.480469 C 59.605469 10.175781 59.851562 10.773438 60.34375 11.246094 C 60.839844 11.71875 61.75 12.191406 63.058594 12.613281 L 66.5625 13.734375 C 68.339844 14.304688 69.621094 15.101562 70.386719 16.121094 C 71.152344 17.140625 71.519531 18.308594 71.519531 19.605469 C 71.519531 20.671875 71.300781 21.644531 70.878906 22.488281 C 70.4375 23.335938 69.84375 24.082031 69.078125 24.679688 C 68.3125 25.300781 67.402344 25.75 66.339844 26.070312 C 65.230469 26.421875 64.070312 26.59375 62.8125 26.59375 Z M 62.8125 26.59375 "/>
<path style=" stroke:none;fill-rule:evenodd;fill:rgb(100%,60%,0%);fill-opacity:1;" d="M 67.476562 38.683594 C 59.359375 44.730469 47.566406 47.941406 37.425781 47.941406 C 23.214844 47.941406 10.410156 42.640625 0.738281 33.835938 C -0.0234375 33.136719 0.667969 32.191406 1.578125 32.738281 C 12.039062 38.859375 24.941406 42.566406 38.289062 42.566406 C 47.292969 42.566406 57.1875 40.675781 66.292969 36.792969 C 67.648438 36.171875 68.808594 37.691406 67.476562 38.683594 Z M 67.476562 38.683594 "/>
<path style=" stroke:none;fill-rule:evenodd;fill:rgb(100%,60%,0%);fill-opacity:1;" d="M 70.855469 34.804688 C 69.820312 33.460938 63.996094 34.15625 61.355469 34.480469 C 60.566406 34.582031 60.445312 33.882812 61.160156 33.363281 C 65.796875 30.078125 73.421875 31.023438 74.308594 32.117188 C 75.199219 33.238281 74.0625 40.925781 69.71875 44.605469 C 69.054688 45.179688 68.414062 44.878906 68.707031 44.132812 C 69.695312 41.671875 71.890625 36.121094 70.855469 34.804688 Z M 70.855469 34.804688 "/>
</g>
</svg>
