<?xml version="1.0" encoding="UTF-8"?>
<svg xmlns="http://www.w3.org/2000/svg" xmlns:xlink="http://www.w3.org/1999/xlink" width="75px" height="px" viewBox="0 0 75 75" version="1.1">
<defs>
<linearGradient id="linear0" gradientUnits="userSpaceOnUse" x1="-702.51" y1="796.7181" x2="-702.2551" y2="796.7181" gradientTransform="matrix(258.03791,-262.545132,-262.545132,-258.03791,390453.149414,21213.999932)">
<stop offset="0" style="stop-color:rgb(2.745098%,0.392157%,20.784314%);stop-opacity:1;"/>
<stop offset="1" style="stop-color:rgb(38.039216%,17.647059%,31.372549%);stop-opacity:1;"/>
</linearGradient>
</defs>
<g id="surface1">
<path style=" stroke:none;fill-rule:nonzero;fill:url(#linear0);" d="M 12.226562 0 L 62.773438 0 C 69.429688 0 74.835938 5.402344 74.835938 12.0625 L 74.835938 62.9375 C 74.835938 69.597656 69.429688 75 62.773438 75 L 12.226562 75 C 5.566406 75 0.164062 69.597656 0.164062 62.9375 L 0.164062 12.0625 C 0.164062 5.402344 5.546875 0 12.226562 0 Z M 12.226562 0 "/>
<path style=" stroke:none;fill-rule:nonzero;fill:rgb(100%,100%,100%);fill-opacity:1;" d="M 38.054688 32.28125 C 39.964844 32.28125 41.402344 31.867188 42.390625 31.027344 C 43.375 30.203125 43.871094 28.972656 43.871094 27.347656 C 43.871094 25.746094 43.375 24.53125 42.390625 23.710938 C 41.40625 22.867188 39.964844 22.4375 38.054688 22.4375 L 31.355469 22.4375 L 31.355469 32.28125 L 38.054688 32.28125 M 38.464844 52.601562 C 40.890625 52.601562 42.71875 52.089844 43.929688 51.082031 C 45.164062 50.074219 45.78125 48.535156 45.78125 46.480469 C 45.78125 44.464844 45.164062 42.964844 43.949219 41.960938 C 42.738281 40.953125 40.910156 40.4375 38.445312 40.4375 L 31.335938 40.4375 L 31.335938 52.601562 L 38.464844 52.601562 M 49.726562 35.898438 C 52.3125 36.636719 54.328125 38.015625 55.765625 40.027344 C 57.183594 42.042969 57.902344 44.507812 57.902344 47.425781 C 57.902344 51.90625 56.382812 55.253906 53.320312 57.453125 C 50.261719 59.652344 45.617188 60.761719 39.367188 60.761719 L 19.273438 60.761719 L 19.273438 14.300781 L 37.4375 14.300781 C 43.953125 14.300781 48.679688 15.265625 51.597656 17.21875 C 54.535156 19.171875 55.992188 22.296875 55.992188 26.589844 C 55.992188 28.847656 55.460938 30.78125 54.390625 32.382812 C 53.320312 33.964844 51.761719 35.136719 49.726562 35.898438 "/>
</g>
</svg>
