<?xml version="1.0" encoding="UTF-8"?>
<svg xmlns="http://www.w3.org/2000/svg" xmlns:xlink="http://www.w3.org/1999/xlink" width="75px" height="px" viewBox="0 0 75 75" version="1.1">
<g id="surface1">
<path style=" stroke:none;fill-rule:nonzero;fill:rgb(12.156863%,44.705882%,70.980392%);fill-opacity:1;" d="M 15.769531 68.980469 L 10.9375 14.730469 L 64.0625 14.730469 L 59.230469 68.960938 L 37.460938 75 Z M 15.769531 68.980469 "/>
<path style=" stroke:none;fill-rule:nonzero;fill:rgb(31.764706%,63.921569%,86.27451%);fill-opacity:1;" d="M 37.5 70.394531 L 55.085938 65.519531 L 59.230469 19.164062 L 37.5 19.164062 Z M 37.5 70.394531 "/>
<path style=" stroke:none;fill-rule:nonzero;fill:rgb(92.156863%,92.156863%,92.156863%);fill-opacity:1;" d="M 20.230469 31.6875 L 19.582031 25.417969 L 55.417969 25.417969 L 55 32.6875 L 39.855469 39.375 L 54.375 39.375 L 52.8125 60 L 38.167969 63.9375 L 22.980469 60.25 L 22.042969 49.792969 L 28.75 49.792969 L 29.125 55.3125 L 37.914062 56.957031 L 46.042969 54.457031 L 46.417969 45.625 L 21.457031 45.625 L 21 39.0625 L 37.5 31.835938 Z M 20.230469 31.6875 "/>
<path style=" stroke:none;fill-rule:nonzero;fill:rgb(80.784314%,80.784314%,80.784314%);fill-opacity:1;" d="M 21 39.0625 L 21.457031 45.625 L 37.5 45.625 L 37.5 31.835938 Z M 21 39.0625 "/>
<path style=" stroke:none;fill-rule:nonzero;fill:rgb(80.784314%,80.784314%,80.784314%);fill-opacity:1;" d="M 29.125 55.3125 L 28.75 49.792969 L 22.042969 49.792969 L 22.980469 60.25 L 37.5 63.769531 L 37.5 56.875 Z M 29.125 55.3125 "/>
<path style=" stroke:none;fill-rule:nonzero;fill:rgb(80.784314%,80.784314%,80.784314%);fill-opacity:1;" d="M 19.582031 25.417969 L 20.230469 31.6875 L 37.5 31.835938 L 37.5 25.417969 Z M 19.582031 25.417969 "/>
<path style=" stroke:none;fill-rule:nonzero;fill:rgb(0%,0%,0%);fill-opacity:1;" d="M 42.5 2.5 L 42.5 0 L 32.5 0 L 32.5 5.832031 L 39.375 5.832031 L 39.375 7.707031 L 32.289062 7.707031 L 32.289062 10 L 42.292969 10 L 42.292969 3.957031 L 35.210938 3.957031 L 35.210938 2.5 Z M 42.5 2.5 "/>
<path style=" stroke:none;fill-rule:nonzero;fill:rgb(0%,0%,0%);fill-opacity:1;" d="M 24.375 5.894531 L 24.375 7.707031 L 31.460938 7.707031 L 31.460938 10 L 21.457031 10 L 21.457031 0 L 31.25 0 L 31.25 2.5 L 24.375 2.5 Z M 24.375 5.894531 "/>
<path style=" stroke:none;fill-rule:nonzero;fill:rgb(0%,0%,0%);fill-opacity:1;" d="M 53.542969 2.5 L 53.542969 0 L 43.539062 0 L 43.539062 5.832031 L 50.417969 5.832031 L 50.417969 7.707031 L 43.332031 7.707031 L 43.332031 10 L 53.332031 10 L 53.332031 3.957031 L 46.25 3.957031 L 46.25 2.5 Z M 53.542969 2.5 "/>
</g>
</svg>
