<?xml version="1.0" encoding="UTF-8"?>
<svg xmlns="http://www.w3.org/2000/svg" xmlns:xlink="http://www.w3.org/1999/xlink" width="75px" height="px" viewBox="0 0 75 75" version="1.1">
<g id="surface1">
<path style=" stroke:none;fill-rule:nonzero;fill:rgb(21.176471%,27.058824%,28.235294%);fill-opacity:1;" d="M 11.320312 57.082031 L 11.320312 52.273438 C 11.320312 51.636719 11.714844 51.144531 12.371094 51.144531 L 12.554688 51.144531 C 13.210938 51.144531 13.601562 51.65625 13.601562 52.273438 L 13.601562 62.382812 C 13.601562 64.847656 12.386719 66.800781 10.273438 68.054688 C 9.289062 68.632812 8.199219 68.9375 7.066406 68.9375 L 6.617188 68.9375 C 4.148438 68.9375 2.199219 67.726562 0.945312 65.609375 C 0.367188 64.625 0.0585938 63.535156 0.0585938 62.40625 L 0.0585938 61.953125 C 0.0585938 59.488281 1.273438 57.535156 3.386719 56.28125 C 4.375 55.703125 5.464844 55.398438 6.59375 55.398438 L 7.046875 55.398438 C 8.710938 55.375 10.132812 56.015625 11.320312 57.082031 Z M 2.320312 62.15625 C 2.320312 63.945312 3.183594 65.28125 4.746094 66.125 C 5.382812 66.472656 6.0625 66.65625 6.78125 66.65625 C 8.527344 66.65625 9.820312 65.835938 10.726562 64.355469 C 11.136719 63.65625 11.34375 62.917969 11.34375 62.117188 C 11.34375 60.574219 10.601562 59.363281 9.367188 58.480469 C 8.609375 57.945312 7.765625 57.65625 6.84375 57.65625 C 4.929688 57.65625 3.574219 58.621094 2.753906 60.328125 C 2.445312 60.902344 2.320312 61.519531 2.320312 62.15625 Z M 21.492188 55.375 L 21.800781 55.375 C 24.433594 55.375 26.445312 56.652344 27.699219 58.953125 C 28.210938 59.878906 28.480469 60.886719 28.480469 61.933594 L 28.480469 62.382812 C 28.480469 64.851562 27.265625 66.804688 25.132812 68.054688 C 24.144531 68.632812 23.054688 68.941406 21.925781 68.941406 L 21.472656 68.941406 C 19.007812 68.941406 17.054688 67.726562 15.800781 65.613281 C 15.226562 64.625 14.917969 63.535156 14.917969 62.40625 L 14.917969 61.953125 C 14.917969 59.488281 16.152344 57.535156 18.246094 56.28125 C 19.253906 55.664062 20.34375 55.375 21.492188 55.375 Z M 17.21875 62.15625 C 17.21875 63.882812 18.0625 65.15625 19.519531 66.039062 C 20.199219 66.453125 20.957031 66.65625 21.761719 66.65625 C 23.464844 66.65625 24.71875 65.796875 25.601562 64.355469 C 26.015625 63.679688 26.21875 62.917969 26.21875 62.117188 C 26.21875 60.515625 25.4375 59.28125 24.121094 58.398438 C 23.402344 57.902344 22.582031 57.65625 21.71875 57.65625 C 19.808594 57.65625 18.453125 58.621094 17.628906 60.328125 C 17.34375 60.902344 17.21875 61.519531 17.21875 62.15625 Z M 37.933594 57.84375 C 37.582031 57.679688 36.945312 57.636719 36.574219 57.617188 C 34.683594 57.554688 33.308594 58.625 32.488281 60.289062 C 32.199219 60.863281 32.074219 61.480469 32.074219 62.117188 C 32.074219 64.070312 33.101562 65.425781 34.828125 66.269531 C 35.46875 66.574219 36.289062 66.636719 36.988281 66.636719 C 37.605469 66.636719 38.46875 66.269531 39 66 L 39.105469 65.960938 L 39.554688 65.960938 C 40.070312 66.0625 40.460938 66.390625 40.460938 66.945312 L 40.460938 67.171875 C 40.460938 68.546875 37.933594 68.875 36.96875 68.9375 C 33.554688 69.164062 31.007812 67.292969 30.042969 64.046875 C 29.878906 63.492188 29.796875 62.914062 29.796875 62.339844 L 29.796875 61.886719 C 29.796875 59.421875 31.03125 57.46875 33.125 56.214844 C 34.109375 55.640625 35.199219 55.332031 36.328125 55.332031 L 36.78125 55.332031 C 37.996094 55.332031 39.105469 55.683594 40.109375 56.359375 L 40.191406 56.421875 L 40.253906 56.503906 C 40.355469 56.6875 40.457031 56.894531 40.457031 57.101562 L 40.457031 57.324219 C 40.457031 57.902344 40.027344 58.207031 39.492188 58.3125 L 39.351562 58.3125 C 39 58.335938 38.238281 57.964844 37.933594 57.84375 Z M 45.308594 59.363281 C 46.191406 58.480469 47.074219 57.597656 47.980469 56.730469 C 48.226562 56.484375 49.171875 55.457031 49.542969 55.457031 L 49.992188 55.457031 C 50.507812 55.558594 50.898438 55.890625 50.898438 56.445312 L 50.898438 56.667969 C 50.898438 57.058594 50.445312 57.492188 50.199219 57.757812 C 49.683594 58.3125 49.132812 58.847656 48.597656 59.378906 L 45.84375 62.175781 C 47.035156 63.367188 48.207031 64.539062 49.378906 65.75 C 49.707031 66.078125 50.035156 66.410156 50.34375 66.738281 C 50.445312 66.859375 50.628906 67.003906 50.710938 67.167969 C 50.8125 67.332031 50.875 67.496094 50.875 67.683594 L 50.875 67.910156 L 50.855469 67.96875 C 50.730469 68.484375 50.402344 68.914062 49.828125 68.914062 L 49.644531 68.914062 C 49.273438 68.914062 48.84375 68.484375 48.574219 68.238281 C 48.042969 67.742188 47.527344 67.210938 47.015625 66.695312 L 45.269531 64.992188 L 45.269531 67.722656 C 45.269531 68.363281 44.875 68.855469 44.21875 68.855469 L 44.078125 68.855469 C 43.417969 68.855469 43.03125 68.339844 43.03125 67.722656 L 43.03125 52.296875 C 43.03125 51.65625 43.421875 51.164062 44.078125 51.164062 L 44.261719 51.164062 C 44.917969 51.164062 45.308594 51.679688 45.308594 52.296875 Z M 73.644531 55.460938 L 73.867188 55.460938 C 74.546875 55.460938 75 55.910156 75 56.589844 C 75 57.535156 74.097656 57.78125 73.316406 57.78125 C 72.289062 57.78125 71.320312 58.398438 70.625 59.097656 C 69.738281 59.960938 69.367188 61.070312 69.367188 62.28125 L 69.367188 67.789062 C 69.367188 68.425781 68.976562 68.917969 68.320312 68.917969 L 68.136719 68.917969 C 67.480469 68.917969 67.089844 68.40625 67.089844 67.789062 L 67.089844 61.972656 C 67.089844 59.734375 68.179688 57.90625 69.988281 56.632812 C 71.074219 55.867188 72.308594 55.460938 73.644531 55.460938 Z M 57.472656 66.367188 C 58.296875 66.65625 59.238281 66.617188 60.082031 66.472656 C 60.515625 66.289062 61.625 65.792969 62.035156 65.875 L 62.097656 65.894531 L 62.15625 65.917969 C 62.402344 66.039062 62.652344 66.203125 62.773438 66.472656 C 63.0625 67.066406 62.9375 67.664062 62.34375 67.992188 L 62.15625 68.09375 C 60 69.347656 57.699219 69.164062 55.5625 68.011719 C 54.535156 67.457031 53.753906 66.636719 53.179688 65.628906 L 53.035156 65.402344 C 51.65625 63 51.84375 60.492188 53.402344 58.210938 C 53.9375 57.429688 54.65625 56.8125 55.480469 56.34375 L 55.789062 56.15625 C 57.820312 54.984375 60 55.070312 62.074219 56.097656 C 63.207031 56.652344 64.109375 57.472656 64.726562 58.5625 L 64.828125 58.765625 C 65.28125 59.546875 64.683594 60.246094 64.089844 60.71875 C 63.390625 61.253906 62.671875 61.910156 61.992188 62.507812 C 60.492188 63.761719 58.992188 65.074219 57.472656 66.367188 Z M 55.519531 64.992188 C 57.203125 63.554688 58.890625 62.097656 60.574219 60.636719 C 61.152344 60.144531 61.789062 59.632812 62.34375 59.097656 C 61.890625 58.519531 61.128906 58.109375 60.472656 57.863281 C 59.15625 57.367188 57.863281 57.535156 56.671875 58.230469 C 55.089844 59.136719 54.433594 60.59375 54.492188 62.382812 C 54.515625 63.101562 54.699219 63.78125 55.089844 64.375 C 55.210938 64.601562 55.375 64.808594 55.519531 64.992188 Z M 55.519531 64.992188 "/>
<path style=" stroke:none;fill-rule:nonzero;fill:rgb(21.176471%,27.058824%,28.235294%);fill-opacity:1;" d="M 43.253906 19.460938 L 49.953125 19.460938 L 49.953125 26.320312 L 53.34375 26.320312 C 54.90625 26.320312 56.527344 26.035156 58.007812 25.539062 C 58.726562 25.292969 59.546875 24.945312 60.269531 24.515625 C 59.324219 23.28125 58.828125 21.71875 58.6875 20.179688 C 58.5 18.082031 58.910156 15.371094 60.328125 13.726562 L 61.027344 12.902344 L 61.871094 13.582031 C 63.988281 15.289062 65.773438 17.648438 66.082031 20.363281 C 68.628906 19.621094 71.609375 19.785156 73.871094 21.082031 L 74.792969 21.617188 L 74.300781 22.5625 C 72.410156 26.261719 68.425781 27.410156 64.5625 27.203125 C 58.746094 41.671875 46.109375 48.511719 30.78125 48.511719 C 22.867188 48.511719 15.597656 45.554688 11.464844 38.527344 L 11.402344 38.402344 L 10.808594 37.171875 C 9.410156 34.066406 8.9375 30.699219 9.265625 27.308594 L 9.367188 26.300781 L 15.101562 26.300781 L 15.101562 19.4375 L 21.800781 19.4375 L 21.800781 12.738281 L 35.21875 12.738281 L 35.21875 6.039062 L 43.253906 6.039062 L 43.253906 19.460938 "/>
<path style=" stroke:none;fill-rule:nonzero;fill:rgb(13.333333%,62.745098%,78.431373%);fill-opacity:1;" d="M 64.992188 21.984375 C 65.445312 18.492188 62.835938 15.738281 61.210938 14.445312 C 59.34375 16.601562 59.054688 22.273438 61.992188 24.65625 C 60.351562 26.117188 56.898438 27.433594 53.382812 27.433594 L 10.375 27.433594 C 10.027344 31.109375 10.683594 34.519531 12.164062 37.417969 L 12.65625 38.320312 C 12.964844 38.855469 13.316406 39.347656 13.664062 39.84375 C 15.429688 39.964844 17.054688 39.984375 18.554688 39.964844 C 21.492188 39.902344 23.875 39.554688 25.6875 38.917969 C 25.953125 38.816406 26.242188 38.960938 26.34375 39.246094 C 26.445312 39.511719 26.304688 39.800781 26.015625 39.902344 C 25.769531 39.984375 25.523438 40.066406 25.253906 40.128906 C 23.835938 40.542969 22.296875 40.808594 20.324219 40.929688 C 20.445312 40.929688 20.199219 40.953125 20.199219 40.953125 C 20.140625 40.953125 20.058594 40.972656 19.976562 40.972656 C 19.195312 41.011719 18.351562 41.035156 17.507812 41.035156 C 16.566406 41.035156 15.640625 41.011719 14.613281 40.972656 L 14.589844 40.992188 C 18.167969 45.019531 23.777344 47.425781 30.785156 47.425781 C 45.640625 47.425781 58.238281 40.828125 63.824219 26.054688 C 67.789062 26.464844 71.589844 25.457031 73.320312 22.070312 C 70.582031 20.464844 67.027344 20.960938 64.992188 21.984375 "/>
<path style=" stroke:none;fill-rule:nonzero;fill:rgb(21.568627%,69.411765%,85.098039%);fill-opacity:1;" d="M 64.992188 21.984375 C 65.445312 18.492188 62.835938 15.738281 61.210938 14.445312 C 59.34375 16.601562 59.054688 22.273438 61.992188 24.65625 C 60.351562 26.117188 56.898438 27.433594 53.382812 27.433594 L 12.925781 27.433594 C 12.738281 33.082031 14.835938 37.355469 18.554688 39.945312 C 21.492188 39.886719 23.875 39.535156 25.6875 38.898438 C 25.953125 38.796875 26.242188 38.941406 26.34375 39.226562 C 26.445312 39.492188 26.304688 39.78125 26.015625 39.886719 C 25.769531 39.96875 25.523438 40.050781 25.253906 40.109375 C 23.835938 40.523438 22.171875 40.828125 20.199219 40.953125 L 20.160156 40.910156 C 25.214844 43.5 32.550781 43.5 40.953125 40.273438 C 50.386719 36.65625 59.140625 29.753906 65.261719 21.863281 C 65.179688 21.902344 65.074219 21.945312 64.992188 21.984375 "/>
<path style=" stroke:none;fill-rule:nonzero;fill:rgb(10.588235%,50.588235%,64.705882%);fill-opacity:1;" d="M 10.460938 31.910156 C 10.726562 33.882812 11.300781 35.734375 12.164062 37.417969 L 12.65625 38.320312 C 12.964844 38.855469 13.316406 39.347656 13.664062 39.84375 C 15.429688 39.964844 17.054688 39.984375 18.554688 39.964844 C 21.492188 39.902344 23.875 39.554688 25.6875 38.917969 C 25.953125 38.816406 26.242188 38.960938 26.34375 39.246094 C 26.445312 39.511719 26.304688 39.800781 26.015625 39.902344 C 25.769531 39.984375 25.523438 40.066406 25.253906 40.128906 C 23.835938 40.542969 22.171875 40.828125 20.199219 40.953125 C 20.140625 40.953125 20.015625 40.953125 19.953125 40.953125 C 19.171875 40.992188 18.351562 41.011719 17.488281 41.011719 C 16.542969 41.011719 15.597656 40.992188 14.570312 40.953125 C 18.148438 44.976562 23.796875 47.402344 30.804688 47.402344 C 43.523438 47.402344 54.597656 42.574219 61.007812 31.910156 L 10.460938 31.910156 "/>
<path style=" stroke:none;fill-rule:nonzero;fill:rgb(11.372549%,56.862745%,70.588235%);fill-opacity:1;" d="M 13.316406 31.910156 C 14.074219 35.386719 15.902344 38.097656 18.554688 39.945312 C 21.492188 39.886719 23.875 39.535156 25.6875 38.898438 C 25.953125 38.796875 26.242188 38.941406 26.34375 39.226562 C 26.445312 39.492188 26.304688 39.78125 26.015625 39.886719 C 25.769531 39.96875 25.523438 40.050781 25.253906 40.109375 C 23.835938 40.523438 22.132812 40.808594 20.160156 40.933594 C 25.214844 43.519531 32.527344 43.480469 40.933594 40.253906 C 46.007812 38.300781 50.917969 35.386719 55.296875 31.890625 L 13.316406 31.890625 "/>
<path style=" stroke:none;fill-rule:nonzero;fill:rgb(13.72549%,63.921569%,76.078431%);fill-opacity:1;" d="M 16.210938 20.566406 L 22.027344 20.566406 L 22.027344 26.382812 L 16.210938 26.382812 Z M 16.683594 21.0625 L 17.136719 21.0625 L 17.136719 25.910156 L 16.683594 25.910156 Z M 17.546875 21.0625 L 18.019531 21.0625 L 18.019531 25.910156 L 17.546875 25.910156 Z M 18.433594 21.0625 L 18.90625 21.0625 L 18.90625 25.910156 L 18.433594 25.910156 Z M 19.316406 21.0625 L 19.789062 21.0625 L 19.789062 25.910156 L 19.316406 25.910156 Z M 20.199219 21.0625 L 20.671875 21.0625 L 20.671875 25.910156 L 20.199219 25.910156 Z M 21.082031 21.0625 L 21.535156 21.0625 L 21.535156 25.910156 L 21.082031 25.910156 Z M 21.082031 21.0625 "/>
<path style=" stroke:none;fill-rule:nonzero;fill:rgb(13.72549%,63.921569%,76.078431%);fill-opacity:1;" d="M 22.910156 13.867188 L 28.726562 13.867188 L 28.726562 19.683594 L 22.910156 19.683594 Z M 23.402344 14.34375 L 23.855469 14.34375 L 23.855469 19.191406 L 23.402344 19.191406 Z M 24.265625 14.34375 L 24.738281 14.34375 L 24.738281 19.191406 L 24.265625 19.191406 Z M 25.152344 14.34375 L 25.625 14.34375 L 25.625 19.191406 L 25.152344 19.191406 Z M 26.035156 14.34375 L 26.507812 14.34375 L 26.507812 19.191406 L 26.035156 19.191406 Z M 26.898438 14.34375 L 27.371094 14.34375 L 27.371094 19.191406 L 26.898438 19.191406 Z M 27.78125 14.34375 L 28.234375 14.34375 L 28.234375 19.191406 L 27.78125 19.191406 Z M 27.78125 14.34375 "/>
<path style=" stroke:none;fill-rule:nonzero;fill:rgb(20.392157%,73.333333%,87.058824%);fill-opacity:1;" d="M 22.910156 20.566406 L 28.726562 20.566406 L 28.726562 26.382812 L 22.910156 26.382812 Z M 23.402344 21.0625 L 23.855469 21.0625 L 23.855469 25.910156 L 23.402344 25.910156 Z M 24.265625 21.0625 L 24.738281 21.0625 L 24.738281 25.910156 L 24.265625 25.910156 Z M 25.152344 21.0625 L 25.625 21.0625 L 25.625 25.910156 L 25.152344 25.910156 Z M 26.035156 21.0625 L 26.507812 21.0625 L 26.507812 25.910156 L 26.035156 25.910156 Z M 26.898438 21.0625 L 27.371094 21.0625 L 27.371094 25.910156 L 26.898438 25.910156 Z M 27.78125 21.0625 L 28.234375 21.0625 L 28.234375 25.910156 L 27.78125 25.910156 Z M 27.78125 21.0625 "/>
<path style=" stroke:none;fill-rule:nonzero;fill:rgb(13.72549%,63.921569%,76.078431%);fill-opacity:1;" d="M 29.632812 20.566406 L 35.445312 20.566406 L 35.445312 26.382812 L 29.632812 26.382812 Z M 30.101562 21.0625 L 30.554688 21.0625 L 30.554688 25.910156 L 30.101562 25.910156 Z M 30.964844 21.0625 L 31.4375 21.0625 L 31.4375 25.910156 L 30.964844 25.910156 Z M 31.847656 21.0625 L 32.320312 21.0625 L 32.320312 25.910156 L 31.847656 25.910156 Z M 32.734375 21.0625 L 33.207031 21.0625 L 33.207031 25.910156 L 32.734375 25.910156 Z M 33.617188 21.0625 L 34.089844 21.0625 L 34.089844 25.910156 L 33.617188 25.910156 Z M 34.5 21.0625 L 34.953125 21.0625 L 34.953125 25.910156 L 34.5 25.910156 Z M 34.5 21.0625 "/>
<path style=" stroke:none;fill-rule:nonzero;fill:rgb(20.392157%,73.333333%,87.058824%);fill-opacity:1;" d="M 29.632812 13.867188 L 35.445312 13.867188 L 35.445312 19.683594 L 29.632812 19.683594 Z M 30.101562 14.34375 L 30.554688 14.34375 L 30.554688 19.191406 L 30.101562 19.191406 Z M 30.964844 14.34375 L 31.4375 14.34375 L 31.4375 19.191406 L 30.964844 19.191406 Z M 31.847656 14.34375 L 32.320312 14.34375 L 32.320312 19.191406 L 31.847656 19.191406 Z M 32.734375 14.34375 L 33.207031 14.34375 L 33.207031 19.191406 L 32.734375 19.191406 Z M 33.617188 14.34375 L 34.089844 14.34375 L 34.089844 19.191406 L 33.617188 19.191406 Z M 34.5 14.34375 L 34.953125 14.34375 L 34.953125 19.191406 L 34.5 19.191406 Z M 34.5 14.34375 "/>
<path style=" stroke:none;fill-rule:nonzero;fill:rgb(20.392157%,73.333333%,87.058824%);fill-opacity:1;" d="M 36.328125 20.566406 L 42.144531 20.566406 L 42.144531 26.382812 L 36.328125 26.382812 Z M 36.820312 21.0625 L 37.273438 21.0625 L 37.273438 25.910156 L 36.820312 25.910156 Z M 37.683594 21.0625 L 38.15625 21.0625 L 38.15625 25.910156 L 37.683594 25.910156 Z M 38.566406 21.0625 L 39.039062 21.0625 L 39.039062 25.910156 L 38.566406 25.910156 Z M 39.433594 21.0625 L 39.90625 21.0625 L 39.90625 25.910156 L 39.433594 25.910156 Z M 40.316406 21.0625 L 40.789062 21.0625 L 40.789062 25.910156 L 40.316406 25.910156 Z M 41.199219 21.0625 L 41.652344 21.0625 L 41.652344 25.910156 L 41.199219 25.910156 Z M 41.199219 21.0625 "/>
<path style=" stroke:none;fill-rule:nonzero;fill:rgb(13.72549%,63.921569%,76.078431%);fill-opacity:1;" d="M 36.328125 13.867188 L 42.144531 13.867188 L 42.144531 19.683594 L 36.328125 19.683594 Z M 36.820312 14.34375 L 37.273438 14.34375 L 37.273438 19.191406 L 36.820312 19.191406 Z M 37.683594 14.34375 L 38.15625 14.34375 L 38.15625 19.191406 L 37.683594 19.191406 Z M 38.566406 14.34375 L 39.039062 14.34375 L 39.039062 19.191406 L 38.566406 19.191406 Z M 39.433594 14.34375 L 39.90625 14.34375 L 39.90625 19.191406 L 39.433594 19.191406 Z M 40.316406 14.34375 L 40.789062 14.34375 L 40.789062 19.191406 L 40.316406 19.191406 Z M 41.199219 14.34375 L 41.652344 14.34375 L 41.652344 19.191406 L 41.199219 19.191406 Z M 41.199219 14.34375 "/>
<path style=" stroke:none;fill-rule:nonzero;fill:rgb(20.392157%,73.333333%,87.058824%);fill-opacity:1;" d="M 36.328125 7.152344 L 42.144531 7.152344 L 42.144531 12.96875 L 36.328125 12.96875 Z M 36.820312 7.644531 L 37.273438 7.644531 L 37.273438 12.492188 L 36.820312 12.492188 Z M 37.683594 7.644531 L 38.15625 7.644531 L 38.15625 12.492188 L 37.683594 12.492188 Z M 38.566406 7.644531 L 39.039062 7.644531 L 39.039062 12.492188 L 38.566406 12.492188 Z M 39.433594 7.644531 L 39.90625 7.644531 L 39.90625 12.492188 L 39.433594 12.492188 Z M 40.316406 7.644531 L 40.789062 7.644531 L 40.789062 12.492188 L 40.316406 12.492188 Z M 41.199219 7.644531 L 41.652344 7.644531 L 41.652344 12.492188 L 41.199219 12.492188 Z M 41.199219 7.644531 "/>
<path style=" stroke:none;fill-rule:nonzero;fill:rgb(13.72549%,63.921569%,76.078431%);fill-opacity:1;" d="M 43.046875 20.566406 L 48.863281 20.566406 L 48.863281 26.382812 L 43.046875 26.382812 Z M 43.519531 21.0625 L 43.972656 21.0625 L 43.972656 25.910156 L 43.519531 25.910156 Z M 44.382812 21.0625 L 44.855469 21.0625 L 44.855469 25.910156 L 44.382812 25.910156 Z M 45.265625 21.0625 L 45.738281 21.0625 L 45.738281 25.910156 L 45.265625 25.910156 Z M 46.152344 21.0625 L 46.625 21.0625 L 46.625 25.910156 L 46.152344 25.910156 Z M 47.035156 21.0625 L 47.507812 21.0625 L 47.507812 25.910156 L 47.035156 25.910156 Z M 47.917969 21.0625 L 48.371094 21.0625 L 48.371094 25.910156 L 47.917969 25.910156 Z M 47.917969 21.0625 "/>
<path style=" stroke:none;fill-rule:nonzero;fill:rgb(82.745098%,92.54902%,92.54902%);fill-opacity:1;" d="M 28.375 35.816406 C 29.261719 35.816406 29.980469 36.535156 29.980469 37.417969 C 29.980469 38.300781 29.261719 39.019531 28.375 39.019531 C 27.492188 39.019531 26.773438 38.300781 26.773438 37.417969 C 26.773438 36.535156 27.472656 35.816406 28.375 35.816406 "/>
<path style=" stroke:none;fill-rule:nonzero;fill:rgb(21.176471%,27.058824%,28.235294%);fill-opacity:1;" d="M 28.375 36.265625 C 28.519531 36.265625 28.664062 36.289062 28.789062 36.347656 C 28.644531 36.429688 28.5625 36.574219 28.5625 36.761719 C 28.5625 37.027344 28.769531 37.234375 29.035156 37.234375 C 29.21875 37.234375 29.363281 37.132812 29.449219 36.988281 C 29.507812 37.132812 29.53125 37.273438 29.53125 37.417969 C 29.53125 38.054688 29.015625 38.570312 28.378906 38.570312 C 27.742188 38.570312 27.226562 38.054688 27.226562 37.417969 C 27.226562 36.78125 27.738281 36.265625 28.375 36.265625 "/>
<path style=" stroke:none;fill-rule:nonzero;fill:rgb(21.176471%,27.058824%,28.235294%);fill-opacity:1;" d="M 0 32.484375 L 74.609375 32.484375 C 72.984375 32.074219 69.472656 31.519531 70.046875 29.382812 C 67.089844 32.792969 59.980469 31.785156 58.171875 30.101562 C 56.175781 33 44.507812 31.910156 43.703125 29.648438 C 41.199219 32.589844 33.410156 32.589844 30.902344 29.648438 C 30.082031 31.910156 18.429688 33.019531 16.4375 30.101562 C 14.652344 31.785156 7.519531 32.816406 4.5625 29.382812 C 5.136719 31.519531 1.625 32.074219 0 32.484375 "/>
<path style=" stroke:none;fill-rule:nonzero;fill:rgb(74.117647%,85.098039%,84.313725%);fill-opacity:1;" d="M 32.632812 47.363281 C 28.664062 45.472656 26.488281 42.925781 25.273438 40.109375 C 23.796875 40.519531 22.027344 40.808594 19.972656 40.910156 C 19.191406 40.953125 18.371094 40.972656 17.527344 40.972656 C 16.542969 40.972656 15.492188 40.953125 14.40625 40.890625 C 18.042969 44.527344 22.523438 47.34375 30.824219 47.382812 C 31.417969 47.402344 32.035156 47.382812 32.632812 47.363281 "/>
<path style=" stroke:none;fill-rule:nonzero;fill:rgb(82.745098%,92.54902%,92.54902%);fill-opacity:1;" d="M 26.734375 42.699219 C 26.179688 41.957031 25.644531 41.015625 25.253906 40.109375 C 23.773438 40.542969 22.007812 40.808594 19.953125 40.910156 C 21.371094 41.691406 23.402344 42.410156 26.734375 42.699219 "/>
</g>
</svg>
