<?xml version="1.0" encoding="UTF-8"?>
<svg xmlns="http://www.w3.org/2000/svg" xmlns:xlink="http://www.w3.org/1999/xlink" width="75px" height="px" viewBox="0 0 75 75" version="1.1">
<g id="surface1">
<path style=" stroke:none;fill-rule:nonzero;fill:rgb(100%,17.647059%,12.54902%);fill-opacity:1;" d="M 73.886719 16.960938 C 73.914062 17.066406 73.929688 17.167969 73.929688 17.269531 L 73.929688 33.367188 C 73.929688 33.792969 73.710938 34.175781 73.34375 34.394531 L 59.839844 42.171875 L 59.839844 57.597656 C 59.839844 58.023438 59.617188 58.402344 59.253906 58.625 L 31.039062 74.839844 C 30.980469 74.882812 30.90625 74.898438 30.835938 74.925781 C 30.804688 74.941406 30.777344 74.957031 30.761719 74.957031 C 30.570312 75.015625 30.351562 75.015625 30.160156 74.957031 C 30.132812 74.941406 30.101562 74.925781 30.074219 74.914062 C 30.015625 74.882812 29.941406 74.867188 29.882812 74.839844 L 1.671875 58.609375 C 1.304688 58.402344 1.085938 58.007812 1.085938 57.582031 L 1.085938 9.289062 C 1.085938 9.183594 1.097656 9.082031 1.128906 8.980469 C 1.140625 8.949219 1.15625 8.921875 1.171875 8.875 C 1.203125 8.820312 1.214844 8.746094 1.246094 8.699219 C 1.257812 8.65625 1.304688 8.628906 1.332031 8.597656 C 1.363281 8.554688 1.390625 8.496094 1.433594 8.464844 C 1.464844 8.4375 1.507812 8.40625 1.554688 8.378906 C 1.597656 8.347656 1.640625 8.304688 1.683594 8.277344 L 15.789062 0.160156 C 16.15625 -0.0429688 16.597656 -0.0429688 16.960938 0.160156 L 31.070312 8.277344 C 31.113281 8.304688 31.15625 8.347656 31.203125 8.378906 C 31.246094 8.40625 31.289062 8.4375 31.320312 8.464844 C 31.363281 8.511719 31.390625 8.554688 31.421875 8.597656 C 31.449219 8.628906 31.480469 8.671875 31.492188 8.699219 C 31.523438 8.757812 31.554688 8.816406 31.566406 8.875 C 31.582031 8.90625 31.597656 8.933594 31.609375 8.980469 C 31.640625 9.082031 31.65625 9.183594 31.65625 9.289062 L 31.65625 39.449219 L 43.402344 32.679688 L 43.402344 17.269531 C 43.402344 17.167969 43.417969 17.066406 43.445312 16.960938 C 43.460938 16.933594 43.476562 16.890625 43.492188 16.859375 C 43.519531 16.800781 43.535156 16.726562 43.566406 16.683594 C 43.578125 16.640625 43.625 16.609375 43.636719 16.582031 C 43.667969 16.539062 43.695312 16.480469 43.742188 16.449219 C 43.769531 16.421875 43.8125 16.390625 43.859375 16.363281 C 43.902344 16.332031 43.945312 16.289062 43.988281 16.257812 L 58.09375 8.144531 C 58.460938 7.9375 58.902344 7.9375 59.265625 8.144531 L 73.375 16.257812 C 73.417969 16.289062 73.460938 16.332031 73.507812 16.363281 C 73.550781 16.390625 73.578125 16.421875 73.625 16.449219 C 73.667969 16.492188 73.695312 16.539062 73.726562 16.582031 C 73.753906 16.609375 73.785156 16.65625 73.796875 16.683594 C 73.828125 16.742188 73.859375 16.800781 73.871094 16.859375 C 73.859375 16.90625 73.871094 16.933594 73.886719 16.960938 Z M 71.570312 32.695312 L 71.570312 19.304688 L 66.636719 22.148438 L 59.824219 26.074219 L 59.824219 39.460938 Z M 57.480469 56.910156 L 57.480469 43.519531 L 50.769531 47.34375 L 31.625 58.273438 L 31.625 71.792969 Z M 3.429688 11.324219 L 3.429688 56.910156 L 29.28125 71.792969 L 29.28125 58.273438 L 15.777344 50.625 C 15.734375 50.597656 15.6875 50.566406 15.644531 50.523438 C 15.601562 50.492188 15.570312 50.464844 15.527344 50.433594 C 15.484375 50.390625 15.46875 50.347656 15.425781 50.316406 C 15.394531 50.273438 15.367188 50.242188 15.335938 50.199219 C 15.308594 50.15625 15.292969 50.097656 15.277344 50.054688 C 15.265625 50.007812 15.234375 49.964844 15.21875 49.921875 C 15.203125 49.863281 15.203125 49.804688 15.191406 49.746094 C 15.191406 49.703125 15.175781 49.65625 15.175781 49.613281 L 15.175781 18.089844 L 8.363281 14.164062 Z M 16.347656 2.535156 L 4.601562 9.289062 L 16.347656 16.054688 L 28.09375 9.285156 Z M 22.457031 44.734375 L 29.265625 40.808594 L 29.265625 11.324219 L 24.332031 14.164062 L 17.519531 18.089844 L 17.519531 47.578125 Z M 58.652344 10.515625 L 46.90625 17.285156 L 58.652344 24.054688 L 70.398438 17.285156 Z M 57.480469 26.074219 L 50.667969 22.148438 L 45.734375 19.304688 L 45.734375 32.695312 L 52.542969 36.621094 L 57.480469 39.460938 Z M 30.453125 56.234375 L 56.292969 41.46875 L 44.5625 34.714844 L 31.039062 42.496094 L 18.722656 49.585938 Z M 30.453125 56.234375 "/>
</g>
</svg>
