<?xml version="1.0" encoding="UTF-8"?>
<svg xmlns="http://www.w3.org/2000/svg" xmlns:xlink="http://www.w3.org/1999/xlink" width="75px" height="px" viewBox="0 0 75 75" version="1.1">
<g id="surface1">
<path style=" stroke:none;fill-rule:nonzero;fill:rgb(0%,16.862745%,39.215686%);fill-opacity:1;" d="M 73.359375 12.597656 C 72.203125 12.640625 72.570312 12.964844 70.0625 13.578125 C 67.53125 14.195312 64.4375 14.003906 61.730469 15.148438 C 53.597656 18.558594 51.972656 30.203125 44.574219 34.378906 C 39.054688 37.5 33.472656 37.75 28.460938 39.316406 C 25.167969 40.34375 21.5625 42.464844 18.589844 45.042969 C 16.273438 47.035156 16.214844 48.792969 13.800781 51.300781 C 11.207031 53.980469 3.515625 51.34375 0.03125 55.445312 C 1.15625 56.585938 1.640625 56.894531 3.867188 56.601562 C 3.414062 57.464844 0.703125 58.199219 1.230469 59.488281 C 1.789062 60.835938 8.320312 61.742188 14.269531 58.15625 C 17.035156 56.484375 19.234375 54.082031 23.554688 53.496094 C 29.136719 52.75 35.550781 53.980469 42.011719 54.902344 C 41.058594 57.757812 39.125 59.648438 37.589844 61.933594 C 37.105469 62.445312 38.539062 62.503906 40.179688 62.195312 C 43.125 61.464844 45.25 60.878906 47.460938 59.589844 C 50.1875 58.007812 50.609375 53.921875 53.949219 53.042969 C 55.8125 55.914062 60.894531 56.585938 64.042969 54.289062 C 61.273438 53.511719 60.511719 47.621094 61.449219 45.03125 C 62.328125 42.582031 63.207031 38.65625 64.101562 35.40625 C 65.054688 31.917969 65.40625 27.539062 66.5625 25.765625 C 68.304688 23.101562 70.226562 22.179688 71.894531 20.683594 C 73.5625 19.175781 75.085938 17.710938 75.042969 14.269531 C 74.984375 13.183594 74.414062 12.570312 73.359375 12.597656 Z M 73.359375 12.597656 "/>
<path style=" stroke:none;fill-rule:nonzero;fill:rgb(76.862745%,60.392157%,42.352941%);fill-opacity:1;" d="M 70.867188 14.632812 C 71.148438 15.585938 71.585938 16.011719 73.460938 16.1875 C 73.183594 18.574219 71.601562 19.878906 69.8125 21.125 C 68.246094 22.222656 66.53125 23.277344 65.421875 25.003906 C 64.292969 26.761719 63.574219 32.78125 61.816406 38.730469 C 60.308594 43.871094 58.007812 48.953125 54.023438 51.179688 C 53.597656 50.125 54.082031 48.195312 53.246094 47.546875 C 52.703125 49.085938 52.105469 50.535156 51.386719 51.898438 C 49.042969 56.382812 45.570312 59.734375 39.769531 60.761719 C 42.523438 57.039062 45.160156 53.1875 45.21875 46.773438 C 43.285156 47.195312 43.328125 51.765625 41.335938 52.996094 C 40.0625 53.128906 38.773438 53.128906 37.46875 53.054688 C 32.125 52.734375 26.644531 51.121094 21.648438 52.734375 C 18.25 53.832031 15.46875 56.410156 12.582031 57.65625 C 9.199219 59.121094 6.636719 59.734375 2.417969 59.121094 C 1.875 58.402344 5.507812 57.464844 5.289062 55.898438 C 3.632812 55.722656 2.679688 56.117188 1.246094 55.457031 C 1.40625 55.164062 1.640625 54.917969 1.933594 54.726562 C 4.570312 52.910156 12.039062 54.300781 14.03125 52.339844 C 15.261719 51.121094 16.082031 49.863281 16.917969 48.632812 C 17.722656 47.429688 18.574219 46.273438 19.847656 45.234375 C 20.316406 44.851562 20.828125 44.472656 21.386719 44.089844 C 23.570312 42.597656 26.265625 41.25 28.929688 40.3125 C 32.546875 39.039062 36.210938 38.933594 40.078125 37.457031 C 42.464844 36.546875 45.058594 35.417969 47.167969 33.851562 C 47.664062 33.472656 48.148438 33.074219 48.589844 32.652344 C 54.625 26.777344 55.808594 16.40625 65.230469 15.4375 C 66.371094 15.320312 67.296875 15.367188 68.144531 15.335938 C 69.066406 15.277344 69.929688 15.175781 70.867188 14.632812 Z M 59.398438 47.828125 C 59.515625 49.628906 60.554688 53.1875 61.480469 54.054688 C 59.679688 54.492188 56.570312 53.757812 55.765625 52.5 C 56.175781 50.667969 58.316406 48.984375 59.398438 47.828125 Z M 59.398438 47.828125 "/>
<path style=" stroke:none;fill-rule:nonzero;fill:rgb(0%,16.862745%,39.215686%);fill-opacity:1;" d="M 71.542969 16.65625 C 71.175781 17.417969 70.488281 18.398438 70.488281 20.332031 C 70.488281 20.667969 70.238281 20.890625 70.226562 20.375 C 70.238281 18.488281 70.738281 17.667969 71.28125 16.597656 C 71.527344 16.15625 71.6875 16.332031 71.542969 16.65625 Z M 71.175781 16.363281 C 70.75 17.09375 69.710938 18.414062 69.550781 20.347656 C 69.523438 20.683594 69.242188 20.890625 69.285156 20.375 C 69.476562 18.484375 70.296875 17.3125 70.925781 16.289062 C 71.207031 15.863281 71.351562 16.054688 71.175781 16.363281 Z M 70.855469 15.980469 C 70.371094 16.671875 68.773438 18.25 68.453125 20.171875 C 68.394531 20.492188 68.101562 20.683594 68.1875 20.171875 C 68.523438 18.308594 69.902344 16.84375 70.605469 15.878906 C 70.929688 15.484375 71.03125 15.6875 70.855469 15.980469 Z M 70.546875 15.554688 L 70.386719 15.734375 C 69.683594 16.492188 68.027344 18.339844 67.484375 20.039062 C 67.382812 20.359375 67.074219 20.492188 67.222656 20.011719 C 67.820312 18.207031 69.476562 16.289062 70.3125 15.425781 C 70.695312 15.074219 70.78125 15.292969 70.546875 15.554688 Z M 62.035156 19.410156 C 62.402344 17.828125 63.632812 17.109375 65.742188 17.285156 C 66.269531 19.644531 63.414062 20.582031 62.035156 19.410156 Z M 62.035156 19.410156 "/>
</g>
</svg>
