<?xml version="1.0" encoding="UTF-8"?>
<svg xmlns="http://www.w3.org/2000/svg" xmlns:xlink="http://www.w3.org/1999/xlink" width="75px" height="px" viewBox="0 0 75 51" version="1.1">
<defs>
<clipPath id="clip1">
  <path d="M 19 12 L 36 12 L 36 32 L 19 32 Z M 19 12 "/>
</clipPath>
<clipPath id="clip2">
  <path d="M 27.246094 13.074219 L 20.097656 17.230469 C 19.832031 17.394531 19.671875 17.660156 19.671875 17.984375 L 19.671875 26.296875 C 19.671875 26.605469 19.832031 26.898438 20.097656 27.03125 L 27.246094 31.191406 C 27.507812 31.335938 27.847656 31.335938 28.109375 31.191406 L 35.257812 27.03125 C 35.523438 26.871094 35.683594 26.589844 35.683594 26.296875 L 35.683594 17.984375 C 35.683594 17.671875 35.523438 17.378906 35.257812 17.230469 L 28.109375 13.074219 C 27.964844 12.984375 27.816406 12.957031 27.683594 12.957031 C 27.554688 12.957031 27.378906 12.984375 27.246094 13.074219 "/>
</clipPath>
<linearGradient id="linear0" gradientUnits="userSpaceOnUse" x1="-42.1735" y1="63.4922" x2="-41.3048" y2="63.4922" gradientTransform="matrix(-11.888965,24.404812,-24.253403,-11.963185,1071.338511,1800.344013)">
<stop offset="0" style="stop-color:rgb(24.313725%,52.54902%,23.921569%);stop-opacity:1;"/>
<stop offset="0.3" style="stop-color:rgb(24.313725%,52.54902%,23.921569%);stop-opacity:1;"/>
<stop offset="0.5" style="stop-color:rgb(33.333333%,57.647059%,30.980392%);stop-opacity:1;"/>
<stop offset="0.8" style="stop-color:rgb(35.294118%,67.843137%,27.058824%);stop-opacity:1;"/>
<stop offset="1" style="stop-color:rgb(35.294118%,67.843137%,27.058824%);stop-opacity:1;"/>
</linearGradient>
<clipPath id="clip3">
  <path d="M 19 12 L 36 12 L 36 32 L 19 32 Z M 19 12 "/>
</clipPath>
<clipPath id="clip4">
  <path d="M 19.835938 26.796875 C 19.890625 26.886719 19.980469 26.960938 20.082031 27.019531 L 26.207031 30.570312 L 27.230469 31.175781 C 27.378906 31.261719 27.570312 31.292969 27.730469 31.277344 C 27.789062 31.277344 27.847656 31.261719 27.890625 31.234375 L 35.433594 17.363281 C 35.375 17.304688 35.316406 17.246094 35.230469 17.203125 L 30.542969 14.488281 L 28.082031 13.058594 C 28.023438 13.015625 27.933594 13 27.859375 12.972656 Z M 19.835938 26.796875 "/>
</clipPath>
<linearGradient id="linear1" gradientUnits="userSpaceOnUse" x1="-43.3729" y1="64.8085" x2="-42.5046" y2="64.8085" gradientTransform="matrix(21.651709,-16.097914,15.998042,21.786876,-79.465459,-2081.064257)">
<stop offset="0" style="stop-color:rgb(24.313725%,52.54902%,23.921569%);stop-opacity:1;"/>
<stop offset="0.57" style="stop-color:rgb(24.313725%,52.54902%,23.921569%);stop-opacity:1;"/>
<stop offset="0.72" style="stop-color:rgb(38.039216%,59.607843%,34.117647%);stop-opacity:1;"/>
<stop offset="1" style="stop-color:rgb(46.27451%,67.45098%,39.215686%);stop-opacity:1;"/>
</linearGradient>
<clipPath id="clip5">
  <path d="M 20 12 L 36 12 L 36 32 L 20 32 Z M 20 12 "/>
</clipPath>
<clipPath id="clip6">
  <path d="M 27.597656 12.941406 C 27.480469 12.957031 27.347656 12.984375 27.246094 13.042969 L 20.113281 17.1875 L 27.804688 31.277344 C 27.90625 31.261719 28.007812 31.234375 28.109375 31.175781 L 35.257812 27.019531 C 35.476562 26.898438 35.625 26.664062 35.667969 26.414062 L 27.832031 12.972656 C 27.773438 12.957031 27.714844 12.957031 27.671875 12.957031 C 27.625 12.941406 27.613281 12.941406 27.597656 12.941406 "/>
</clipPath>
<linearGradient id="linear2" gradientUnits="userSpaceOnUse" x1="-42.7474" y1="65.3663" x2="-41.8797" y2="65.3663" gradientTransform="matrix(17.906807,0,0,18.018595,785.600068,-1155.701286)">
<stop offset="0" style="stop-color:rgb(41.960784%,74.901961%,27.843137%);stop-opacity:1;"/>
<stop offset="0.16" style="stop-color:rgb(41.960784%,74.901961%,27.843137%);stop-opacity:1;"/>
<stop offset="0.38" style="stop-color:rgb(47.45098%,70.588235%,38.039216%);stop-opacity:1;"/>
<stop offset="0.47" style="stop-color:rgb(45.882353%,67.45098%,39.215686%);stop-opacity:1;"/>
<stop offset="0.7" style="stop-color:rgb(39.607843%,61.960784%,35.294118%);stop-opacity:1;"/>
<stop offset="0.9" style="stop-color:rgb(24.313725%,52.54902%,23.921569%);stop-opacity:1;"/>
<stop offset="1" style="stop-color:rgb(24.313725%,52.54902%,23.921569%);stop-opacity:1;"/>
</linearGradient>
</defs>
<g id="surface1">
<path style=" stroke:none;fill-rule:nonzero;fill:rgb(40.784314%,62.352941%,38.823529%);fill-opacity:1;" d="M 37.0625 48.625 C 36.8125 48.625 36.5625 48.566406 36.34375 48.433594 L 34.085938 47.09375 C 33.75 46.902344 33.925781 46.84375 34.027344 46.800781 C 34.484375 46.636719 34.554688 46.609375 35.054688 46.328125 C 35.097656 46.3125 35.171875 46.3125 35.214844 46.34375 L 36.957031 47.375 C 37.015625 47.417969 37.105469 47.417969 37.164062 47.375 L 43.945312 43.4375 C 44.003906 43.394531 44.046875 43.335938 44.046875 43.246094 L 44.046875 35.390625 C 44.046875 35.300781 44.003906 35.242188 43.945312 35.199219 L 37.179688 31.261719 C 37.117188 31.21875 37.03125 31.21875 36.972656 31.261719 L 30.21875 35.226562 C 30.160156 35.273438 30.117188 35.332031 30.117188 35.421875 L 30.117188 43.277344 C 30.117188 43.363281 30.160156 43.421875 30.21875 43.46875 L 32.066406 44.542969 C 33.078125 45.058594 33.691406 44.457031 33.691406 43.867188 L 33.691406 36.070312 C 33.691406 35.964844 33.78125 35.875 33.898438 35.875 L 34.761719 35.875 C 34.863281 35.875 34.953125 35.964844 34.953125 36.070312 L 34.953125 43.851562 C 34.953125 45.191406 34.203125 45.988281 32.929688 45.988281 C 32.535156 45.988281 32.226562 45.988281 31.363281 45.546875 L 29.589844 44.515625 C 29.164062 44.265625 28.871094 43.792969 28.871094 43.277344 L 28.871094 35.421875 C 28.871094 34.902344 29.136719 34.433594 29.589844 34.183594 L 36.371094 30.246094 C 36.796875 29.996094 37.382812 29.996094 37.792969 30.246094 L 44.574219 34.183594 C 45.015625 34.433594 45.292969 34.902344 45.292969 35.421875 L 45.292969 43.277344 C 45.292969 43.792969 45.03125 44.265625 44.574219 44.515625 L 37.792969 48.449219 C 37.558594 48.539062 37.308594 48.625 37.0625 48.625 "/>
<path style=" stroke:none;fill-rule:nonzero;fill:rgb(40.784314%,62.352941%,38.823529%);fill-opacity:1;" d="M 39.171875 43.203125 C 36.210938 43.203125 35.59375 41.832031 35.59375 40.683594 C 35.59375 40.578125 35.683594 40.492188 35.800781 40.492188 L 36.679688 40.492188 C 36.78125 40.492188 36.871094 40.550781 36.871094 40.652344 C 36.988281 41.535156 37.398438 41.992188 39.199219 41.992188 C 40.621094 41.992188 41.234375 41.65625 41.234375 40.902344 C 41.234375 40.460938 41.074219 40.136719 38.847656 39.914062 C 37 39.722656 35.84375 39.3125 35.84375 37.824219 C 35.84375 36.4375 37 35.625 38.933594 35.625 C 41.117188 35.625 42.1875 36.394531 42.304688 38 C 42.304688 38.058594 42.289062 38.101562 42.246094 38.148438 C 42.203125 38.191406 42.15625 38.207031 42.101562 38.207031 L 41.21875 38.207031 C 41.132812 38.207031 41.058594 38.148438 41.03125 38.058594 C 40.824219 37.101562 40.3125 36.820312 38.90625 36.820312 C 37.339844 36.820312 37.164062 37.351562 37.164062 37.777344 C 37.164062 38.28125 37.367188 38.425781 39.492188 38.707031 C 41.570312 38.972656 42.554688 39.371094 42.554688 40.859375 C 42.539062 42.363281 41.292969 43.203125 39.171875 43.203125 M 47.402344 34.875 L 47.621094 34.875 C 47.8125 34.875 47.84375 34.757812 47.84375 34.667969 C 47.84375 34.460938 47.695312 34.460938 47.636719 34.460938 L 47.417969 34.460938 Z M 47.109375 34.210938 L 47.621094 34.210938 C 47.785156 34.210938 48.132812 34.210938 48.132812 34.609375 C 48.132812 34.875 47.972656 34.949219 47.871094 34.964844 C 48.078125 34.976562 48.078125 35.109375 48.121094 35.289062 C 48.132812 35.40625 48.164062 35.613281 48.207031 35.683594 L 47.898438 35.683594 C 47.898438 35.625 47.84375 35.242188 47.84375 35.226562 C 47.828125 35.140625 47.796875 35.109375 47.695312 35.109375 L 47.445312 35.109375 L 47.445312 35.714844 L 47.152344 35.714844 L 47.152344 34.226562 Z M 46.523438 34.949219 C 46.523438 35.566406 47.023438 36.039062 47.609375 36.039062 C 48.222656 36.039062 48.691406 35.539062 48.691406 34.949219 C 48.691406 34.328125 48.195312 33.859375 47.609375 33.859375 C 47.007812 33.859375 46.523438 34.328125 46.523438 34.949219 M 48.925781 34.949219 C 48.925781 35.671875 48.324219 36.273438 47.609375 36.273438 C 46.890625 36.273438 46.289062 35.699219 46.289062 34.949219 C 46.289062 34.210938 46.90625 33.621094 47.609375 33.621094 C 48.3125 33.652344 48.925781 34.210938 48.925781 34.949219 "/>
<path style=" stroke:none;fill-rule:nonzero;fill:rgb(25.098039%,25.490196%,21.568627%);fill-opacity:1;" d="M 16.085938 17.820312 C 16.085938 17.511719 15.921875 17.214844 15.660156 17.054688 L 8.480469 12.898438 C 8.363281 12.839844 8.21875 12.792969 8.085938 12.78125 L 7.996094 12.78125 C 7.851562 12.78125 7.734375 12.824219 7.601562 12.898438 L 0.4375 17.070312 C 0.175781 17.230469 0 17.527344 0 17.835938 L 0.015625 29.039062 C 0.015625 29.199219 0.101562 29.347656 0.21875 29.40625 C 0.335938 29.496094 0.527344 29.496094 0.660156 29.40625 L 4.90625 26.945312 C 5.171875 26.78125 5.347656 26.488281 5.347656 26.179688 L 5.347656 20.945312 C 5.347656 20.636719 5.507812 20.339844 5.785156 20.179688 L 7.585938 19.117188 C 7.734375 19.027344 7.882812 19 8.027344 19 C 8.171875 19 8.335938 19.042969 8.46875 19.117188 L 10.269531 20.179688 C 10.53125 20.339844 10.695312 20.605469 10.695312 20.945312 L 10.695312 26.179688 C 10.695312 26.488281 10.855469 26.78125 11.117188 26.945312 L 15.394531 29.40625 C 15.542969 29.496094 15.703125 29.496094 15.820312 29.40625 C 15.9375 29.316406 16.027344 29.183594 16.027344 29.039062 Z M 49.964844 23.65625 C 49.964844 23.746094 49.921875 23.804688 49.863281 23.847656 L 47.402344 25.277344 C 47.34375 25.324219 47.257812 25.324219 47.183594 25.277344 L 44.722656 23.847656 C 44.664062 23.804688 44.617188 23.746094 44.617188 23.65625 L 44.617188 20.785156 C 44.617188 20.695312 44.664062 20.636719 44.722656 20.589844 L 47.183594 19.160156 C 47.242188 19.117188 47.328125 19.117188 47.402344 19.160156 L 49.863281 20.589844 C 49.921875 20.636719 49.964844 20.695312 49.964844 20.785156 Z M 50.65625 2.445312 C 50.507812 2.359375 50.347656 2.359375 50.214844 2.445312 C 50.082031 2.535156 50.011719 2.667969 50.011719 2.816406 L 50.011719 13.914062 C 50.011719 14.019531 49.953125 14.121094 49.863281 14.179688 C 49.761719 14.238281 49.660156 14.238281 49.554688 14.179688 L 47.753906 13.148438 C 47.492188 12.984375 47.152344 12.984375 46.890625 13.148438 L 39.695312 17.335938 C 39.433594 17.496094 39.257812 17.761719 39.257812 18.085938 L 39.257812 26.441406 C 39.257812 26.753906 39.417969 27.046875 39.695312 27.210938 L 46.890625 31.382812 C 47.152344 31.542969 47.492188 31.542969 47.753906 31.382812 L 54.945312 27.210938 C 55.210938 27.046875 55.386719 26.769531 55.386719 26.441406 L 55.386719 5.601562 C 55.386719 5.292969 55.226562 4.996094 54.929688 4.835938 Z M 74.574219 20.722656 C 74.839844 20.5625 75 20.296875 75 19.972656 L 75 17.9375 C 75 17.628906 74.839844 17.335938 74.5625 17.171875 L 67.425781 13 C 67.164062 12.839844 66.828125 12.839844 66.5625 13 L 59.371094 17.171875 C 59.105469 17.335938 58.929688 17.597656 58.929688 17.9375 L 58.929688 26.28125 C 58.929688 26.589844 59.09375 26.886719 59.371094 27.046875 L 66.503906 31.144531 C 66.765625 31.292969 67.074219 31.292969 67.351562 31.144531 L 71.675781 28.726562 C 71.820312 28.640625 71.894531 28.507812 71.894531 28.359375 C 71.894531 28.199219 71.804688 28.050781 71.675781 27.992188 L 64.4375 23.820312 C 64.292969 23.730469 64.21875 23.597656 64.21875 23.449219 L 64.21875 20.828125 C 64.21875 20.664062 64.308594 20.519531 64.4375 20.457031 L 66.679688 19.160156 C 66.828125 19.074219 66.988281 19.074219 67.117188 19.160156 L 69.359375 20.457031 C 69.507812 20.546875 69.582031 20.679688 69.582031 20.828125 L 69.582031 22.890625 C 69.582031 23.054688 69.667969 23.199219 69.800781 23.257812 C 69.945312 23.347656 70.109375 23.347656 70.238281 23.257812 Z M 74.574219 20.722656 "/>
<path style=" stroke:none;fill-rule:nonzero;fill:rgb(40.784314%,62.352941%,38.823529%);fill-opacity:1;" d="M 66.882812 20.328125 C 66.929688 20.3125 67 20.3125 67.046875 20.328125 L 68.421875 21.136719 C 68.480469 21.152344 68.511719 21.226562 68.511719 21.285156 L 68.511719 22.875 C 68.511719 22.933594 68.46875 22.996094 68.421875 23.023438 L 67.046875 23.835938 C 66.988281 23.847656 66.929688 23.847656 66.882812 23.835938 L 65.507812 23.023438 C 65.449219 23.007812 65.421875 22.933594 65.421875 22.875 L 65.421875 21.285156 C 65.421875 21.226562 65.433594 21.167969 65.507812 21.136719 Z M 66.882812 20.328125 "/>
<g clip-path="url(#clip1)" clip-rule="nonzero">
<g clip-path="url(#clip2)" clip-rule="nonzero">
<path style=" stroke:none;fill-rule:nonzero;fill:url(#linear0);" d="M 42.90625 16.507812 L 22.765625 6.574219 L 12.4375 27.769531 L 32.578125 37.703125 Z M 42.90625 16.507812 "/>
</g>
</g>
<g clip-path="url(#clip3)" clip-rule="nonzero">
<g clip-path="url(#clip4)" clip-rule="nonzero">
<path style=" stroke:none;fill-rule:nonzero;fill:url(#linear1);" d="M 11.148438 19.441406 L 25.355469 38.796875 L 44.148438 24.835938 L 29.925781 5.453125 Z M 11.148438 19.441406 "/>
</g>
</g>
<g clip-path="url(#clip5)" clip-rule="nonzero">
<g clip-path="url(#clip6)" clip-rule="nonzero">
<path style=" stroke:none;fill-rule:nonzero;fill:url(#linear2);" d="M 20.125 12.941406 L 35.667969 12.941406 L 35.667969 31.261719 L 20.125 31.261719 Z M 20.125 12.941406 "/>
</g>
</g>
</g>
</svg>
