<svg xmlns="http://www.w3.org/2000/svg" width="54.482" height="51.742" viewBox="0 0 54.482 51.742"><defs><style>.a{fill:#fff;}</style></defs><path class="a" d="M46.645,16.8,41.072,1.455A2.124,2.124,0,0,0,38.379.115L1.344,13.632a2.131,2.131,0,0,0-1.2,2.759L6.014,32.573V23.9a7.044,7.044,0,0,1,6.979-7.1H22.78L34.444,8.611,41.2,16.8h5.447ZM52.4,21.786H12.987A2.073,2.073,0,0,0,10.912,23.9V49.558a2.14,2.14,0,0,0,2.075,2.187H52.4a2.133,2.133,0,0,0,2.075-2.187V23.9A2.073,2.073,0,0,0,52.4,21.786ZM49.028,46.3H16.345V40.851l5.4-10.944,7.539,9.362,7.076-7.253,9.09-3.282,3.575,9.393Z" transform="translate(0.006 -0.004)"/></svg>