<?xml version="1.0" encoding="utf-8"?>
<!-- Generator: Adobe Illustrator 24.1.1, SVG Export Plug-In . SVG Version: 6.00 Build 0)  -->
<svg version="1.1" id="Layer_1" xmlns="http://www.w3.org/2000/svg" xmlns:xlink="http://www.w3.org/1999/xlink" x="0px" y="0px"
	 viewBox="0 0 512 512" style="enable-background:new 0 0 512 512;" xml:space="preserve">
<style type="text/css">
	.st0{fill-rule:evenodd;clip-rule:evenodd;fill:#B52E31;}
	.st1{fill-rule:evenodd;clip-rule:evenodd;fill:#E23237;}
	.st2{fill-rule:evenodd;clip-rule:evenodd;fill:#FFFFFF;}
</style>
<g>
	<polygon class="st0" points="150.6,289.5 150.6,226.5 158.7,226.5 197.2,277.2 197.2,226.5 204.9,226.5 204.9,289.5 196.8,289.5 
		158.3,238.3 158.3,289.5 	"/>
	<path class="st0" d="M267.6,287c-5.1,1.9-10.6,2.9-16.4,2.9c-22.8,0-34.2-10.9-34.2-32.8c0-20.7,11-31.1,33-31.1
		c6.3,0,12.2,0.9,17.6,2.6v7c-5.4-2.1-11-3.1-16.7-3.1c-17.2,0-25.8,8.2-25.8,24.4c0,17.5,8.5,26.2,25.4,26.2c2.7,0,5.7-0.4,9-1.1
		v-21.1h8.1V287z"/>
	<path class="st0" d="M280.6,265.2v-38.7h8.1v38.7c0,12.1,6,18.2,18.1,18.2c12,0,18.1-6.1,18.1-18.2v-38.7h8.1v38.7
		c0,16.5-8.7,24.8-26.2,24.8S280.6,281.7,280.6,265.2z"/>
	<polygon class="st0" points="355.6,226.5 355.6,282.9 388.6,282.9 388.6,289.5 347.5,289.5 347.5,226.5 	"/>
	<polygon class="st0" points="400.3,289.5 391.8,289.5 423.1,218.2 454.4,289.5 445.4,289.5 437.3,269.7 416.5,269.7 418.7,263.1 
		434.6,263.1 422.8,234.6 	"/>
	<path class="st0" d="M463.1,289.5v-63H490c12,0,18,5,18,15.1c0,8.2-5.9,14.3-17.6,18.2l21.6,29.7h-10.7l-20-28.3v-5.3
		c12-1.9,18.1-6.5,18.1-13.9c0-5.8-3.3-8.7-10-8.7h-18v56.2H463.1z"/>
	<polygon class="st1" points="0,209.7 64.5,186.7 130.7,209.3 120,294.6 64.5,325.3 9.9,295 	"/>
	<polygon class="st0" points="130.7,209.3 64.5,186.7 64.5,325.3 120,294.6 	"/>
	<path class="st2" d="M64.6,202.9L64.6,202.9l-40.2,89.4l15-0.3l8.1-20.2h17.1h18.8l8.8,20.4l14.3,0.3L64.6,202.9z M64.7,231.6
		L78.3,260h-13h-0.7H52.8L64.7,231.6z"/>
</g>
</svg>
