<?xml version="1.0" encoding="utf-8"?>
<!-- Generator: Adobe Illustrator 24.0.2, SVG Export Plug-In . SVG Version: 6.00 Build 0)  -->
<svg version="1.1" id="Layer_1" xmlns="http://www.w3.org/2000/svg" xmlns:xlink="http://www.w3.org/1999/xlink" x="0px" y="0px"
	 viewBox="0 0 512 394" style="enable-background:new 0 0 512 394;" xml:space="preserve">
<style type="text/css">
	.st0{fill:#6A7E91;}
	.st1{fill:#FA8A3B;}
	.st2{fill-rule:evenodd;clip-rule:evenodd;fill:#FA8A3B;}
	.st3{fill-rule:evenodd;clip-rule:evenodd;fill:#6A7E91;}
</style>
<g id="XMLID_1_">
	<path id="XMLID_4_" class="st0" d="M123.2,338.9h-19.8c-0.7-33.4-2.7-64.7-5.8-94.1h-0.1l-30,94.1h-15l-29.9-94.1h-0.1
		c-2.2,28.2-3.6,59.6-4.2,94.1H0c1.1-41.9,4.1-81.4,8.7-118h24.5l28.5,86.7h0.1l28.6-86.7h23.4C119.1,263.9,122.2,303.3,123.2,338.9
		"/>
	<path id="XMLID_18_" class="st0" d="M208.7,251.8c-8,43.6-18.7,75.3-31.8,95.1c-10.2,15.3-21.5,22.9-33.8,22.9c-3.2,0-7.3-1-12.1-3
		v-10.5c2.4,0.3,5.1,0.6,8.3,0.6c5.8,0,10.4-1.5,13.8-4.8c4.2-3.8,6.3-8.1,6.3-12.9c0-3.2-1.7-10-4.9-20.1l-21.7-67.3h19.4
		l15.6,50.4c3.5,11.5,4.9,19.4,4.4,24c8.6-22.7,14.4-47.5,17.8-74.4L208.7,251.8L208.7,251.8z"/>
	<polygon id="XMLID_19_" class="st1" points="471.7,338.9 415.6,338.9 415.6,220.8 434.6,220.8 434.6,324.3 471.7,324.3 	"/>
	<path id="XMLID_25_" class="st2" d="M400.9,341.7l-21.7-10.7c2-1.5,3.8-3.2,5.5-5.3c9.3-10.8,13.9-26.8,13.9-48.1
		c0-39-15.3-58.6-46-58.6c-15,0-26.8,4.9-35.2,14.9c-9.3,10.8-13.8,26.8-13.8,48c0,20.8,4.1,35.9,12.2,45.6c7.4,8.7,18.7,13,33.8,13
		c5.6,0,10.8-0.7,15.4-2.1l28.2,16.4L400.9,341.7z M330.6,315.2c-4.8-7.7-7.1-20.1-7.1-37c0-29.7,9-44.6,27.1-44.6
		c9.4,0,16.4,3.5,20.8,10.7c4.8,7.7,7.1,19.9,7.1,36.8c0,30-9,44.9-27.1,44.9C342,326,335.1,322.4,330.6,315.2"/>
	<path id="XMLID_26_" class="st1" d="M295.3,306.2c0,10-3.6,18.2-10.9,24.7s-17.3,9.7-29.6,9.7c-11.5,0-22.7-3.6-33.5-11.1l5.1-10.1
		c9.3,4.6,17.8,7,25.4,7c7.1,0,12.6-1.5,16.7-4.8c4.1-3.1,6.5-7.6,6.5-13c0-7-4.9-13-13.9-18c-8.3-4.5-24.8-14-24.8-14
		c-9-6.6-13.5-13.6-13.5-25.1c0-9.5,3.4-17.3,10.1-23.1s15.4-8.8,25.9-8.8c10.9,0,20.9,3,29.9,8.7l-4.6,10.1
		c-7.7-3.2-15.3-4.9-22.7-4.9c-6,0-10.7,1.4-14,4.4c-3.2,3-5.3,6.6-5.3,11.2c0,7,5.1,13,14.2,18.2c8.4,4.5,25.4,14.2,25.4,14.2
		C290.8,287.7,295.3,294.7,295.3,306.2"/>
	<path id="XMLID_27_" class="st3" d="M495.5,181.4c-11.4-0.3-20.2,0.8-27.6,3.9c-2.1,0.8-5.6,0.8-5.9,3.5c1.1,1.1,1.3,2.9,2.2,4.6
		c1.7,2.8,4.6,6.7,7.4,8.7c3,2.2,6,4.5,9.1,6.6c5.6,3.5,11.8,5.5,17.3,8.8c3.1,2,6.3,4.5,9.4,6.7c1.5,1.1,2.5,3,4.5,3.6v-0.4
		c-1-1.3-1.3-3.1-2.2-4.6c-1.4-1.4-2.8-2.7-4.4-4.1c-4.2-5.6-9.3-10.4-14.9-14.5c-4.6-3.1-14.6-7.4-16.4-12.6l-0.3-0.3
		c3.1-0.3,6.9-1.4,9.8-2.2c4.9-1.3,9.3-1,14.3-2.2c2.2-0.6,4.6-1.3,6.9-2v-1.3c-2.5-2.5-4.5-6-7.1-8.4c-7.3-6.3-15.3-12.3-23.6-17.5
		c-4.5-2.8-10.1-4.6-14.9-7.1c-1.7-0.8-4.5-1.3-5.6-2.7c-2.5-3.1-4.1-7.3-5.9-10.9c-4.1-7.9-8.1-16.6-11.6-24.8
		c-2.5-5.6-4.1-11.1-7.3-16.3C414,71.7,398,57,373.6,42.7c-5.3-2.9-11.5-4.3-18.2-5.9c-3.5-0.1-7.1-0.4-10.7-0.6
		c-2.2-1-4.6-3.7-6.6-5.1c-8.1-5.2-29-16.3-35.1-1.5c-3.8,9.3,5.8,18.4,9,23.2c2.4,3.2,5.6,7,7.3,10.7c1,2.4,1.3,5.1,2.2,7.6
		c2.2,6.3,4.4,13.3,7.4,19.1c1.5,2.9,3.2,6.2,5.3,8.8c1.1,1.5,3.1,2.2,3.5,4.9c-2,2.8-2.1,7.1-3.2,10.7c-5.2,16.1-3.1,36.1,4.2,48
		c2.2,3.5,7.7,11.4,15,8.4c6.5-2.5,5-10.7,6.9-17.8c0.4-1.7,0.1-2.8,1-3.9v0.3c2,3.9,3.9,7.9,5.9,11.8c4.5,7,12.1,14.3,18.5,19.1
		c3.4,2.5,6.2,7,10.4,8.6v-0.4h-0.3c-0.8-1.3-2.1-1.8-3.2-2.8c-2.5-2.5-5.5-5.8-7.4-8.6c-6-8-11.2-16.8-16-25.9
		c-2.2-4.5-4.4-9.3-6.2-13.8c-0.8-1.7-0.8-4.2-2.2-5.2c-2.1,3.1-5.3,5.9-6.9,9.7c-2.7,6.2-3,13.8-4.1,21.6c-0.6,0.1-0.3,0-0.6,0.3
		c-4.5-1.1-6.2-5.9-7.9-9.8c-4.2-10.1-5-26.4-1.3-38.1c1-2.9,5.3-12.3,3.5-15.3c-0.8-2.7-3.6-4.2-5.3-6.4c-1.8-2.7-3.9-6.2-5.2-9.1
		c-3.4-8-5.2-16.8-8.8-24.8c-1.7-3.7-4.8-7.6-7.1-10.9c-2.7-3.8-5.8-6.6-7.9-11.1c-0.7-1.5-1.7-4.2-0.6-5.9c0.3-1.1,0.8-1.5,2-1.8
		c1.8-1.5,7.1,0.4,9,1.3c5.3,2.1,9.7,4.2,14.2,7.2c2,1.4,4.2,4.1,6.7,4.9h3c4.6,1,9.7,0.3,14,1.5c7.6,2.4,14.5,6,20.5,9.8
		c18.7,11.8,34.1,28.6,44.5,48.8c1.7,3.2,2.4,6.3,4.1,9.7c3,7,6.7,14.2,9.7,21c3,6.7,5.9,13.6,10.1,19.1c2.1,2.9,10.7,4.5,14.6,6.2
		c2.8,1.3,7.3,2.4,9.8,3.9c4.9,2.9,9.7,6.4,14.3,9.7C487.9,174.9,495,178.4,495.5,181.4"/>
	<path id="XMLID_28_" class="st3" d="M350,57.4c-2.4,0-4.1,0.3-5.9,0.7v0.3h0.3c1.1,2.2,3.1,3.8,4.6,5.9c1.1,2.2,2.1,4.5,3.2,6.9
		l0.3-0.3c2-1.4,3-3.7,3-7.2c-0.8-1-1-2-1.7-2.9C352.9,59.2,351.1,58.5,350,57.4"/>
	<path id="XMLID_31_" class="st1" d="M509,338.9h3v-14.5h-4.5l-3.6,9.8l-3.9-9.8h-4.2v14.5h2.8v-11.1h0.1l4.1,10.9h2.1l4.1-10.9
		v11.1H509z M485.2,338.9h3.1v-12.1h4.1v-2.5h-11.5v2.5h4.2v12.1H485.2z"/>
</g>
</svg>
