<?xml version="1.0" encoding="utf-8"?>
<!-- Generator: Adobe Illustrator 24.0.2, SVG Export Plug-In . SVG Version: 6.00 Build 0)  -->
<svg version="1.1" id="Layer_1" xmlns="http://www.w3.org/2000/svg" xmlns:xlink="http://www.w3.org/1999/xlink" x="0px" y="0px"
	 viewBox="0 0 512 120" style="enable-background:new 0 0 512 120;" xml:space="preserve">
<style type="text/css">
	.st0{fill-rule:evenodd;clip-rule:evenodd;}
	.st1{fill-rule:evenodd;clip-rule:evenodd;fill:#62D84E;}
</style>
<g>
	<path class="st0" d="M123.2,42.7c-5.2,0-10.2,1.8-14.1,5.1v-4.6H96.2v50.1h13.4v-32c2.9-3.8,7.4-6.1,12.2-6.2
		c1.8-0.1,3.7,0.2,5.4,0.8V43C125.8,42.8,124.5,42.7,123.2,42.7"/>
	<path class="st0" d="M6.5,78c3.8,3.2,8.7,5,13.7,5c3.6,0,6.4-1.8,6.4-4.2c0-7.5-24.2-4.9-24.2-21c0-9.6,9.3-15.6,19.1-15.6
		c6,0,11.9,1.8,16.9,5.1l-6.3,9.7c-2.8-2.1-6.1-3.3-9.6-3.4c-3.7,0-6.8,1.4-6.8,4c0,6.5,24.2,3.9,24.2,21.3
		c0,9.6-9.4,15.5-19.9,15.5C12.8,94.3,5.8,91.9,0,87.6L6.5,78z"/>
	<path class="st0" d="M90.5,67.8c0-13.9-9.8-25.6-23.6-25.6c-14.8,0-24.3,12.2-24.3,26.1c-0.6,13.8,10.1,25.5,23.9,26
		c0.7,0,1.5,0,2.2,0c7.8,0.1,15.3-3.2,20.5-9l-7.6-7.6c-3.2,3.6-7.8,5.6-12.6,5.8c-6.9,0.2-12.8-5-13.5-11.9h34.6
		C90.4,70.4,90.5,69.1,90.5,67.8z M56.2,61.8c1-5.1,5.5-8.8,10.7-8.8c5,0,9.3,3.8,9.9,8.8H56.2z"/>
	<polygon class="st0" points="159,73.8 172.7,43.2 186.6,43.2 163.7,93.3 154.4,93.3 131.4,43.2 145.3,43.2 	"/>
	<path class="st0" d="M197.9,19.6c4.8,0.1,8.5,4,8.4,8.8c-0.1,4.8-4,8.5-8.8,8.4c-4.7-0.1-8.4-3.9-8.4-8.6c0-4.8,3.9-8.6,8.6-8.6
		L197.9,19.6"/>
	<rect x="191.2" y="43.2" width="13.4" height="50.1"/>
	<path class="st0" d="M259.9,83.1c-5.1,7.4-13.7,11.6-22.7,11.3c-14.4,0.4-26.4-11-26.8-25.4c-0.4-14.4,11-26.4,25.4-26.8
		c0.5,0,0.9,0,1.4,0c8.2-0.1,15.9,3.6,21,10l-9.5,8.4c-2.7-3.7-7-5.9-11.5-6c-7.4,0-13.4,6-13.5,13.4v0.4
		c-0.2,7.3,5.5,13.4,12.8,13.6l1,0c4.8-0.1,9.3-2.6,11.9-6.6L259.9,83.1z"/>
	<path class="st0" d="M308.5,85.4c-5.2,5.8-12.7,9.1-20.5,9c-13.8,0.6-25.5-10-26.1-23.8c0-0.7,0-1.5,0-2.2c0-14,9.5-26.1,24.3-26.1
		c13.8,0,23.6,11.7,23.6,25.6c0,1.3-0.1,2.6-0.3,3.8h-34.6c0.6,6.9,6.6,12.1,13.5,11.9c4.8-0.1,9.3-2.2,12.6-5.8L308.5,85.4z
		 M296.1,61.8c-0.6-5-4.8-8.8-9.9-8.8c-5.2,0-9.7,3.7-10.7,8.8H296.1z"/>
	<path class="st0" d="M315.1,93.3V43.2H328v4c4-3.3,9-5.1,14.1-5.1c6.7,0,13,2.9,17.3,8.1c3.9,5,5.7,11.3,5.1,17.6v25.5h-13.4V66.7
		c0.4-3.4-0.7-6.8-3-9.4c-2-1.9-4.7-2.9-7.5-2.8c-4.8,0.1-9.2,2.4-12.1,6.2v32.6L315.1,93.3L315.1,93.3z"/>
	<path class="st1" d="M399,42.1c-16.2,0-29.3,13.1-29.4,29.3c0,8.1,3.3,15.8,9.2,21.4c2.1,2,5.3,2.1,7.5,0.4c7.4-5.5,17.6-5.5,25,0
		c2.3,1.8,5.5,1.6,7.6-0.4c11.7-11.1,12.2-29.7,1.1-41.4C414.5,45.5,406.9,42.2,399,42.1 M398.8,86.1c-7.9,0.2-14.4-6-14.6-13.8
		v-0.8c0-8.1,6.5-14.6,14.6-14.6s14.6,6.5,14.6,14.6c0.2,7.9-6,14.4-13.8,14.6H398.8"/>
	<polygon class="st0" points="454.5,93.3 444.5,93.3 424.6,43.2 438,43.2 448.9,71.8 459.6,43.2 470.8,43.2 481.4,71.8 492.4,43.2 
		505.7,43.2 485.9,93.3 475.9,93.3 465.2,64.8 	"/>
	<path d="M505.9,87.6h-1.1v2.1h-1V84h2.4c1,0,1.9,0.8,1.9,1.9v0c0,0.7-0.5,1.4-1.1,1.7l1.3,2.3h-1L505.9,87.6z M504.8,86.8h1.4
		c0.5,0,1-0.4,1-1s-0.4-1-1-1h-1.4L504.8,86.8z"/>
	<path d="M505.8,81.6c3,0,5.4,2.4,5.4,5.4s-2.4,5.4-5.4,5.4s-5.4-2.4-5.4-5.4l0,0C500.4,84,502.8,81.6,505.8,81.6 M505.8,80.7
		c-3.5,0-6.3,2.8-6.3,6.3s2.8,6.3,6.3,6.3s6.3-2.8,6.3-6.3S509.2,80.7,505.8,80.7z"/>
</g>
</svg>
