<?xml version="1.0" encoding="utf-8"?>
<!-- Generator: Adobe Illustrator 24.0.2, SVG Export Plug-In . SVG Version: 6.00 Build 0)  -->
<svg version="1.1" id="Layer_1" xmlns="http://www.w3.org/2000/svg" xmlns:xlink="http://www.w3.org/1999/xlink" x="0px" y="0px"
	 viewBox="0 0 512 268" style="enable-background:new 0 0 512 268;" xml:space="preserve">
<style type="text/css">
	.st0{fill:#003B57;}
	.st1{fill:#0F80CC;}
	.st2{fill:url(#XMLID_3_);}
</style>
<g id="XMLID_1_">
	<path id="XMLID_12_" class="st0" d="M194.6,130.4c-6.9,0-12.3,2-16.7,6c-4.2,4.1-6.4,9.4-6.4,15.9c0,3.4,0.6,6.5,1.5,9.3
		c1.1,2.8,2.7,5.5,4.9,7.7c2.2,2.4,6.6,5.6,13.2,9.7c8.1,4.9,13.3,9,15.9,12.1c2.5,3.1,3.8,6.5,3.8,9.8c0,4.6-1.5,8.3-4.6,10.9
		c-3.1,2.8-7.3,4.1-12.3,4.1c-5.5,0-10.1-2-14.2-5.8c-4.1-3.8-6-8.8-6.2-15.1h-2.5v22.9h2.5c0.7-2.1,1.8-3.2,3.2-3.2
		c0.7,0,2.2,0.4,4.6,1.3c5.9,2.1,10.8,3.1,14.7,3.1c6.6,0,12.2-2.4,17-7c4.8-4.8,7-10.4,7-17c0-5.2-1.5-9.7-4.6-13.7
		c-3.1-3.9-9.1-8.7-17.9-14c-7.7-4.6-12.6-8.4-15-11.4c-2.2-2.9-3.5-6.2-3.5-9.7c0-3.8,1.4-6.9,4.2-9.3c2.8-2.2,6.4-3.5,10.9-3.5
		c5.2,0,9.4,1.5,12.8,4.6c3.4,3.1,5.3,7.3,5.9,12.8h2.5V131h-2.4c-0.3,1-0.6,1.7-0.8,2s-0.7,0.4-1.4,0.4c-0.8,0-2.2-0.3-4.4-1
		C202.4,131.3,198.3,130.4,194.6,130.4z M277,130.4c-8.3,0-15.9,2-22.7,5.9s-12.2,9.4-16.3,16.3c-3.9,6.9-6,14.3-6,22.2
		c0,10.5,3.5,19.9,10.4,28c7,8.3,15.3,13.3,25,15.3c2.2,1.1,5.3,4.1,9.5,9c4.6,5.5,8.5,9.4,11.8,11.6c3.2,2.4,6.7,4.1,10.4,5.2
		s7.7,1.7,12.1,1.7c5.2,0,10-0.8,14-2.8l-1-2.2c-2.4,0.8-4.9,1.3-7.7,1.3c-3.6,0-7.3-1.3-11.1-3.6c-3.6-2.4-8.3-7-13.9-13.9
		c-2.5-3.2-4.4-5.3-5.3-6.2c10.5-2.1,19.2-7.1,26.1-15.4c6.7-8.1,10.2-17.5,10.2-28c0-12.5-4.5-22.9-13.2-31.4
		C300.6,134.8,289.8,130.4,277,130.4z M328.3,130.4l0.1,2.7c5.5,0,8.7,1.7,9.4,4.9c0.3,1.1,0.4,3.4,0.4,6.5v59.6
		c0,4.5-0.7,7.3-2,8.5s-3.2,2-6.3,2.2l-0.1,2.7H385l1.4-13.5h-2.5c-0.7,3.6-2.4,6.3-5,7.9c-2.7,1.5-7.3,2.2-14,2.2h-5
		c-6,0-9.5-2.2-10.5-6.6c-0.1-0.8-0.3-1.8-0.3-2.8l0.3-60.3c0-4.5,0.6-7.4,1.7-8.8s3.4-2.2,6.3-2.5l-0.1-2.7L328.3,130.4
		L328.3,130.4z M277.9,133.7c9.4,0,17,3.6,23,11.1c5.9,7.4,8.8,17.7,8.8,30.6c0,12.2-2.9,22-9,29.5c-5.9,7.4-13.9,11.1-23.7,11.1
		c-9.4,0-17.1-3.8-23-11.4c-5.9-7.6-8.8-17.5-8.8-29.7c0-12.5,2.9-22.4,8.8-30C259.9,137.5,267.9,133.7,277.9,133.7z M404.8,146.6
		c-1.4,0-2.4,0.4-3.1,1.4c-0.8,1-1,2-0.7,3.4c0.3,1.3,1,2.4,2.1,3.4c1.1,1,2.4,1.4,3.8,1.4c1.3,0,2.2-0.6,2.9-1.4
		c0.7-1,1-2.1,0.7-3.4c-0.3-1.4-1-2.4-2.1-3.4C407.3,147,406,146.6,404.8,146.6z M441.1,155.7c-2.2,8.8-7.3,13.6-14.9,14.3l0.1,2.5
		h8.8l-0.1,29.7c0,5,0.1,8.5,0.6,10.2c0.8,4.1,3.5,6.2,8.1,6.2c6.6,0,13.3-3.9,20.6-11.9l-2.1-1.8c-5.2,5.2-9.8,7.9-13.7,7.9
		c-2.5,0-3.9-1.4-4.5-4.2c-0.1-0.7-0.3-1.4-0.3-2.4l0.1-33.8h13.6l-0.1-4.1h-13.5v-12.8h-2.8L441.1,155.7L441.1,155.7z M493.5,166.9
		c-7.6,0-13.7,3.6-18.5,10.9c-4.8,7.3-6.3,15.4-4.4,24.4c1.1,5.2,3.4,9.3,6.7,12.2c3.4,2.8,7.6,4.4,12.8,4.4
		c4.8,0,11.4-1.3,14.2-3.6s5.3-6.3,7.7-11.8l-2-2c-3.8,7-11.5,10.5-17.3,10.5c-8,0-12.8-4.4-14.6-13c-0.3-1.1-0.4-2.2-0.6-3.5
		c9.4-1.5,16.5-4.1,21.5-8c4.8-3.8,9.7-7.9,8.7-12.2c-0.6-2.5-1.8-4.5-3.9-6C502,167.8,496.5,166.9,493.5,166.9z M410.7,167.2
		l-16.4,3.8v2.9l5.6-0.7c2.8,0,4.4,1.3,4.9,3.6c0.1,0.8,0.3,2,0.3,3.5l-0.1,26.8c0,3.6-0.4,5.9-1.3,6.5c-0.8,0.7-3.1,1-6.6,1
		l-0.1,2.5h25.9v-2.5c-3.6,0-5.9-0.3-7-0.8c-1-0.6-1.7-1.5-2.1-3.1c-0.3-1.1-0.3-3.1-0.4-5.6l0.1-37.7h-2.8L410.7,167.2L410.7,167.2
		z M489.5,172.2c1.5,0,3.1,0.6,4.6,1.8s2.4,2.5,2.8,3.9c1.5,7.1-4.8,12.1-19.1,14.7c-0.4-5.2,0.6-10,2.8-14.2
		C482.9,174.4,485.8,172.2,489.5,172.2z"/>
	<path id="XMLID_13_" class="st1" d="M158,28.4H17.2C7.8,28.4,0,36.1,0,45.5v155.2c0,9.4,7.7,17.1,17.1,17.1h92.7
		C108.9,171.8,124.6,82.2,158,28.4z"/>
	
		<linearGradient id="XMLID_3_" gradientUnits="userSpaceOnUse" x1="-389.6481" y1="-45.8687" x2="-388.648" y2="-45.8687" gradientTransform="matrix(0 144.1608 -136.5305 0 -6183.5439 56208.5391)">
		<stop  offset="0" style="stop-color:#97D9F6"/>
		<stop  offset="0.9202" style="stop-color:#0F80CC"/>
		<stop  offset="1" style="stop-color:#0F80CC"/>
	</linearGradient>
	<path id="XMLID_14_" class="st2" d="M152.9,33.4H17.2C10.4,33.4,5,38.9,5,45.6v143.9c30.7-11.8,76.8-22,108.7-21.5
		C120.2,134.4,139,68.8,152.9,33.4z"/>
	<path id="XMLID_15_" class="st0" d="M190.8,23.3c-9.7-8.6-21.3-5.2-32.8,5.1c-1.7,1.5-3.4,3.2-5.1,5.1
		c-19.8,20.9-38,59.6-43.6,89.2c2.2,4.5,3.9,10.2,5.1,14.6c0.3,1.1,0.6,2.2,0.7,3.1c0.6,2.1,0.7,3.5,0.7,3.5s-0.1-0.7-0.8-2.8
		c-0.1-0.4-0.3-0.8-0.4-1.4c-0.1-0.3-0.1-0.4-0.3-0.7c-1.3-2.9-4.9-9.3-6.4-12.1c-1.4,3.9-2.5,7.6-3.5,10.9
		c4.5,8.3,7.3,22.4,7.3,22.4s-0.3-1-1.4-4.1c-1-2.8-6-11.6-7.2-13.7c-2.1,7.6-2.8,12.6-2.1,13.9c1.4,2.4,2.8,6.5,3.9,11.1
		c2.7,10.2,4.5,22.9,4.5,22.9s0,0.8,0.1,2.1c-0.4,8.7-0.1,17.5,0.6,25.7c0.8,10.7,2.5,19.9,4.6,24.8l1.4-0.8
		c-3.1-9.7-4.3-22.4-3.8-37c0.8-22.4,6-49.5,15.6-77.6c16.1-42.5,38.4-76.7,58.9-93c-18.6,16.8-43.9,71.2-51.5,91.4
		c-8.4,22.6-14.4,43.8-18.1,64.1c6.2-19.1,26.4-27.2,26.4-27.2s9.8-12.2,21.5-29.6c-6.9,1.5-18.2,4.4-22,5.9
		c-5.6,2.4-7.1,3.2-7.1,3.2s18.2-11.1,33.8-16.1C190.9,92.3,214.3,44.2,190.8,23.3"/>
</g>
</svg>
