<?xml version="1.0" encoding="utf-8"?>
<!-- Generator: Adobe Illustrator 24.3.0, SVG Export Plug-In . SVG Version: 6.00 Build 0)  -->
<svg version="1.1" id="Layer_1" xmlns="http://www.w3.org/2000/svg" xmlns:xlink="http://www.w3.org/1999/xlink" x="0px" y="0px"
	 viewBox="0 0 512 512" style="enable-background:new 0 0 512 512;" xml:space="preserve">
<style type="text/css">
	.st0{fill:#00C8FF;}
	.st1{fill:#001D26;}
</style>
<g id="XMLID_23_">
	<rect id="XMLID_26_" class="st0" width="512" height="512"/>
	<rect id="XMLID_27_" x="22.58" y="22.58" class="st1" width="466.97" height="466.97"/>
	<path id="XMLID_33_" class="st0" d="M124.42,123.72c0-1.82,0.28-2.52,1.82-2.52c11.5-0.42,34.23-0.7,57.23-0.7
		c59.34,0,82.06,34.51,82.34,75.47c0,55.97-41.8,77.29-86.27,77.29c-8.42,0-16.69,0-18.8,0v79.96c0,2.1-0.56,2.81-2.1,2.81h-32.12
		c-1.54,0-2.1-0.7-2.1-2.52L124.42,123.72L124.42,123.72z M160.75,239.03c2.38,0.42,7.01,0.7,19.64,0.7
		c23.99,0,46.99-6.87,46.99-42.08c0-28.2-15.43-42.64-43.91-42.64c-11.78,0-20.34,0.42-22.72,0.7V239.03z"/>
	<path id="XMLID_34_" class="st0" d="M341.43,212.66c-14.59,0-18.52,9.12-18.52,15.85c0,8.42,3.93,13.05,26.23,23.57
		c30.72,14.73,43.77,27.77,43.77,53.16c0,35.21-22.86,55.27-55.69,55.27c-15.71,0-35.63-1.54-48.25-10.66
		c-1.12-0.7-1.82-1.82-1.82-3.51v-32.4c0-1.82,1.12-2.52,2.1-1.82c15.43,11.64,32.68,14.87,48.25,14.87
		c13.75,0,18.52-9.12,18.52-16.83c0-9.12-3.37-14.45-24.69-24.69c-30.72-14.73-43.48-27.49-43.48-53.16
		c0-28.48,21.46-52.04,56.53-52.04c18.1,0,31,0.42,39.28,6.17c1.54,1.4,1.82,2.52,1.82,4.63v28.9c0,2.1-1.12,3.23-2.67,2.1
		C372.15,214.9,357,212.66,341.43,212.66z"/>
</g>
</svg>
