<?xml version="1.0" encoding="utf-8"?>
<!-- Generator: Adobe Illustrator 24.3.0, SVG Export Plug-In . SVG Version: 6.00 Build 0)  -->
<svg version="1.1" id="Layer_1" xmlns="http://www.w3.org/2000/svg" xmlns:xlink="http://www.w3.org/1999/xlink" x="0px" y="0px"
	 viewBox="0 0 512 512" style="enable-background:new 0 0 512 512;" xml:space="preserve">
<style type="text/css">
	.st0{fill:#FF7C00;}
	.st1{fill:#261300;}
</style>
<g id="XMLID_26_">
	<rect id="XMLID_28_" class="st0" width="512" height="512"/>
	<rect id="XMLID_32_" x="22.58" y="22.58" class="st1" width="466.97" height="466.97"/>
	<path id="XMLID_35_" class="st0" d="M176.89,291.49l-18.38,61.3c-0.28,2.1-1.26,2.81-3.09,2.81h-30.86c-2.1,0-2.67-1.12-2.1-3.51
		c16.41-53.87,43.91-143.78,63.26-204.66c0.84-3.51,1.82-7.01,2.38-19.36c0-1.4,0.84-2.1,1.82-2.1h41.8c1.54,0,1.82,0.42,2.38,1.82
		c22.44,72.24,46.99,151.78,70,224.72c0.56,2.1,0,3.23-1.82,3.23h-33.95c-1.54,0-2.1-0.7-2.67-2.1l-19.36-62h-69.44V291.49z
		 M238.19,256.98c-6.03-23.57-20.9-71.12-26.93-95.81h-0.28c-4.49,23.29-16.97,62.98-26.09,95.81H238.19z"/>
	<path id="XMLID_38_" class="st0" d="M334.83,139.15c0-13.05,8.7-21.88,20.2-21.88c12.2,0,19.64,8.84,19.64,21.88
		c0,13.33-8,21.88-19.92,21.88C342.97,161.03,334.83,152.62,334.83,139.15z M336.94,187.13c0-2.1,0.56-2.81,2.1-2.81h31.56
		c1.82,0,2.38,0.42,2.38,2.81v165.52c0,1.82-0.56,2.81-2.38,2.81h-31c-1.82,0-2.67-0.7-2.67-3.23V187.13z"/>
</g>
</svg>
