<?xml version="1.0" encoding="utf-8"?>
<!-- Generator: Adobe Illustrator 26.5.0, SVG Export Plug-In . SVG Version: 6.00 Build 0)  -->
<svg version="1.1" id="Layer_1" xmlns="http://www.w3.org/2000/svg" xmlns:xlink="http://www.w3.org/1999/xlink" x="0px" y="0px"
	 viewBox="0 0 512 512" style="enable-background:new 0 0 512 512;" xml:space="preserve">
<style type="text/css">
	.st0{fill:#362701;}
	.st1{fill:#F03C2E;}
</style>
<g id="XMLID_25_">
	<path id="XMLID_33_" class="st0" d="M306.78,221.9c-11.22,0-19.64,5.47-19.64,18.8c0,9.96,5.47,16.98,18.94,16.98
		c11.36,0,19.22-6.73,19.22-17.4C325.44,228.21,318.42,221.9,306.78,221.9L306.78,221.9z M284.33,315.47
		c-2.67,3.23-5.33,6.73-5.33,10.8c0,8.14,10.38,10.66,24.69,10.66c11.78,0,27.92-0.84,27.92-11.78c0-6.59-7.72-7.01-17.54-7.58
		L284.33,315.47L284.33,315.47z M344.8,222.46c3.65,4.63,7.58,11.22,7.58,20.62c0,22.59-17.82,35.92-43.49,35.92
		c-6.59,0-12.49-0.84-16.13-1.82l-6.73,10.8l20.06,1.26c35.35,2.24,56.12,3.23,56.12,30.44c0,23.43-20.62,36.76-56.12,36.76
		c-36.9,0-51.07-9.4-51.07-25.53c0-9.12,4.07-14.03,11.22-20.76c-6.73-2.81-8.98-8-8.98-13.47c0-4.49,2.24-8.56,5.89-12.49
		s7.72-7.72,12.63-12.21c-9.96-4.91-17.54-15.57-17.54-30.58c0-23.43,15.57-39.56,46.72-39.56c8.84,0,14.03,0.84,18.8,2.1h39.84
		v17.4L344.8,222.46"/>
	<path id="XMLID_36_" class="st0" d="M399.51,185.42c-11.64,0-18.38-6.73-18.38-18.38s6.73-17.96,18.38-17.96
		c11.78,0,18.52,6.31,18.52,17.96S411.29,185.42,399.51,185.42z M373.13,308.04V291.9l10.38-1.4c2.81-0.42,3.23-0.98,3.23-4.07
		v-60.05c0-2.24-0.56-3.65-2.67-4.35l-11.08-3.93l2.24-16.55h42.23v84.74c0,3.23,0.14,3.65,3.23,4.07l10.38,1.4v16.13L373.13,308.04
		"/>
	<path id="XMLID_37_" class="st0" d="M512.03,300.04c-8.84,4.35-21.61,8.14-33.25,8.14c-24.27,0-33.53-9.82-33.53-32.83V221.9
		c0-1.26,0-2.1-1.68-2.1h-14.31v-18.1c17.96-2.1,25.11-11.08,27.36-33.25h19.36v29.04c0,1.4,0,2.1,1.68,2.1h28.76v20.34h-30.44
		v48.68c0,12.07,2.81,16.69,13.89,16.69c5.75,0,11.64-1.4,16.55-3.23L512.03,300.04"/>
	<path id="XMLID_38_" class="st1" d="M209.69,246.59L116.4,153.3c-5.33-5.33-14.03-5.33-19.5,0l-19.36,19.36l24.55,24.55
		c5.75-1.96,12.21-0.7,16.84,3.93c4.63,4.63,5.89,11.22,3.93,16.98l23.71,23.71c5.75-1.96,12.35-0.7,16.98,3.93
		c6.45,6.45,6.45,16.69,0,23.15c-6.45,6.45-16.69,6.45-23.15,0c-4.77-4.77-6.03-11.92-3.51-17.82l-22.03-22.03v58.08
		c1.54,0.84,3.09,1.82,4.35,3.09c6.45,6.45,6.45,16.69,0,23.15c-6.45,6.45-16.84,6.45-23.15,0c-6.45-6.45-6.45-16.84,0-23.15
		c1.54-1.54,3.37-2.81,5.33-3.51v-58.64c-1.96-0.84-3.79-1.96-5.33-3.51c-4.91-4.91-6.03-11.92-3.51-17.96L68,182.2L4.02,246.17
		c-5.33,5.33-5.33,14.03,0,19.5l93.29,93.29c5.33,5.33,14.03,5.33,19.5,0l92.87-92.87C215.02,260.62,215.02,251.92,209.69,246.59"/>
</g>
</svg>
