<?xml version="1.0" encoding="utf-8"?>
<!-- Generator: Adobe Illustrator 24.0.2, SVG Export Plug-In . SVG Version: 6.00 Build 0)  -->
<svg version="1.1" id="Layer_1" xmlns="http://www.w3.org/2000/svg" xmlns:xlink="http://www.w3.org/1999/xlink" x="0px" y="0px"
	 viewBox="0 0 512 122" style="enable-background:new 0 0 512 122;" xml:space="preserve">
<style type="text/css">
	.st0{fill:#EA4335;}
	.st1{fill:#4285F4;}
	.st2{fill:#34A853;}
	.st3{fill:#FBBC05;}
	.st4{fill:#5F6368;}
</style>
<g>
	<path class="st0" d="M60.2,41.9h2.9l8.3-8.3l0.4-3.5C56.5,16.5,33,18.1,19.5,33.4c-3.8,4.2-6.4,9.4-8,14.9c1-0.4,2-0.4,2.9-0.1
		L31,45.4c0,0,0.8-1.4,1.3-1.3C39.5,36,51.8,35.1,60.2,41.9L60.2,41.9z"/>
	<path class="st1" d="M83.2,48.2c-2-7-5.8-13.3-11.2-18.1L60.3,41.8c4.9,3.9,7.7,10,7.6,16.3v2.1c5.8,0,10.2,4.6,10.2,10.2
		c0,5.8-4.6,10.2-10.2,10.2H47.3l-2.1,2.1v12.3l2.1,2.1h20.6C82.8,97.3,94.8,85.4,95,70.5C95,61.7,90.6,53.3,83.2,48.2z"/>
	<path class="st2" d="M26.7,97.2h20.6V80.6H26.7c-1.4,0-2.9-0.3-4.2-1l-2.9,0.8l-8.3,8.3l-0.7,2.9C15.2,95.2,20.8,97.2,26.7,97.2z"
		/>
	<path class="st3" d="M26.7,43.6C11.8,43.8-0.1,55.8,0.1,70.5c0,8.3,3.9,16,10.5,21l11.9-11.9c-5.2-2.4-7.4-8.4-5.2-13.6
		s8.4-7.4,13.6-5.2c2.2,1,4.1,2.8,5.2,5.2L48,54.1C43,47.5,35.1,43.6,26.7,43.6z"/>
	<path class="st4" d="M149.8,85.7c-7.1,0.1-14-2.8-19.1-7.9c-5.2-4.9-8.1-11.8-8-18.9c-0.1-7.1,2.8-14,8-18.9c5.1-5.2,11.9-8,19.1-8
		c6.9-0.1,13.5,2.5,18.4,7.4l-5.2,5.2c-3.5-3.4-8.3-5.3-13.2-5.2c-5.2,0-10.1,2.1-13.6,5.8c-3.6,3.6-5.6,8.6-5.6,13.7
		c0,5.1,2,10,5.6,13.6c7.4,7.4,19.5,7.6,27.1,0.3c2.2-2.5,3.6-5.6,3.9-9h-17.4v-7.4h24.5c0.3,1.5,0.3,2.9,0.3,4.5
		c0.3,6.3-2,12.5-6.3,17.1C163.6,83.2,156.8,85.8,149.8,85.7z M206.9,80.8c-6.9,6.6-17.7,6.6-24.5,0c-3.4-3.2-5.2-7.7-5.1-12.3
		c-0.1-4.6,1.7-9.1,5.1-12.3c6.9-6.6,17.7-6.6,24.5,0c3.4,3.2,5.2,7.7,5.1,12.3C212.1,73.1,210.3,77.5,206.9,80.8L206.9,80.8z
		 M187.8,75.9c3.5,3.8,9.5,3.9,13.3,0.4c0.1-0.1,0.3-0.3,0.4-0.4c2-2,2.9-4.6,2.9-7.4c0.1-2.8-1-5.5-2.9-7.4
		c-3.6-3.8-9.7-3.9-13.5-0.3c-0.1,0.1-0.1,0.1-0.3,0.3c-2,2-2.9,4.8-2.9,7.4C184.7,71.2,185.9,73.9,187.8,75.9L187.8,75.9z
		 M244.6,80.8c-6.9,6.6-17.7,6.6-24.5,0c-3.4-3.2-5.2-7.7-5.1-12.3c-0.1-4.6,1.7-9.1,5.1-12.3c6.9-6.6,17.7-6.6,24.5,0
		c3.4,3.2,5.2,7.7,5.1,12.3C249.7,73.1,248,77.5,244.6,80.8z M225.6,75.9c3.5,3.8,9.5,3.9,13.3,0.4c0.1-0.1,0.3-0.3,0.4-0.4
		c2-2,2.9-4.6,2.9-7.4c0.1-2.8-1-5.5-2.9-7.4c-3.6-3.8-9.7-3.9-13.5-0.3c-0.1,0.1-0.1,0.1-0.3,0.3c-2,2-2.9,4.8-2.9,7.4
		C222.5,71.2,223.6,73.9,225.6,75.9L225.6,75.9z M269.3,101.1c-3.5,0.1-6.9-1-9.7-3.1c-2.5-1.8-4.4-4.4-5.6-7.1l6.6-2.8
		c0.7,1.7,1.8,3.2,3.2,4.4c1.5,1.3,3.5,1.8,5.5,1.8c2.5,0.1,5-0.8,6.7-2.7c1.7-2.1,2.7-4.8,2.4-7.6v-2.5h-0.3
		c-2.2,2.7-5.6,4.1-9.1,3.9c-4.4,0-8.5-1.8-11.6-5c-3.2-3.2-5.1-7.6-4.9-12.1c-0.1-4.6,1.7-9,4.9-12.2c2.9-3.2,7.1-5.1,11.6-5.1
		c1.8,0,3.6,0.4,5.3,1.1c1.4,0.6,2.7,1.5,3.8,2.8h0.3v-2.8h7.1V83c0.4,4.9-1.3,9.8-4.6,13.5C278,99.6,273.8,101.3,269.3,101.1z
		 M269.9,78.8c2.5,0,4.9-1,6.6-2.9c1.8-2.1,2.7-4.6,2.7-7.4c0.1-2.8-0.8-5.5-2.7-7.6c-1.7-1.8-4.1-2.9-6.6-2.9s-5,1-6.7,2.9
		c-2,2-2.9,4.8-2.9,7.4c0,2.8,1,5.5,2.9,7.4C264.8,77.8,267.3,79,269.9,78.8z M298.5,33.9v50.6h-7.6V33.9H298.5z M319.2,85.7
		c-4.6,0.1-9-1.7-12.2-4.9c-3.2-3.2-5-7.7-4.9-12.2c-0.1-4.6,1.5-9.1,4.8-12.3c2.9-3.2,7.1-4.9,11.6-4.8c2,0,3.9,0.4,5.8,1.1
		c1.7,0.7,3.1,1.7,4.5,2.9c1.1,1.1,2.1,2.2,2.9,3.5c0.7,1.1,1.3,2.2,1.7,3.4l0.8,2l-23.1,9.5c1.4,3.2,4.8,5.3,8.3,5.2
		c3.5,0,6.7-1.8,8.4-4.8l5.8,3.9c-1.5,2.1-3.4,3.9-5.6,5.3C325.4,84.8,322.3,85.7,319.2,85.7z M309.5,67.9l15.4-6.5
		c-0.4-1.1-1.3-2.1-2.4-2.7c-1.3-0.7-2.5-1-3.9-1c-2.4,0-4.6,1-6.2,2.8C310.4,62.5,309.4,65.2,309.5,67.9z"/>
	<path class="st4" d="M373.6,85.7c-13.2,0.3-24-10.2-24.3-23.4c0-0.3,0-0.7,0-1c-0.3-13.2,10.1-24.1,23.3-24.4c0.3,0,0.7,0,1,0
		c6.6-0.1,12.9,2.7,17.1,7.6l-4.2,4.1c-3.1-3.9-8-6.2-12.9-5.9c-4.8-0.1-9.5,1.7-12.9,5.2c-3.5,3.5-5.5,8.4-5.2,13.5
		c-0.1,5,1.7,10,5.2,13.5c3.4,3.4,8,5.3,12.9,5.2c5.6,0,10.9-2.4,14.4-6.7l4.2,4.2c-2.2,2.7-4.9,4.6-8,6.2
		C380.9,85,377.3,85.7,373.6,85.7z"/>
	<path class="st4" d="M403.5,84.6h-6V37.9h6V84.6z"/>
	<path class="st4" d="M413.3,56.5c6.6-6.4,17.1-6.4,23.6,0c3.1,3.2,4.8,7.7,4.6,12.2c0.1,4.5-1.5,8.8-4.6,12.2
		c-6.6,6.5-17.1,6.5-23.6,0c-3.1-3.2-4.8-7.7-4.6-12.2C408.6,64.1,410.1,59.7,413.3,56.5z M417.7,77c3.8,4.1,10.2,4.2,14.3,0.4
		c0.1-0.1,0.3-0.3,0.4-0.4c2.1-2.2,3.2-5.3,3.1-8.4c0.1-3.1-1-6.2-3.1-8.4c-3.8-4.1-10.2-4.2-14.3-0.4c-0.1,0.1-0.3,0.3-0.4,0.4
		c-2.1,2.2-3.2,5.3-3.1,8.4C414.5,71.7,415.6,74.8,417.7,77L417.7,77z"/>
	<path class="st4" d="M474.8,84.6h-5.9v-4.5h-0.1c-1,1.7-2.5,3.1-4.2,3.9c-1.8,1-3.8,1.5-5.9,1.5c-3.4,0.3-6.7-1.1-9.1-3.6
		c-2.2-2.8-3.2-6.3-3.1-9.8V52.4h6V71c0,6,2.7,9,7.9,9c2.4,0.1,4.6-1,6-2.9c1.5-2,2.4-4.4,2.4-6.9V52.6h6L474.8,84.6L474.8,84.6z"/>
	<path class="st4" d="M495.1,85.7c-4.1,0-8-1.8-10.7-4.9c-2.9-3.4-4.6-7.7-4.5-12.1c-0.1-4.5,1.5-8.8,4.5-12.1
		c2.7-3.1,6.6-4.9,10.7-4.9c2.2,0,4.5,0.6,6.6,1.5c1.8,0.8,3.2,2.2,4.4,3.9h0.3l-0.3-4.5V38h6v46.7h-5.8v-4.5H506
		c-1.1,1.7-2.5,3.1-4.4,3.9C499.6,85.1,497.3,85.7,495.1,85.7z M496.1,80.2c2.8,0,5.3-1.1,7.1-3.1c2.1-2.4,3.1-5.3,2.9-8.4
		c0.1-3.1-0.8-6.2-2.9-8.4c-3.6-3.9-9.8-4.4-13.9-0.7c-0.3,0.1-0.4,0.4-0.7,0.7c-2.1,2.2-3.1,5.3-2.9,8.4c-0.1,3.1,0.8,6,2.9,8.4
		C490.6,79.1,493.3,80.2,496.1,80.2z"/>
</g>
</svg>
