<?xml version="1.0" encoding="utf-8"?>
<!-- Generator: Adobe Illustrator 24.1.1, SVG Export Plug-In . SVG Version: 6.00 Build 0)  -->
<svg version="1.1" id="Layer_1" xmlns="http://www.w3.org/2000/svg" xmlns:xlink="http://www.w3.org/1999/xlink" x="0px" y="0px"
	 viewBox="0 0 512 512" style="enable-background:new 0 0 512 512;" xml:space="preserve">
<style type="text/css">
	.st0{fill:#002B64;}
	.st1{fill:#C49A6C;}
</style>
<g>
	<path class="st0" d="M500.8,86c-7.9,0.3-5.4,2.5-22.5,6.7c-17.3,4.2-38.4,2.9-56.9,10.7c-55.5,23.3-66.6,102.8-117.1,131.3
		c-37.7,21.3-75.8,23-110,33.7c-22.5,7-47.1,21.5-67.4,39.1c-15.8,13.6-16.2,25.6-32.7,42.7c-17.7,18.3-70.2,0.3-94,28.3
		c7.7,7.8,11,9.9,26.2,7.9c-3.1,5.9-21.6,10.9-18,19.7c3.8,9.2,48.4,15.4,89-9.1c18.9-11.4,33.9-27.8,63.4-31.8
		c38.1-5.1,81.9,3.3,126,9.6c-6.5,19.5-19.7,32.4-30.2,48c-3.3,3.5,6.5,3.9,17.7,1.8c20.1-5,34.6-9,49.7-17.8
		c18.6-10.8,21.5-38.7,44.3-44.7c12.7,19.6,47.4,24.2,68.9,8.5c-18.9-5.3-24.1-45.5-17.7-63.2c6-16.7,12-43.5,18.1-65.7
		c6.5-23.8,8.9-53.7,16.8-65.8c11.9-18.2,25-24.5,36.4-34.7c11.4-10.3,21.8-20.3,21.5-43.8C511.9,90,508,85.8,500.8,86z"/>
	<path class="st1" d="M483.8,99.9c1.9,6.5,4.9,9.4,17.7,10.6c-1.9,16.3-12.7,25.2-24.9,33.7c-10.7,7.5-22.4,14.7-30,26.5
		c-7.7,12-12.6,53.1-24.6,93.7c-10.3,35.1-26,69.8-53.2,85c-2.9-7.2,0.4-20.4-5.3-24.8c-3.7,10.5-7.8,20.4-12.7,29.7
		c-16,30.6-39.7,53.5-79.3,60.5c18.8-25.4,36.8-51.7,37.2-95.5c-13.2,2.9-12.9,34.1-26.5,42.5c-8.7,0.9-17.5,0.9-26.4,0.4
		c-36.5-2.2-73.9-13.2-108-2.2c-23.2,7.5-42.2,25.1-61.9,33.6c-23.1,10-40.6,14.2-69.4,10c-3.7-4.9,21.1-11.3,19.6-22
		c-11.3-1.2-17.8,1.5-27.6-3c1.1-2,2.7-3.7,4.7-5c18-12.4,69-2.9,82.6-16.3c8.4-8.3,14-16.9,19.7-25.3c5.5-8.2,11.3-16.1,20-23.2
		c3.2-2.6,6.7-5.2,10.5-7.8c14.9-10.2,33.3-19.4,51.5-25.8c24.7-8.7,49.7-9.4,76.1-19.5c16.3-6.2,34-13.9,48.4-24.6
		c3.4-2.6,6.7-5.3,9.7-8.2c41.2-40.1,49.3-110.9,113.6-117.5c7.8-0.8,14.1-0.5,19.9-0.7C471.5,104.3,477.4,103.6,483.8,99.9z
		 M405.5,326.5c0.8,12.3,7.9,36.6,14.2,42.5c-12.3,3-33.5-2-39-10.6C383.5,345.9,398.1,334.4,405.5,326.5z"/>
	<path class="st0" d="M488.4,113.7c-2.5,5.2-7.2,11.9-7.2,25.1c0,2.3-1.7,3.8-1.8,0.3c0.1-12.9,3.5-18.5,7.2-25.8
		C488.3,110.3,489.4,111.5,488.4,113.7z M485.9,111.7c-2.9,5-10,14-11.1,27.2c-0.2,2.3-2.1,3.7-1.8,0.2c1.3-12.9,6.9-20.9,11.2-27.9
		C486.1,108.3,487.1,109.6,485.9,111.7z M483.7,109.1c-3.3,4.7-14.2,15.5-16.4,28.6c-0.4,2.2-2.4,3.5-1.8,0
		c2.3-12.7,11.7-22.7,16.5-29.3C484.2,105.7,484.9,107.1,483.7,109.1z M481.6,106.2l-1.1,1.2c-4.8,5.2-16.1,17.8-19.8,29.4
		c-0.7,2.2-2.8,3.1-1.8-0.2c4.1-12.3,15.4-25.4,21.1-31.3C482.6,102.9,483.2,104.4,481.6,106.2z M423.5,132.5
		c2.5-10.8,10.9-15.7,25.3-14.5C452.4,134.1,432.9,140.5,423.5,132.5z"/>
</g>
</svg>
