<?xml version="1.0" encoding="utf-8"?>
<!-- Generator: Adobe Illustrator 24.0.2, SVG Export Plug-In . SVG Version: 6.00 Build 0)  -->
<svg version="1.1" id="Layer_1" xmlns="http://www.w3.org/2000/svg" xmlns:xlink="http://www.w3.org/1999/xlink" x="0px" y="0px"
	 viewBox="0 0 512 194" style="enable-background:new 0 0 512 194;" xml:space="preserve">
<style type="text/css">
	.st0{fill:#8E714E;}
	.st1{fill:#442D22;}
	.st2{fill:#FFFFFF;}
	.st3{fill:#A6A385;}
	.st4{fill:#499D4A;}
	.st5{fill:#58AA50;}
</style>
<g id="XMLID_1_">
	<path id="XMLID_8_" class="st0" d="M477.2,83.4c-0.4,0.1-1,1.1-1,1.7c-0.1,3.6-0.1,13.5-0.1,20.2c0,0.1,0.3,0.6,0.6,0.6
		c1.4,0.1,4.8,0.1,7.6,0.1c3.9,0,6.3-0.6,7.6-1.1c3.4-1.7,4.9-5.3,4.9-9.3c0-9-6.3-12.3-15.6-12.3C480.4,83.1,478.6,83.1,477.2,83.4
		z M501,124.8c0-9.1-6.7-14.2-18.9-14.2c-0.6,0-4.5-0.1-5.3,0.1c-0.3,0.1-0.7,0.3-0.7,0.6c0,6.6-0.1,17,0.1,21
		c0.1,1.8,1.5,4.2,3.1,5c1.7,1,5.5,1.1,8,1.1C494.7,138.2,501,134.1,501,124.8z M458.4,78.3c1,0,3.6,0.3,10.8,0.3
		c6.7,0,12.1-0.1,18.6-0.1c8,0,19.1,2.8,19.1,14.9c0,5.9-4.2,10.7-9.5,12.9c-0.3,0.1-0.3,0.3,0,0.4c7.7,2,14.6,6.7,14.6,15.9
		c0,8.8-5.6,14.5-13.6,18c-4.9,2.1-10.9,2.8-17.3,2.8c-4.8,0-17.4-0.6-24.4-0.4c-0.7-0.3,0.7-3.6,1.3-4.2c1.7-0.1,3-0.1,4.8-0.7
		c2.5-0.7,2.8-1.4,3.1-5.2c0.1-3.2,0.1-14.7,0.1-22.9c0-11.2,0.1-18.8,0-22.4c-0.1-2.8-1.1-3.8-3.1-4.4c-1.5-0.3-4.2-0.7-6.3-1
		C456.3,81.8,457.8,78.8,458.4,78.3z M405.1,135.8c2.2,1.8,6.6,2.5,10.4,2.5c5,0,10-1,14.7-5.3c4.9-4.5,8.3-11.2,8.3-22.2
		c0-10.4-3.9-18.9-12.1-24c-4.6-2.8-10.5-4.1-17.4-4.1c-2,0-3.9,0.1-5.2,0.7c-0.3,0.1-1,1-1,1.5c-0.1,1.8-0.1,16.1-0.1,24.4
		c0,8.6,0,20.6,0.1,22C403,132.8,403.7,134.9,405.1,135.8z M384.1,78.3c1.8,0,8.6,0.3,11.8,0.3c5.8,0,10-0.3,21-0.3
		c9.3,0,17,2.5,22.6,7.1c6.7,5.8,10.2,13.9,10.2,23.7c0,13.9-6.3,22-12.8,26.6c-6.3,4.8-14.7,7.4-26.5,7.4c-6.3,0-17.1-0.1-26.1-0.3
		h-0.1c-0.4-0.8,0.7-4.1,1.5-4.2c2.4-0.3,3.1-0.4,4.2-0.8c2-0.7,2.2-1.8,2.5-5.2c0.3-6.3,0.1-14,0.1-22.7c0-6.2,0.1-18.2-0.1-22.2
		c-0.3-3.2-1.7-4.1-4.5-4.6c-1.4-0.3-3.2-0.7-5.8-1C382,81.7,383.6,78.9,384.1,78.3z"/>
	<path id="XMLID_18_" class="st1" d="M272.4,139.3c-2.2-0.3-3.9-0.7-6-1.5c-0.3-0.1-0.7-1.1-0.7-1.5c-0.1-3.2-0.1-12.5-0.1-18.6
		c0-5-0.8-9.4-3-12.3c-2.5-3.5-6-5.6-10.7-5.6c-4.1,0-9.5,2.8-14,6.6c-0.1,0.1-0.8,0.7-0.7-0.3c0-1,0.1-3.1,0.3-4.5
		c0.1-1.3-0.7-2-0.7-2c-2.9,1.5-11.2,3.4-14.3,3.6c-2.2,0.4-2.8,2.5-0.4,3.4h0.1c2.5,0.7,4.2,1.5,5.5,2.4c1,0.7,0.8,1.8,0.8,2.5
		c0.1,6.9,0.1,17.5-0.1,23.4c-0.1,2.2-0.7,3.1-2.4,3.5l0.1-0.1c-1.3,0.3-2.2,0.6-3.9,0.7c-0.6,0.6-0.6,3.5,0,4.2
		c1,0,6.3-0.3,10.8-0.3c6,0,9.3,0.3,10.8,0.3c0.7-0.7,0.8-3.5,0.4-4.2c-1.8-0.1-3.1-0.3-4.2-0.7c-1.7-0.4-2.1-1.3-2.2-3.1
		c-0.1-4.9-0.1-15.3-0.1-22.3c0-2,0.6-2.8,1.1-3.4c2.1-1.8,5.6-3.1,8.6-3.1s4.9,1,6.3,2.1c2,1.7,2.7,4.1,3,5.8
		c0.4,3.9,0.3,11.8,0.3,18.6c0,3.6-0.3,4.6-1.7,5c-0.7,0.3-2.2,0.7-4.2,0.8c-0.7,0.7-0.4,3.5,0,4.2c2.7,0,5.7-0.3,10.4-0.3
		c5.8,0,9.4,0.3,10.9,0.3C272.6,142.8,272.7,140,272.4,139.3L272.4,139.3z M298,104.1c-4.9,0-8,3.8-8,9.7c0,6,2.7,12.9,10.2,12.9
		c1.3,0,3.6-0.6,4.8-1.8c1.8-1.7,3-5,3-8.6C308,108.8,304.3,104.1,298,104.1z M297.3,145c-1.8,0-3.1,0.6-3.9,1
		c-3.9,2.5-5.6,4.9-5.6,7.7c0,2.7,1,4.8,3.2,6.6c2.7,2.2,6.3,3.4,11.1,3.4c9.4,0,13.6-5,13.6-10.1c0-3.5-1.8-5.8-5.3-7.1
		C307.6,145.5,303,145,297.3,145z M298,168.9c-5.6,0-9.7-1.3-13.2-3.9c-3.4-2.5-4.9-6.5-4.9-9.1c0-0.7,0.1-2.8,1.8-4.6
		c1-1.1,3.2-3.2,8.6-6.9c0.1-0.1,0.3-0.1,0.3-0.4s-0.1-0.4-0.4-0.4c-4.4-1.7-5.6-4.4-6-5.8v-0.1c-0.1-0.6-0.3-1.1,0.6-1.7
		c0.7-0.4,1.5-1,2.5-1.7c1.5-1,3.2-2,4.2-2.8c0.1-0.1,0.1-0.4,0.1-0.6s-0.1-0.4-0.4-0.4c-6.5-2.1-9.7-6.9-9.7-14.2
		c0-4.8,2.1-9,5.9-11.6c2.5-2,9.1-4.5,13.3-4.5h0.3c4.4,0.1,6.7,1,10.1,2.2c1.8,0.7,3.6,1,6,1c3.6,0,5.2-1.1,6.5-2.4
		c0.1,0.1,0.3,0.7,0.4,1.8c0.1,1.3-0.3,3-1.3,4.2c-0.7,1-2.4,1.8-4.1,1.8h-0.4c-1.7-0.1-2.4-0.4-2.4-0.4l-0.4,0.1
		c-0.1,0.1,0,0.4,0.1,0.7l0.1,0.1c0.1,0.8,0.6,3.4,0.6,3.9c0,7.6-3.1,10.9-6.3,13.3c-3.1,2.2-6.7,3.8-10.8,4.2c-0.1,0-0.4,0-1.3,0.1
		c-0.4,0-1.1,0.1-1.3,0.1h0.1c-0.7,0.1-2.5,1.1-2.5,2.7c0,1.4,0.8,3.1,4.8,3.4c0.8,0.1,1.7,0.1,2.5,0.1c5.3,0.4,11.8,0.8,14.9,1.8
		c4.2,1.5,6.9,5.3,6.9,9.8c0,6.9-4.9,13.2-13,17.1C306.2,168,302.3,168.9,298,168.9z M350.5,104.6c-2,0-3.6,0.4-5,1.4
		c-3.6,2.2-5.5,6.6-5.5,13.2c0,12.1,6,20.6,14.7,20.6c2.5,0,4.6-0.7,6.3-2.2c2.7-2.2,4.1-6.6,4.1-12.9
		C365.4,112.5,359.4,104.6,350.5,104.6z M352.2,144.1c-15.7,0-21.3-11.5-21.3-22.3c0-7.6,3.1-13.5,9.1-17.5
		c4.4-2.7,9.5-4.2,14.2-4.2c12.1,0,20.5,8.6,20.5,21c0,8.4-3.4,15-9.7,19.1C361.9,142.1,356.6,144.1,352.2,144.1L352.2,144.1z
		 M187.7,104.6c-2,0-3.6,0.4-5.1,1.4c-3.6,2.2-5.5,6.6-5.5,13.2c0,12.1,6,20.6,14.7,20.6c2.5,0,4.6-0.7,6.3-2.2
		c2.7-2.2,4.1-6.6,4.1-12.9C202.4,112.5,196.5,104.6,187.7,104.6z M189.3,144.1c-15.7,0-21.3-11.5-21.3-22.3
		c0-7.6,3.1-13.5,9.1-17.5c4.4-2.7,9.5-4.2,14.2-4.2c12.1,0,20.5,8.6,20.5,21c0,8.4-3.4,15-9.7,19.1
		C199.1,142.1,193.7,144.1,189.3,144.1z M83.8,143.1c-0.1-0.3-0.4-1.1-0.3-2.1c0-0.7,0.1-1.3,0.3-1.4c2-0.3,2.9-0.6,4.1-0.8
		c1.8-0.4,2.5-1.5,2.7-3.8c0.3-5.6,0.3-16.1,0.1-23.4v-0.1c0-0.8,0-1.8-1-2.5c-1.5-1-3.2-1.8-5.6-2.4c-0.8-0.3-1.4-0.7-1.3-1.3
		c0-0.6,0.6-1.3,1.8-1.4c3.1-0.3,10.9-2.2,14.2-3.6c0.1,0.1,0.4,0.7,0.4,1.5l-0.1,1c-0.1,1-0.1,2.2-0.1,3.4c0,0.4,0.4,0.7,0.7,0.7
		c0.1,0,0.4-0.1,0.6-0.1c5.9-4.6,11.2-6.3,14-6.3c4.5,0,8,2.1,10.7,6.6c0.1,0.3,0.4,0.4,0.7,0.4c0.1,0,0.4-0.1,0.6-0.3
		c5.5-4.2,10.9-6.6,14.4-6.6c8.6,0,13.6,6.3,13.6,17.3c0,3.1,0,7-0.1,10.7c0,3.2-0.1,6.2-0.1,8.3c0,0.4,0.7,2,1.7,2.2
		c1.3,0.7,3.1,1,5.3,1.3h0.1c0.1,0.7-0.1,3.1-0.6,3.5c-0.6,0-1.4,0-2.2-0.1c-1.8-0.1-4.2-0.1-7-0.1c-5.8,0-8.7,0.1-11.5,0.3
		c-0.1-0.7-0.3-3,0-3.5c1.7-0.3,2.5-0.6,3.5-0.8c1.8-0.6,2.2-1.4,2.4-3.8c0-1.8,0.4-16.7-0.1-20.3s-3.4-8-9.4-8
		c-2.2,0-5.9,1-9.4,3.6c-0.1,0.1-0.4,0.7-0.4,1v0.1c0.4,2,0.4,4.2,0.4,7.6v6c0,4.2-0.1,8,0,10.9c0,2,1.3,2.5,2.2,2.8
		c0.6,0.1,1,0.1,1.4,0.3c0.8,0.1,1.7,0.4,2.9,0.7c0.1,0.4,0.1,1.5-0.1,2.5c-0.1,0.6-0.3,0.8-0.4,1c-3.1-0.1-6.3-0.1-11.1-0.1
		c-1.4,0-3.8,0.1-5.8,0.1c-1.7,0-3.2,0.1-4.2,0.1c-0.1-0.1-0.3-0.8-0.3-1.8c0-0.8,0.1-1.5,0.4-1.7c0.4-0.1,0.8-0.1,1.3-0.1
		c1.1-0.1,2-0.4,2.9-0.6c1.5-0.4,2.1-1.3,2.2-3.4c0.3-4.6,0.6-17.8-0.1-21.2c-1.1-5.3-4.2-8-9.1-8c-2.8,0-6.4,1.4-9.4,3.6
		c-0.4,0.4-0.8,1.3-0.8,2.1v5.5c0,6.6,0,15,0.1,18.5c0.1,1.1,0.4,2.4,2.5,2.8c0.4,0.1,1.3,0.3,2.1,0.4l1.7,0.3
		c0.1,0.6,0.1,2.8-0.3,3.5c-1,0-2-0.1-3.4-0.1c-2-0.1-4.5-0.1-7.2-0.1c-3.2,0-5.6,0.1-7.4,0.1C85.9,143.1,84.9,143.1,83.8,143.1z"/>
	<path id="XMLID_19_" class="st2" d="M35.1,165.3l-3.8-1.3c0,0,0.4-19.4-6.5-20.8c-4.6-5.3,0.7-227.2,17.4-0.7c0,0-5.8,2.8-6.7,7.7
		C34.4,155.2,35.1,165.3,35.1,165.3z"/>
	<path id="XMLID_20_" class="st3" d="M35.1,165.3l-3.8-1.3c0,0,0.4-19.4-6.5-20.8c-4.6-5.3,0.7-227.2,17.4-0.7c0,0-5.8,2.8-6.7,7.7
		C34.4,155.2,35.1,165.3,35.1,165.3z"/>
	<path id="XMLID_21_" class="st2" d="M37.2,146.6c0,0,33.1-21.7,25.4-67.2c-7.4-33-25.1-43.8-27.1-48c-2.1-2.9-4.2-8.1-4.2-8.1
		l1.4,91.7C32.7,115.2,29.9,143.3,37.2,146.6"/>
	<path id="XMLID_22_" class="st4" d="M37.2,146.6c0,0,33.1-21.7,25.4-67.2c-7.4-33-25.1-43.8-27.1-48c-2.1-2.9-4.2-8.1-4.2-8.1
		l1.4,91.7C32.7,115.2,29.9,143.3,37.2,146.6"/>
	<path id="XMLID_23_" class="st2" d="M29.4,147.9c0,0-31.1-21.2-29.3-58.6s23.7-55.8,28-59.2c2.8-2.9,2.8-4.1,3.1-7
		c2,4.2,1.5,62.1,1.8,69C33.8,118.4,31.5,142.8,29.4,147.9z"/>
	<path id="XMLID_24_" class="st5" d="M29.4,147.9c0,0-31.1-21.2-29.3-58.6s23.7-55.8,28-59.2c2.8-2.9,2.8-4.1,3.1-7
		c2,4.2,1.5,62.1,1.8,69C33.8,118.4,31.5,142.8,29.4,147.9z"/>
</g>
</svg>
