<svg id="Layer_1" data-name="Layer 1" xmlns="http://www.w3.org/2000/svg" xmlns:xlink="http://www.w3.org/1999/xlink" viewBox="0 0 64 33.21"><defs><style>.cls-1{fill:none;}.cls-2{clip-path:url(#clip-path);}.cls-3{fill:url(#radial-gradient);}.cls-4{clip-path:url(#clip-path-2);}.cls-5{fill:#777bb3;}.cls-6{fill:#fff;}</style><clipPath id="clip-path" transform="translate(0 -3.75)"><path class="cls-1" d="M0,20.35C0,29.52,14.33,37,32,37s32-7.44,32-16.61S49.67,3.75,32,3.75,0,11.19,0,20.35"/></clipPath><radialGradient id="radial-gradient" cx="-266.5" cy="409.2" r="1" gradientTransform="matrix(42.02, 0, 0, -41.45, 11217.76, 16969.24)" gradientUnits="userSpaceOnUse"><stop offset="0" stop-color="#aeb2d5"/><stop offset="0.3" stop-color="#aeb2d5"/><stop offset="0.75" stop-color="#484c89"/><stop offset="1" stop-color="#484c89"/></radialGradient><clipPath id="clip-path-2" transform="translate(0 -3.75)"><rect class="cls-1" x="-1.33" y="1.86" width="66.67" height="36.99"/></clipPath></defs><title>php</title><g class="cls-2"><path class="cls-3" d="M0,20.35C0,29.52,14.33,37,32,37s32-7.44,32-16.61S49.67,3.75,32,3.75,0,11.19,0,20.35" transform="translate(0 -3.75)"/></g><g class="cls-4"><path class="cls-5" d="M32,35.72c17,0,30.75-6.88,30.75-15.37S49,5,32,5,1.25,11.87,1.25,20.35,15,35.72,32,35.72" transform="translate(0 -3.75)"/></g><g class="cls-4"><path d="M17.39,22.26a5.15,5.15,0,0,0,3.09-.75A4,4,0,0,0,21.82,19a2.69,2.69,0,0,0-.25-2.32A3.51,3.51,0,0,0,19,16H16.81l-1.24,6.28ZM10.09,30a.33.33,0,0,1-.27-.12.32.32,0,0,1-.07-.28L13,13a.36.36,0,0,1,.35-.28h7.06c2.22,0,3.88.59,4.91,1.77a5.45,5.45,0,0,1,1,4.9,7.55,7.55,0,0,1-.85,2.33,7.65,7.65,0,0,1-1.56,1.93,6.84,6.84,0,0,1-2.57,1.52,11.77,11.77,0,0,1-3.54.45H14.92l-.82,4.15a.34.34,0,0,1-.34.27Z" transform="translate(0 -3.75)"/><path class="cls-6" d="M17.1,16.32H19c1.55,0,2.09.34,2.28.54s.36,1,.16,2a3.7,3.7,0,0,1-1.21,2.34,4.77,4.77,0,0,1-2.88.69H16l1.11-5.6Zm3.33-4H13.37a.7.7,0,0,0-.69.55L9.41,29.52a.68.68,0,0,0,.54.8l.14,0h3.67a.7.7,0,0,0,.68-.56l.77-3.87h2.57a12.08,12.08,0,0,0,3.64-.46,7.37,7.37,0,0,0,2.71-1.6,8.37,8.37,0,0,0,1.63-2,8.26,8.26,0,0,0,.88-2.44,5.78,5.78,0,0,0-1-5.19c-1.11-1.25-2.85-1.88-5.18-1.88M15.15,22.6h2.24a5.47,5.47,0,0,0,3.31-.82A4.37,4.37,0,0,0,22.16,19a3,3,0,0,0-.33-2.62A3.77,3.77,0,0,0,19,15.64H16.52l-1.37,7M20.43,13q3.2,0,4.65,1.65A5.11,5.11,0,0,1,26,19.27a7.32,7.32,0,0,1-.81,2.23,7.62,7.62,0,0,1-1.49,1.85,6.55,6.55,0,0,1-2.45,1.45,11.71,11.71,0,0,1-3.43.43H14.63l-.87,4.42H10.09L13.37,13h7.06" transform="translate(0 -3.75)"/><path d="M34.73,25.57a.4.4,0,0,1-.27-.12.38.38,0,0,1-.07-.29l1.45-7.36c.14-.7.1-1.2-.1-1.41S35.25,16,34.17,16H31.54l-1.82,9.25a.35.35,0,0,1-.34.28H25.73a.35.35,0,0,1-.35-.34s0-.05,0-.07L28.67,8.52A.34.34,0,0,1,29,8.25h3.64a.34.34,0,0,1,.35.34v.06l-.8,4H35c2.15,0,3.61.38,4.47,1.15s1.13,2,.8,3.73l-1.53,7.74a.34.34,0,0,1-.34.28Z" transform="translate(0 -3.75)"/><path class="cls-6" d="M32.65,7.9H29a.7.7,0,0,0-.68.56L25.05,25.1a.68.68,0,0,0,.55.8h3.78a.7.7,0,0,0,.68-.55l1.77-9h2.34c1.08,0,1.31.23,1.32.24s.15.39,0,1.12L34.05,25.1a.68.68,0,0,0,.55.8h3.83a.68.68,0,0,0,.68-.55l1.53-7.74c.36-1.82,0-3.18-.91-4.06s-2.45-1.23-4.7-1.23h-2.4l.71-3.61a.69.69,0,0,0-.55-.8l-.13,0m0,.69L31.78,13H35c2,0,3.45.35,4.23,1.06s1,1.84.7,3.42l-1.53,7.74h-3.7l1.45-7.36A2,2,0,0,0,36,16.15a2.63,2.63,0,0,0-1.83-.45H31.25l-1.87,9.53H25.73L29,8.59h3.65" transform="translate(0 -3.75)"/><path d="M46.07,22.26a5.18,5.18,0,0,0,3.1-.75A4.13,4.13,0,0,0,50.51,19a2.73,2.73,0,0,0-.25-2.32A3.56,3.56,0,0,0,47.72,16H45.49l-1.24,6.28ZM38.77,30a.36.36,0,0,1-.27-.12.35.35,0,0,1-.07-.28L41.71,13a.34.34,0,0,1,.34-.28h7.06c2.23,0,3.88.59,4.92,1.77a5.51,5.51,0,0,1,1,4.9,8.1,8.1,0,0,1-.85,2.33,7.92,7.92,0,0,1-1.57,1.93A6.77,6.77,0,0,1,50,25.12a11.77,11.77,0,0,1-3.54.45H43.6l-.82,4.15a.34.34,0,0,1-.34.27Z" transform="translate(0 -3.75)"/><path class="cls-6" d="M45.78,16.32h1.94c1.56,0,2.1.34,2.28.54a2.52,2.52,0,0,1,.17,2A3.71,3.71,0,0,1,49,21.23a4.75,4.75,0,0,1-2.88.69H44.68l1.1-5.6Zm3.33-4H42.05a.69.69,0,0,0-.68.55L38.09,29.52a.68.68,0,0,0,.55.8l.13,0h3.67a.71.71,0,0,0,.69-.56l.76-3.87h2.57a12.15,12.15,0,0,0,3.65-.46,7.33,7.33,0,0,0,2.7-1.6,8.14,8.14,0,0,0,1.63-2,8.56,8.56,0,0,0,.89-2.44,5.78,5.78,0,0,0-1-5.19c-1.11-1.25-2.85-1.88-5.18-1.88M43.83,22.6h2.24a5.47,5.47,0,0,0,3.31-.82A4.42,4.42,0,0,0,50.85,19a3,3,0,0,0-.34-2.62,3.77,3.77,0,0,0-2.79-.76H45.21l-1.38,7M49.11,13q3.2,0,4.66,1.65a5.17,5.17,0,0,1,.88,4.61,7.33,7.33,0,0,1-.82,2.23,7.62,7.62,0,0,1-1.49,1.85,6.55,6.55,0,0,1-2.45,1.45,11.71,11.71,0,0,1-3.43.43H43.32l-.88,4.42H38.77L42.05,13h7.06" transform="translate(0 -3.75)"/></g></svg>