<?xml version="1.0" encoding="utf-8"?>
<!-- Generator: Adobe Illustrator 24.0.2, SVG Export Plug-In . SVG Version: 6.00 Build 0)  -->
<svg version="1.1" id="Layer_1" xmlns="http://www.w3.org/2000/svg" xmlns:xlink="http://www.w3.org/1999/xlink" x="0px" y="0px"
	 viewBox="0 0 512 213" style="enable-background:new 0 0 512 213;" xml:space="preserve">
<style type="text/css">
	.st0{fill:#CC0000;}
</style>
<g id="XMLID_1_">
	<path id="XMLID_2_" class="st0" d="M219.4,166.9c0,0,22.6-2,22.6-31.1s-27.4-31.8-27.4-31.8h-49.4V196h24.8v-22.2l21.5,22.2h36.8
		L219.4,166.9z M209.9,148.1h-19.8v-21H210c0,0,5.6,2.1,5.6,10.5S209.9,148.1,209.9,148.1z M303.3,104.4H278c-18,0-24,16.3-24,24
		v67.5h25.2v-16.1H303v16.1h24.4v-67.5C327.3,108.9,309.4,104.4,303.3,104.4z M302.9,153.7h-23.7v-22.3c0,0,0-5,7.9-5h8.7
		c7,0,7.1,5,7.1,5V153.7L302.9,153.7z M338.8,104.4H365v91.5h-26.2V104.4z M401.9,172.3v-67.8h-26.1v67.8V196h26.1h35.2v-23.7H401.9
		z M445.8,172.6V196H488c8.7,0,23.6-6.3,24-24v-9c0-15.1-12.3-24-24-24h-21v-10.8h41.7v-23.6h-40c-10.4,0-24.1,8.6-24.1,24.4v8.1
		c0,15.9,13.8,24,24.1,24c29,0.1-7,0,19.9,0v11.4H445.8z"/>
	<path id="XMLID_10_" class="st0" d="M9,195.8h102c0,0-19.5-88.9,45-125c14-6.9,58.9-32.4,132.3,21.9c2.4-2,4.5-3.5,4.5-3.5
		s-67.2-67.1-142-59.5c-37.6,3.4-83.9,37.6-111,82.8C12.9,157.6,9,195.8,9,195.8z M221.6,36.8l0.6-8.7c-1.1-0.7-4.4-2.2-12.5-4.5
		l-0.6,8.6C213.4,33.6,217.6,35.1,221.6,36.8z M209.4,64.2l-0.6,8.1c4.2,0.1,8.6,0.7,12.8,1.5l0.6-8C217.7,65,213.5,64.5,209.4,64.2
		z M161.6,23.9h1.3l-2.5-7.9c-4.1,0-8.1,0.3-12.3,0.8l2.4,7.6C154,24.1,157.8,23.9,161.6,23.9z M167.8,71.5l2.9,9
		c3.8-1.8,7.4-3.4,11.2-4.5l-2.8-8.6C174.8,68.5,171,70.1,167.8,71.5z M109.1,37.5l-5.8-9c-3.2,1.7-6.6,3.5-10.1,5.6l5.9,9
		C102.5,41,105.8,39.1,109.1,37.5z M135.6,95.6l6.2,9.3c2.2-3.2,4.8-6.2,7.6-9.1l-5.8-8.8C140.7,89.7,137.9,92.6,135.6,95.6z
		 M116.8,137.1l10.5,8.3c0.6-5,1.4-10.1,2.7-15.1l-9.3-7.3C119.1,127.7,118,132.5,116.8,137.1z M60.3,75.8l-9.1-8
		c-3.4,3.2-6.6,6.4-9.5,9.7l10,8.6C54.3,82.6,57.2,79.1,60.3,75.8z M21.3,133.6l-14.9-5.5c-2.4,5.6-5.2,12.1-6.4,15.4l14.9,5.5
		C16.5,144.7,19.2,138.4,21.3,133.6z M114.9,169.9c0.3,6.9,0.8,12.3,1.5,16.3l15.4,5.6c-1.1-5-2.4-10.7-3.1-16.8L114.9,169.9z"/>
</g>
</svg>
