<?xml version="1.0" standalone="no"?>
<!DOCTYPE svg PUBLIC "-//W3C//DTD SVG 20010904//EN"
 "http://www.w3.org/TR/2001/REC-SVG-20010904/DTD/svg10.dtd">
<svg version="1.0" xmlns="http://www.w3.org/2000/svg"
 width="436.000000pt" height="586.000000pt" viewBox="0 0 436.000000 586.000000"
 preserveAspectRatio="xMidYMid meet">

<g transform="translate(0.000000,586.000000) scale(0.100000,-0.100000)"
fill="#000000" stroke="none">
<path d="M1916 4469 c-619 -80 -1167 -428 -1518 -964 -172 -262 -289 -563
-344 -885 -25 -150 -30 -476 -9 -645 26 -214 89 -450 172 -640 40 -91 38 -90
101 -45 30 22 59 40 64 40 18 0 -77 -99 -95 -100 -15 0 -12 -10 19 -72 43 -85
112 -195 160 -254 27 -34 38 -41 61 -37 28 4 28 4 5 -9 l-22 -14 27 -34 c40
-50 225 -240 234 -240 5 0 11 16 15 35 3 19 10 37 14 40 8 5 -3 -56 -14 -73
-24 -39 477 -368 572 -375 12 -1 22 -4 22 -8 0 -11 145 -64 255 -92 219 -57
263 -62 535 -62 226 0 268 3 367 23 461 93 824 289 1139 614 275 284 459 611
559 993 61 232 69 302 69 590 0 288 -8 358 -69 590 -63 240 -157 453 -293 660
-354 541 -903 887 -1532 965 -99 12 -395 11 -494 -1z m76 -267 c7 -7 18 -12
25 -12 8 0 16 -6 19 -14 3 -8 12 -12 20 -9 8 3 23 -5 34 -18 10 -13 19 -20 20
-16 0 4 6 2 14 -5 11 -10 11 -16 2 -27 -7 -9 0 -7 17 4 15 10 27 14 25 9 -2
-5 0 -10 5 -12 10 -3 59 7 78 18 18 9 44 -3 36 -17 -3 -5 1 -10 9 -10 8 0 13
6 10 14 -4 10 -1 10 14 1 18 -11 18 -14 3 -30 -9 -10 -12 -18 -7 -18 14 0 31
33 28 53 -3 19 12 23 19 5 3 -10 8 -10 18 1 9 9 9 11 2 7 -24 -13 -13 12 11
28 16 10 27 12 31 6 4 -6 12 -8 18 -4 7 3 -4 -9 -23 -27 -19 -17 -29 -29 -22
-25 6 4 12 3 12 -3 0 -5 9 -8 20 -6 11 2 18 1 16 -3 -2 -4 4 -8 14 -8 10 0 16
6 13 13 -3 7 -1 13 5 13 6 0 13 -6 15 -12 4 -10 6 -10 6 -1 1 6 -3 15 -9 18
-5 3 -10 15 -10 26 0 11 4 17 10 14 6 -3 7 1 4 9 -7 17 6 20 43 10 13 -4 20
-11 16 -18 -3 -6 0 -6 8 2 46 43 160 -31 244 -158 55 -82 83 -153 90 -227 3
-32 8 -74 11 -93 14 -101 19 -191 16 -342 -2 -186 -1 -191 57 -142 30 25 33
25 55 10 20 -12 26 -27 31 -78 4 -35 2 -74 -3 -88 -6 -15 -13 -57 -16 -95 -7
-71 -48 -196 -74 -227 -18 -22 -48 -23 -86 -3 -15 8 -30 15 -32 15 -1 0 -15
-39 -29 -87 -15 -49 -33 -100 -41 -115 -8 -15 -16 -67 -19 -115 -2 -49 -7
-135 -10 -193 -7 -150 -30 -296 -51 -328 -39 -60 -111 -115 -219 -167 -137
-65 -204 -89 -247 -88 -10 0 -18 -4 -18 -8 0 -5 -9 -9 -19 -9 -11 0 -23 -5
-26 -10 -4 -6 -11 -8 -16 -5 -5 4 -9 2 -9 -4 0 -9 -18 -14 -99 -27 -28 -4 -41
-3 -37 4 3 6 -1 8 -12 5 -10 -2 -41 11 -72 32 -29 20 -86 51 -125 69 -134 62
-250 148 -282 210 -19 35 -21 198 -4 321 26 185 24 251 -9 405 -18 80 -34 149
-37 153 -3 5 -13 1 -23 -8 -10 -9 -29 -15 -42 -13 -33 4 -67 98 -81 218 -21
194 -11 276 36 297 25 11 60 6 52 -7 -3 -5 4 -14 16 -20 13 -7 19 -8 15 -2 -3
6 -1 14 5 18 11 6 6 128 -8 182 -3 12 0 73 5 135 26 270 25 263 32 232 l6 -30
8 35 c12 51 56 161 77 192 20 28 25 53 9 43 -5 -3 -10 -2 -10 2 0 5 9 14 20
20 16 11 18 10 14 -2 -5 -11 -2 -13 10 -9 8 3 18 14 21 25 4 10 23 31 43 47
20 15 43 33 50 40 13 11 27 16 45 13 4 0 7 3 7 7 0 10 2 10 83 18 42 4 57 2
57 -8 0 -8 5 -7 16 4 18 18 38 18 56 0z m-633 -2209 c-13 -46 -17 -83 -13
-113 3 -25 6 -51 7 -57 0 -7 4 -13 9 -13 4 0 8 6 8 13 1 21 39 -57 40 -80 0
-14 6 -23 15 -23 8 0 15 -7 15 -15 0 -13 4 -13 28 2 26 16 26 16 10 -1 -14
-17 -15 -22 -1 -55 8 -20 24 -43 36 -53 16 -12 18 -19 10 -30 -6 -7 -14 -37
-17 -67 -3 -29 -8 -68 -11 -85 -2 -17 -7 -54 -9 -81 -6 -59 -14 -85 -28 -85
-6 0 -8 -7 -5 -15 4 -8 2 -17 -2 -19 -5 -3 -8 7 -9 22 0 43 -1 43 -26 27 -22
-14 -24 -14 -30 1 -4 10 -4 43 0 74 4 35 2 60 -4 64 -13 8 -122 -45 -122 -60
0 -12 -166 -61 -175 -52 -6 6 123 48 148 48 9 0 17 6 17 14 0 8 15 19 33 25
56 19 81 45 73 74 -3 15 -12 24 -19 22 -7 -3 -20 13 -32 40 -15 35 -22 42 -33
33 -14 -12 -32 4 -32 29 0 7 -8 17 -17 22 -12 7 -14 10 -4 11 10 0 12 13 8 58
-7 70 4 126 31 155 11 12 32 56 47 97 23 64 60 140 69 140 2 0 -5 -30 -15 -67z
m1600 -220 c6 -13 12 -52 13 -88 2 -53 -1 -68 -17 -82 -15 -14 -16 -14 -7 -2
10 13 10 18 -1 22 -9 3 -13 -5 -12 -27 0 -17 5 -30 11 -29 6 1 9 -10 6 -29 -5
-30 -6 -30 -19 -12 -8 10 -19 18 -25 16 -6 -2 -8 4 -5 12 7 18 -2 28 -17 18
-6 -4 -13 -7 -16 -7 -8 0 -47 -30 -47 -35 0 -21 -17 -50 -34 -55 -36 -12 -18
-96 34 -152 15 -17 17 -23 6 -23 -8 1 -27 19 -44 40 -16 21 -35 39 -40 40 -17
0 -35 -22 -35 -42 0 -27 -48 -118 -65 -125 -8 -3 -12 -9 -9 -14 3 -5 -2 -6
-10 -3 -9 3 -17 17 -17 30 -1 13 -2 39 -3 57 -2 31 22 90 34 82 3 -2 7 5 7 16
1 12 -3 17 -9 13 -7 -5 -8 -2 -2 7 4 8 7 24 6 36 -2 16 5 26 28 38 17 9 28 20
25 26 -4 5 -11 6 -17 3 -6 -4 -3 7 8 24 10 17 20 29 22 27 3 -3 -1 -11 -8 -20
-7 -9 -10 -18 -7 -21 3 -3 10 3 15 13 12 21 4 75 -9 67 -5 -3 -9 -1 -9 5 0 5
-3 16 -6 25 -8 20 10 21 30 0 9 -8 20 -13 26 -9 6 4 7 -1 4 -12 -10 -33 37 36
77 111 26 50 36 80 32 96 -5 18 -3 22 9 18 8 -4 15 -1 16 5 1 7 7 36 14 65
l12 53 21 -78 c12 -43 27 -88 34 -100z m-1766 7 c-6 -23 -19 -26 -26 -6 -5 13
5 23 25 25 3 1 4 -8 1 -19z m-58 -20 c-10 -11 -24 -20 -32 -20 -7 0 -13 -4
-13 -9 0 -5 -24 -19 -52 -31 -29 -12 -60 -28 -68 -35 -8 -8 -22 -15 -30 -17
-8 -2 -22 -10 -32 -19 -10 -9 -31 -22 -46 -29 -15 -7 -36 -17 -47 -23 -11 -6
-42 -23 -70 -38 -91 -48 -250 -142 -263 -156 -7 -7 -19 -13 -25 -13 -7 0 -7 3
-1 8 23 21 235 162 289 192 63 36 397 209 404 210 2 0 -4 -9 -14 -20z m1659
-71 c-14 -28 -28 -49 -31 -46 -5 5 45 97 53 97 2 0 -7 -23 -22 -51z m-1824
-93 c0 -2 -7 -7 -16 -10 -8 -3 -12 -2 -9 4 6 10 25 14 25 6z m165 -16 c-27
-12 -43 -12 -25 0 8 5 22 9 30 9 10 0 8 -3 -5 -9z m-155 -30 c-8 -5 -22 -9
-30 -9 -10 0 -8 3 5 9 27 12 43 12 25 0z m-85 -31 c-22 -12 -51 -30 -64 -40
-13 -11 -26 -17 -29 -14 -3 3 3 12 14 19 10 8 30 23 44 35 14 11 36 20 50 21
21 0 19 -3 -15 -21z m-175 -19 c-14 -11 -28 -20 -32 -20 -5 0 -7 -5 -5 -10 1
-6 -18 -19 -43 -30 -38 -17 -41 -17 -22 -2 12 9 41 32 65 49 23 18 47 33 52
33 6 0 -1 -9 -15 -20z m922 -84 c11 -25 6 -56 -9 -56 -4 0 -9 14 -9 31 -1 17
-7 35 -15 40 -11 7 -10 9 4 9 9 0 22 -11 29 -24z m-1075 -21 c-17 -15 -34 -22
-44 -18 -13 5 -8 11 23 24 52 23 54 23 21 -6z m2057 -27 c-11 -17 -19 -6 -21
25 l-2 32 14 -25 c7 -14 11 -28 9 -32z m-2194 -12 c0 -2 -8 -10 -17 -17 -16
-13 -17 -12 -4 4 13 16 21 21 21 13z m1860 0 c0 -2 -8 -10 -17 -17 -16 -13
-17 -12 -4 4 13 16 21 21 21 13z m-592 -42 c-4 -3 0 -17 8 -32 8 -16 10 -28 4
-30 -6 -2 -10 -13 -10 -24 0 -17 -4 -15 -23 13 -17 25 -20 35 -10 37 7 2 13
12 13 23 0 10 5 19 12 19 6 0 9 -3 6 -6z m1182 -44 c0 -5 -4 -12 -10 -15 -5
-3 -10 -4 -10 -1 0 2 -3 12 -6 20 -5 12 -2 15 10 10 9 -3 16 -10 16 -14z
m-1863 4 c-3 -3 -12 -4 -19 -1 -8 3 -5 6 6 6 11 1 17 -2 13 -5z m-40 -10 c-3
-3 -12 -4 -19 -1 -8 3 -5 6 6 6 11 1 17 -2 13 -5z m2263 -29 c20 -24 6 -28
-15 -5 -10 11 -13 20 -8 20 6 0 16 -7 23 -15z m-2046 -60 c-4 -8 -11 -12 -16
-9 -6 4 -5 10 3 15 19 12 19 11 13 -6z m-747 -1 c-3 -3 -12 -4 -19 -1 -8 3 -5
6 6 6 11 1 17 -2 13 -5z m956 -43 c-42 -36 -123 -77 -123 -61 0 5 15 13 33 19
19 7 51 28 73 49 21 20 43 35 48 33 5 -2 -9 -21 -31 -40z m-1016 33 c-3 -3
-12 -4 -19 -1 -8 3 -5 6 6 6 11 1 17 -2 13 -5z m2278 -46 c55 -64 58 -68 54
-68 -3 0 -27 23 -54 50 -27 28 -45 50 -39 50 6 0 23 -15 39 -32z m-1136 -125
c0 -24 16 -96 25 -114 4 -8 0 -5 -9 6 -8 11 -21 38 -27 60 -7 22 -19 45 -28
52 -13 11 -11 12 12 13 19 0 27 -5 27 -17z m-124 -3 c-45 -13 -255 -34 -262
-26 -3 3 3 6 14 6 11 0 22 3 25 6 4 3 46 8 94 10 48 3 90 7 93 9 2 3 18 5 35
4 l31 -1 -30 -8z m521 -4 c26 -19 16 -25 -25 -14 -26 7 -31 12 -20 19 19 12
22 11 45 -5z m811 -2 c-3 -3 -12 -4 -19 -1 -8 3 -5 6 6 6 11 1 17 -2 13 -5z
m-1060 -10 c-3 -3 -12 -4 -19 -1 -8 3 -5 6 6 6 11 1 17 -2 13 -5z m118 -4 c-3
-5 -10 -10 -16 -10 -5 0 -9 5 -9 10 0 6 7 10 16 10 8 0 12 -4 9 -10z m1078 -7
c-7 -2 -19 -2 -25 0 -7 3 -2 5 12 5 14 0 19 -2 13 -5z m-1744 -8 c-6 -6 -146
-35 -162 -34 -18 1 115 37 142 38 13 1 22 -1 20 -4z m1898 -11 c-3 -3 -12 -4
-19 -1 -8 3 -5 6 6 6 11 1 17 -2 13 -5z m-2180 -38 c-18 -14 -96 -30 -105 -22
-2 3 9 8 24 11 16 4 38 10 49 15 11 5 27 9 35 9 12 0 11 -2 -3 -13z m2463 -26
c0 -5 -7 -7 -15 -4 -8 4 -15 8 -15 10 0 2 7 4 15 4 8 0 15 -4 15 -10z m-1735
-68 c-9 -9 -25 11 -25 31 1 21 1 21 15 -3 7 -14 12 -27 10 -28z m365 -63 c16
-28 -11 -69 -45 -69 -27 0 -65 31 -65 53 0 15 27 42 50 49 20 7 47 -8 60 -33z
m-462 -146 c-10 -2 -28 -2 -40 0 -13 2 -5 4 17 4 22 1 32 -1 23 -4z m207 -3
c17 -7 16 -9 -10 -9 -16 0 -37 4 -45 9 -12 8 -10 10 10 9 14 0 34 -4 45 -9z
m-455 -10 c0 -5 -6 -10 -12 -10 -7 -1 -38 -3 -68 -5 l-55 -4 50 13 c63 17 85
19 85 6z m133 3 c-13 -2 -33 -2 -45 0 -13 2 -3 4 22 4 25 0 35 -2 23 -4z m584
1 c-3 -3 -12 -4 -19 -1 -8 3 -5 6 6 6 11 1 17 -2 13 -5z m433 -14 c-6 -11 -13
-20 -16 -20 -2 0 0 9 6 20 6 11 13 20 16 20 2 0 0 -9 -6 -20z m445 10 c3 -5
-1 -10 -9 -10 -9 0 -16 5 -16 10 0 6 4 10 9 10 6 0 13 -4 16 -10z m85 -10 c20
-6 21 -8 5 -8 -11 0 -31 4 -45 8 -20 6 -21 8 -5 8 11 0 31 -4 45 -8z m-1837
-17 c-7 -2 -21 -2 -30 0 -10 3 -4 5 12 5 17 0 24 -2 18 -5z m144 -8 c0 -8 -4
-12 -9 -9 -5 3 -6 10 -3 15 9 13 12 11 12 -6z m-237 -4 c-17 -9 -105 -22 -96
-14 7 7 65 21 91 22 16 0 17 -1 5 -8z m2127 -7 c-3 -3 -12 -4 -19 -1 -8 3 -5
6 6 6 11 1 17 -2 13 -5z m153 -24 c12 -8 12 -10 -5 -10 -11 0 -27 5 -35 10
-12 8 -12 10 5 10 11 0 27 -5 35 -10z m145 -40 c3 -6 -1 -7 -9 -4 -18 7 -21
14 -7 14 6 0 13 -4 16 -10z m-912 -277 c-24 -2 -62 -2 -85 0 -24 2 -5 4 42 4
47 0 66 -2 43 -4z m-980 -10 c-13 -2 -35 -2 -50 0 -16 2 -5 4 22 4 28 0 40 -2
28 -4z m190 0 c-7 -2 -19 -2 -25 0 -7 3 -2 5 12 5 14 0 19 -2 13 -5z m460 -10
c-7 -2 -19 -2 -25 0 -7 3 -2 5 12 5 14 0 19 -2 13 -5z m624 1 c-3 -3 -12 -4
-19 -1 -8 3 -5 6 6 6 11 1 17 -2 13 -5z"/>
<path d="M2515 4110 c4 -6 11 -8 16 -5 14 9 11 15 -7 15 -8 0 -12 -5 -9 -10z"/>
<path d="M2410 4080 c-13 -8 -12 -10 3 -10 9 0 17 5 17 10 0 12 -1 12 -20 0z"/>
<path d="M2350 4070 c0 -5 5 -10 11 -10 5 0 7 5 4 10 -3 6 -8 10 -11 10 -2 0
-4 -4 -4 -10z"/>
<path d="M2425 3623 c-51 -10 -72 -25 -83 -59 -15 -51 2 -81 53 -90 22 -3 46
-9 53 -13 7 -4 46 1 85 10 40 10 92 21 116 24 24 3 46 7 48 9 3 2 29 -5 60
-15 30 -11 58 -18 60 -15 10 9 -33 54 -74 80 -24 14 -64 28 -90 31 -27 4 -64
13 -83 22 -34 16 -106 24 -145 16z"/>
<path d="M1684 3597 c-61 -26 -80 -41 -87 -68 -4 -15 -2 -19 10 -15 8 3 30 6
49 6 22 0 33 4 32 13 -5 20 52 20 81 0 24 -18 103 -51 126 -54 6 0 18 -5 27
-10 10 -5 26 -5 40 0 13 5 34 12 48 15 35 9 56 27 63 57 6 23 2 29 -28 43 -19
9 -36 20 -39 24 -3 5 -65 9 -138 9 -116 2 -139 -1 -184 -20z"/>
<path d="M1710 3520 c0 -5 5 -10 11 -10 5 0 7 5 4 10 -3 6 -8 10 -11 10 -2 0
-4 -4 -4 -10z"/>
<path d="M1940 3441 c0 -5 -8 -10 -17 -9 -59 1 -239 -62 -257 -90 -3 -6 8 -13
26 -17 18 -4 51 -15 73 -25 121 -54 131 -55 203 -17 51 27 63 42 41 49 -7 2
-7 12 2 31 7 15 10 28 8 30 -2 2 -21 15 -41 30 -21 16 -38 24 -38 18z m-156
-94 c6 -26 5 -28 -16 -22 -33 10 -33 13 -13 35 21 23 20 24 29 -13z"/>
<path d="M2403 3412 c-29 -20 -34 -29 -31 -53 3 -17 1 -32 -4 -35 -4 -3 -8 -9
-8 -14 0 -15 78 -90 93 -90 8 0 20 -7 28 -16 11 -14 13 -14 22 1 9 16 55 40
70 36 5 -1 6 3 2 8 -3 6 14 15 37 22 24 6 48 15 54 20 6 5 18 7 26 4 9 -4 18
0 21 8 10 25 -190 110 -234 99 -4 -1 -5 7 -2 16 6 26 -31 23 -74 -6z m232 -82
c10 -11 16 -20 14 -20 -2 0 -19 -4 -37 -9 -31 -9 -32 -9 -32 20 0 35 27 40 55
9z"/>
<path d="M2190 3215 c0 -5 4 -16 9 -23 6 -10 11 -9 22 4 11 14 11 16 0 10 -8
-5 -17 -3 -22 5 -5 8 -9 10 -9 4z"/>
<path d="M1333 3158 c-11 -26 -6 -105 8 -113 5 -3 8 26 8 65 -1 38 -2 70 -3
70 -2 0 -7 -10 -13 -22z"/>
<path d="M3030 3145 c-2 -5 -1 -14 0 -20 1 -5 2 -37 3 -70 0 -43 2 -53 7 -35
11 34 10 91 0 115 -5 11 -9 16 -10 10z"/>
<path d="M1400 3042 c-16 -13 -23 -29 -22 -52 1 -38 7 -45 45 -54 20 -5 27 -3
27 8 0 8 -5 18 -10 21 -7 4 -8 24 -4 51 7 49 -1 54 -36 26z"/>
<path d="M2915 3020 c-3 -6 -3 -29 0 -53 6 -35 3 -46 -14 -61 -22 -20 -29 -56
-11 -56 5 0 15 9 22 20 8 12 24 20 38 20 36 0 50 18 50 60 0 37 -23 81 -35 68
-4 -4 -16 -3 -26 2 -12 7 -20 7 -24 0z"/>
<path d="M2035 2983 c-24 -6 -45 -22 -45 -34 0 -12 41 -11 79 2 34 12 40 24
15 33 -17 6 -18 6 -49 -1z"/>
<path d="M2240 2962 c0 -4 18 -19 41 -31 30 -17 44 -20 52 -12 21 21 -6 46
-52 49 -22 2 -41 -1 -41 -6z"/>
<path d="M2975 2830 c-3 -5 -1 -10 4 -10 6 0 11 5 11 10 0 6 -2 10 -4 10 -3 0
-8 -4 -11 -10z"/>
<path d="M2854 2766 c-10 -21 -9 -24 7 -23 13 1 19 9 19 24 0 30 -12 29 -26
-1z"/>
<path d="M2103 2774 c-15 -7 -1 -24 34 -42 33 -18 103 14 73 33 -14 9 -92 15
-107 9z"/>
<path d="M1991 2673 c-2 -19 -74 -58 -111 -58 -29 0 -36 -4 -38 -23 -3 -23 -2
-23 45 -16 26 4 57 13 68 20 18 12 47 20 80 23 6 1 0 9 -11 19 -12 9 -24 24
-27 32 -3 8 -6 10 -6 3z"/>
<path d="M2106 2627 c-16 -11 -13 -13 25 -15 23 -2 49 -7 58 -11 19 -10 131
-9 147 1 11 7 52 -33 44 -42 -8 -8 60 -12 88 -5 23 6 24 7 7 25 -12 14 -25 18
-42 14 -13 -4 -30 -1 -39 6 -8 7 -25 14 -37 14 -12 1 -27 5 -34 9 -7 4 -16 0
-22 -10 -6 -10 -11 -12 -11 -5 0 15 -36 16 -45 2 -4 -7 -14 -3 -25 10 -13 15
-19 17 -23 7 -3 -9 -17 -12 -41 -9 -20 2 -33 8 -30 13 7 13 1 11 -20 -4z"/>
<path d="M2735 2450 c-3 -5 -3 -10 0 -10 4 0 -3 -12 -14 -26 -20 -25 -31 -59
-13 -38 22 24 53 84 43 84 -5 0 -13 -4 -16 -10z"/>
<path d="M2656 2313 c-6 -14 -5 -15 5 -6 7 7 10 15 7 18 -3 3 -9 -2 -12 -12z"/>
<path d="M2562 2251 c-13 -3 -23 -10 -23 -16 0 -5 -6 -9 -14 -7 -7 1 -15 -5
-19 -13 -3 -9 -10 -13 -16 -10 -5 3 -10 0 -10 -8 0 -25 -28 -39 -80 -39 -38 1
-55 -4 -69 -19 -18 -19 -19 -19 -26 -2 -5 10 -7 21 -7 26 1 4 -5 7 -13 7 -8 0
-15 5 -15 12 0 9 -3 9 -11 1 -15 -15 -61 7 -54 26 8 20 -15 32 -38 20 -13 -7
-23 -7 -33 2 -15 12 -29 6 -29 -14 0 -6 -13 -11 -30 -11 -32 0 -72 -36 -53
-47 6 -4 7 -12 4 -18 -4 -6 -13 -8 -19 -4 -15 9 -58 4 -75 -9 -9 -8 -18 -6
-30 6 -10 9 -24 16 -30 16 -6 0 -14 5 -18 12 -5 7 -2 8 7 3 8 -5 11 -5 7 0 -4
4 -2 15 4 24 7 9 1 6 -14 -7 -15 -14 -28 -19 -32 -14 -3 6 0 12 6 15 7 3 0 10
-16 16 -16 6 -31 10 -33 7 -2 -2 20 -28 49 -59 50 -51 113 -94 131 -89 5 1 23
-8 40 -20 29 -21 43 -23 145 -22 108 1 115 2 185 37 76 38 182 113 231 166 33
34 32 41 -2 32z m-273 -125 c9 -11 9 -16 0 -22 -8 -4 -9 -3 -5 4 4 7 2 12 -3
12 -6 0 -11 5 -11 10 0 14 5 13 19 -4z"/>
<path d="M2430 1729 c0 -5 5 -7 10 -4 6 3 10 8 10 11 0 2 -4 4 -10 4 -5 0 -10
-5 -10 -11z"/>
<path d="M2665 1460 c-3 -6 1 -7 9 -4 18 7 21 14 7 14 -6 0 -13 -4 -16 -10z"/>
<path d="M1874 745 c-9 -23 4 -47 23 -43 22 4 30 38 11 49 -19 13 -28 11 -34
-6z"/>
</g>
</svg>
