<?xml version="1.0" standalone="no"?>
<!DOCTYPE svg PUBLIC "-//W3C//DTD SVG 20010904//EN"
 "http://www.w3.org/TR/2001/REC-SVG-20010904/DTD/svg10.dtd">
<svg version="1.0" xmlns="http://www.w3.org/2000/svg"
 width="436.000000pt" height="455.000000pt" viewBox="0 0 436.000000 455.000000"
 preserveAspectRatio="xMidYMid meet">

<g transform="translate(0.000000,455.000000) scale(0.100000,-0.100000)"
fill="#000000" stroke="none">
<path d="M2015 4479 c-787 -60 -1480 -566 -1801 -1314 -138 -320 -191 -607
-181 -975 6 -225 20 -327 72 -525 39 -149 125 -382 151 -407 6 -7 75 34 102
59 12 12 32 18 32 10 0 -2 -27 -25 -59 -52 l-59 -49 35 -70 c42 -83 111 -194
159 -252 27 -34 38 -41 61 -37 28 4 28 4 5 -9 l-22 -14 27 -34 c40 -50 225
-240 234 -240 5 0 11 16 15 35 3 19 10 37 14 40 8 5 -3 -56 -13 -72 -11 -18
105 -116 243 -205 236 -153 472 -248 767 -309 126 -26 464 -37 609 -20 175 21
321 57 514 126 25 9 95 40 155 69 574 275 1008 815 1170 1455 117 467 86 968
-87 1406 -315 794 -1019 1323 -1843 1385 -152 11 -153 11 -300 -1z m-27 -265
c13 -9 29 -13 37 -10 10 4 15 -1 15 -15 0 -11 4 -17 10 -14 5 3 22 -6 36 -20
22 -22 26 -24 22 -8 -3 12 0 20 8 20 7 0 11 -4 8 -9 -10 -16 21 -34 63 -36 31
-2 45 2 53 15 11 17 11 17 6 0 -4 -12 -2 -16 6 -11 7 4 27 9 45 9 29 2 33 -1
27 -18 -4 -13 -2 -17 5 -13 6 4 11 14 11 22 0 8 9 14 20 14 11 0 20 5 20 11 0
5 4 8 9 5 5 -4 11 -1 13 6 4 10 10 10 31 1 20 -9 27 -9 31 0 3 9 5 9 5 0 1 -7
-8 -17 -20 -23 -16 -9 -18 -14 -8 -26 15 -18 30 -18 23 1 -4 8 -2 15 4 15 5 0
13 11 16 24 6 25 42 41 60 27 6 -5 23 -7 38 -4 30 4 108 -31 108 -48 0 -6 4
-8 9 -4 20 12 115 -116 165 -221 24 -50 59 -270 55 -347 -1 -18 4 -45 10 -61
6 -16 9 -36 7 -45 -3 -9 -7 -76 -11 -148 -7 -147 -3 -156 49 -108 35 32 49 31
76 -2 19 -24 21 -37 17 -93 -12 -162 -40 -284 -86 -369 -19 -37 -65 -39 -106
-6 -14 12 -16 18 -7 21 6 3 12 15 12 27 -1 22 -1 22 -15 3 -8 -11 -15 -28 -15
-38 0 -9 -18 -71 -39 -136 -35 -107 -40 -135 -49 -283 -6 -90 -10 -171 -9
-179 4 -32 -25 -197 -40 -233 -32 -75 -148 -157 -323 -228 -69 -28 -128 -48
-157 -53 -10 -2 -43 -15 -73 -28 -30 -14 -61 -23 -68 -20 -8 2 -25 -1 -38 -8
-21 -12 -31 -9 -89 19 -36 18 -65 36 -65 40 0 8 -83 52 -104 55 -22 3 -160 93
-209 137 -73 64 -81 85 -79 220 1 64 6 138 11 165 5 27 13 103 16 169 6 103 4
131 -13 200 -12 44 -26 106 -32 137 -12 63 -21 75 -40 53 -7 -8 -23 -15 -36
-15 -40 0 -70 80 -85 220 -4 47 -11 108 -15 136 -7 61 15 143 45 161 22 14 57
7 65 -14 5 -12 8 -12 22 2 14 14 15 28 8 93 -10 97 -10 143 -1 262 13 161 19
207 27 185 5 -15 10 -7 20 34 14 61 64 176 80 186 5 3 10 13 10 21 0 8 -4 12
-10 9 -5 -3 -10 -2 -10 4 0 6 9 15 20 21 17 9 19 8 14 -7 -3 -10 12 2 34 27
22 25 38 49 35 55 -4 5 -3 7 2 3 4 -4 31 7 60 23 62 35 82 41 153 44 29 2 56
6 59 9 9 9 16 7 41 -10z m-638 -2239 c-11 -48 -6 -114 8 -125 21 -14 52 -71
52 -94 0 -15 8 -30 20 -36 11 -6 18 -16 14 -22 -4 -5 6 -2 22 8 l29 18 -18
-21 c-10 -11 -14 -23 -8 -24 5 -2 12 -16 15 -31 6 -36 14 -48 32 -48 16 0 18
-23 4 -50 -11 -20 -17 -59 -26 -165 -6 -76 -32 -175 -45 -175 -5 0 -5 7 -2 17
5 11 3 14 -6 8 -10 -6 -11 -3 -2 12 14 28 3 35 -24 17 -20 -13 -23 -13 -29 2
-4 10 -4 43 0 74 4 35 2 60 -4 64 -13 8 -122 -46 -122 -61 0 -7 -12 -15 -27
-19 -16 -3 -52 -13 -81 -21 -29 -8 -58 -13 -64 -11 -13 5 118 48 145 48 9 0
17 6 17 13 0 6 24 23 53 37 37 18 53 32 55 48 3 16 -2 25 -15 28 -11 3 -24 19
-31 36 -6 16 -16 27 -21 23 -7 -4 -8 0 -4 11 5 13 2 15 -14 10 -17 -5 -23 -1
-31 24 -6 16 -17 30 -24 30 -10 0 -10 2 1 9 10 6 12 23 8 62 -7 67 5 124 32
153 12 12 32 54 45 93 40 118 67 152 46 58z m1590 -148 c16 -46 30 -103 31
-128 4 -49 -8 -119 -19 -119 -5 0 -6 -17 -4 -37 4 -38 4 -38 -13 -15 -16 22
-18 22 -30 6 -11 -16 -12 -15 -10 9 2 15 -1 27 -7 27 -6 0 -8 -6 -5 -13 3 -8
-1 -14 -8 -14 -8 0 -11 7 -7 16 3 9 -7 1 -22 -16 -19 -23 -26 -39 -22 -55 3
-13 3 -17 0 -10 -5 10 -10 9 -21 -5 -8 -10 -11 -11 -7 -3 4 9 3 12 -2 7 -5 -5
-9 -12 -10 -15 0 -4 -4 -15 -9 -25 -9 -21 7 -63 40 -101 23 -27 32 -46 21 -46
-6 0 -26 21 -60 61 -20 23 -30 29 -35 20 -5 -7 -12 -12 -17 -11 -5 0 -12 -15
-17 -36 -7 -35 -57 -134 -67 -134 -26 1 -32 24 -35 124 l-3 106 37 33 c21 19
36 38 34 43 -2 5 4 19 12 29 15 19 15 19 4 -5 -9 -21 -9 -23 2 -12 18 17 24
96 6 86 -6 -4 -9 -4 -5 1 4 4 3 16 -3 26 -13 25 16 27 30 2 8 -15 11 -15 27
-3 16 14 16 13 5 -7 -21 -41 -2 -24 24 21 14 24 23 50 19 60 -4 10 5 26 26 46
24 22 33 39 32 60 0 18 4 30 12 30 8 0 19 20 26 45 7 25 15 43 17 41 3 -3 18
-43 33 -89z m-1754 -54 c-6 -15 -9 -15 -16 -3 -6 9 -5 17 3 22 16 10 21 2 13
-19z m-51 -13 c-10 -11 -23 -20 -28 -20 -6 0 -18 -7 -27 -15 -10 -9 -30 -18
-45 -21 -16 -3 -41 -16 -57 -29 -16 -14 -34 -25 -40 -25 -6 0 -25 -10 -42 -23
-17 -12 -68 -42 -114 -65 -70 -36 -177 -98 -312 -180 -14 -9 -20 -11 -15 -5
14 14 207 143 275 184 53 31 411 218 419 219 2 0 -4 -9 -14 -20z m1655 -78 c0
-5 -7 -17 -16 -28 -8 -10 -14 -14 -11 -9 2 6 7 18 10 28 7 17 17 23 17 9z
m-1635 -91 c-6 -5 -21 -11 -35 -15 -21 -5 -20 -3 5 9 35 17 42 18 30 6z m-205
-48 c-37 -13 -87 -38 -112 -55 -14 -10 -30 -18 -34 -18 -14 0 90 67 111 73 11
2 27 5 35 5 13 0 13 0 0 -5z m-220 -33 c-35 -24 -54 -31 -30 -11 14 11 30 21
35 21 6 0 3 -5 -5 -10z m-80 -65 c-33 -19 -50 -18 -26 0 11 8 27 15 35 15 10
-1 7 -6 -9 -15z m992 -29 c11 -26 5 -56 -11 -56 -5 0 -7 9 -4 19 3 10 0 28 -6
40 -8 14 -8 21 -1 21 6 0 15 -11 22 -24z m-1078 -21 c-10 -8 -23 -14 -29 -14
-5 0 -1 6 9 14 11 8 24 15 30 15 5 0 1 -7 -10 -15z m1116 -49 c0 -3 -4 -8 -10
-11 -5 -3 -10 -1 -10 4 0 6 5 11 10 11 6 0 10 -2 10 -4z m16 -35 c-4 -5 -2
-11 3 -13 13 -5 24 -48 12 -48 -6 0 -11 -10 -11 -22 0 -20 -2 -19 -20 10 -19
31 -22 49 -7 45 4 -2 7 6 7 17 0 11 5 20 11 20 5 0 8 -4 5 -9z m1248 0 c4 -5
-3 -7 -14 -4 -23 6 -26 13 -6 13 8 0 17 -4 20 -9z m-1887 -27 c-3 -3 -12 -4
-19 -1 -8 3 -5 6 6 6 11 1 17 -2 13 -5z m-40 -10 c-3 -3 -12 -4 -19 -1 -8 3
-5 6 6 6 11 1 17 -2 13 -5z m-40 -10 c-3 -3 -12 -4 -19 -1 -8 3 -5 6 6 6 11 1
17 -2 13 -5z m-67 -8 c0 -2 -7 -7 -16 -10 -8 -3 -12 -2 -9 4 6 10 25 14 25 6z
m2330 -27 c0 -6 -4 -7 -10 -4 -5 3 -10 11 -10 16 0 6 5 7 10 4 6 -3 10 -11 10
-16z m-1866 -45 c3 -8 2 -12 -4 -9 -6 3 -10 10 -10 16 0 14 7 11 14 -7z m-181
-9 c-3 -9 -8 -14 -10 -11 -3 3 -2 9 2 15 9 16 15 13 8 -4z m210 -44 c-42 -36
-123 -77 -123 -61 0 5 15 13 33 19 19 7 51 28 73 49 21 20 43 35 48 33 5 -2
-9 -21 -31 -40z m1282 -31 c27 -27 47 -52 44 -55 -3 -2 -30 20 -59 50 -30 30
-50 55 -44 55 5 0 32 -22 59 -50z m-1478 -2 c2 -17 0 -19 -7 -8 -5 8 -6 18 -4
22 8 12 10 10 11 -14z m-1 -48 c0 -11 -4 -20 -8 -20 -10 0 -11 24 -1 33 9 9 9
10 9 -13z m323 -54 c-3 -14 7 -54 31 -128 10 -32 14 -58 9 -58 -5 0 -11 6 -14
13 -2 6 -13 46 -26 87 -12 41 -28 79 -36 83 -7 5 -11 12 -8 17 7 12 46 0 44
-14z m-102 -2 c-6 -6 -86 -16 -227 -29 -53 -4 -60 -3 -40 6 14 6 66 13 115 16
50 3 92 7 94 9 7 7 65 4 58 -2z m503 -9 c17 -21 11 -24 -28 -13 -18 5 -30 13
-27 18 9 15 41 12 55 -5z m807 -1 c-3 -3 -12 -4 -19 -1 -8 3 -5 6 6 6 11 1 17
-2 13 -5z m-1054 -11 c-7 -2 -19 -2 -25 0 -7 3 -2 5 12 5 14 0 19 -2 13 -5z
m112 -3 c-3 -5 -10 -10 -16 -10 -5 0 -9 5 -9 10 0 6 7 10 16 10 8 0 12 -4 9
-10z m1078 -7 c-7 -2 -19 -2 -25 0 -7 3 -2 5 12 5 14 0 19 -2 13 -5z m-1745
-8 c-7 -8 -159 -37 -164 -32 -6 6 103 34 140 36 16 0 27 -1 24 -4z m-268 -44
c0 -9 -86 -32 -113 -30 -17 0 74 37 96 38 9 1 17 -3 17 -8z m2450 -31 c0 -5
-2 -10 -4 -10 -3 0 -8 5 -11 10 -3 6 -1 10 4 10 6 0 11 -4 11 -10z m-1370
-131 c9 -16 8 -26 -5 -45 -17 -26 -30 -29 -70 -14 -22 8 -26 15 -23 42 6 59
70 70 98 17z m-450 -145 c0 -2 -17 -4 -37 -3 -29 0 -33 2 -18 8 18 7 55 4 55
-5z m37 0 c-3 -3 -12 -4 -19 -1 -8 3 -5 6 6 6 11 1 17 -2 13 -5z m40 0 c-3 -3
-12 -4 -19 -1 -8 3 -5 6 6 6 11 1 17 -2 13 -5z m118 -4 c17 -7 16 -9 -10 -9
-16 0 -39 4 -50 9 -17 7 -16 9 10 9 17 0 39 -4 50 -9z m-452 -11 c-7 -7 -42
-13 -80 -15 l-68 -3 55 13 c73 18 108 20 93 5z m140 4 c-13 -2 -35 -2 -50 0
-16 2 -5 4 22 4 28 0 40 -2 28 -4z m574 1 c-3 -3 -12 -4 -19 -1 -8 3 -5 6 6 6
11 1 17 -2 13 -5z m893 -4 c0 -5 -9 -10 -20 -10 -11 0 -20 5 -20 10 0 6 9 10
20 10 11 0 20 -4 20 -10z m75 -10 l20 -9 -20 1 c-11 0 -31 4 -45 8 l-25 8 25
0 c14 0 34 -3 45 -8z m-1842 -17 c-7 -2 -21 -2 -30 0 -10 3 -4 5 12 5 17 0 24
-2 18 -5z m147 -3 c0 -5 -5 -10 -11 -10 -5 0 -7 5 -4 10 3 6 8 10 11 10 2 0 4
-4 4 -10z m-240 -9 c-8 -5 -37 -11 -65 -14 l-50 -6 40 14 c46 15 100 20 75 6z
m2133 -8 c-7 -2 -19 -2 -25 0 -7 3 -2 5 12 5 14 0 19 -2 13 -5z m64 -9 c-3 -3
-12 -4 -19 -1 -8 3 -5 6 6 6 11 1 17 -2 13 -5z m88 -14 c7 -12 -12 -12 -40 0
-18 8 -17 9 7 9 15 1 30 -3 33 -9z m-762 -317 c-23 -2 -64 -2 -90 0 -26 2 -7
3 42 3 50 0 71 -1 48 -3z m-990 -10 c-13 -2 -35 -2 -50 0 -16 2 -5 4 22 4 28
0 40 -2 28 -4z m220 0 c-13 -2 -35 -2 -50 0 -16 2 -5 4 22 4 28 0 40 -2 28 -4z
m1067 -9 c0 -2 -9 -4 -20 -4 -11 0 -20 4 -20 9 0 5 9 7 20 4 11 -3 20 -7 20
-9z m-630 2 c0 -9 -30 -14 -35 -6 -4 6 3 10 14 10 12 0 21 -2 21 -4z"/>
<path d="M2468 3625 c-1 -1 -19 -5 -38 -8 -57 -8 -69 -17 -82 -59 -9 -31 -9
-41 1 -47 7 -5 12 -12 12 -17 0 -5 5 -10 12 -10 6 -1 14 -3 17 -4 3 -1 12 -3
21 -5 9 -1 26 -6 37 -9 12 -4 40 -2 64 5 24 6 79 17 123 24 68 11 85 11 117
-2 20 -8 44 -13 53 -11 13 2 11 9 -12 33 -37 40 -79 62 -133 70 -65 10 -64 10
-75 17 -16 9 -111 28 -117 23z"/>
<path d="M1684 3597 c-62 -27 -80 -41 -87 -68 -4 -15 -2 -19 10 -15 8 3 33 6
56 6 28 0 37 3 28 9 -11 7 -10 11 4 19 21 11 71 0 89 -21 6 -7 38 -21 71 -32
33 -10 65 -23 72 -27 6 -5 14 -5 18 2 3 5 20 10 36 10 37 0 82 28 75 47 -3 8
-1 11 4 8 6 -3 10 3 10 13 0 12 -15 29 -37 42 -33 20 -55 23 -168 26 -117 3
-135 1 -181 -19z"/>
<path d="M1940 3443 c0 -6 -23 -14 -52 -18 -64 -7 -162 -41 -203 -69 l-29 -20
29 -7 c45 -10 129 -43 136 -53 7 -9 79 -11 112 -4 10 3 22 10 26 17 5 7 12 12
17 12 33 -3 57 22 32 32 -10 3 -10 9 0 26 17 30 16 35 -20 56 -18 10 -36 23
-40 29 -5 8 -8 7 -8 -1z m-153 -94 c2 -27 0 -29 -20 -23 -31 9 -32 12 -12 34
24 27 30 25 32 -11z"/>
<path d="M2440 3432 c-8 -3 -28 -14 -43 -25 -23 -16 -28 -25 -24 -47 3 -15 1
-32 -5 -38 -15 -15 35 -74 81 -96 33 -17 34 -17 118 25 47 23 98 42 114 42 15
0 30 6 33 13 7 17 -132 82 -194 90 -27 4 -48 10 -45 14 7 12 -18 28 -35 22z
m195 -98 c17 -13 18 -16 5 -24 -29 -19 -56 -12 -58 15 -2 29 21 33 53 9z"/>
<path d="M1333 3084 c-3 -8 -1 -20 6 -27 8 -8 11 -4 11 16 0 30 -7 35 -17 11z"/>
<path d="M1408 3043 c-41 -47 -33 -103 14 -103 25 0 29 3 22 18 -4 9 -7 36 -6
60 2 45 -6 52 -30 25z"/>
<path d="M2916 3014 c-3 -9 -3 -32 0 -53 4 -26 2 -42 -8 -52 -18 -17 -30 -59
-17 -59 5 0 14 9 21 20 8 12 24 20 38 20 34 0 50 17 50 55 0 36 -15 57 -52 73
-21 9 -27 8 -32 -4z"/>
<path d="M2035 2983 c-24 -6 -45 -22 -45 -34 0 -15 49 -10 82 7 24 12 28 18
17 25 -15 9 -22 10 -54 2z"/>
<path d="M2265 2945 c32 -27 75 -33 75 -12 0 24 -23 37 -64 37 l-41 -1 30 -24z"/>
<path d="M2125 2769 c4 -5 1 -9 -6 -9 -7 0 -4 -7 7 -15 24 -18 54 -18 77 -1
16 13 16 14 -10 21 -46 13 -74 14 -68 4z"/>
<path d="M1956 2639 c-32 -23 -46 -28 -69 -23 -31 6 -49 -8 -40 -32 5 -15 67
-8 98 12 11 7 37 16 57 19 38 7 43 25 8 25 -13 0 -17 5 -14 15 8 20 6 19 -40
-16z"/>
<path d="M2200 2610 c0 -5 5 -10 10 -10 6 0 10 5 10 10 0 6 -4 10 -10 10 -5 0
-10 -4 -10 -10z"/>
<path d="M2260 2610 c-13 -8 -13 -10 2 -10 9 0 20 5 23 10 8 13 -5 13 -25 0z"/>
<path d="M2305 2611 c-3 -6 3 -9 14 -8 11 0 17 5 15 9 -7 11 -22 10 -29 -1z"/>
<path d="M2362 2596 c8 -6 17 -19 21 -29 5 -14 15 -17 47 -14 48 4 57 11 40
32 -8 9 -21 13 -36 9 -13 -4 -30 -2 -37 4 -6 5 -20 9 -31 9 -16 0 -16 -2 -4
-11z"/>
<path d="M2714 2405 c-9 -14 -14 -28 -11 -31 3 -3 13 8 22 25 19 37 12 41 -11
6z"/>
<path d="M2549 2253 c-1 -2 -2 -7 -3 -13 0 -5 -4 -9 -7 -7 -4 1 -16 -7 -28
-17 -12 -11 -21 -15 -21 -10 0 5 -6 -2 -13 -16 -11 -23 -23 -27 -77 -32 -8 0
-21 -5 -27 -11 -9 -6 -13 -6 -13 1 0 6 -7 9 -15 6 -8 -4 -15 -11 -15 -18 0 -6
-11 -16 -25 -23 -14 -6 -23 -7 -19 -2 3 5 -3 9 -13 9 -17 1 -17 1 0 14 20 15
23 35 5 38 -47 5 -78 20 -78 37 0 26 -10 32 -32 20 -14 -8 -23 -8 -31 0 -17
17 -25 13 -29 -11 -2 -19 -8 -22 -31 -20 -18 2 -29 -2 -33 -12 -3 -9 -10 -14
-14 -11 -5 3 -12 1 -15 -5 -4 -6 -2 -9 3 -8 6 2 10 -1 11 -7 1 -5 -17 -10 -38
-10 -21 -1 -47 -7 -57 -15 -16 -14 -17 -13 -11 4 6 14 4 16 -5 9 -9 -6 -20 -6
-33 1 -22 12 -25 23 -11 46 5 8 -2 5 -16 -8 -17 -15 -28 -20 -33 -13 -3 6 -1
11 4 11 6 0 11 4 11 9 0 8 -52 23 -58 16 -2 -2 22 -28 52 -59 51 -50 105 -88
131 -91 6 -1 24 -7 40 -14 17 -7 30 -11 31 -9 0 2 7 -2 15 -8 14 -11 104 -11
197 0 47 5 102 32 187 89 60 41 155 124 155 136 0 6 -39 10 -41 4z"/>
<path d="M2810 1715 c0 -8 2 -15 4 -15 2 0 6 7 10 15 3 8 1 15 -4 15 -6 0 -10
-7 -10 -15z"/>
<path d="M2625 1421 c-7 -24 0 -41 18 -40 8 0 8 2 -1 6 -9 3 -10 9 -3 17 6 6
6 18 2 25 -7 10 -10 9 -16 -8z"/>
<path d="M1874 746 c-9 -24 4 -48 23 -44 12 2 18 12 18 28 0 29 -32 41 -41 16z"/>
</g>
</svg>
