<svg xmlns="http://www.w3.org/2000/svg" width="75" height="px" viewBox="0 0 75 75"><path style="stroke:none;fill-rule:nonzero;fill:#00979c;fill-opacity:1" d="M18.246 12.066c-2.484 0-4.89.496-7.066 1.38a18.326 18.326 0 0 0-8.035 6.367A17.543 17.543 0 0 0 .82 24.456 17.409 17.409 0 0 0 0 29.738c0 2.446.516 4.79 1.46 6.926a16.743 16.743 0 0 0 2.75 4.356 18.436 18.436 0 0 0 6.165 4.664 18.64 18.64 0 0 0 7.871 1.726v-3.125l-.164 3.106c.39.02.781.02 1.152.02 1.375 0 2.672-.145 3.922-.391a17.198 17.198 0 0 0 3.29-1.047 16.05 16.05 0 0 0 2.71-1.48c1.582-1.048 2.961-2.302 4.196-3.657a37.481 37.481 0 0 0 2.957-3.762c1.582-2.281 2.98-4.644 4.379-6.883 1.046-1.687 2.093-3.308 3.203-4.746a28.014 28.014 0 0 1 2.566-2.96 18.268 18.268 0 0 1 2.098-1.747c1.09-.758 2.261-1.375 3.597-1.785 1.317-.414 2.817-.66 4.559-.66 1.687 0 3.27.328 4.707.906 2.156.883 4.008 2.34 5.281 4.172a10.58 10.58 0 0 1 1.48 2.98 10.83 10.83 0 0 1 .532 3.368c0 1.562-.328 3.039-.922 4.418a11.478 11.478 0 0 1-1.766 2.816c-1.09 1.274-2.488 2.32-4.07 3.059a12.264 12.264 0 0 1-5.238 1.152h-.184c-.289.02-.554.02-.824.02a12.96 12.96 0 0 1-2.629-.266 10.786 10.786 0 0 1-2.098-.656 12.195 12.195 0 0 1-1.765-.946c-1.047-.699-2.055-1.582-3-2.632-.844-.922-1.645-1.973-2.445-3.121-1.399-2.016-2.754-4.297-4.192-6.618-1.09-1.746-2.242-3.515-3.516-5.218a33.342 33.342 0 0 0-3.183-3.657A21.351 21.351 0 0 0 30 15.687a19.71 19.71 0 0 0-5.281-2.632c-1.992-.657-4.153-.989-6.473-.989v6.227c1.09 0 2.074.102 3 .266.863.164 1.645.39 2.383.699 1.379.555 2.61 1.316 3.781 2.262a21.628 21.628 0 0 1 2.88 2.937c.8.965 1.558 2.035 2.32 3.164 1.316 1.973 2.585 4.129 3.945 6.285 1.004 1.625 2.074 3.25 3.265 4.79.883 1.152 1.848 2.28 2.918 3.308.801.781 1.664 1.5 2.59 2.156a17.033 17.033 0 0 0 4.703 2.363 18.67 18.67 0 0 0 5.692.864c.37 0 .761 0 1.152-.02l-.164-3.105v3.125c2.484 0 4.89-.496 7.07-1.38a18.337 18.337 0 0 0 8.032-6.366 17.543 17.543 0 0 0 2.324-4.645c.535-1.664.82-3.453.82-5.281 0-2.445-.512-4.785-1.457-6.922a16.881 16.881 0 0 0-2.754-4.36 18.488 18.488 0 0 0-6.164-4.663 18.67 18.67 0 0 0-7.871-1.723c-1.457 0-2.856.121-4.172.39a18.755 18.755 0 0 0-3.492 1.004 20.445 20.445 0 0 0-5.465 3.27c-1.398 1.148-2.61 2.445-3.723 3.781a51.08 51.08 0 0 0-2.691 3.656c-1.457 2.18-2.754 4.399-4.047 6.454-.965 1.539-1.93 3.02-2.937 4.312-.739.988-1.5 1.852-2.301 2.633-.598.574-1.192 1.09-1.828 1.52-.946.66-1.934 1.171-3.043 1.519-1.11.352-2.32.559-3.782.559-.265 0-.53 0-.82-.024h-.164c-1.683 0-3.266-.328-4.703-.902-2.16-.883-4.008-2.344-5.281-4.172a10.58 10.58 0 0 1-1.48-2.98 10.85 10.85 0 0 1-.536-3.368c0-1.562.328-3.043.926-4.398a11.478 11.478 0 0 1 1.766-2.817c1.09-1.273 2.484-2.32 4.066-3.062a12.337 12.337 0 0 1 5.242-1.149Zm0 0"/><path style="stroke:none;fill-rule:nonzero;fill:#00979c;fill-opacity:1" d="M55.027 33.336v-3.414h-3.37v-1.414h3.37v-3.39h1.438v3.39h3.39v1.414h-3.39v3.414Zm0 0"/><path style="stroke:none;fill-rule:nonzero;fill:#00979c;fill-opacity:1" d="M55.027 33.336h1.047v-4.461h-3.39v-.367h-1.028v1.023h4.418v-3.367h.39v-1.047h-1.026v4.414h3.37v.39h1.047v-1.046h-4.417v3.41h-.41v1.05h1.046-1.047v1.028h2.489v-3.39h3.367v-3.516h-3.367v-3.371H54v3.371h-3.39v3.516H54v3.39h1.027ZM70.973 15.11V13.69h-.535v-.246h1.359v.246h-.535v1.418Zm1.007 0v-1.645h.41l.415 1.316.41-1.316h.39v1.644h-.246v-1.398l-.433 1.398h-.246l-.453-1.418v1.418Zm0 0"/><path style="stroke:none;fill-rule:nonzero;fill:#00979c;fill-opacity:1" d="M70.973 15.11h.062v-1.462H70.5v-.14h1.254v.14h-.555v1.418h-.226v.043h.062-.062v.063h.328V13.75h.535v-.348h-1.461v.348h.535v1.422h.063Zm1.007 0h.06v-1.602h.308l.453 1.437.433-1.437h.305v1.539h-.14V13.71l-.102-.02-.414 1.356h-.164l-.43-1.379-.105.023v1.356h-.204v.062h.063-.063v.063h.31v-1.133l.347 1.133h.328l.328-1.09v1.09h.348v-1.77h-.493l-.37 1.192-.368-1.192h-.496v1.77h.063ZM8.96 62.617l-.679-2.344H3.984l-.695 2.344H1.008l3.637-11.879h3.222l3.64 11.88Zm-2.796-9.699L4.54 58.445h3.227Zm0 0"/><path style="stroke:none;fill-rule:nonzero;fill:#00979c;fill-opacity:1" d="m8.96 62.617.122-.043-.7-2.445h-4.48l-.695 2.344H1.172l3.555-11.61h3.062l3.555 11.633H8.96v.121l.121-.043-.121.043v.121h2.73l-3.718-12.12h-3.41l-3.72 12.12h2.548l.699-2.34h4.105l.68 2.34h.102v-.12Zm-2.796-9.699-.125-.043-1.664 5.695h3.559l-1.77-6.105-.121.414.121.039-.125.039 1.563 5.363H4.727l1.562-5.363-.125-.039-.125.039ZM18.984 62.617l-1.722-3.824a1.834 1.834 0 0 0-.68-.82c-.285-.184-.637-.266-1.027-.266h-.453v4.91h-2.32V50.742h3.573c.68 0 1.297.059 1.848.164a3.951 3.951 0 0 1 1.422.555c.39.266.676.594.902 1.027.203.41.309.922.309 1.54 0 .433-.063.824-.207 1.171a2.296 2.296 0 0 1-.555.883 2.76 2.76 0 0 1-.844.598 3.594 3.594 0 0 1-1.066.308c.309.059.574.223.82.492.246.266.496.657.762 1.172l1.973 3.985h-2.735Zm-.574-8.387c0-.574-.183-1.003-.574-1.253-.39-.247-.965-.391-1.727-.391h-1.004v3.348h.942c.351 0 .68-.04.969-.102.285-.082.53-.184.738-.328.203-.145.367-.328.473-.535.12-.203.183-.45.183-.739Zm0 0"/><path style="stroke:none;fill-rule:nonzero;fill:#00979c;fill-opacity:1" d="m18.984 62.617.125-.062-1.726-3.82a1.896 1.896 0 0 0-.719-.883c-.309-.207-.68-.29-1.09-.29H15v4.91h-2.055V50.868h3.453a9.26 9.26 0 0 1 1.805.164c.535.102.988.285 1.379.532.371.246.656.578.863.964.203.391.309.887.309 1.48 0 .415-.063.782-.188 1.11a2.467 2.467 0 0 1-.535.844 2.64 2.64 0 0 1-.82.574 3.91 3.91 0 0 1-1.047.309v.246c.266.062.516.203.762.453.246.246.492.637.738 1.129l1.867 3.8h-2.523v.145l.12-.062-.144.062v.121h2.918l-2.054-4.172c-.246-.511-.512-.921-.782-1.191-.265-.29-.554-.473-.902-.535l-.02.125.02.12c.39-.062.762-.163 1.11-.327a3.03 3.03 0 0 0 .882-.617c.246-.266.453-.575.574-.922.145-.352.207-.762.207-1.196 0-.617-.101-1.148-.328-1.601a2.767 2.767 0 0 0-.945-1.067 3.871 3.871 0 0 0-1.46-.578c-.556-.12-1.192-.164-1.868-.164h-3.7v12.125h2.567v-4.914h.309c.37 0 .699.082.965.27.27.164.476.43.64.758l1.766 3.882h.082v-.12h.02Zm-.574-8.387h.125c0-.308-.043-.574-.164-.8a1.351 1.351 0 0 0-.473-.555c-.414-.266-1.007-.41-1.789-.41h-1.152v3.594h1.07c.368 0 .7-.04 1.004-.102.309-.082.578-.184.782-.348.226-.164.39-.351.515-.578a1.68 1.68 0 0 0 .184-.8v-.02l-.02-.02-.082.04h.125-.125l-.101.062.101-.063h-.12c0 .266-.063.497-.165.68a1.257 1.257 0 0 1-.434.492c-.183.145-.43.246-.699.309a4.355 4.355 0 0 1-.945.102h-.82V52.71h.882c.762 0 1.297.121 1.645.367.164.125.308.27.39.453.083.188.126.414.126.7v.019l.02.023ZM32.281 56.512c0 .925-.125 1.765-.347 2.508a4.676 4.676 0 0 1-1.11 1.93c-.496.534-1.133.945-1.914 1.234-.777.289-1.703.433-2.793.433h-3.125V50.738h3.64c.942 0 1.766.125 2.466.348.699.227 1.293.578 1.765 1.05.473.473.82 1.067 1.067 1.805.226.704.351 1.563.351 2.57Zm-2.484.164c0-.637-.063-1.211-.164-1.723a3.427 3.427 0 0 0-.535-1.273c-.246-.352-.598-.617-1.028-.805-.433-.184-.965-.266-1.582-.266h-1.172v8.137h1.004c1.133 0 1.996-.328 2.59-.984.598-.66.887-1.688.887-3.086Zm0 0"/><path style="stroke:none;fill-rule:nonzero;fill:#00979c;fill-opacity:1" d="M32.281 56.512h-.125c0 .902-.12 1.726-.347 2.465a4.8 4.8 0 0 1-1.067 1.87c-.496.512-1.11.903-1.87 1.192-.759.285-1.684.434-2.755.434h-3v-11.61h3.516c.926 0 1.746.102 2.426.328.695.223 1.253.555 1.703 1.028.453.449.8 1.047 1.027 1.746.227.719.348 1.558.348 2.566h.144l.082-.082-.207-.207v.309h.125l-.082.082.203.207v-.309c0-1.008-.12-1.89-.347-2.633-.246-.738-.594-1.355-1.086-1.847-.496-.492-1.09-.84-1.809-1.086-.719-.227-1.562-.352-2.508-.352h-3.761v12.125h3.246c1.09 0 2.035-.144 2.836-.433.804-.285 1.46-.72 1.953-1.254.515-.555.883-1.211 1.133-1.973.246-.762.347-1.621.347-2.547h-.12l-.083.082Zm-2.484.164h.121c0-.656-.063-1.23-.164-1.746-.102-.512-.285-.965-.555-1.313a2.524 2.524 0 0 0-1.066-.844c-.453-.183-.988-.285-1.645-.285h-1.297v8.383h1.172c.578 0 1.09-.082 1.543-.246.453-.164.82-.434 1.13-.762.308-.347.534-.781.679-1.293a6.835 6.835 0 0 0 .226-1.828V56.7h-.144v.125h.121V56.7l-.121-.023v-.121h-.125V56.719c0 .68-.082 1.273-.227 1.765-.14.496-.347.883-.636 1.192-.286.308-.618.558-1.028.699-.41.164-.883.246-1.437.246h-.903v-7.89h1.047c.617 0 1.13.081 1.54.265.413.164.718.434.964.762s.414.738.516 1.234c.101.492.164 1.047.164 1.684h.125v-.121ZM42.574 58.238c0 .762-.101 1.418-.304 1.996a3.846 3.846 0 0 1-.907 1.438c-.39.39-.863.68-1.437.863a6.026 6.026 0 0 1-1.89.285c-.782 0-1.462-.101-2.036-.285-.555-.183-1.027-.472-1.375-.844a3.248 3.248 0 0 1-.762-1.336c-.164-.511-.226-1.109-.226-1.746v-7.89h2.324v7.746c0 .39.039.762.102 1.066.082.309.203.578.367.782.187.207.414.37.68.496.265.101.617.164 1.007.164.39 0 .696-.043.965-.145.266-.101.492-.246.656-.453.184-.203.309-.473.39-.8.083-.329.126-.72.126-1.192v-7.664h2.32Zm0 0"/><path style="stroke:none;fill-rule:nonzero;fill:#00979c;fill-opacity:1" d="M42.574 58.238h-.12c0 .742-.102 1.399-.31 1.953-.203.555-.492 1.028-.863 1.38-.367.367-.84.636-1.394.84a5.915 5.915 0 0 1-1.871.288c-.782 0-1.438-.105-1.993-.289-.554-.183-.988-.453-1.316-.8a3.407 3.407 0 0 1-.738-1.274 6.373 6.373 0 0 1-.227-1.727v-7.746h2.055v7.625c0 .41.039.758.101 1.086.082.328.207.617.414.844.184.227.43.41.72.512.284.125.636.164 1.066.164.39 0 .718-.04 1.007-.14.286-.102.512-.27.72-.497a2.14 2.14 0 0 0 .41-.84c.081-.351.144-.742.144-1.234h-.082.082-.082.082v-7.52h2.055v7.375h.265v-7.644h-2.566v7.789h.12-.12c0 .453-.043.844-.125 1.152a1.99 1.99 0 0 1-.367.758 1.502 1.502 0 0 1-.598.414 2.913 2.913 0 0 1-.926.145c-.39 0-.719-.063-.965-.164a1.56 1.56 0 0 1-.617-.454 1.789 1.789 0 0 1-.347-.742 4.884 4.884 0 0 1-.102-1.027v-7.867h-2.57v8.011c0 .66.082 1.258.246 1.79.164.53.433 1.007.804 1.374.368.372.84.68 1.418.864.575.207 1.274.289 2.075.289.718 0 1.355-.102 1.933-.29a4.07 4.07 0 0 0 1.477-.882c.414-.387.718-.883.926-1.48a6.254 6.254 0 0 0 .328-2.032ZM44.816 52.566v-1.828h7.766v1.828h-2.691v8.2h2.691v1.851h-7.766v-1.851h2.711v-8.2Zm0 0"/><path style="stroke:none;fill-rule:nonzero;fill:#00979c;fill-opacity:1" d="M44.816 52.566h.121v-1.703h7.524v1.559h-2.695v8.469h2.695v1.601h-7.523v-1.601h2.714v-8.47h-2.836v.145h.121-.12v.125h2.585v7.954h-2.71v2.093h8.011v-2.093h-2.687V52.69h2.687v-2.074h-8.012v2.074h.125ZM60.984 62.617l-3.285-7.09-.68-1.543v8.633h-2.117V50.738h2.836l3.371 7.13.594 1.398v-8.528h2.098v11.88Zm0 0"/><path style="stroke:none;fill-rule:nonzero;fill:#00979c;fill-opacity:1" d="m60.984 62.617.106-.062-3.29-7.09-.675-1.52-.227.04v8.507h-1.87V50.863h2.628l3.328 7.047.598 1.399.246-.043v-8.403h1.852v11.63h-2.696v.124l.106-.062-.106.062v.121h2.942v-12.12h-2.364v8.03l-.351-.84-3.39-7.19h-3.04v12.12h2.364v-8.156l.43.984 3.327 7.172h.082ZM74.875 56.617c0 1.086-.121 2.012-.39 2.793-.266.781-.618 1.418-1.067 1.934-.453.492-.984.883-1.602 1.11a5.257 5.257 0 0 1-1.953.366c-1.625 0-2.836-.511-3.66-1.562-.82-1.047-1.23-2.547-1.23-4.54 0-1.09.12-2.015.39-2.796.266-.777.617-1.418 1.067-1.93.453-.496.988-.883 1.605-1.11a5.226 5.226 0 0 1 1.95-.37c1.624 0 2.835.515 3.66 1.562.82 1.047 1.23 2.57 1.23 4.543Zm-2.441.121c0-1.394-.188-2.445-.579-3.14-.39-.7-1.027-1.028-1.91-1.028-.453 0-.824.082-1.132.266a2.231 2.231 0 0 0-.782.781c-.203.348-.347.781-.449 1.274-.105.515-.144 1.09-.144 1.746 0 1.398.203 2.445.593 3.144.395.7 1.028 1.028 1.914 1.028.453 0 .82-.082 1.153-.27.304-.184.574-.43.777-.777.207-.352.352-.782.453-1.278.063-.511.106-1.109.106-1.746Zm0 0"/><path style="stroke:none;fill-rule:nonzero;fill:#00979c;fill-opacity:1" d="M74.875 56.617h-.121c0 1.067-.121 1.992-.39 2.754-.247.758-.598 1.399-1.048 1.89a4.305 4.305 0 0 1-1.562 1.09c-.598.247-1.234.348-1.91.348-.805 0-1.48-.125-2.078-.37a3.671 3.671 0 0 1-1.477-1.13c-.805-1.008-1.195-2.488-1.195-4.46 0-1.067.125-1.993.39-2.755.246-.757.598-1.398 1.047-1.89a4.28 4.28 0 0 1 1.563-1.086c.597-.25 1.234-.352 1.914-.352.8 0 1.476.125 2.074.371.598.246 1.09.618 1.48 1.13.782 1.007 1.192 2.464 1.192 4.437v.043l.121-.02H75v-.043c0-1.992-.41-3.511-1.254-4.582a3.827 3.827 0 0 0-1.582-1.21c-.637-.266-1.355-.391-2.18-.391-.718 0-1.375.12-2.011.367-.637.246-1.172.637-1.645 1.152-.473.516-.844 1.172-1.09 1.973-.265.8-.39 1.746-.39 2.836 0 1.992.414 3.535 1.254 4.601.414.535.945.946 1.582 1.215.636.266 1.355.39 2.18.39.718 0 1.374-.124 2.011-.37.64-.246 1.172-.637 1.645-1.149.472-.515.843-1.172 1.09-1.972.265-.805.39-1.746.39-2.836h-.125Zm-2.441.121h.12c0-1.418-.183-2.484-.593-3.203a2.018 2.018 0 0 0-.824-.824c-.348-.184-.739-.266-1.211-.266-.453 0-.864.102-1.196.29a2.262 2.262 0 0 0-.82.82 3.9 3.9 0 0 0-.453 1.316c-.102.512-.144 1.11-.144 1.766 0 1.418.187 2.484.597 3.207.203.367.473.636.82.82.352.184.743.266 1.196.266.449 0 .863-.102 1.21-.285.329-.188.618-.473.825-.844.203-.367.367-.801.45-1.317.105-.511.144-1.109.144-1.765v-.082l-.063-.04-.058.141h.12-.12l-.063.106.063-.106h-.125c0 .66-.04 1.215-.145 1.727-.082.492-.223.902-.43 1.234a1.848 1.848 0 0 1-.742.739c-.285.164-.656.246-1.086.246-.433 0-.781-.082-1.09-.246a2.01 2.01 0 0 1-.718-.72c-.371-.656-.575-1.683-.575-3.081 0-.657.04-1.215.141-1.727.082-.492.246-.902.434-1.23a1.85 1.85 0 0 1 .738-.742c.289-.165.66-.247 1.07-.247.43 0 .781.082 1.086.246.309.165.535.415.719.72.371.66.578 1.687.578 3.081v.082l.063.043ZM14.402 28.648h8.653v1.153h-8.653Zm0 0"/><path style="stroke:none;fill-rule:nonzero;fill:#00979c;fill-opacity:1" d="M14.402 29.8h1.235v-1.152h-1.235v1.235h8.653v-1.235h-1.211v1.153h1.21v-1.235h-8.652v1.235h1.235-1.235v1.23h9.887v-3.613H13.172v3.613h1.23Zm0 0"/></svg>