<svg xmlns="http://www.w3.org/2000/svg" width="75" height="px" viewBox="0 0 75 75"><path style="stroke:none;fill-rule:nonzero;fill:#9a4993;fill-opacity:1" d="M70.86 22.043c0-1.254-.27-2.383-.825-3.328-.535-.942-1.336-1.723-2.402-2.34-8.875-5.117-17.77-10.234-26.649-15.348-2.402-1.379-4.703-1.336-7.086.063-3.535 2.074-21.242 12.223-26.5 15.285-2.18 1.254-3.226 3.184-3.226 5.691v30.895c0 1.234.266 2.324.781 3.27.535.964 1.356 1.785 2.445 2.421 5.278 3.063 22.97 13.192 26.5 15.285 2.383 1.399 4.707 1.461 7.09.063 8.875-5.137 17.77-10.23 26.645-15.348 1.11-.636 1.91-1.437 2.445-2.425.516-.942.781-2.032.781-3.266V22.043"/><path style="stroke:none;fill-rule:nonzero;fill:#6a1577;fill-opacity:1" d="M37.598 37.39 4.91 56.208c.535.969 1.36 1.79 2.445 2.426 5.282 3.062 22.97 13.191 26.504 15.285 2.383 1.398 4.703 1.457 7.086.062 8.875-5.136 17.774-10.23 26.649-15.347 1.11-.637 1.91-1.438 2.445-2.426L37.598 37.391"/><path style="stroke:none;fill-rule:nonzero;fill:#6a1577;fill-opacity:1" d="M27.922 42.957c1.906 3.328 5.484 5.57 9.57 5.57a11 11 0 0 0 9.617-5.632l-9.511-5.504-9.676 5.566"/><path style="stroke:none;fill-rule:nonzero;fill:#813084;fill-opacity:1" d="M70.86 22.043c0-1.254-.27-2.383-.825-3.328L37.598 37.39l32.48 18.82c.512-.945.781-2.035.781-3.27V22.043"/><path style="stroke:none;fill-rule:nonzero;fill:#fff;fill-opacity:1" d="M47.11 42.898c-1.891 3.348-5.485 5.63-9.614 5.63a10.99 10.99 0 0 1-9.574-5.571 10.944 10.944 0 0 1-1.461-5.465 11.02 11.02 0 0 1 11.031-11.031c4.07 0 7.621 2.219 9.535 5.508l9.633-5.547c-3.84-6.617-10.988-11.074-19.187-11.074-12.243 0-22.145 9.922-22.145 22.148 0 4.004 1.067 7.785 2.938 11.031 3.82 6.633 11.011 11.114 19.23 11.114 8.238 0 15.426-4.5 19.246-11.176l-9.633-5.567M57.094 32.254h2.199v10.621h-2.2ZM61.96 32.254h2.2v10.621h-2.2Zm0 0"/><path style="stroke:none;fill-rule:nonzero;fill:#fff;fill-opacity:1" d="M55.328 34.043H65.95v2.2H55.33ZM55.328 38.89H65.95v2.2H55.33Zm0 0"/></svg>