<svg xmlns="http://www.w3.org/2000/svg" width="75" height="px" viewBox="0 0 75 75"><path style="stroke:none;fill-rule:nonzero;fill:#ffc24a;fill-opacity:1" d="m10.203 60.531.45-.636L32.12 19.156l.043-.433L22.691.933c-.8-1.5-3.02-1.109-3.289.555Zm0 0"/><path style="stroke:none;fill-rule:nonzero;fill:#f4bd62;fill-opacity:1" d="m39.063 32.18 7.046-7.211-7.047-13.457c-.675-1.274-2.546-1.274-3.203 0l-3.757 7.191v.617Zm0 0"/><path style="stroke:none;fill-rule:nonzero;fill:#f6820c;fill-opacity:1" d="m10.203 60.531.203-.207.739-.308 27.488-27.364.328-.945-6.84-13.066Zm0 0"/><path style="stroke:none;fill-rule:nonzero;fill:#fde068;fill-opacity:1" d="m39.95 74.336 24.855-13.867-7.106-43.739c-.226-1.375-1.91-1.91-2.875-.921L10.204 60.53l24.73 13.805a5.08 5.08 0 0 0 5.015 0"/><path style="stroke:none;fill-rule:nonzero;fill:#fcca3f;fill-opacity:1" d="m64.602 60.344-7.047-43.387c-.227-1.355-1.625-1.91-2.59-.945L10.469 60.449l24.445 13.66a5.135 5.135 0 0 0 4.992 0Zm0 0"/><path style="stroke:none;fill-rule:nonzero;fill:#eeab37;fill-opacity:1" d="M39.95 73.926a5.218 5.218 0 0 1-5.036 0L10.387 60.324l-.207.207 24.734 13.805a5.218 5.218 0 0 0 5.035 0l24.856-13.867-.059-.371Zm0 0"/></svg>