<svg xmlns="http://www.w3.org/2000/svg" width="75" height="px" viewBox="0 0 75 75"><path style="stroke:none;fill-rule:nonzero;fill:#362701;fill-opacity:1" d="M44.938 32.504c-1.645 0-2.876.8-2.876 2.754 0 1.46.801 2.488 2.774 2.488 1.664 0 2.816-.984 2.816-2.55.02-1.766-1.007-2.692-2.715-2.692Zm-3.29 13.707c-.39.473-.78.984-.78 1.582 0 1.191 1.523 1.562 3.616 1.562 1.727 0 4.09-.125 4.09-1.726 0-.965-1.129-1.027-2.566-1.11Zm8.86-13.625c.535.68 1.11 1.644 1.11 3.023 0 3.309-2.61 5.258-6.372 5.258-.965 0-1.828-.12-2.363-.265l-.985 1.582 2.938.183c5.18.328 8.223.477 8.223 4.461 0 3.434-3.02 5.383-8.223 5.383-5.402 0-7.48-1.375-7.48-3.738 0-1.336.597-2.055 1.644-3.04-.984-.413-1.316-1.171-1.316-1.976 0-.656.328-1.254.863-1.828.535-.574 1.133-1.129 1.851-1.79-1.46-.718-2.57-2.28-2.57-4.48 0-3.43 2.281-5.793 6.844-5.793 1.293 0 2.055.122 2.754.309h5.836v2.547l-2.754.164M58.523 27.16c-1.707 0-2.695-.984-2.695-2.691 0-1.707.988-2.63 2.695-2.63 1.723 0 2.711.923 2.711 2.63 0 1.707-.988 2.691-2.71 2.691Zm-3.867 17.965v-2.367l1.524-.203c.41-.063.472-.145.472-.598V33.16c0-.328-.082-.535-.39-.637l-1.625-.574.328-2.426h6.187v12.415c0 .472.02.535.473.593l1.52.207v2.364l-8.489.023M75.004 43.953c-1.293.637-3.164 1.192-4.871 1.192-3.555 0-4.91-1.442-4.91-4.81v-7.831c0-.184 0-.309-.246-.309h-2.098v-2.648c2.633-.309 3.68-1.625 4.008-4.871h2.836v4.254c0 .203 0 .308.246.308h4.215v2.977h-4.461v7.133c0 1.77.414 2.445 2.035 2.445.844 0 1.707-.207 2.426-.473l.82 2.633"/><path style="stroke:none;fill-rule:nonzero;fill:#f03c2e;fill-opacity:1" d="M30.715 36.121 17.05 22.457c-.781-.781-2.055-.781-2.856 0l-2.836 2.836 3.594 3.594a2.376 2.376 0 0 1 2.469.578c.68.676.863 1.644.574 2.488l3.473 3.473a2.398 2.398 0 0 1 2.488.574 2.381 2.381 0 0 1 0 3.39 2.381 2.381 0 0 1-3.39 0 2.39 2.39 0 0 1-.516-2.609l-3.227-3.226v8.508c.227.12.453.265.637.453a2.381 2.381 0 0 1 0 3.39 2.381 2.381 0 0 1-3.39 0c-.946-.945-.946-2.468 0-3.39.226-.227.495-.414.78-.516v-8.59a2.378 2.378 0 0 1-1.293-3.145l-3.597-3.578L.59 36.06c-.781.78-.781 2.058 0 2.859l13.664 13.664c.781.781 2.055.781 2.855 0l13.606-13.605c.781-.801.781-2.075 0-2.856"/></svg>