<svg xmlns="http://www.w3.org/2000/svg" width="75" height="px" viewBox="0 0 75 18"><path style="stroke:none;fill-rule:nonzero;fill:#ea4335;fill-opacity:1" d="M8.82 6.184h.422l1.219-1.227.059-.516c-2.243-2.007-5.684-1.77-7.665.489-.554.617-.937 1.386-1.171 2.195a.595.595 0 0 1 .425-.012L4.54 6.7s.117-.207.191-.191a2.956 2.956 0 0 1 4.09-.324Zm0 0"/><path style="stroke:none;fill-rule:nonzero;fill:#4285f4;fill-opacity:1" d="M12.188 7.113a5.624 5.624 0 0 0-1.641-2.672L8.832 6.168A3.023 3.023 0 0 1 9.945 8.57v.313c.852 0 1.496.68 1.496 1.504 0 .855-.675 1.504-1.496 1.504H6.93l-.309.312v1.813l.309.312h3.015c2.184.027 3.942-1.726 3.97-3.926 0-1.3-.642-2.539-1.727-3.289Zm0 0"/><path style="stroke:none;fill-rule:nonzero;fill:#34a853;fill-opacity:1" d="M3.91 14.34h3.02v-2.45H3.91a1.31 1.31 0 0 1-.613-.144l-.426.117-1.215 1.223-.101.43a3.782 3.782 0 0 0 2.355.824Zm0 0"/><path style="stroke:none;fill-rule:nonzero;fill:#fbbc05;fill-opacity:1" d="M3.91 6.434c-2.183.027-3.926 1.8-3.894 3.968 0 1.223.57 2.36 1.539 3.098l1.742-1.754c-.762-.355-1.086-1.242-.762-2.008.32-.77 1.23-1.093 1.992-.77.32.15.598.415.762.77L7.031 7.98a3.91 3.91 0 0 0-3.12-1.546Zm0 0"/><path style="stroke:none;fill-rule:nonzero;fill:#5f6368;fill-opacity:1" d="M21.945 12.645a3.89 3.89 0 0 1-2.8-1.165 3.801 3.801 0 0 1-1.172-2.789 3.795 3.795 0 0 1 1.172-2.789 3.87 3.87 0 0 1 2.8-1.18 3.702 3.702 0 0 1 2.696 1.09l-.762.77a2.7 2.7 0 0 0-1.934-.77 2.72 2.72 0 0 0-1.992.856 2.884 2.884 0 0 0-.82 2.023 2.828 2.828 0 0 0 4.79 2.05c.32-.37.526-.827.57-1.327h-2.548V8.32h3.586c.047.223.047.43.047.664a3.477 3.477 0 0 1-.926 2.524c-.687.77-1.683 1.152-2.707 1.137Zm8.364-.723a2.573 2.573 0 0 1-3.59 0 2.418 2.418 0 0 1-.746-1.817 2.415 2.415 0 0 1 .746-1.812 2.566 2.566 0 0 1 3.59 0 2.43 2.43 0 0 1 .746 1.812c.015.68-.25 1.329-.746 1.817Zm-2.801-.723c.515.559 1.394.574 1.949.059.016-.016.047-.043.059-.059.293-.297.425-.68.425-1.094a1.472 1.472 0 0 0-.425-1.09 1.396 1.396 0 0 0-1.977-.046c-.016.015-.016.015-.043.047-.293.293-.426.707-.426 1.09-.015.398.16.796.438 1.093Zm8.32.723a2.568 2.568 0 0 1-3.586 0 2.436 2.436 0 0 1-.75-1.817c-.012-.675.25-1.34.75-1.812a2.56 2.56 0 0 1 3.586 0c.5.473.766 1.137.75 1.812 0 .68-.25 1.329-.75 1.817Zm-2.781-.723c.512.559 1.39.574 1.95.059.01-.016.042-.043.058-.059.293-.297.422-.68.422-1.094a1.484 1.484 0 0 0-.422-1.09 1.396 1.396 0 0 0-1.977-.046l-.047.047c-.293.293-.422.707-.422 1.09-.015.398.145.796.438 1.093Zm6.402 3.719a2.276 2.276 0 0 1-1.422-.457c-.367-.266-.644-.652-.82-1.05l.965-.411c.105.25.266.469.469.648.222.192.515.266.808.266.364.016.73-.117.98-.398.25-.313.395-.711.352-1.121v-.372h-.043a1.6 1.6 0 0 1-1.336.579 2.346 2.346 0 0 1-1.699-.739c-.469-.472-.746-1.12-.715-1.785a2.475 2.475 0 0 1 .715-1.8 2.29 2.29 0 0 1 1.7-.755c.265 0 .527.059.777.165.207.09.394.218.558.414h.043v-.415h1.04v4.56a2.689 2.689 0 0 1-.673 1.991 2.18 2.18 0 0 1-1.699.68Zm.086-3.293c.367 0 .719-.145.969-.426.262-.312.394-.68.394-1.094a1.583 1.583 0 0 0-.394-1.12 1.34 1.34 0 0 0-.969-.426c-.363 0-.73.144-.98.425-.293.297-.426.711-.426 1.094 0 .41.148.809.426 1.09.234.312.601.488.98.457ZM43.727 5v7.469h-1.114V5Zm3.03 7.645a2.44 2.44 0 0 1-1.788-.723 2.5 2.5 0 0 1-.715-1.8c-.016-.68.219-1.345.703-1.817a2.202 2.202 0 0 1 1.7-.707c.292 0 .57.058.847.164.25.101.457.25.66.426.16.164.309.324.426.515.101.164.191.328.25.504l.117.293-3.387 1.402c.207.473.703.782 1.22.77.51 0 .98-.266 1.226-.711l.851.578a2.952 2.952 0 0 1-.82.781 2.942 2.942 0 0 1-1.29.325Zm-1.421-2.625 2.258-.961a.79.79 0 0 0-.352-.399 1.162 1.162 0 0 0-.57-.148c-.352 0-.676.148-.91.414a1.476 1.476 0 0 0-.426 1.094ZM54.727 12.645c-1.934.043-3.516-1.504-3.559-3.454v-.148c-.043-1.945 1.48-3.555 3.41-3.598h.149a3.216 3.216 0 0 1 2.503 1.121l-.613.606c-.453-.578-1.172-.918-1.89-.871a2.545 2.545 0 0 0-1.891.765 2.627 2.627 0 0 0-.762 1.993c-.011.738.25 1.476.762 1.992.5.5 1.172.781 1.89.765a2.69 2.69 0 0 0 2.11-.988l.617.621c-.324.399-.719.68-1.172.914a4.57 4.57 0 0 1-1.554.282ZM59.105 12.48h-.878V5.594h.878ZM60.543 8.336a2.462 2.462 0 0 1 3.457 0c.453.473.703 1.137.672 1.8A2.58 2.58 0 0 1 64 11.939a2.44 2.44 0 0 1-3.457 0 2.466 2.466 0 0 1-.676-1.801c-.015-.68.207-1.328.676-1.801Zm.645 3.023c.554.606 1.492.621 2.093.059.016-.012.043-.043.059-.059a1.72 1.72 0 0 0 .453-1.238 1.72 1.72 0 0 0-.453-1.238 1.47 1.47 0 0 0-2.153 0 1.741 1.741 0 0 0-.457 1.238c-.011.457.149.914.458 1.238ZM69.55 12.48h-.862v-.664h-.016a1.44 1.44 0 0 1-.617.579 1.772 1.772 0 0 1-.864.218c-.496.047-.98-.16-1.332-.531-.32-.41-.468-.93-.453-1.445V7.73h.88v2.747c0 .882.394 1.328 1.155 1.328.352.011.676-.149.88-.43.218-.293.35-.648.35-1.02V7.762h.88ZM72.523 12.645a2.071 2.071 0 0 1-1.566-.723c-.426-.504-.676-1.137-.66-1.785-.016-.664.219-1.301.66-1.785a2.077 2.077 0 0 1 1.566-.723c.325 0 .66.086.97.219.26.12.468.324.644.578h.043l-.043-.664V5.605h.879v6.891h-.852v-.664h-.043c-.16.25-.367.457-.644.574a2.15 2.15 0 0 1-.954.239Zm.149-.813c.41 0 .773-.16 1.039-.457.309-.355.453-.781.426-1.238.011-.457-.117-.914-.426-1.239-.527-.578-1.438-.652-2.035-.105-.043.016-.059.059-.102.105a1.636 1.636 0 0 0-.426 1.239c-.015.457.118.883.426 1.238.293.297.688.457 1.098.457Zm0 0"/></svg>