<?xml version="1.0" standalone="no"?>
<!DOCTYPE svg PUBLIC "-//W3C//DTD SVG 20010904//EN"
 "http://www.w3.org/TR/2001/REC-SVG-20010904/DTD/svg10.dtd">
<svg version="1.0" xmlns="http://www.w3.org/2000/svg"
 width="75.000000pt" height="75.000000pt" viewBox="0 0 75.000000 75.000000"
 preserveAspectRatio="xMidYMid meet">

<g transform="translate(0.000000,75.000000) scale(0.100000,-0.100000)"
fill="#000000" stroke="none">
<path d="M50 738 c1 -47 59 -650 63 -655 3 -3 63 -22 134 -42 l128 -37 128 37
c71 20 130 39 133 42 3 3 64 634 64 664 0 1 -146 3 -325 3 -253 0 -325 -3
-325 -12z m536 -160 c-4 -22 -9 -46 -13 -51 -4 -6 -61 -7 -159 -3 -92 4 -154
3 -154 -2 0 -5 3 -24 6 -41 l7 -31 150 0 150 0 -7 -82 c-4 -46 -9 -106 -12
-134 l-6 -50 -84 -23 -85 -22 -82 22 c-45 12 -85 24 -89 28 -4 3 -10 34 -14
69 l-7 62 46 0 c44 0 46 -1 49 -32 3 -27 8 -33 38 -41 34 -9 105 -3 126 11 6
4 14 28 18 53 l7 46 -138 2 c-76 1 -140 4 -143 7 -6 7 -28 237 -23 247 2 4 99
7 215 7 l211 0 -7 -42z"/>
</g>
</svg>
