<svg xmlns="http://www.w3.org/2000/svg" width="75" height="px" viewBox="0 0 75 75"><path style="stroke:none;fill-rule:nonzero;fill:#e44d26;fill-opacity:1" d="m15.77 68.98-4.832-54.25h53.124L59.23 68.96 37.46 75Zm0 0"/><path style="stroke:none;fill-rule:nonzero;fill:#f16529;fill-opacity:1" d="m37.5 70.395 17.586-4.875 4.144-46.356H37.5Zm0 0"/><path style="stroke:none;fill-rule:nonzero;fill:#ebebeb;fill-opacity:1" d="M37.5 39.293h-8.813l-.601-6.816H37.5v-6.641H20.812l.168 1.766 1.625 18.335H37.5ZM37.5 56.563l-.02.019-7.417-2.02-.477-5.289h-6.672l.918 10.434L37.48 63.5l.02-.02Zm0 0"/><path style="stroke:none;fill-rule:nonzero;fill:#000;fill-opacity:1" d="M15.875 0h3.375v3.332h3.082V0h3.375v10.105h-3.375V6.711H19.25v3.394h-3.375ZM30.168 3.355h-2.98V0h9.335v3.355h-2.98v6.75h-3.375ZM38.023 0h3.52l2.168 3.563L45.875 0h3.52v10.105h-3.352V5.102l-2.336 3.605h-.062l-2.333-3.605v5.023H38V0ZM51.082 0h3.375v6.77h4.754v3.335h-8.129Zm0 0"/><path style="stroke:none;fill-rule:nonzero;fill:#fff;fill-opacity:1" d="M37.48 39.293v6.645h8.188l-.773 8.624-7.415 2V63.5l13.625-3.793.102-1.125 1.563-17.5.167-1.789ZM37.48 25.836v6.64h16.063l.145-1.5.292-3.374.168-1.766Zm0 0"/></svg>