<svg xmlns="http://www.w3.org/2000/svg" width="75" height="px" viewBox="0 0 75 75"><path style="stroke:none;fill-rule:nonzero;fill:#000;fill-opacity:1" d="M73.684 44.914c-.43-1.316-1.582-2.242-3.059-2.469-.7-.101-1.5-.058-2.445.145-1.645.347-2.88.472-3.762.496 3.371-5.695 6.121-12.188 7.684-18.29 2.546-9.882 1.195-14.382-.41-16.417C67.48 2.996 61.315.098 53.897.016c-3.964-.04-7.441.742-9.246 1.296a34.226 34.226 0 0 0-5.406-.496c-3.574-.058-6.719.72-9.43 2.325a41.363 41.363 0 0 0-6.656-1.664C16.645.407 11.406 1.25 7.562 3.94c-4.644 3.286-6.8 8.98-6.39 16.95.125 2.527 1.539 10.21 3.762 17.507 1.273 4.192 2.648 7.664 4.046 10.356 1.993 3.8 4.149 6.02 6.555 6.824 1.356.45 3.8.758 6.367-1.379.328.39.762.781 1.336 1.153.742.472 1.625.84 2.528 1.066 3.226.8 6.246.598 8.836-.535.023.453.023.906.043 1.277l.058 1.785c.145 3.801.414 6.782 1.172 8.836.043.125.105.29.164.473.395 1.172 1.027 3.144 2.652 4.683 1.684 1.606 3.72 2.079 5.586 2.079.946 0 1.832-.125 2.61-.29 2.797-.593 5.98-1.519 8.281-4.785 2.18-3.105 3.227-7.746 3.414-15.105l.059-.594c.023-.125.023-.265.043-.39l.511.039h.125c2.856.125 6.328-.473 8.465-1.457 1.746-.782 7.176-3.66 5.899-7.52"/><path style="stroke:none;fill-rule:nonzero;fill:#336791;fill-opacity:1" d="M68.813 45.672c-8.465 1.746-9.06-1.129-9.06-1.129 8.938-13.273 12.677-30.121 9.45-34.23C60.41-.93 45.164 4.394 44.918 4.516l-.082.02c-1.664-.348-3.559-.556-5.652-.595-3.84-.062-6.739 1.004-8.938 2.672 0 0-27.183-11.199-25.91 14.074.266 5.383 7.703 40.708 16.582 30.02 3.246-3.902 6.367-7.191 6.367-7.191 1.563 1.027 3.414 1.562 5.387 1.379l.14-.125c-.039.496-.019.968.063 1.523-2.281 2.547-1.621 3-6.184 3.945-4.625.942-1.914 2.649-.144 3.102 2.156.535 7.129 1.293 10.48-3.414l-.144.535c.902.719 1.52 4.664 1.418 8.242-.102 3.574-.184 6.04.535 7.95.7 1.913 1.418 6.245 7.418 4.952 5.016-1.066 7.621-3.863 7.992-8.507.246-3.305.844-2.813.883-5.774l.476-1.398c.532-4.477.083-5.918 3.184-5.258l.758.062c2.281.102 5.262-.37 7.008-1.171 3.738-1.73 5.957-4.645 2.257-3.887"/><path style="stroke:none;fill-rule:nonzero;fill:#fff;fill-opacity:1" d="M31.828 23.11c-.758-.102-1.457 0-1.805.245-.207.145-.27.329-.27.434-.038.309.188.656.31.844.39.512.945.86 1.5.922.082.02.164.02.246.02.925 0 1.765-.72 1.828-1.255.101-.633-.864-1.086-1.809-1.21M57.125 23.133c-.086-.516-1.008-.68-1.89-.555-.883.121-1.727.512-1.665 1.047.063.41.782 1.11 1.664 1.11.082 0 .141 0 .227-.024.574-.082 1.004-.453 1.21-.656.31-.328.474-.676.454-.922"/><path style="stroke:none;fill-rule:nonzero;fill:#fff;fill-opacity:1" d="M71.629 45.469c-.328-.989-1.356-1.297-3.082-.926-5.137 1.066-6.965.328-7.563-.121 3.989-6.082 7.278-13.418 9.043-20.262.84-3.246 1.293-6.265 1.336-8.71.04-2.692-.41-4.684-1.355-5.88-3.824-4.867-9.41-7.5-16.211-7.562-4.664-.059-8.61 1.152-9.371 1.48a24.345 24.345 0 0 0-5.262-.675c-3.492-.063-6.531.78-9.039 2.484a39.94 39.94 0 0 0-7.336-1.934c-5.937-.965-10.664-.222-14.035 2.16-4.047 2.836-5.899 7.93-5.547 15.122.121 2.425 1.5 9.863 3.676 17.011 2.86 9.39 5.98 14.715 9.27 15.805.39.121.82.223 1.316.223 1.191 0 2.672-.532 4.191-2.364 2.527-3.039 4.887-5.605 5.774-6.53a9.36 9.36 0 0 0 4.148 1.108v.122c-.285.347-.531.636-.738.902-1.008 1.277-1.211 1.543-4.438 2.2-.926.183-3.347.698-3.39 2.405-.04 1.868 2.875 2.649 3.226 2.73 1.149.29 2.281.434 3.348.434 2.59 0 4.87-.843 6.7-2.507-.063 6.66.226 13.234 1.026 15.226.657 1.645 2.258 5.63 7.317 5.63.738 0 1.558-.083 2.465-.286 5.277-1.129 7.558-3.473 8.441-8.61.477-2.753 1.297-9.308 1.664-12.824.805.25 1.852.371 2.98.371 2.344 0 5.055-.492 6.743-1.293 1.886-.863 5.32-3.043 4.703-4.93ZM59.055 21.69c-.02 1.051-.164 1.973-.309 2.961-.164 1.067-.328 2.157-.367 3.473-.043 1.297.121 2.629.266 3.945.308 2.63.636 5.32-.618 7.992-.183-.347-.39-.718-.554-1.148-.164-.371-.493-.988-.965-1.828-1.828-3.27-6.082-10.934-3.903-14.059.657-.882 2.32-1.847 6.45-1.336ZM54.039 4.105c6.082.145 10.89 2.403 14.281 6.758 2.61 3.328-.265 18.516-8.586 31.606-.082-.106-.164-.207-.246-.309-.043-.043-.062-.082-.105-.125 2.16-3.555 1.726-7.066 1.36-10.168-.145-1.277-.31-2.488-.27-3.617.043-1.215.207-2.242.351-3.227.184-1.234.39-2.507.328-4.007.04-.164.059-.348.04-.555-.145-1.438-1.766-5.73-5.118-9.637-1.828-2.136-4.5-4.52-8.136-6.12 1.562-.352 3.699-.661 6.101-.599ZM20.035 49.97c-1.683 2.011-2.836 1.62-3.226 1.5-2.485-.824-5.364-6.082-7.91-14.426-2.2-7.215-3.493-14.465-3.594-16.5-.328-6.43 1.23-10.91 4.64-13.316 5.528-3.922 14.61-1.582 18.27-.391a1.318 1.318 0 0 1-.164.144c-6.004 6.063-5.86 16.399-5.84 17.012 0 .25.023.598.043 1.07.101 1.747.285 4.973-.227 8.649-.472 3.414.578 6.742 2.88 9.144.245.247.491.493.738.7a198.935 198.935 0 0 0-5.61 6.414Zm6.41-8.551c-1.847-1.934-2.71-4.645-2.32-7.398.535-3.864.348-7.254.227-9.06-.024-.245-.024-.476-.043-.66.882-.78 4.933-2.956 7.828-2.28 1.316.308 2.117 1.195 2.465 2.753 1.726 8.016.226 11.344-.985 14.016-.246.555-.492 1.066-.68 1.621l-.164.41c-.39 1.051-.757 2.035-.984 2.98-1.973-.019-3.887-.862-5.344-2.382Zm.29 10.789a4.692 4.692 0 0 1-1.4-.598c.247-.12.7-.285 1.5-.453 3.802-.777 4.38-1.336 5.673-2.957.285-.367.637-.8 1.086-1.316.68-.758 1.008-.637 1.562-.41.453.183.903.761 1.09 1.398.082.305.184.863-.144 1.313-2.668 3.785-6.555 3.722-9.368 3.023ZM46.62 70.719c-4.64.988-6.285-1.375-7.375-4.086-.7-1.746-1.047-9.64-.8-18.352 0-.12-.02-.222-.044-.328a3.191 3.191 0 0 0-.12-.617c-.372-1.273-1.255-2.32-2.302-2.773-.433-.165-1.19-.493-2.117-.266.203-.82.535-1.746.926-2.734l.164-.41c.184-.473.39-.965.637-1.481 1.254-2.817 3-6.656 1.105-15.328-.695-3.246-3.039-4.828-6.613-4.48-2.14.226-4.09 1.09-5.059 1.581-.203.106-.41.207-.574.309.266-3.266 1.297-9.39 5.137-13.274 2.363-2.445 5.59-3.66 9.516-3.597 7.726.125 12.675 4.09 15.492 7.398 2.402 2.856 3.718 5.711 4.234 7.274-3.926-.39-6.578.37-7.933 2.3-2.938 4.196 1.605 12.352 3.8 16.274.395.719.742 1.336.864 1.601.718 1.727 1.625 2.88 2.3 3.723.207.266.414.512.559.719-1.195.348-3.309 1.129-3.125 5.074-.164 1.973-1.273 11.262-1.828 14.547-.762 4.34-2.363 5.96-6.844 6.926ZM66.02 48.508c-1.211.554-3.247.988-5.176 1.07-2.137.102-3.207-.246-3.473-.453-.125-2.465.8-2.715 1.766-3 .144-.043.308-.082.453-.145.082.083.183.145.285.204 1.707 1.129 4.766 1.254 9.082.37H69c-.574.579-1.563 1.298-2.98 1.954Zm0 0"/></svg>