<svg xmlns="http://www.w3.org/2000/svg" width="75" height="px" viewBox="0 0 75 75"><path style="fill:#00c8ff;fill-opacity:1;stroke:none" d="M0 0h75v75H0z"/><path style="stroke:none;fill-rule:nonzero;fill:#001d26;fill-opacity:1" d="M3.309 3.309H71.71V71.71H3.309Zm0 0"/><path style="stroke:none;fill-rule:nonzero;fill:#00c8ff;fill-opacity:1" d="M18.227 18.125c0-.27.039-.371.265-.371 1.684-.063 5.016-.102 8.383-.102 8.691 0 12.02 5.055 12.063 11.055 0 8.2-6.126 11.32-12.637 11.32h-2.754v11.715c0 .309-.082.41-.309.41h-4.707c-.222 0-.304-.101-.304-.367Zm5.32 16.89c.348.06 1.027.102 2.879.102 3.512 0 6.883-1.008 6.883-6.164 0-4.133-2.262-6.246-6.434-6.246-1.727 0-2.98.063-3.328.102ZM50.016 31.152c-2.141 0-2.715 1.336-2.715 2.32 0 1.235.574 1.91 3.844 3.454 4.5 2.156 6.41 4.066 6.41 7.785 0 5.16-3.348 8.098-8.157 8.098-2.3 0-5.218-.227-7.07-1.563-.164-.101-.266-.266-.266-.512v-4.746c0-.27.165-.37.31-.27 2.26 1.708 4.784 2.18 7.066 2.18 2.015 0 2.714-1.336 2.714-2.464 0-1.336-.496-2.118-3.617-3.618-4.5-2.156-6.37-4.027-6.37-7.785 0-4.172 3.144-7.625 8.28-7.625 2.653 0 4.543.063 5.754.907.227.203.266.367.266.675v4.235c0 .308-.164.472-.39.308-1.56-1.05-3.778-1.379-6.06-1.379Zm0 0"/></svg>