<svg xmlns="http://www.w3.org/2000/svg" width="75" height="px" viewBox="0 0 75 75"><path style="fill:#ff7c00;fill-opacity:1;stroke:none" d="M0 0h75v75H0z"/><path style="stroke:none;fill-rule:nonzero;fill:#261300;fill-opacity:1" d="M3.309 3.309H71.71V71.71H3.309Zm0 0"/><path style="stroke:none;fill-rule:nonzero;fill:#ff7c00;fill-opacity:1" d="m25.91 42.7-2.691 8.98c-.04.304-.184.41-.453.41h-4.52c-.308 0-.39-.164-.308-.516 2.406-7.89 6.433-21.058 9.269-29.976.121-.516.266-1.028.348-2.836 0-.207.12-.309.265-.309h6.125c.223 0 .266.063.348.266 3.285 10.582 6.883 22.234 10.254 32.918.082.308 0 .472-.266.472h-4.976c-.223 0-.305-.101-.39-.304l-2.837-9.086H25.906v-.02Zm8.98-5.055c-.882-3.454-3.062-10.418-3.945-14.036h-.039c-.66 3.41-2.488 9.227-3.824 14.036ZM49.047 20.383c0-1.91 1.273-3.203 2.96-3.203 1.786 0 2.876 1.293 2.876 3.203 0 1.953-1.172 3.207-2.918 3.207-1.727 0-2.918-1.235-2.918-3.207Zm.308 7.027c0-.305.083-.41.31-.41h4.624c.266 0 .348.063.348.41v24.246c0 .27-.082.414-.348.414h-4.543c-.266 0-.39-.101-.39-.472Zm0 0"/></svg>