<svg xmlns="http://www.w3.org/2000/svg" width="75" height="px" viewBox="0 0 75 75"><path style="fill:#ff3f94;fill-opacity:1;stroke:none" d="M0 0h75v75H0z"/><path style="stroke:none;fill-rule:nonzero;fill:#2e0013;fill-opacity:1" d="M3.309 3.309H71.71V71.71H3.309Zm0 0"/><path style="stroke:none;fill-rule:nonzero;fill:#ff3f94;fill-opacity:1" d="M27.781 51.328c0 .309-.082.473-.39.473h-4.625c-.266 0-.348-.164-.348-.473V18.492c0-.305.125-.367.348-.367h4.664c.27 0 .351.063.351.367ZM33.203 39.738c0-7.355 4.664-13.558 12.086-13.558 1.004 0 1.746.101 2.484.347v-8.242c0-.246.082-.348.266-.348h4.746c.164 0 .227.102.227.31v27.82c0 1.07.082 2.445.12 3.245.044.247 0 .352-.222.516-2.754 1.582-5.836 2.484-8.715 2.484-6.406.024-10.992-4.085-10.992-12.574Zm14.57-8.363c-.656-.305-1.562-.45-2.566-.45-3.926 0-6.574 3.348-6.574 8.528 0 5.73 2.875 8.012 6.183 8.012 1.086 0 2.176-.203 2.957-.512Zm0 0"/></svg>