<svg xmlns="http://www.w3.org/2000/svg" width="75" height="px" viewBox="0 0 75 75"><path style="stroke:none;fill-rule:evenodd;fill:#b52e31;fill-opacity:1" d="M22.063 42.406V33.18h1.183l5.64 7.425V33.18h1.13v9.226h-1.188l-5.64-7.5v7.5ZM39.2 42.04a6.772 6.772 0 0 1-2.403.425c-3.34 0-5.008-1.598-5.008-4.805 0-3.031 1.61-4.555 4.832-4.555.922 0 1.785.133 2.578.38v1.027a6.682 6.682 0 0 0-2.445-.453c-2.52 0-3.781 1.199-3.781 3.574 0 2.562 1.246 3.836 3.722 3.836.395 0 .836-.059 1.317-.16v-3.09h1.187ZM41.102 38.848V33.18h1.187v5.668c0 1.773.879 2.668 2.652 2.668 1.758 0 2.653-.895 2.653-2.668V33.18h1.187v5.668c0 2.418-1.277 3.632-3.84 3.632-2.562 0-3.84-1.214-3.84-3.632ZM52.09 33.18v8.261h4.832v.965h-6.02V33.18ZM58.637 42.406H57.39l4.586-10.445 4.586 10.445h-1.32l-1.184-2.898h-3.047l.32-.969h2.332l-1.73-4.172ZM67.836 42.406V33.18h3.941c1.758 0 2.637.73 2.637 2.21 0 1.204-.863 2.094-2.578 2.665L75 42.406h-1.566l-2.93-4.144v-.778c1.758-.277 2.652-.953 2.652-2.035 0-.851-.484-1.273-1.469-1.273h-2.632v8.23Zm0 0"/><path style="stroke:none;fill-rule:evenodd;fill:#e23237;fill-opacity:1" d="m0 30.719 9.45-3.371 9.695 3.312-1.567 12.496-8.129 4.496-8-4.441Zm0 0"/><path style="stroke:none;fill-rule:evenodd;fill:#b52e31;fill-opacity:1" d="m19.145 30.66-9.696-3.312v20.304l8.13-4.496Zm0 0"/><path style="stroke:none;fill-rule:evenodd;fill:#fff;fill-opacity:1" d="M9.46 29.723 3.575 42.816l2.196-.043 1.187-2.96h5.258l1.289 2.992 2.098.043Zm.017 4.203 1.992 4.16H7.734Zm0 0"/></svg>