<?xml version="1.0" encoding="utf-8"?>
<!-- Generator: Adobe Illustrator 24.3.0, SVG Export Plug-In . SVG Version: 6.00 Build 0)  -->
<svg version="1.1" id="Layer_1" xmlns="http://www.w3.org/2000/svg" xmlns:xlink="http://www.w3.org/1999/xlink" x="0px" y="0px"
	 viewBox="0 0 512 512" style="enable-background:new 0 0 512 512;" xml:space="preserve">
<style type="text/css">
	.st0{fill:#00979C;}
</style>
<g id="XMLID_1_">
	<path id="XMLID_3_" class="st0" d="M124.56,82.38c-16.97,0-33.39,3.37-48.25,9.4c-22.3,9.12-41.24,24.27-54.85,43.48
		c-6.73,9.68-12.2,20.34-15.85,31.7C1.96,178.33,0,190.53,0,203.02c0,16.69,3.51,32.68,9.96,47.27c4.77,10.94,11.08,20.9,18.8,29.74
		c11.5,13.33,25.81,24.27,42.08,31.84c16.27,7.57,34.51,11.78,53.72,11.78v-21.32l-1.12,21.18c2.67,0.14,5.33,0.14,7.86,0.14
		c9.4,0,18.24-0.98,26.79-2.67c7.86-1.68,15.43-4.07,22.44-7.15c6.59-2.81,12.76-6.17,18.52-10.1c10.8-7.15,20.2-15.71,28.62-24.97
		c7.29-8.14,14.03-16.69,20.2-25.67c10.8-15.57,20.34-31.7,29.88-46.99c7.15-11.5,14.31-22.58,21.88-32.4
		c5.61-7.43,11.5-14.17,17.53-20.2c4.63-4.49,9.4-8.42,14.31-11.92c7.43-5.19,15.43-9.4,24.55-12.2c8.98-2.81,19.22-4.49,31.14-4.49
		c11.5,0,22.3,2.24,32.12,6.17c14.73,6.03,27.35,15.99,36.05,28.48c4.35,6.17,7.86,13.05,10.1,20.34c2.38,7.29,3.65,15.01,3.65,23
		c0,10.66-2.24,20.76-6.31,30.16c-3.09,7.01-7.15,13.47-12.06,19.22c-7.43,8.7-16.97,15.85-27.77,20.9
		c-10.8,5.05-22.86,7.86-35.77,7.86h-0.7h-0.56c-1.96,0.14-3.79,0.14-5.61,0.14c-6.59,0-12.48-0.7-17.96-1.82
		c-5.19-1.12-9.82-2.52-14.31-4.49c-4.21-1.82-8.14-3.93-12.06-6.45c-7.15-4.77-14.03-10.8-20.48-17.96
		c-5.75-6.31-11.22-13.47-16.69-21.32c-9.54-13.75-18.8-29.32-28.62-45.17c-7.43-11.92-15.29-23.99-23.99-35.63
		c-6.59-8.7-13.75-17.11-21.74-24.97c-6.03-5.89-12.48-11.36-19.64-16.27c-10.66-7.43-22.58-13.61-36.05-17.96
		C155.14,84.63,140.41,82.38,124.56,82.38v42.5c7.43,0,14.17,0.7,20.48,1.82c5.89,1.12,11.22,2.67,16.27,4.77
		c9.4,3.79,17.81,8.98,25.81,15.43c6.87,5.75,13.47,12.48,19.64,20.06c5.47,6.59,10.66,13.89,15.85,21.6
		c8.98,13.47,17.67,28.2,26.93,42.92c6.87,11.08,14.17,22.16,22.3,32.68c6.03,7.86,12.62,15.57,19.92,22.58
		c5.47,5.33,11.36,10.24,17.67,14.73c9.54,6.73,20.2,12.34,32.12,16.13s24.83,5.89,38.86,5.89c2.52,0,5.19,0,7.86-0.14l-1.12-21.18
		v21.32c16.97,0,33.39-3.37,48.25-9.4c22.3-9.12,41.24-24.27,54.85-43.48c6.73-9.68,12.2-20.34,15.85-31.7
		c3.65-11.36,5.61-23.57,5.61-36.05c0-16.69-3.51-32.68-9.96-47.27c-4.77-10.94-11.08-20.9-18.8-29.74
		c-11.5-13.33-25.81-24.27-42.08-31.84s-34.51-11.78-53.72-11.78c-9.96,0-19.5,0.84-28.48,2.67c-8.42,1.54-16.41,3.93-23.85,6.87
		c-14.03,5.61-26.51,13.33-37.31,22.3c-9.54,7.86-17.81,16.69-25.39,25.81c-6.59,8.14-12.62,16.41-18.38,24.97
		c-9.96,14.87-18.8,30.02-27.63,44.05c-6.59,10.52-13.19,20.62-20.06,29.46c-5.05,6.73-10.24,12.62-15.71,17.96
		c-4.07,3.93-8.14,7.43-12.48,10.38c-6.45,4.49-13.19,8-20.76,10.38c-7.57,2.38-15.85,3.79-25.81,3.79c-1.82,0-3.65,0-5.61-0.14
		h-0.56h-0.56c-11.5,0-22.3-2.24-32.12-6.17c-14.73-6.03-27.35-15.99-36.05-28.48c-4.35-6.17-7.86-13.05-10.1-20.34
		c-2.38-7.29-3.65-15.01-3.65-23c0-10.66,2.24-20.76,6.31-30.02c3.09-7.01,7.15-13.47,12.06-19.22c7.43-8.7,16.97-15.85,27.77-20.9
		c10.8-5.05,22.86-7.86,35.77-7.86L124.56,82.38L124.56,82.38z"/>
	<polygon id="XMLID_4_" class="st0" points="375.65,227.56 375.65,204.28 352.65,204.28 352.65,194.6 375.65,194.6 375.65,171.46 
		385.47,171.46 385.47,194.6 408.62,194.6 408.62,204.28 385.47,204.28 385.47,227.56 	"/>
	<polygon id="XMLID_5_" class="st0" points="375.65,227.56 382.81,227.56 382.81,197.13 359.66,197.13 359.66,194.6 352.65,194.6 
		352.65,201.61 382.81,201.61 382.81,178.61 385.47,178.61 385.47,171.46 378.46,171.46 378.46,201.61 401.46,201.61 401.46,204.28 
		408.62,204.28 408.62,197.13 378.46,197.13 378.46,220.41 375.65,220.41 375.65,227.56 382.81,227.56 375.65,227.56 375.65,234.58 
		392.63,234.58 392.63,211.43 415.63,211.43 415.63,187.45 392.63,187.45 392.63,164.44 368.64,164.44 368.64,187.45 345.49,187.45 
		345.49,211.43 368.64,211.43 368.64,234.58 375.65,234.58 	"/>
	<path id="XMLID_8_" class="st0" d="M484.51,103.14v-9.68h-3.65v-1.68h9.26v1.68h-3.65v9.68H484.51z M491.38,103.14V91.92h2.81
		l2.81,8.98l2.81-8.98h2.67v11.22h-1.68V93.6l-2.95,9.54h-1.68l-3.09-9.68v9.68H491.38z"/>
	<path id="XMLID_11_" class="st0" d="M484.51,103.14h0.42v-9.96h-3.65V92.2h8.56v0.98h-3.79v9.68h-1.54V103.14h0.42H484.51v0.42
		h2.24v-9.68h3.65V91.5h-9.96v2.38h3.65v9.68h0.42V103.14z M491.38,103.14h0.42V92.2h2.1l3.09,9.82l2.95-9.82h2.1v10.52h-0.98V93.6
		l-0.7-0.14l-2.81,9.26h-1.12l-2.95-9.4l-0.7,0.14v9.26h-1.4V103.14h0.42H491.38v0.42h2.1v-7.72l2.38,7.72h2.24l2.24-7.43v7.43h2.38
		V91.5h-3.37l-2.52,8.14l-2.52-8.14h-3.37v12.06h0.42L491.38,103.14L491.38,103.14z"/>
	<path id="XMLID_14_" class="st0" d="M61.16,427.46l-4.63-15.99H27.21l-4.77,15.99H6.87l24.83-81.08h22.02l24.83,81.08H61.16z
		 M42.08,361.25L31,398.98h22.02L42.08,361.25z"/>
	<path id="XMLID_17_" class="st0" d="M61.16,427.46l0.84-0.28l-4.77-16.69H26.65l-4.77,15.99H8l24.27-79.25h20.9l24.27,79.4H61.16
		V427.46l0.84-0.28L61.16,427.46v0.84h18.66l-25.39-82.76H31.14L5.75,428.3h17.39l4.77-15.99h28.05l4.63,15.99h0.7v-0.84H61.16z
		 M42.08,361.25l-0.84-0.28l-11.36,38.86h24.27l-12.06-41.66l-0.84,2.81L42.08,361.25l-0.84,0.28l10.66,36.61H32.26l10.66-36.61
		L42.08,361.25l-0.84,0.28L42.08,361.25z"/>
	<path id="XMLID_20_" class="st0" d="M129.61,427.46l-11.78-26.09c-1.12-2.52-2.67-4.35-4.63-5.61c-1.96-1.26-4.35-1.82-7.01-1.82
		h-3.09v33.53H87.25v-81.08h24.41c4.63,0,8.84,0.42,12.62,1.12c3.79,0.7,7.01,2.1,9.68,3.79c2.67,1.82,4.63,4.07,6.17,7.01
		c1.4,2.81,2.1,6.31,2.1,10.52c0,2.95-0.42,5.61-1.4,8c-0.84,2.38-2.1,4.35-3.79,6.03c-1.68,1.68-3.51,3.09-5.75,4.07
		c-2.24,0.98-4.63,1.82-7.29,2.1c2.1,0.42,3.93,1.54,5.61,3.37c1.68,1.82,3.37,4.49,5.19,8l13.47,27.21h-18.66V427.46z
		 M125.69,370.22c0-3.93-1.26-6.87-3.93-8.56c-2.67-1.68-6.59-2.67-11.78-2.67h-6.87v22.86h6.45c2.38,0,4.63-0.28,6.59-0.7
		c1.96-0.56,3.65-1.26,5.05-2.24s2.52-2.24,3.23-3.65C125.26,373.87,125.69,372.19,125.69,370.22L125.69,370.22z"/>
	<path id="XMLID_23_" class="st0" d="M129.61,427.46l0.84-0.42l-11.78-26.09l0,0c-1.12-2.67-2.81-4.63-4.91-6.03
		s-4.63-1.96-7.43-1.96l0,0l0,0h-3.93v33.53H88.37v-79.25h23.57l0,0c4.63,0,8.7,0.42,12.34,1.12c3.65,0.7,6.73,1.96,9.4,3.65
		c2.52,1.68,4.49,3.93,5.89,6.59s2.1,6.03,2.1,10.1l0,0c0,2.81-0.42,5.33-1.26,7.57c-0.84,2.24-2.1,4.07-3.65,5.75
		c-1.54,1.54-3.37,2.95-5.61,3.93c-2.1,0.98-4.49,1.68-7.15,2.1v1.68c1.82,0.42,3.51,1.4,5.19,3.09c1.68,1.68,3.37,4.35,5.05,7.72
		l12.76,25.95h-17.25v0.98l0.84-0.42L129.61,427.46v0.84h19.92l-14.03-28.48l0,0c-1.68-3.51-3.51-6.31-5.33-8.14
		c-1.82-1.96-3.79-3.23-6.17-3.65l-0.14,0.84l0.14,0.84c2.67-0.42,5.19-1.12,7.57-2.24c2.38-1.12,4.35-2.52,6.03-4.21
		c1.68-1.82,3.09-3.93,3.93-6.31c0.98-2.38,1.4-5.19,1.4-8.14l0,0c0-4.21-0.7-7.86-2.24-10.94c-1.54-2.95-3.65-5.47-6.45-7.29
		c-2.81-1.82-6.03-3.23-9.96-3.93c-3.79-0.84-8.14-1.12-12.76-1.12l0,0H86.27v82.76h17.53v-33.53h2.1l0,0l0,0
		c2.52,0,4.77,0.56,6.59,1.82c1.82,1.12,3.23,2.95,4.35,5.19l0,0l12.06,26.51h0.56v-0.84H129.61z M125.69,370.22h0.84
		c0-2.1-0.28-3.93-1.12-5.47c-0.7-1.54-1.82-2.81-3.23-3.79c-2.81-1.82-6.87-2.81-12.2-2.81h-7.86v24.55h7.29l0,0
		c2.52,0,4.77-0.28,6.87-0.7c2.1-0.56,3.93-1.26,5.33-2.38c1.54-1.12,2.67-2.38,3.51-3.93s1.26-3.51,1.26-5.47v-0.14l-0.14-0.14
		L125.69,370.22h0.84H125.69l-0.7,0.42l0,0L125.69,370.22h-0.84c0,1.82-0.42,3.37-1.12,4.63c-0.7,1.4-1.68,2.52-2.95,3.37
		c-1.26,0.98-2.95,1.68-4.77,2.1c-1.96,0.42-4.07,0.7-6.45,0.7l0,0h-5.61v-21.18h6.03c5.19,0,8.84,0.84,11.22,2.52
		c1.12,0.84,2.1,1.82,2.67,3.09c0.56,1.26,0.84,2.81,0.84,4.77v0.14l0.14,0.14L125.69,370.22z"/>
	<path id="XMLID_26_" class="st0" d="M220.37,385.79c0,6.31-0.84,12.06-2.38,17.11c-1.54,5.19-4.07,9.54-7.57,13.19
		c-3.37,3.65-7.72,6.45-13.05,8.42c-5.33,1.96-11.64,2.95-19.08,2.95h-21.32v-81.08h24.83c6.45,0,12.06,0.84,16.83,2.38
		c4.77,1.54,8.84,3.93,12.06,7.15c3.23,3.23,5.61,7.29,7.29,12.34C219.53,373.03,220.37,378.92,220.37,385.79L220.37,385.79z
		 M203.4,386.92c0-4.35-0.42-8.28-1.12-11.78c-0.7-3.37-1.96-6.31-3.65-8.7c-1.68-2.38-4.07-4.21-7.01-5.47
		c-2.95-1.26-6.59-1.82-10.8-1.82h-8v55.55h6.87c7.72,0,13.61-2.24,17.67-6.73C201.43,403.47,203.4,396.45,203.4,386.92
		L203.4,386.92z"/>
	<path id="XMLID_29_" class="st0" d="M220.37,385.79h-0.84c0,6.17-0.84,11.78-2.38,16.83c-1.54,5.05-4.07,9.26-7.29,12.76
		c-3.37,3.51-7.57,6.17-12.76,8.14c-5.19,1.96-11.5,2.95-18.8,2.95h-20.48v-79.25h23.99c6.31,0,11.92,0.7,16.55,2.24
		c4.77,1.54,8.56,3.79,11.64,7.01c3.09,3.09,5.47,7.15,7.01,11.92c1.54,4.91,2.38,10.66,2.38,17.53h0.98l0.56-0.56l0,0l-1.4-1.4v2.1
		h0.84l-0.56,0.56l0,0l1.4,1.4v-2.1c0-6.87-0.84-12.91-2.38-17.96c-1.68-5.05-4.07-9.26-7.43-12.62c-3.37-3.37-7.43-5.75-12.34-7.43
		c-4.91-1.54-10.66-2.38-17.11-2.38h-25.67v82.76h22.16c7.43,0,13.89-0.98,19.36-2.95c5.47-1.96,9.96-4.91,13.33-8.56
		c3.51-3.79,6.03-8.28,7.72-13.47c1.68-5.19,2.38-11.08,2.38-17.39h-0.84l-0.56,0.56L220.37,385.79z M203.4,386.92h0.84l0,0
		c0-4.49-0.42-8.42-1.12-11.92c-0.7-3.51-1.96-6.59-3.79-8.98c-1.82-2.52-4.35-4.49-7.29-5.75c-3.09-1.26-6.73-1.96-11.22-1.96
		h-8.84v57.23h7.86h0.14c3.93,0,7.43-0.56,10.52-1.68c3.09-1.12,5.61-2.95,7.72-5.19c2.1-2.38,3.65-5.33,4.63-8.84
		s1.54-7.72,1.54-12.48c0-0.14,0-0.14,0-0.28h-0.98v0.84l0,0h0.84v-0.84L203.4,386.92v-0.84l0,0h-0.84v0.84c0,0.14,0,0.14,0,0.28
		c0,4.63-0.56,8.7-1.54,12.06c-0.98,3.37-2.38,6.03-4.35,8.14c-1.96,2.1-4.21,3.79-7.01,4.77c-2.81,1.12-6.03,1.68-9.82,1.68h-0.14
		h-6.03v-53.87h7.15c4.21,0,7.72,0.56,10.52,1.82c2.81,1.12,4.91,2.95,6.59,5.19c1.68,2.24,2.81,5.05,3.51,8.42s1.12,7.15,1.12,11.5
		l0,0L203.4,386.92v-0.84V386.92z"/>
	<path id="XMLID_30_" class="st0" d="M290.65,397.58c0,5.19-0.7,9.68-2.1,13.61s-3.51,7.15-6.17,9.82
		c-2.67,2.67-5.89,4.63-9.82,5.89c-3.79,1.26-8.14,1.96-12.91,1.96c-5.33,0-9.96-0.7-13.89-1.96c-3.79-1.26-7.01-3.23-9.4-5.75
		c-2.38-2.52-4.07-5.47-5.19-9.12c-1.12-3.51-1.54-7.57-1.54-11.92v-53.87h15.85v52.88c0,2.67,0.28,5.19,0.7,7.29
		c0.56,2.1,1.4,3.93,2.52,5.33c1.26,1.4,2.81,2.52,4.63,3.37c1.82,0.7,4.21,1.12,6.87,1.12c2.67,0,4.77-0.28,6.59-0.98
		c1.82-0.7,3.37-1.68,4.49-3.09c1.26-1.4,2.1-3.23,2.67-5.47c0.56-2.24,0.84-4.91,0.84-8.14v-52.32h15.85L290.65,397.58
		L290.65,397.58z"/>
	<path id="XMLID_31_" class="st0" d="M290.65,397.58h-0.84l0,0c0,5.05-0.7,9.54-2.1,13.33s-3.37,7.01-5.89,9.4
		c-2.52,2.52-5.75,4.35-9.54,5.75c-3.79,1.26-8,1.96-12.76,1.96c-5.33,0-9.82-0.7-13.61-1.96c-3.79-1.26-6.73-3.09-8.98-5.47
		c-2.24-2.38-3.93-5.33-5.05-8.7c-0.98-3.51-1.54-7.43-1.54-11.78v-52.88h14.03v52.04l0,0l0,0c0,2.81,0.28,5.19,0.7,7.43
		c0.56,2.24,1.4,4.21,2.81,5.75c1.26,1.54,2.95,2.81,4.91,3.51c1.96,0.84,4.35,1.12,7.29,1.12c2.67,0,4.91-0.28,6.87-0.98
		c1.96-0.7,3.51-1.82,4.91-3.37c1.26-1.54,2.24-3.51,2.81-5.75c0.56-2.38,0.98-5.05,0.98-8.42h-0.56h0.56l0,0h-0.56h0.56l0,0v-51.34
		h14.03v50.36l0,0H290.65h0.84v-52.18h-17.53v53.16h0.84h-0.84l0,0c0,3.09-0.28,5.75-0.84,7.86c-0.56,2.1-1.4,3.79-2.52,5.19
		c-1.12,1.26-2.52,2.24-4.07,2.81c-1.68,0.56-3.79,0.98-6.31,0.98c-2.67,0-4.91-0.42-6.59-1.12c-1.68-0.7-3.09-1.68-4.21-3.09
		c-1.12-1.4-1.96-3.09-2.38-5.05c-0.42-1.96-0.7-4.35-0.7-7.01l0,0l0,0v-53.72h-17.53v54.71c0,4.49,0.56,8.56,1.68,12.2
		s2.95,6.87,5.47,9.4c2.52,2.52,5.75,4.63,9.68,5.89c3.93,1.4,8.7,1.96,14.17,1.96c4.91,0,9.26-0.7,13.19-1.96
		c3.93-1.4,7.29-3.37,10.1-6.03s4.91-6.03,6.31-10.1c1.4-4.07,2.24-8.7,2.24-13.89l0,0l0,0L290.65,397.58L290.65,397.58z"/>
	<polygon id="XMLID_32_" class="st0" points="305.94,358.86 305.94,346.38 358.96,346.38 358.96,358.86 340.59,358.86 
		340.59,414.83 358.96,414.83 358.96,427.46 305.94,427.46 305.94,414.83 324.45,414.83 324.45,358.86 	"/>
	<polygon id="XMLID_33_" class="st0" points="305.94,358.86 306.78,358.86 306.78,347.22 358.12,347.22 358.12,357.88 
		339.74,357.88 339.74,415.67 358.12,415.67 358.12,426.61 306.78,426.61 306.78,415.67 325.3,415.67 325.3,357.88 305.94,357.88 
		305.94,358.86 306.78,358.86 305.94,358.86 305.94,359.7 323.61,359.7 323.61,413.99 305.1,413.99 305.1,428.3 359.8,428.3 
		359.8,413.99 341.43,413.99 341.43,359.7 359.8,359.7 359.8,345.54 305.1,345.54 305.1,359.7 305.94,359.7 	"/>
	<polygon id="XMLID_34_" class="st0" points="416.33,427.46 393.89,379.06 389.26,368.54 389.26,402.21 389.26,427.46 
		374.81,427.46 374.81,346.38 394.17,346.38 417.17,395.05 421.24,404.59 421.24,368.68 421.24,346.38 435.55,346.38 435.55,427.46 
			"/>
	<polygon id="XMLID_35_" class="st0" points="416.33,427.46 417.03,427.03 394.59,378.64 389.96,368.26 388.42,368.54 
		388.42,402.21 388.42,426.61 375.65,426.61 375.65,347.22 393.61,347.22 416.33,395.33 420.4,404.87 422.08,404.59 422.08,368.68 
		422.08,347.22 434.71,347.22 434.71,426.61 416.33,426.61 416.33,427.46 417.03,427.03 416.33,427.46 416.33,428.3 436.39,428.3 
		436.39,345.54 420.26,345.54 420.26,368.68 420.26,400.38 417.88,394.63 394.73,345.54 373.97,345.54 373.97,428.3 390.1,428.3 
		390.1,402.21 390.1,372.61 393.05,379.34 415.77,428.3 416.33,428.3 	"/>
	<path id="XMLID_38_" class="st0" d="M511.16,386.5c0,7.43-0.84,13.75-2.67,19.08c-1.82,5.33-4.21,9.68-7.29,13.19
		c-3.09,3.37-6.73,6.03-10.94,7.57c-4.21,1.68-8.7,2.52-13.33,2.52c-11.08,0-19.36-3.51-24.97-10.66c-5.61-7.15-8.42-17.39-8.42-31
		c0-7.43,0.84-13.75,2.67-19.08c1.82-5.33,4.21-9.68,7.29-13.19c3.09-3.37,6.73-6.03,10.94-7.57c4.21-1.68,8.7-2.52,13.33-2.52
		c11.08,0,19.36,3.51,24.97,10.66S511.16,373.03,511.16,386.5z M494.47,387.34c0-9.54-1.26-16.69-3.93-21.46
		c-2.67-4.77-7.01-7.01-13.05-7.01c-3.09,0-5.61,0.56-7.72,1.82c-2.1,1.26-3.93,2.95-5.33,5.33c-1.4,2.38-2.38,5.33-3.09,8.7
		c-0.7,3.51-0.98,7.43-0.98,11.92c0,9.54,1.4,16.69,4.07,21.46c2.67,4.77,7.01,7.01,13.05,7.01c3.09,0,5.61-0.56,7.86-1.82
		c2.1-1.26,3.93-2.95,5.33-5.33c1.4-2.38,2.38-5.33,3.09-8.7C494.19,395.75,494.47,391.69,494.47,387.34L494.47,387.34z"/>
	<path id="XMLID_41_" class="st0" d="M511.16,386.5h-0.84c0,7.29-0.84,13.61-2.67,18.8c-1.68,5.19-4.07,9.54-7.15,12.91
		c-3.09,3.37-6.59,5.75-10.66,7.43c-4.07,1.68-8.42,2.38-13.05,2.38c-5.47,0-10.1-0.84-14.17-2.52c-4.07-1.68-7.43-4.35-10.1-7.72
		c-5.47-6.87-8.14-16.97-8.14-30.44c0-7.29,0.84-13.61,2.67-18.8c1.68-5.19,4.07-9.54,7.15-12.91c3.09-3.37,6.59-5.75,10.66-7.43
		c4.07-1.68,8.42-2.38,13.05-2.38c5.47,0,10.1,0.84,14.17,2.52c4.07,1.68,7.43,4.21,10.1,7.72c5.33,6.87,8.14,16.83,8.14,30.3
		c0,0.14,0,0.14,0,0.28L511.16,386.5H512c0-0.14,0-0.14,0-0.28c0-13.61-2.81-23.99-8.56-31.28c-2.81-3.65-6.45-6.45-10.8-8.28
		c-4.35-1.82-9.26-2.67-14.87-2.67c-4.91,0-9.4,0.84-13.75,2.52c-4.35,1.68-8,4.35-11.22,7.86c-3.23,3.51-5.75,8-7.43,13.47
		c-1.82,5.47-2.67,11.92-2.67,19.36c0,13.61,2.81,24.13,8.56,31.42c2.81,3.65,6.45,6.45,10.8,8.28s9.26,2.67,14.87,2.67
		c4.91,0,9.4-0.84,13.75-2.52c4.35-1.68,8-4.35,11.22-7.86c3.23-3.51,5.75-8,7.43-13.47c1.82-5.47,2.67-11.92,2.67-19.36h-0.84
		V386.5z M494.47,387.34h0.84c0-9.68-1.26-16.97-4.07-21.88c-1.4-2.52-3.23-4.35-5.61-5.61c-2.38-1.26-5.05-1.82-8.28-1.82
		c-3.09,0-5.89,0.7-8.14,1.96c-2.24,1.26-4.21,3.23-5.61,5.61c-1.4,2.52-2.52,5.47-3.09,8.98c-0.7,3.51-0.98,7.57-0.98,12.06
		c0,9.68,1.26,16.97,4.07,21.88c1.4,2.52,3.23,4.35,5.61,5.61s5.05,1.82,8.14,1.82s5.89-0.7,8.28-1.96
		c2.24-1.26,4.21-3.23,5.61-5.75c1.4-2.52,2.52-5.47,3.09-8.98c0.7-3.51,0.98-7.57,0.98-12.06v-0.56l-0.42-0.28L494.47,387.34h0.84
		H494.47l-0.42,0.7l0,0L494.47,387.34h-0.84c0,4.49-0.28,8.28-0.98,11.78c-0.56,3.37-1.54,6.17-2.95,8.42
		c-1.26,2.24-2.95,3.93-5.05,5.05c-1.96,1.12-4.49,1.68-7.43,1.68c-2.95,0-5.33-0.56-7.43-1.68c-1.96-1.12-3.65-2.81-4.91-4.91
		c-2.52-4.49-3.93-11.5-3.93-21.04c0-4.49,0.28-8.28,0.98-11.78c0.56-3.37,1.68-6.17,2.95-8.42c1.26-2.24,2.95-3.93,5.05-5.05
		c1.96-1.12,4.49-1.68,7.29-1.68c2.95,0,5.33,0.56,7.43,1.68c2.1,1.12,3.65,2.81,4.91,4.91c2.52,4.49,3.93,11.5,3.93,21.04v0.56
		l0.42,0.28L494.47,387.34z"/>
	<rect id="XMLID_42_" x="98.33" y="195.58" class="st0" width="59.06" height="7.86"/>
	<polygon id="XMLID_43_" class="st0" points="98.33,203.44 106.75,203.44 106.75,195.58 98.33,195.58 98.33,204 157.39,204 
		157.39,195.58 149.11,195.58 149.11,203.44 157.39,203.44 157.39,195.02 98.33,195.02 98.33,203.44 106.75,203.44 98.33,203.44 
		98.33,211.85 165.8,211.85 165.8,187.17 89.92,187.17 89.92,211.85 98.33,211.85 	"/>
</g>
</svg>
