<svg xmlns="http://www.w3.org/2000/svg" width="75" height="px" viewBox="0 0 75 51"><path style="stroke:none;fill-rule:nonzero;fill:#252f3e;fill-opacity:1" d="M21.316 19.453c0 .922.098 1.668.27 2.215.2.547.445 1.145.789 1.793.125.2.176.398.176.57 0 .25-.149.5-.469.746l-1.555 1.047c-.222.149-.445.223-.64.223-.25 0-.496-.125-.742-.348a7.81 7.81 0 0 1-.887-1.168 19.8 19.8 0 0 1-.766-1.468c-1.926 2.289-4.344 3.433-7.254 3.433-2.07 0-3.726-.598-4.933-1.793-1.211-1.195-1.825-2.785-1.825-4.777 0-2.113.739-3.828 2.243-5.125 1.507-1.293 3.504-1.938 6.047-1.938.835 0 1.699.075 2.613.2.914.12 1.851.32 2.836.546v-1.816c0-1.89-.395-3.211-1.157-3.98-.792-.774-2.125-1.145-4.023-1.145-.863 0-1.75.098-2.664.324-.914.223-1.8.496-2.664.844a7.017 7.017 0 0 1-.863.324c-.172.05-.297.074-.395.074-.348 0-.52-.25-.52-.77V6.247c0-.398.051-.7.172-.871.125-.176.348-.352.692-.523.863-.45 1.902-.82 3.11-1.122 1.206-.32 2.491-.472 3.847-.472 2.937 0 5.082.672 6.465 2.015 1.355 1.344 2.047 3.383 2.047 6.122v8.058Zm-10.015 3.781c.812 0 1.652-.148 2.539-.445.89-.3 1.68-.848 2.344-1.594.394-.472.691-.996.84-1.59.148-.597.246-1.32.246-2.164v-1.046a19.664 19.664 0 0 0-2.27-.422 18.062 18.062 0 0 0-2.32-.149c-1.653 0-2.86.32-3.676.992-.813.672-1.207 1.618-1.207 2.864 0 1.168.297 2.039.91 2.636.594.622 1.457.918 2.594.918Zm19.808 2.688c-.441 0-.738-.074-.937-.246-.195-.153-.371-.5-.516-.973l-5.8-19.23c-.149-.496-.22-.82-.22-.996 0-.399.196-.622.59-.622h2.419c.468 0 .789.075.96.25.2.149.348.497.497.97l4.144 16.468 3.848-16.469c.125-.496.27-.82.468-.969.2-.148.543-.25.989-.25h1.972c.47 0 .79.075.989.25.195.149.367.497.468.97l3.895 16.667 4.27-16.668c.148-.496.32-.82.492-.969.199-.148.52-.25.965-.25h2.293c.394 0 .617.2.617.622 0 .125-.024.25-.051.398a3.65 3.65 0 0 1-.172.625l-5.945 19.23c-.149.497-.32.82-.52.97-.195.148-.515.25-.937.25h-2.121c-.47 0-.79-.075-.985-.25-.199-.177-.37-.497-.468-.997L38.487 8.656l-3.8 16.024c-.126.496-.27.82-.47.996-.198.172-.542.246-.988.246Zm31.703.672a16.31 16.31 0 0 1-3.8-.446c-1.23-.3-2.196-.625-2.836-.996-.395-.222-.664-.472-.766-.695a1.8 1.8 0 0 1-.148-.7v-1.269c0-.52.199-.77.57-.77.148 0 .293.024.441.075.149.05.372.148.618.25.84.371 1.754.672 2.714.871.989.2 1.95.297 2.938.297 1.55 0 2.762-.273 3.602-.82.835-.547 1.28-1.344 1.28-2.364 0-.695-.222-1.27-.663-1.742-.446-.473-1.285-.894-2.492-1.293l-3.579-1.12c-1.8-.571-3.132-1.419-3.949-2.536-.812-1.098-1.23-2.316-1.23-3.61 0-1.042.218-1.964.664-2.761a6.358 6.358 0 0 1 1.777-2.04c.738-.57 1.578-.995 2.567-1.292.984-.301 2.023-.422 3.105-.422.543 0 1.113.023 1.656.098.567.074 1.082.175 1.602.273.492.125.96.25 1.406.398.445.149.79.297 1.035.45.348.199.594.398.742.62.149.2.223.473.223.821V7.04c0 .524-.2.797-.57.797-.196 0-.516-.098-.938-.297-1.406-.648-2.984-.973-4.734-.973-1.406 0-2.516.227-3.281.7-.766.472-1.16 1.191-1.16 2.214 0 .696.246 1.293.738 1.766.496.473 1.406.945 2.715 1.367l3.504 1.121c1.777.57 3.058 1.368 3.824 2.387.765 1.02 1.133 2.188 1.133 3.484 0 1.067-.22 2.04-.641 2.883a6.63 6.63 0 0 1-1.8 2.192c-.766.62-1.677 1.07-2.74 1.39-1.109.352-2.269.524-3.526.524Zm0 0"/><path style="stroke:none;fill-rule:evenodd;fill:#f90;fill-opacity:1" d="M67.477 38.684c-8.118 6.046-19.91 9.257-30.051 9.257-14.211 0-27.016-5.3-36.688-14.105-.761-.7-.07-1.645.84-1.098 10.461 6.121 23.363 9.828 36.711 9.828 9.004 0 18.898-1.89 28.004-5.773 1.355-.621 2.516.898 1.184 1.89Zm0 0"/><path style="stroke:none;fill-rule:evenodd;fill:#f90;fill-opacity:1" d="M70.855 34.805c-1.035-1.344-6.859-.649-9.5-.325-.789.102-.91-.597-.195-1.117 4.637-3.285 12.262-2.34 13.149-1.246.89 1.121-.246 8.809-4.59 12.488-.664.575-1.305.274-1.012-.472.988-2.461 3.184-8.012 2.148-9.328Zm0 0"/></svg>