<svg xmlns="http://www.w3.org/2000/svg" width="75" height="px" viewBox="0 0 75 75"><defs><linearGradient id="a" gradientUnits="userSpaceOnUse" x1="-702.51" y1="796.718" x2="-702.255" y2="796.718" gradientTransform="scale(368.1216 -368.1216) rotate(45.496 599.052 1236.006)"><stop offset="0" style="stop-color:#070135;stop-opacity:1"/><stop offset="1" style="stop-color:#612d50;stop-opacity:1"/></linearGradient></defs><path style="stroke:none;fill-rule:nonzero;fill:url(#a)" d="M12.227 0h50.546c6.657 0 12.063 5.402 12.063 12.063v50.874C74.836 69.597 69.43 75 62.773 75H12.227C5.567 75 .164 69.598.164 62.937V12.063C.164 5.402 5.547 0 12.227 0Zm0 0"/><path style="stroke:none;fill-rule:nonzero;fill:#fff;fill-opacity:1" d="M38.055 32.281c1.91 0 3.347-.414 4.336-1.254.984-.824 1.48-2.054 1.48-3.68 0-1.6-.496-2.816-1.48-3.636-.985-.844-2.426-1.273-4.336-1.273h-6.7v9.843h6.7m.41 20.32c2.426 0 4.254-.511 5.465-1.519 1.234-1.008 1.851-2.547 1.851-4.602 0-2.015-.617-3.515-1.832-4.52-1.21-1.007-3.039-1.523-5.504-1.523h-7.11v12.165h7.13m11.262-16.704c2.586.739 4.601 2.118 6.039 4.13 1.418 2.015 2.136 4.48 2.136 7.398 0 4.48-1.52 7.828-4.582 10.027-3.058 2.2-7.703 3.309-13.953 3.309H19.273V14.3h18.165c6.515 0 11.242.965 14.16 2.918 2.937 1.953 4.394 5.078 4.394 9.37 0 2.259-.531 4.192-1.601 5.794-1.07 1.582-2.63 2.754-4.664 3.515"/></svg>