<svg xmlns="http://www.w3.org/2000/svg" width="75" height="px" viewBox="0 0 75 75"><path style="stroke:none;fill-rule:nonzero;fill:#1f72b5;fill-opacity:1" d="m15.77 68.98-4.832-54.25h53.124L59.23 68.96 37.46 75Zm0 0"/><path style="stroke:none;fill-rule:nonzero;fill:#51a3dc;fill-opacity:1" d="m37.5 70.395 17.586-4.875 4.144-46.356H37.5Zm0 0"/><path style="stroke:none;fill-rule:nonzero;fill:#ebebeb;fill-opacity:1" d="m20.23 31.688-.648-6.27h35.836L55 32.688l-15.145 6.687h14.52L52.812 60l-14.644 3.938L22.98 60.25l-.937-10.457h6.707l.375 5.52 8.79 1.644 8.128-2.5.375-8.832H21.457L21 39.062l16.5-7.226Zm0 0"/><path style="stroke:none;fill-rule:nonzero;fill:#cecece;fill-opacity:1" d="m21 39.063.457 6.562H37.5v-13.79ZM29.125 55.313l-.375-5.52h-6.707l.937 10.457 14.52 3.52v-6.895Zm0 0"/><path style="stroke:none;fill-rule:nonzero;fill:#cecece;fill-opacity:1" d="m19.582 25.418.648 6.27 17.27.148v-6.418Zm0 0"/><path style="stroke:none;fill-rule:nonzero;fill:#000;fill-opacity:1" d="M42.5 2.5V0h-10v5.832h6.875v1.875h-7.086V10h10.004V3.957h-7.082V2.5ZM24.375 5.895v1.812h7.086V10H21.457V0h9.793v2.5h-6.875ZM53.543 2.5V0H43.539v5.832h6.879v1.875h-7.086V10h10V3.957H46.25V2.5Zm0 0"/></svg>