<?xml version="1.0" standalone="no"?>
<!DOCTYPE svg PUBLIC "-//W3C//DTD SVG 20010904//EN"
 "http://www.w3.org/TR/2001/REC-SVG-20010904/DTD/svg10.dtd">
<svg version="1.0" xmlns="http://www.w3.org/2000/svg"
 width="75.000000pt" height="80.000000pt" viewBox="0 0 75.000000 80.000000"
 preserveAspectRatio="xMidYMid meet">

<g transform="translate(0.000000,80.000000) scale(0.100000,-0.100000)"
fill="#000000" stroke="none">
<path d="M30 764 c0 -38 59 -677 63 -679 1 -1 65 -18 142 -38 l140 -36 135 35
c74 20 138 39 142 42 6 6 68 631 68 688 l0 24 -345 0 -345 0 0 -36z m627 -56
c-3 -18 -16 -152 -28 -298 -12 -146 -25 -269 -29 -273 -4 -4 -54 -21 -113 -36
l-106 -29 -3 40 -3 41 -90 26 -90 27 -7 40 c-4 21 -7 54 -7 72 -1 31 0 32 44
32 44 0 45 0 51 -39 6 -35 9 -39 50 -48 24 -6 46 -8 49 -5 3 3 5 34 5 69 l0
63 -106 0 -105 0 3 46 3 47 89 36 89 36 -95 3 c-105 3 -108 5 -108 75 l0 27
115 0 115 0 0 40 0 40 141 0 141 0 -5 -32z"/>
</g>
</svg>
