<?xml version="1.0" encoding="utf-8"?>
<!-- Generator: Adobe Illustrator 24.3.0, SVG Export Plug-In . SVG Version: 6.00 Build 0)  -->
<svg version="1.1" id="Layer_1" xmlns="http://www.w3.org/2000/svg" xmlns:xlink="http://www.w3.org/1999/xlink" x="0px" y="0px"
	 viewBox="0 0 512 512" style="enable-background:new 0 0 512 512;" xml:space="preserve">
<style type="text/css">
	.st0{fill:#364548;}
	.st1{fill:#22A0C8;}
	.st2{fill:#37B1D9;}
	.st3{fill:#1B81A5;}
	.st4{fill:#1D91B4;}
	.st5{fill:#23A3C2;}
	.st6{fill:#34BBDE;}
	.st7{fill:#D3ECEC;}
	.st8{fill:#BDD9D7;}
</style>
<g id="XMLID_1_">
	<path id="XMLID_12_" class="st0" d="M77.29,389.68v-32.82c0-4.35,2.67-7.72,7.15-7.72h1.26c4.49,0,7.15,3.51,7.15,7.72v69.01
		c0,16.83-8.28,30.16-22.72,38.72c-6.73,3.93-14.17,6.03-21.88,6.03h-3.09c-16.83,0-30.16-8.28-38.72-22.72
		c-3.93-6.73-6.03-14.17-6.03-21.88v-3.09c0-16.83,8.28-30.16,22.72-38.72c6.73-3.93,14.17-6.03,21.88-6.03h3.09
		C59.48,378.04,69.16,382.39,77.29,389.68z M15.85,424.33c0,12.2,5.89,21.32,16.55,27.07c4.35,2.38,8.98,3.65,13.89,3.65
		c11.92,0,20.76-5.61,26.93-15.71c2.81-4.77,4.21-9.82,4.21-15.29c0-10.52-5.05-18.8-13.47-24.83c-5.19-3.65-10.94-5.61-17.25-5.61
		c-13.05,0-22.3,6.59-27.91,18.24C16.69,415.77,15.85,419.98,15.85,424.33z M146.73,378.04h2.1c17.96,0,31.7,8.7,40.26,24.41
		c3.51,6.31,5.33,13.19,5.33,20.34v3.09c0,16.83-8.28,30.16-22.86,38.72c-6.73,3.93-14.17,6.03-21.88,6.03h-3.09
		c-16.83,0-30.16-8.28-38.72-22.72c-3.93-6.73-6.03-14.17-6.03-21.88v-3.09c0-16.83,8.42-30.16,22.72-38.72
		C131.44,380,138.87,378.04,146.73,378.04z M117.55,424.33c0,11.78,5.75,20.48,15.71,26.51c4.63,2.81,9.82,4.21,15.29,4.21
		c11.64,0,20.2-5.89,26.23-15.71c2.81-4.63,4.21-9.82,4.21-15.29c0-10.94-5.33-19.36-14.31-25.39c-4.91-3.37-10.52-5.05-16.41-5.05
		c-13.05,0-22.3,6.59-27.91,18.24C118.39,415.77,117.55,419.98,117.55,424.33z M258.95,394.87c-2.38-1.12-6.73-1.4-9.26-1.54
		c-12.91-0.42-22.3,6.87-27.91,18.24c-1.96,3.93-2.81,8.14-2.81,12.48c0,13.33,7.01,22.58,18.8,28.34c4.35,2.1,9.96,2.52,14.73,2.52
		c4.21,0,10.1-2.52,13.75-4.35l0.7-0.28h2.81h0.28c3.51,0.7,6.17,2.95,6.17,6.73v1.54c0,9.4-17.25,11.64-23.85,12.06
		c-23.29,1.54-40.68-11.22-47.27-33.39c-1.12-3.79-1.68-7.72-1.68-11.64v-3.09c0-16.83,8.42-30.16,22.72-38.72
		c6.73-3.93,14.17-6.03,21.88-6.03h3.09c8.28,0,15.85,2.38,22.72,7.01l0.56,0.42l0.42,0.56c0.7,1.26,1.4,2.67,1.4,4.07v1.54
		c0,3.93-2.95,6.03-6.59,6.73h-0.28h-0.7C266.24,398.24,261.05,395.71,258.95,394.87z M309.3,405.25
		c6.03-6.03,12.06-12.06,18.24-17.96c1.68-1.68,8.14-8.7,10.66-8.7h2.81h0.28c3.51,0.7,6.17,2.95,6.17,6.73v1.54
		c0,2.67-3.09,5.61-4.77,7.43c-3.51,3.79-7.29,7.43-10.94,11.08l-18.8,19.08c8.14,8.14,16.13,16.13,24.13,24.41
		c2.24,2.24,4.49,4.49,6.59,6.73c0.7,0.84,1.96,1.82,2.52,2.95c0.7,1.12,1.12,2.24,1.12,3.51v1.54l-0.14,0.42
		c-0.84,3.51-3.09,6.45-7.01,6.45h-1.26c-2.52,0-5.47-2.95-7.29-4.63c-3.65-3.37-7.15-7.01-10.66-10.52l-11.92-11.64v18.66
		c0,4.35-2.67,7.72-7.15,7.72h-0.98c-4.49,0-7.15-3.51-7.15-7.72V357c0-4.35,2.67-7.72,7.15-7.72h1.26c4.49,0,7.15,3.51,7.15,7.72
		V405.25z M502.74,378.6h1.54c4.63,0,7.72,3.09,7.72,7.72c0,6.45-6.17,8.14-11.5,8.14c-7.01,0-13.61,4.21-18.38,8.98
		c-6.03,5.89-8.56,13.47-8.56,21.74v37.59c0,4.35-2.67,7.72-7.15,7.72h-1.26c-4.49,0-7.15-3.51-7.15-7.72v-39.7
		c0-15.29,7.43-27.77,19.78-36.47C485.21,381.4,493.62,378.6,502.74,378.6z M392.35,453.08c5.61,1.96,12.06,1.68,17.81,0.7
		c2.95-1.26,10.52-4.63,13.33-4.07l0.42,0.14l0.42,0.14c1.68,0.84,3.37,1.96,4.21,3.79c1.96,4.07,1.12,8.14-2.95,10.38l-1.26,0.7
		c-14.73,8.56-30.44,7.29-45.03-0.56c-7.01-3.79-12.34-9.4-16.27-16.27l-0.98-1.54c-9.4-16.41-8.14-33.53,2.52-49.1
		c3.65-5.33,8.56-9.54,14.17-12.76l2.1-1.26c13.89-8,28.76-7.43,42.92-0.42c7.72,3.79,13.89,9.4,18.1,16.83l0.7,1.4
		c3.09,5.33-0.98,10.1-5.05,13.33c-4.77,3.65-9.68,8.14-14.31,12.2C412.97,435.27,402.73,444.25,392.35,453.08z M379.02,443.69
		c11.5-9.82,23-19.78,34.51-29.74c3.93-3.37,8.28-6.87,12.06-10.52c-3.09-3.93-8.28-6.73-12.76-8.42
		c-8.98-3.37-17.81-2.24-25.95,2.52c-10.8,6.17-15.29,16.13-14.87,28.34c0.14,4.91,1.4,9.54,4.07,13.61
		C376.92,441.02,378.04,442.42,379.02,443.69z"/>
	<path id="XMLID_13_" class="st0" d="M295.28,132.84h45.73v46.85h23.15c10.66,0,21.74-1.96,31.84-5.33
		c4.91-1.68,10.52-4.07,15.43-7.01c-6.45-8.42-9.82-19.08-10.8-29.6c-1.26-14.31,1.54-32.82,11.22-44.05l4.77-5.61l5.75,4.63
		c14.45,11.64,26.65,27.77,28.76,46.29c17.39-5.05,37.73-3.93,53.16,4.91l6.31,3.65l-3.37,6.45c-12.91,25.25-40.12,33.1-66.49,31.7
		c-39.7,98.75-125.97,145.46-230.61,145.46c-54.01,0-103.66-20.2-131.86-68.17l-0.42-0.84l-4.07-8.42
		c-9.54-21.18-12.76-44.19-10.52-67.33l0.7-6.87h39.14V132.7h45.73V86.97h91.6V41.24h54.85V132.84"/>
	<path id="XMLID_14_" class="st1" d="M443.69,150.09c3.09-23.85-14.73-42.64-25.81-51.48c-12.76,14.73-14.73,53.44,5.33,69.72
		c-11.22,9.96-34.79,18.94-58.77,18.94H70.84c-2.38,25.11,2.1,48.39,12.2,68.17l3.37,6.17c2.1,3.65,4.49,7.01,6.87,10.38l0,0
		c12.06,0.84,23.15,0.98,33.39,0.84l0,0c20.06-0.42,36.33-2.81,48.68-7.15c1.82-0.7,3.79,0.28,4.49,2.24
		c0.7,1.82-0.28,3.79-2.24,4.49c-1.68,0.56-3.37,1.12-5.19,1.54l0,0c-9.68,2.81-20.2,4.63-33.67,5.47c0.84,0-0.84,0.14-0.84,0.14
		c-0.42,0-0.98,0.14-1.54,0.14c-5.33,0.28-11.08,0.42-16.83,0.42c-6.45,0-12.76-0.14-19.78-0.42l-0.14,0.14
		c24.41,27.49,62.7,43.91,110.54,43.91c101.42,0,187.41-45.03,225.56-145.88c27.07,2.81,53.02-4.07,64.81-27.21
		C481.84,139.71,457.57,143.08,443.69,150.09"/>
	<path id="XMLID_15_" class="st2" d="M443.69,150.09c3.09-23.85-14.73-42.64-25.81-51.48c-12.76,14.73-14.73,53.44,5.33,69.72
		c-11.22,9.96-34.79,18.94-58.77,18.94H88.23c-1.26,38.58,13.05,67.75,38.44,85.43l0,0c20.06-0.42,36.33-2.81,48.68-7.15
		c1.82-0.7,3.79,0.28,4.49,2.24c0.7,1.82-0.28,3.79-2.24,4.49c-1.68,0.56-3.37,1.12-5.19,1.54l0,0c-9.68,2.81-21.04,4.91-34.51,5.75
		l-0.28-0.28c34.51,17.67,84.59,17.67,141.96-4.35c64.39-24.69,124.14-71.82,165.94-125.69
		C444.95,149.53,444.25,149.81,443.69,150.09"/>
	<path id="XMLID_16_" class="st3" d="M71.4,217.85c1.82,13.47,5.75,26.09,11.64,37.59l3.37,6.17c2.1,3.65,4.49,7.01,6.87,10.38
		c12.06,0.84,23.15,0.98,33.39,0.84c20.06-0.42,36.33-2.81,48.68-7.15c1.82-0.7,3.79,0.28,4.49,2.24c0.7,1.82-0.28,3.79-2.24,4.49
		c-1.68,0.56-3.37,1.12-5.19,1.54l0,0c-9.68,2.81-21.04,4.77-34.51,5.61c-0.42,0-1.26,0-1.68,0c-5.33,0.28-10.94,0.42-16.83,0.42
		c-6.45,0-12.91-0.14-19.92-0.42c24.41,27.49,62.98,44.05,110.82,44.05c86.83,0,162.44-32.96,206.2-105.77L71.4,217.85"/>
	<path id="XMLID_17_" class="st4" d="M90.9,217.85c5.19,23.71,17.67,42.22,35.77,54.85c20.06-0.42,36.33-2.81,48.68-7.15
		c1.82-0.7,3.79,0.28,4.49,2.24c0.7,1.82-0.28,3.79-2.24,4.49c-1.68,0.56-3.37,1.12-5.19,1.54l0,0c-9.68,2.81-21.32,4.77-34.79,5.61
		c34.51,17.67,84.44,17.39,141.82-4.63c34.65-13.33,68.17-33.24,98.05-57.09H90.9"/>
	<path id="XMLID_25_" class="st5" d="M110.68,140.41h39.7v39.7h-39.7V140.41z M113.9,143.78h3.09v33.1h-3.09V143.78z M119.79,143.78
		h3.23v33.1h-3.23V143.78z M125.83,143.78h3.23v33.1h-3.23V143.78z M131.86,143.78h3.23v33.1h-3.23V143.78z M137.89,143.78h3.23
		v33.1h-3.23V143.78z M143.92,143.78h3.09v33.1h-3.09V143.78z"/>
	<path id="XMLID_33_" class="st5" d="M156.41,94.68h39.7v39.7h-39.7V94.68z M159.77,97.91h3.09v33.1h-3.09V97.91z M165.66,97.91
		h3.23v33.1h-3.23V97.91z M171.7,97.91h3.23v33.1h-3.23V97.91z M177.73,97.91h3.23v33.1h-3.23V97.91z M183.62,97.91h3.23v33.1h-3.23
		V97.91z M189.65,97.91h3.09v33.1h-3.09V97.91z"/>
	<path id="XMLID_41_" class="st6" d="M156.41,140.41h39.7v39.7h-39.7V140.41z M159.77,143.78h3.09v33.1h-3.09V143.78z
		 M165.66,143.78h3.23v33.1h-3.23V143.78z M171.7,143.78h3.23v33.1h-3.23V143.78z M177.73,143.78h3.23v33.1h-3.23V143.78z
		 M183.62,143.78h3.23v33.1h-3.23V143.78z M189.65,143.78h3.09v33.1h-3.09V143.78z"/>
	<path id="XMLID_49_" class="st5" d="M202.28,140.41h39.7v39.7h-39.7V140.41z M205.5,143.78h3.09v33.1h-3.09V143.78z M211.39,143.78
		h3.23v33.1h-3.23V143.78z M217.42,143.78h3.23v33.1h-3.23V143.78z M223.46,143.78h3.23v33.1h-3.23V143.78z M229.49,143.78h3.23
		v33.1h-3.23V143.78z M235.52,143.78h3.09v33.1h-3.09V143.78z"/>
	<path id="XMLID_57_" class="st6" d="M202.28,94.68h39.7v39.7h-39.7V94.68z M205.5,97.91h3.09v33.1h-3.09V97.91z M211.39,97.91h3.23
		v33.1h-3.23V97.91z M217.42,97.91h3.23v33.1h-3.23V97.91z M223.46,97.91h3.23v33.1h-3.23V97.91z M229.49,97.91h3.23v33.1h-3.23
		V97.91z M235.52,97.91h3.09v33.1h-3.09V97.91z"/>
	<path id="XMLID_65_" class="st6" d="M248,140.41h39.7v39.7H248V140.41z M251.37,143.78h3.09v33.1h-3.09V143.78z M257.26,143.78
		h3.23v33.1h-3.23V143.78z M263.29,143.78h3.23v33.1h-3.23V143.78z M269.19,143.78h3.23v33.1h-3.23V143.78z M275.22,143.78h3.23
		v33.1h-3.23V143.78z M281.25,143.78h3.09v33.1h-3.09V143.78z"/>
	<path id="XMLID_73_" class="st5" d="M248,94.68h39.7v39.7H248V94.68z M251.37,97.91h3.09v33.1h-3.09V97.91z M257.26,97.91h3.23
		v33.1h-3.23V97.91z M263.29,97.91h3.23v33.1h-3.23V97.91z M269.19,97.91h3.23v33.1h-3.23V97.91z M275.22,97.91h3.23v33.1h-3.23
		V97.91z M281.25,97.91h3.09v33.1h-3.09V97.91z"/>
	<path id="XMLID_81_" class="st6" d="M248,48.82h39.7v39.7H248V48.82z M251.37,52.18h3.09v33.1h-3.09V52.18z M257.26,52.18h3.23
		v33.1h-3.23V52.18z M263.29,52.18h3.23v33.1h-3.23V52.18z M269.19,52.18h3.23v33.1h-3.23V52.18z M275.22,52.18h3.23v33.1h-3.23
		V52.18z M281.25,52.18h3.09v33.1h-3.09V52.18z"/>
	<path id="XMLID_89_" class="st5" d="M293.87,140.41h39.7v39.7h-39.7V140.41z M297.1,143.78h3.09v33.1h-3.09V143.78z M302.99,143.78
		h3.23v33.1h-3.23V143.78z M309.02,143.78h3.23v33.1h-3.23V143.78z M315.06,143.78h3.23v33.1h-3.23V143.78z M321.09,143.78h3.23
		v33.1h-3.23V143.78z M327.12,143.78h3.09v33.1h-3.09V143.78z"/>
	<path id="XMLID_90_" class="st7" d="M193.72,244.5c6.03,0,10.94,4.91,10.94,10.94s-4.91,10.94-10.94,10.94s-10.94-4.91-10.94-10.94
		C182.78,249.41,187.55,244.5,193.72,244.5"/>
	<path id="XMLID_91_" class="st0" d="M193.72,247.58c0.98,0,1.96,0.14,2.81,0.56c-0.98,0.56-1.54,1.54-1.54,2.81
		c0,1.82,1.4,3.23,3.23,3.23c1.26,0,2.24-0.7,2.81-1.68c0.42,0.98,0.56,1.96,0.56,2.95c0,4.35-3.51,7.86-7.86,7.86
		c-4.35,0-7.86-3.51-7.86-7.86C185.86,251.09,189.37,247.58,193.72,247.58"/>
	<path id="XMLID_92_" class="st0" d="M0,221.77h509.33c-11.08-2.81-35.07-6.59-31.14-21.18c-20.2,23.29-68.73,16.41-81.08,4.91
		c-13.61,19.78-93.28,12.34-98.75-3.09c-17.11,20.06-70.28,20.06-87.39,0c-5.61,15.43-85.15,23-98.75,3.09
		c-12.2,11.5-60.88,18.52-81.08-4.91C35.07,215.18,11.08,218.97,0,221.77"/>
	<path id="XMLID_93_" class="st8" d="M222.76,323.33c-27.07-12.91-41.94-30.3-50.22-49.52c-10.1,2.81-22.16,4.77-36.19,5.47
		c-5.33,0.28-10.94,0.42-16.69,0.42c-6.73,0-13.89-0.14-21.32-0.56c24.83,24.83,55.41,44.05,112.08,44.33
		C214.48,323.61,218.69,323.47,222.76,323.33"/>
	<path id="XMLID_94_" class="st7" d="M182.5,291.49c-3.79-5.05-7.43-11.5-10.1-17.67c-10.1,2.95-22.16,4.77-36.19,5.47
		C145.88,284.62,159.77,289.53,182.5,291.49"/>
</g>
</svg>
