<svg xmlns="http://www.w3.org/2000/svg" width="75" height="px" viewBox="0 0 75 75"><path style="stroke:none;fill-rule:nonzero;fill:#364548;fill-opacity:1" d="M11.32 57.082v-4.809c0-.636.395-1.128 1.051-1.128h.184c.656 0 1.047.511 1.047 1.128v10.11c0 2.465-1.215 4.418-3.329 5.672a6.292 6.292 0 0 1-3.207.882h-.449c-2.469 0-4.418-1.21-5.672-3.328a6.292 6.292 0 0 1-.886-3.203v-.453c0-2.465 1.214-4.418 3.328-5.672a6.313 6.313 0 0 1 3.207-.883h.453c1.664-.023 3.086.618 4.273 1.684Zm-9 5.074c0 1.79.864 3.125 2.426 3.969a4.197 4.197 0 0 0 2.035.531c1.746 0 3.04-.82 3.946-2.3.41-.7.617-1.438.617-2.239 0-1.543-.742-2.754-1.977-3.637-.758-.535-1.601-.824-2.523-.824-1.914 0-3.27.965-4.09 2.672-.309.574-.434 1.192-.434 1.828Zm19.172-6.781h.309c2.633 0 4.644 1.277 5.898 3.578.512.926.781 1.934.781 2.98v.45c0 2.469-1.214 4.422-3.347 5.672a6.317 6.317 0 0 1-3.207.886h-.453c-2.465 0-4.418-1.214-5.672-3.328a6.352 6.352 0 0 1-.883-3.207v-.453c0-2.465 1.234-4.418 3.328-5.672a6.106 6.106 0 0 1 3.246-.906Zm-4.273 6.781c0 1.727.843 3 2.3 3.883a4.25 4.25 0 0 0 2.243.617c1.703 0 2.957-.86 3.84-2.3a4.237 4.237 0 0 0 .617-2.239c0-1.601-.782-2.836-2.098-3.719a4.176 4.176 0 0 0-2.402-.742c-1.91 0-3.266.965-4.09 2.672a4.063 4.063 0 0 0-.41 1.828Zm20.715-4.312c-.352-.164-.989-.207-1.36-.227-1.89-.062-3.265 1.008-4.086 2.672a4.016 4.016 0 0 0-.414 1.828c0 1.953 1.028 3.309 2.754 4.153.64.304 1.461.367 2.16.367.617 0 1.48-.367 2.012-.637l.105-.04h.45c.515.103.906.43.906.985v.227c0 1.375-2.527 1.703-3.492 1.766-3.414.226-5.961-1.645-6.926-4.891a6.034 6.034 0 0 1-.246-1.707v-.453c0-2.465 1.234-4.418 3.328-5.672a6.327 6.327 0 0 1 3.203-.883h.453c1.215 0 2.324.352 3.328 1.027l.082.063.063.082c.101.184.203.39.203.598v.222c0 .578-.43.883-.965.989h-.14c-.352.023-1.114-.348-1.418-.47Zm7.375 1.52c.882-.884 1.765-1.766 2.671-2.634.247-.246 1.192-1.273 1.563-1.273h.45c.515.102.905.434.905.988v.223c0 .39-.453.824-.699 1.09-.515.554-1.066 1.09-1.601 1.62l-2.754 2.798c1.191 1.191 2.363 2.363 3.535 3.574.328.328.656.66.965.988.101.121.285.266.367.43a.959.959 0 0 1 .164.516v.226l-.02.059c-.125.515-.453.945-1.027.945h-.183c-.372 0-.801-.43-1.07-.676-.532-.496-1.048-1.027-1.56-1.543l-1.745-1.703v2.73c0 .641-.395 1.133-1.051 1.133h-.14c-.661 0-1.048-.515-1.048-1.132V52.297c0-.64.39-1.133 1.047-1.133h.184c.656 0 1.047.516 1.047 1.133Zm28.336-3.903h.222c.68 0 1.133.45 1.133 1.129 0 .945-.902 1.191-1.684 1.191-1.027 0-1.996.617-2.691 1.317-.887.863-1.258 1.972-1.258 3.183v5.508c0 .637-.39 1.129-1.047 1.129h-.183c-.657 0-1.047-.512-1.047-1.129v-5.816c0-2.239 1.09-4.067 2.898-5.34a6.252 6.252 0 0 1 3.657-1.172ZM57.473 66.367c.824.29 1.765.25 2.609.106.434-.184 1.543-.68 1.953-.598l.063.02.058.023c.246.121.496.285.617.555.29.593.164 1.191-.43 1.52l-.187.1c-2.156 1.255-4.457 1.071-6.593-.081-1.028-.555-1.81-1.375-2.383-2.383l-.145-.227c-1.379-2.402-1.191-4.91.367-7.191.535-.781 1.254-1.398 2.078-1.867l.31-.188c2.03-1.172 4.21-1.086 6.284-.058 1.133.554 2.035 1.375 2.653 2.465l.101.203c.453.78-.144 1.48-.738 1.953-.7.535-1.418 1.191-2.098 1.789-1.5 1.254-3 2.566-4.52 3.86Zm-1.953-1.375a835.825 835.825 0 0 0 5.054-4.355c.578-.492 1.215-1.004 1.77-1.54-.453-.577-1.215-.988-1.871-1.234-1.317-.496-2.61-.328-3.801.367-1.582.907-2.238 2.364-2.18 4.153.024.719.207 1.398.598 1.992.12.227.285.434.43.617ZM43.254 19.46h6.7v6.86h3.39a14.92 14.92 0 0 0 4.664-.78c.719-.247 1.539-.595 2.262-1.024-.946-1.235-1.442-2.797-1.583-4.336-.187-2.098.223-4.809 1.641-6.453l.7-.825.843.68c2.117 1.707 3.902 4.066 4.211 6.781 2.547-.742 5.527-.578 7.79.719l.921.535-.492.945c-1.89 3.7-5.875 4.848-9.739 4.641-5.816 14.469-18.453 21.309-33.78 21.309-7.915 0-15.184-2.957-19.317-9.985l-.063-.125-.593-1.23c-1.399-3.106-1.871-6.473-1.543-9.863l.101-1.008h5.735v-6.863H21.8v-6.7h13.418V6.04h8.035v13.422"/><path style="stroke:none;fill-rule:nonzero;fill:#22a0c8;fill-opacity:1" d="M64.992 21.984c.453-3.492-2.156-6.246-3.781-7.539-1.867 2.157-2.156 7.828.781 10.211-1.64 1.461-5.094 2.778-8.61 2.778H10.376c-.348 3.675.309 7.086 1.79 9.984l.491.902c.309.535.66 1.028 1.008 1.524 1.766.12 3.39.14 4.89.12 2.938-.062 5.321-.41 7.134-1.046.265-.102.554.043.656.328.101.266-.04.555-.328.656-.246.082-.493.164-.762.227-1.418.414-2.957.68-4.93.8.121 0-.125.024-.125.024-.058 0-.14.02-.222.02-.782.039-1.625.062-2.47.062-.94 0-1.866-.023-2.894-.062l-.023.02c3.578 4.027 9.187 6.433 16.195 6.433 14.856 0 27.453-6.598 33.04-21.371 3.964.41 7.765-.598 9.495-3.985-2.738-1.605-6.293-1.11-8.328-.086"/><path style="stroke:none;fill-rule:nonzero;fill:#37b1d9;fill-opacity:1" d="M64.992 21.984c.453-3.492-2.156-6.246-3.781-7.539-1.867 2.157-2.156 7.828.781 10.211-1.64 1.461-5.094 2.778-8.61 2.778H12.927c-.188 5.648 1.91 9.921 5.629 12.511 2.937-.058 5.32-.41 7.133-1.047.265-.101.554.043.656.329.101.265-.04.554-.328.66-.246.082-.493.164-.762.222-1.418.414-3.082.72-5.055.844l-.039-.043c5.055 2.59 12.39 2.59 20.793-.637 9.434-3.617 18.188-10.52 24.309-18.41-.082.04-.188.082-.27.121"/><path style="stroke:none;fill-rule:nonzero;fill:#1b81a5;fill-opacity:1" d="M10.46 31.91a17 17 0 0 0 1.704 5.508l.492.902c.309.535.66 1.028 1.008 1.524 1.766.12 3.39.14 4.89.12 2.938-.062 5.321-.41 7.134-1.046.265-.102.554.043.656.328.101.266-.04.555-.328.656-.246.082-.493.164-.762.227-1.418.414-3.082.7-5.055.824h-.246c-.781.04-1.601.059-2.465.059-.945 0-1.89-.02-2.918-.059 3.578 4.024 9.227 6.45 16.235 6.45 12.718 0 23.793-4.829 30.203-15.493H10.46"/><path style="stroke:none;fill-rule:nonzero;fill:#1d91b4;fill-opacity:1" d="M13.316 31.91c.758 3.477 2.586 6.188 5.239 8.035 2.937-.058 5.32-.41 7.133-1.047.265-.101.554.043.656.329.101.265-.04.554-.328.66-.246.082-.493.164-.762.222-1.418.414-3.121.7-5.094.825 5.055 2.586 12.367 2.546 20.774-.68 5.074-1.953 9.984-4.867 14.363-8.363h-41.98"/><path style="stroke:none;fill-rule:nonzero;fill:#23a3c2;fill-opacity:1" d="M16.21 20.566h5.817v5.817h-5.816Zm.474.497h.453v4.847h-.453Zm.863 0h.473v4.847h-.473Zm.887 0h.472v4.847h-.472Zm.882 0h.473v4.847h-.473Zm.883 0h.473v4.847h-.473Zm.883 0h.453v4.847h-.453ZM22.91 13.867h5.817v5.817H22.91Zm.492.477h.453v4.847h-.453Zm.864 0h.472v4.847h-.472Zm.886 0h.473v4.847h-.473Zm.883 0h.473v4.847h-.473Zm.863 0h.473v4.847h-.473Zm.883 0h.453v4.847h-.453Zm0 0"/><path style="stroke:none;fill-rule:nonzero;fill:#34bbde;fill-opacity:1" d="M22.91 20.566h5.817v5.817H22.91Zm.492.497h.453v4.847h-.453Zm.864 0h.472v4.847h-.472Zm.886 0h.473v4.847h-.473Zm.883 0h.473v4.847h-.473Zm.863 0h.473v4.847h-.473Zm.883 0h.453v4.847h-.453Zm0 0"/><path style="stroke:none;fill-rule:nonzero;fill:#23a3c2;fill-opacity:1" d="M29.633 20.566h5.812v5.817h-5.812Zm.469.497h.453v4.847h-.453Zm.863 0h.473v4.847h-.473Zm.883 0h.472v4.847h-.472Zm.886 0h.473v4.847h-.473Zm.883 0h.473v4.847h-.473Zm.883 0h.453v4.847H34.5Zm0 0"/><path style="stroke:none;fill-rule:nonzero;fill:#34bbde;fill-opacity:1" d="M29.633 13.867h5.812v5.817h-5.812Zm.469.477h.453v4.847h-.453Zm.863 0h.473v4.847h-.473Zm.883 0h.472v4.847h-.472Zm.886 0h.473v4.847h-.473Zm.883 0h.473v4.847h-.473Zm.883 0h.453v4.847H34.5ZM36.328 20.566h5.817v5.817h-5.817Zm.492.497h.453v4.847h-.453Zm.864 0h.472v4.847h-.472Zm.882 0h.473v4.847h-.473Zm.868 0h.472v4.847h-.472Zm.882 0h.473v4.847h-.473Zm.883 0h.453v4.847H41.2Zm0 0"/><path style="stroke:none;fill-rule:nonzero;fill:#23a3c2;fill-opacity:1" d="M36.328 13.867h5.817v5.817h-5.817Zm.492.477h.453v4.847h-.453Zm.864 0h.472v4.847h-.472Zm.882 0h.473v4.847h-.473Zm.868 0h.472v4.847h-.472Zm.882 0h.473v4.847h-.473Zm.883 0h.453v4.847H41.2Zm0 0"/><path style="stroke:none;fill-rule:nonzero;fill:#34bbde;fill-opacity:1" d="M36.328 7.152h5.817v5.817h-5.817Zm.492.493h.453v4.847h-.453Zm.864 0h.472v4.847h-.472Zm.882 0h.473v4.847h-.473Zm.868 0h.472v4.847h-.472Zm.882 0h.473v4.847h-.473Zm.883 0h.453v4.847H41.2Zm0 0"/><path style="stroke:none;fill-rule:nonzero;fill:#23a3c2;fill-opacity:1" d="M43.047 20.566h5.816v5.817h-5.816Zm.473.497h.453v4.847h-.453Zm.863 0h.472v4.847h-.472Zm.883 0h.472v4.847h-.472Zm.886 0h.473v4.847h-.473Zm.883 0h.473v4.847h-.473Zm.883 0h.453v4.847h-.453Zm0 0"/><path style="stroke:none;fill-rule:nonzero;fill:#d3ecec;fill-opacity:1" d="M28.375 35.816c.887 0 1.605.72 1.605 1.602a1.605 1.605 0 0 1-3.207 0c0-.883.7-1.602 1.602-1.602"/><path style="stroke:none;fill-rule:nonzero;fill:#364548;fill-opacity:1" d="M28.375 36.266a.98.98 0 0 1 .414.082.451.451 0 0 0-.227.414c0 .265.208.472.473.472a.477.477 0 0 0 .414-.246 1.152 1.152 0 1 1-2.223.43c0-.637.512-1.152 1.149-1.152M0 32.484h74.61c-1.626-.41-5.137-.964-4.563-3.101-2.957 3.41-10.067 2.402-11.875.719-1.996 2.898-13.664 1.808-14.469-.454-2.504 2.942-10.293 2.942-12.8 0-.821 2.262-12.473 3.372-14.465.454-1.786 1.683-8.918 2.714-11.875-.72.574 2.138-2.938 2.692-4.563 3.102"/><path style="stroke:none;fill-rule:nonzero;fill:#bdd9d7;fill-opacity:1" d="M32.633 47.363c-3.969-1.89-6.145-4.437-7.36-7.254-1.476.41-3.246.7-5.3.801a54.305 54.305 0 0 1-5.566-.02c3.636 3.637 8.116 6.454 16.417 6.493.594.02 1.211 0 1.809-.02"/><path style="stroke:none;fill-rule:nonzero;fill:#d3ecec;fill-opacity:1" d="M26.734 42.7a13.29 13.29 0 0 1-1.48-2.59c-1.48.433-3.246.699-5.3.8 1.417.781 3.448 1.5 6.78 1.79"/></svg>