<svg xmlns="http://www.w3.org/2000/svg" width="75" height="px" viewBox="0 0 75 75"><path style="stroke:none;fill-rule:nonzero;fill:#de4c36;fill-opacity:1" d="M73.578 34.16 40.84 1.422a4.814 4.814 0 0 0-6.824 0l-6.797 6.797 8.625 8.625a5.754 5.754 0 0 1 5.906 1.379c1.61 1.613 2.047 3.925 1.36 5.933l8.32 8.32c2.008-.687 4.336-.25 5.933 1.36a5.757 5.757 0 0 1 0 8.133 5.745 5.745 0 0 1-9.375-6.258l-7.75-7.746V48.37c.543.277 1.07.629 1.524 1.082a5.753 5.753 0 0 1 0 8.129 5.753 5.753 0 0 1-8.13 0 5.753 5.753 0 0 1 0-8.129 6.041 6.041 0 0 1 1.876-1.258V27.598a5.632 5.632 0 0 1-1.875-1.262c-1.7-1.695-2.11-4.188-1.246-6.281l-8.496-8.512L1.42 34.016c-1.89 1.886-1.89 4.949 0 6.824l32.74 32.738a4.814 4.814 0 0 0 6.823 0l32.594-32.594c1.89-1.875 1.89-4.933 0-6.824"/></svg>