<?xml version="1.0" standalone="no"?>
<!DOCTYPE svg PUBLIC "-//W3C//DTD SVG 20010904//EN"
 "http://www.w3.org/TR/2001/REC-SVG-20010904/DTD/svg10.dtd">
<svg version="1.0" xmlns="http://www.w3.org/2000/svg"
 width="75.000000pt" height="42.000000pt" viewBox="0 0 75.000000 42.000000"
 preserveAspectRatio="xMidYMid meet">

<g transform="translate(0.000000,42.000000) scale(0.100000,-0.100000)"
fill="#000000" stroke="none">
<path d="M146 328 c-20 -28 -20 -38 -3 -38 16 0 47 32 47 48 0 20 -28 13 -44
-10z"/>
<path d="M64 279 c-50 -18 -67 -79 -40 -143 23 -54 50 -76 83 -67 15 4 40 4
55 0 29 -8 61 9 78 42 9 15 7 25 -9 46 -25 30 -26 52 -6 79 8 10 15 22 15 26
0 13 -56 25 -79 16 -15 -5 -35 -5 -50 0 -15 5 -36 6 -47 1z"/>
<path d="M314 279 c-7 -12 15 -31 28 -23 4 3 8 12 8 20 0 17 -26 19 -36 3z"/>
<path d="M403 266 c-25 -21 -28 -31 -28 -81 0 -50 3 -60 28 -81 42 -36 110
-29 144 15 16 21 16 111 0 132 -34 44 -102 51 -144 15z m101 -21 c46 -47 21
-135 -39 -135 -48 0 -75 92 -38 132 20 22 56 23 77 3z"/>
<path d="M601 264 c-12 -15 -21 -30 -21 -33 0 -22 36 -50 75 -60 39 -10 46
-15 43 -34 -2 -17 -11 -23 -36 -25 -22 -2 -34 2 -38 12 -7 17 -44 22 -44 6 0
-24 41 -50 80 -50 46 0 80 27 80 64 0 30 -16 43 -71 59 -33 10 -44 18 -44 32
0 26 62 35 71 11 7 -19 34 -21 34 -3 0 24 -36 47 -73 47 -27 0 -41 -7 -56 -26z"/>
<path d="M312 158 c2 -60 6 -73 21 -76 15 -3 17 6 17 72 0 70 -2 76 -20 76
-19 0 -21 -5 -18 -72z"/>
</g>
</svg>
