<svg xmlns="http://www.w3.org/2000/svg" width="75" height="px" viewBox="0 0 75 75"><path style="fill:#f7df1e;fill-opacity:1;stroke:none" d="M0 0h75v75H0z"/><path style="stroke:none;fill-rule:nonzero;fill:#000;fill-opacity:1" d="m19.727 62.672 5.734-3.473c1.105 1.973 2.113 3.617 4.52 3.617 2.32 0 3.78-.906 3.78-4.437V34.438h7.048V58.5c0 7.297-4.274 10.625-10.52 10.625-5.633 0-8.898-2.922-10.562-6.453M44.652 61.91l5.73-3.328c1.524 2.469 3.477 4.277 6.946 4.277 2.918 0 4.79-1.46 4.79-3.472 0-2.426-1.915-3.27-5.138-4.688l-1.77-.758c-5.073-2.16-8.464-4.89-8.464-10.625 0-5.28 4.027-9.308 10.316-9.308 4.481 0 7.708 1.562 10.028 5.633l-5.485 3.515c-1.214-2.16-2.507-3.023-4.523-3.023-2.055 0-3.367 1.316-3.367 3.023 0 2.114 1.316 2.977 4.336 4.274l1.765.758c6 2.57 9.371 5.18 9.371 11.078 0 6.347-4.996 9.82-11.671 9.82-6.578.039-10.809-3.086-12.864-7.176"/></svg>