<svg xmlns="http://www.w3.org/2000/svg" width="75" height="px" viewBox="0 0 75 75"><path style="stroke:none;fill-rule:nonzero;fill:#5382a1;fill-opacity:1" d="M27.656 58.008s-2.87 1.672 2.035 2.226c5.95.672 8.98.586 15.528-.66 0 0 1.73 1.086 4.133 2.024-14.68 6.285-33.223-.368-21.696-3.59M25.867 49.79s-3.207 2.374 1.703 2.886c6.34.66 11.364.703 20.04-.969 0 0 1.199 1.219 3.09 1.875-17.77 5.203-37.544.426-24.833-3.793"/><path style="stroke:none;fill-rule:nonzero;fill:#e76f00;fill-opacity:1" d="M40.984 35.86c3.621 4.16-.949 7.91-.949 7.91S49.22 39.023 45 33.09c-3.941-5.535-6.957-8.29 9.39-17.766.016-.004-25.663 6.414-13.406 20.535"/><path style="stroke:none;fill-rule:nonzero;fill:#5382a1;fill-opacity:1" d="M60.41 64.07s2.125 1.746-2.328 3.11c-8.48 2.562-35.273 3.336-42.715.101-2.683-1.156 2.344-2.785 3.926-3.12 1.64-.352 2.59-.294 2.59-.294-2.973-2.094-19.23 4.117-8.262 5.887 29.914 4.863 54.55-2.18 46.79-5.684M29.031 41.281s-13.636 3.235-4.832 4.407c3.723.5 11.133.382 18.031-.188 5.641-.469 11.31-1.496 11.31-1.496s-1.993.851-3.427 1.832c-13.843 3.648-40.578 1.95-32.886-1.773 6.52-3.133 11.804-2.782 11.804-2.782M53.48 54.945c14.079-7.308 7.56-14.34 3.02-13.386-1.113.234-1.613.437-1.613.437s.41-.644 1.203-.922c8.98-3.164 15.894 9.317-2.903 14.254.016-.016.235-.207.293-.383"/><path style="stroke:none;fill-rule:nonzero;fill:#e76f00;fill-opacity:1" d="M45 0s7.793 7.793-7.398 19.773c-12.172 9.61-2.782 15.106 0 21.36-7.102-6.414-12.32-12.055-8.817-17.313C33.925 16.13 48.148 12.38 45 0"/><path style="stroke:none;fill-rule:nonzero;fill:#5382a1;fill-opacity:1" d="M30.426 74.766c13.504.863 34.246-.485 34.73-6.871 0 0-.937 2.418-11.164 4.351-11.527 2.168-25.75 1.918-34.172.527 0-.015 1.727 1.422 10.606 1.993"/></svg>