<svg xmlns="http://www.w3.org/2000/svg" width="75" height="px" viewBox="0 0 75 75"><path style="stroke:none;fill-rule:nonzero;fill:#ff2d20;fill-opacity:1" d="M73.887 16.96c.027.106.043.208.043.31v16.097c0 .426-.22.809-.586 1.028L59.84 42.172v15.426c0 .425-.223.804-.586 1.027L31.039 74.84c-.059.043-.133.058-.203.086-.031.015-.059.031-.074.031-.192.059-.41.059-.602 0a.881.881 0 0 0-.086-.043c-.058-.031-.133-.047-.191-.074L1.672 58.61a1.171 1.171 0 0 1-.586-1.028V9.289c0-.105.012-.207.043-.309.012-.03.027-.058.043-.105.031-.055.043-.129.074-.176.012-.043.059-.07.086-.101.031-.043.059-.102.102-.133a.811.811 0 0 1 .12-.086c.044-.031.087-.074.13-.102L15.789.16a1.203 1.203 0 0 1 1.172 0l14.11 8.117c.042.028.085.07.132.102.043.027.086.059.117.086.043.047.07.09.102.133a.478.478 0 0 1 .07.101.677.677 0 0 1 .074.176c.016.031.032.059.043.105.032.102.047.204.047.31v30.16l11.746-6.77V17.27c0-.102.016-.204.043-.31.016-.026.032-.07.047-.1.028-.06.043-.133.074-.176.012-.043.059-.075.07-.102.032-.043.06-.102.106-.133a.608.608 0 0 1 .117-.086c.043-.031.086-.074.13-.105l14.105-8.113a1.183 1.183 0 0 1 1.172 0l14.109 8.113c.043.031.086.074.133.105.043.028.07.059.117.086.043.043.07.09.102.133a.397.397 0 0 1 .07.102c.031.058.062.117.074.175a.122.122 0 0 0 .016.102ZM71.57 32.696v-13.39l-4.933 2.843-6.813 3.926v13.387ZM57.48 56.91V43.52l-6.71 3.824-19.145 10.93v13.519ZM3.43 11.324V56.91L29.28 71.793v-13.52l-13.504-7.648a.752.752 0 0 1-.132-.102c-.043-.03-.075-.058-.118-.09-.043-.042-.058-.085-.101-.117-.031-.043-.059-.074-.09-.117-.027-.043-.043-.101-.059-.144-.011-.047-.043-.09-.058-.133-.016-.059-.016-.117-.028-.176 0-.043-.015-.09-.015-.133V18.09l-6.813-3.926Zm12.918-8.789L4.602 9.29l11.746 6.766 11.746-6.77Zm6.109 42.2 6.809-3.926V11.324l-4.934 2.84-6.812 3.926v29.488Zm36.195-34.22-11.746 6.77 11.746 6.77 11.746-6.77Zm-1.172 15.56-6.812-3.927-4.934-2.843v13.39l6.809 3.926 4.937 2.84Zm-27.027 30.16 25.84-14.766-11.73-6.754-13.524 7.781-12.316 7.09Zm0 0"/></svg>