<svg xmlns="http://www.w3.org/2000/svg" width="75" height="px" viewBox="0 0 75 75"><path style="stroke:none;fill-rule:nonzero;fill:#002b64;fill-opacity:1" d="M73.36 12.598c-1.157.043-.79.367-3.297.98-2.532.617-5.626.426-8.333 1.57-8.132 3.41-9.757 15.055-17.156 19.23-5.52 3.122-11.101 3.372-16.113 4.938-3.293 1.028-6.898 3.149-9.871 5.727-2.317 1.992-2.375 3.75-4.79 6.258-2.593 2.68-10.284.043-13.769 4.144 1.125 1.14 1.61 1.45 3.836 1.157-.453.863-3.164 1.597-2.637 2.886.56 1.348 7.09 2.254 13.04-1.332 2.765-1.672 4.964-4.074 9.285-4.66 5.582-.746 11.996.484 18.457 1.406-.953 2.856-2.887 4.746-4.422 7.032-.485.511.95.57 2.59.261 2.945-.73 5.07-1.316 7.28-2.605 2.727-1.582 3.15-5.668 6.49-6.547 1.862 2.871 6.945 3.543 10.093 1.246-2.77-.777-3.531-6.668-2.594-9.258.88-2.449 1.758-6.375 2.653-9.625.953-3.488 1.304-7.867 2.46-9.64 1.743-2.664 3.665-3.586 5.333-5.082 1.668-1.508 3.19-2.973 3.148-6.414-.059-1.086-.629-1.7-1.684-1.672Zm0 0"/><path style="stroke:none;fill-rule:nonzero;fill:#c49a6c;fill-opacity:1" d="M70.867 14.633c.281.953.719 1.379 2.594 1.555-.277 2.386-1.86 3.69-3.648 4.937-1.567 1.098-3.282 2.152-4.391 3.879-1.129 1.758-1.848 7.777-3.606 13.726-1.507 5.141-3.808 10.223-7.793 12.45-.425-1.055.059-2.985-.777-3.633-.543 1.539-1.14 2.988-1.86 4.351-2.343 4.485-5.816 7.836-11.616 8.864 2.753-3.723 5.39-7.575 5.449-13.989-1.934.422-1.89 4.993-3.883 6.223-1.273.133-2.563.133-3.867.059-5.344-.32-10.824-1.934-15.82-.32-3.399 1.097-6.18 3.675-9.067 4.921-3.383 1.465-5.945 2.078-10.164 1.465-.543-.719 3.09-1.656 2.871-3.223-1.656-.175-2.61.22-4.043-.441.16-.293.395-.539.688-.73C4.57 52.91 12.039 54.3 14.03 52.34c1.23-1.219 2.051-2.477 2.887-3.707.805-1.203 1.656-2.36 2.93-3.399.468-.382.98-.761 1.539-1.144 2.183-1.492 4.879-2.84 7.543-3.778 3.617-1.273 7.28-1.378 11.148-2.855 2.387-.91 4.98-2.039 7.09-3.605.496-.38.98-.778 1.422-1.2 6.035-5.875 7.219-16.246 16.64-17.215 1.141-.117 2.067-.07 2.915-.101.921-.059 1.785-.16 2.722-.703ZM59.398 47.828c.118 1.8 1.157 5.36 2.082 6.227-1.8.437-4.91-.297-5.714-1.555.41-1.832 2.55-3.516 3.632-4.672Zm0 0"/><path style="stroke:none;fill-rule:nonzero;fill:#002b64;fill-opacity:1" d="M71.543 16.656c-.367.762-1.055 1.742-1.055 3.676 0 .336-.25.559-.261.043.011-1.887.511-2.707 1.054-3.777.246-.442.406-.266.262.058Zm-.367-.293c-.426.73-1.465 2.051-1.625 3.985-.028.336-.309.543-.266.027.192-1.89 1.012-3.063 1.64-4.086.282-.426.427-.234.25.074Zm-.32-.383c-.485.692-2.083 2.27-2.403 4.192-.058.32-.351.512-.266 0 .336-1.863 1.715-3.328 2.418-4.293.325-.395.426-.191.25.101Zm-.31-.425-.16.18c-.702.757-2.359 2.605-2.902 4.304-.101.32-.41.453-.261-.027.597-1.805 2.254-3.723 3.09-4.586.382-.352.468-.133.234.129Zm-8.51 3.855c.366-1.582 1.597-2.3 3.706-2.125.528 2.36-2.328 3.297-3.707 2.125Zm0 0"/></svg>