<svg xmlns="http://www.w3.org/2000/svg" width="75" height="px" viewBox="0 0 73 28"><path style="stroke:none;fill-rule:nonzero;fill:#8e714e;fill-opacity:1" d="M68.04 12.04c-.06.01-.145.155-.145.241-.012.52-.012 1.95-.012 2.918 0 .012.043.086.086.086.199.016.683.016 1.082.016.554 0 .898-.09 1.082-.16.484-.246.699-.766.699-1.344 0-1.297-.898-1.774-2.223-1.774-.113-.03-.37-.03-.57.016Zm3.39 5.972c0-1.313-.953-2.051-2.692-2.051-.086 0-.644-.012-.758.016-.043.015-.097.043-.097.085 0 .954-.016 2.454.012 3.032.015.261.214.605.44.722.247.145.786.16 1.142.16 1.058-.03 1.953-.62 1.953-1.964ZM65.36 11.3c.14 0 .511.043 1.538.043.954 0 1.723-.016 2.653-.016 1.14 0 2.722.406 2.722 2.152 0 .852-.597 1.543-1.355 1.864-.043.011-.043.043 0 .054 1.098.29 2.082.97 2.082 2.297 0 1.27-.797 2.094-1.938 2.598-.699.305-1.554.402-2.468.402-.684 0-2.48-.086-3.477-.054-.101-.043.098-.52.184-.61.242-.011.426-.011.683-.097.356-.102.399-.204.442-.754.015-.461.015-2.121.015-3.305 0-1.613.016-2.71 0-3.23-.015-.407-.156-.551-.441-.637a20.128 20.128 0 0 0-.898-.145c-.043-.058.171-.488.257-.562Zm-7.602 8.3c.312.258.941.36 1.484.36.711 0 1.426-.145 2.094-.766.7-.648 1.184-1.617 1.184-3.203 0-1.5-.555-2.726-1.723-3.465-.656-.402-1.5-.59-2.484-.59-.282 0-.555.012-.739.102-.043.012-.144.14-.144.215-.012.258-.012 2.324-.012 3.52 0 1.242 0 2.976.012 3.175.03.219.129.52.328.653Zm-2.992-8.3c.254 0 1.226.043 1.68.043.827 0 1.425-.043 2.995-.043 1.325 0 2.422.36 3.223 1.023.953.84 1.453 2.008 1.453 3.422 0 2.008-.898 3.176-1.824 3.84-.898.691-2.098 1.066-3.777 1.066-.899 0-2.442-.011-3.723-.043h-.016c-.054-.113.102-.59.215-.605.344-.043.442-.059.598-.117.285-.098.316-.258.36-.75.042-.907.01-2.02.01-3.274 0-.894.017-2.629-.01-3.207-.044-.46-.243-.59-.645-.664a8.829 8.829 0 0 0-.825-.144c-.015-.055.211-.461.286-.547Zm0 0"/><path style="stroke:none;fill-rule:nonzero;fill:#442d22;fill-opacity:1" d="M38.84 20.105a3.4 3.4 0 0 1-.856-.218c-.043-.012-.101-.157-.101-.215-.016-.461-.016-1.805-.016-2.684 0-.722-.113-1.355-.426-1.777-.355-.504-.855-.809-1.527-.809-.582 0-1.352.407-1.996.953-.012.016-.113.102-.098-.043 0-.144.012-.445.043-.648.012-.187-.101-.289-.101-.289-.414.215-1.598.492-2.04.52-.312.058-.398.359-.054.492h.012c.36.101.601.215.785.343.144.102.113.262.113.364.016.996.016 2.523-.012 3.375-.015.32-.101.449-.343.508l.015-.016c-.187.043-.316.086-.558.102-.086.085-.086.503 0 .605.144 0 .898-.043 1.539-.043.86 0 1.328.043 1.543.043.097-.102.113-.504.054-.605-.254-.016-.441-.043-.597-.102-.242-.059-.301-.188-.313-.45-.015-.706-.015-2.206-.015-3.218 0-.285.086-.402.156-.488.3-.262.8-.45 1.226-.45.43 0 .7.145.899.305.285.246.387.59.43.836.054.563.043 1.703.043 2.684 0 .52-.043.664-.247.722a1.883 1.883 0 0 1-.597.118c-.098.101-.055.503 0 .605.386 0 .812-.043 1.484-.043.824 0 1.34.043 1.555.043.027-.016.043-.418 0-.52Zm3.648-5.082c-.699 0-1.14.551-1.14 1.403 0 .863.386 1.86 1.453 1.86.187 0 .515-.087.683-.259.258-.246.43-.722.43-1.242 0-1.082-.527-1.762-1.426-1.762Zm-.101 5.907c-.254 0-.442.086-.555.14-.555.364-.797.711-.797 1.114 0 .39.14.691.457.953.383.316.895.488 1.582.488 1.34 0 1.938-.719 1.938-1.457 0-.504-.258-.836-.754-1.023-.403-.145-1.055-.215-1.871-.215Zm.101 3.449c-.797 0-1.383-.188-1.883-.567-.484-.359-.699-.937-.699-1.312a.98.98 0 0 1 .258-.664c.145-.156.457-.461 1.227-.996.015-.012.043-.012.043-.055 0-.047-.016-.058-.059-.058-.625-.247-.797-.637-.855-.84v-.012c-.012-.086-.043-.16.085-.246.102-.059.215-.145.356-.246.215-.145.457-.29.602-.403.011-.015.011-.058.011-.085 0-.032-.011-.06-.054-.06-.926-.304-1.383-.995-1.383-2.05 0-.691.297-1.297.84-1.672.355-.289 1.296-.652 1.898-.652h.043c.625.016.953.144 1.437.32.258.098.516.14.856.14.516 0 .742-.155.926-.343.015.012.043.102.058.258a.894.894 0 0 1-.183.605c-.102.145-.344.262-.586.262h-.059c-.242-.015-.34-.058-.34-.058l-.058.015c-.016.016 0 .059.015.102l.012.011c.016.118.086.493.086.567 0 1.094-.441 1.57-.898 1.918a3.168 3.168 0 0 1-1.54.605c-.011 0-.054 0-.183.016-.059 0-.156.016-.188.016h.016c-.102.011-.355.156-.355.386 0 .203.113.45.683.492.113.016.242.016.356.016.757.055 1.683.113 2.125.258.597.219.984.765.984 1.414 0 .996-.7 1.906-1.855 2.469-.57.316-1.125.449-1.739.449Zm7.485-9.281c-.285 0-.512.058-.711.203-.516.316-.785.949-.785 1.902 0 1.746.855 2.973 2.097 2.973.356 0 .653-.098.895-.317.386-.316.586-.953.586-1.863.043-1.758-.813-2.898-2.082-2.898Zm.242 5.699c-2.238 0-3.035-1.66-3.035-3.219 0-1.094.441-1.945 1.297-2.523.628-.39 1.355-.606 2.023-.606 1.727 0 2.926 1.239 2.926 3.028 0 1.214-.489 2.168-1.387 2.757-.441.274-1.195.563-1.824.563Zm-23.453-5.7c-.285 0-.512.06-.727.204-.512.316-.785.949-.785 1.902 0 1.746.855 2.973 2.098 2.973.355 0 .656-.098.898-.317.383-.316.582-.953.582-1.863.031-1.758-.812-2.898-2.066-2.898Zm.226 5.7c-2.238 0-3.035-1.66-3.035-3.219 0-1.094.442-1.945 1.297-2.523.629-.39 1.355-.606 2.023-.606 1.727 0 2.926 1.239 2.926 3.028 0 1.214-.484 2.168-1.383 2.757-.43.274-1.199.563-1.828.563Zm-15.039-.145c-.015-.043-.058-.156-.043-.3 0-.102.012-.188.043-.204.285-.043.414-.085.582-.117.258-.054.36-.215.387-.547.043-.808.043-2.324.016-3.379v-.011c0-.117 0-.262-.145-.364a2.434 2.434 0 0 0-.797-.343c-.117-.043-.199-.102-.187-.188 0-.086.086-.187.258-.203.44-.043 1.554-.316 2.023-.52a.377.377 0 0 1 .059.215l-.016.145c-.012.144-.012.32-.012.492 0 .059.055.102.098.102.015 0 .058-.016.086-.016.84-.664 1.597-.91 1.996-.91.64 0 1.14.305 1.527.953.012.043.055.059.098.059a.159.159 0 0 0 .086-.043c.785-.606 1.555-.953 2.055-.953 1.222 0 1.937.91 1.937 2.496 0 .449 0 1.011-.016 1.547 0 .46-.011.894-.011 1.195 0 .058.097.289.242.32.183.098.441.14.754.188h.015c.012.097-.015.445-.086.504-.085 0-.199 0-.312-.016-.258-.016-.602-.016-1-.016-.828 0-1.238.016-1.64.047-.012-.101-.044-.433 0-.508.241-.043.359-.086.5-.113.257-.086.312-.203.343-.55 0-.259.055-2.41-.016-2.93-.07-.52-.484-1.153-1.34-1.153-.312 0-.84.145-1.34.52a.31.31 0 0 0-.058.144v.012c.059.29.059.605.059 1.098v.867c0 .605-.016 1.152 0 1.574 0 .285.183.36.312.402.086.016.145.016.2.043.113.016.242.059.414.102a.976.976 0 0 1-.016.36c-.012.085-.04.117-.055.144-.441-.012-.898-.012-1.582-.012-.199 0-.543.012-.828.012-.242 0-.457.015-.598.015-.015-.015-.043-.117-.043-.261 0-.113.012-.215.055-.242.059-.016.117-.016.188-.016.156-.016.285-.059.414-.086.21-.059.297-.187.312-.492.043-.664.086-2.57-.015-3.059-.157-.765-.598-1.156-1.297-1.156-.399 0-.91.203-1.34.52a.479.479 0 0 0-.113.304v.793c0 .953 0 2.164.015 2.672.012.156.055.344.356.402.054.016.183.043.297.059l.242.043c.015.086.015.402-.04.504-.144 0-.284-.012-.488-.012-.285-.015-.64-.015-1.023-.015-.457 0-.8.015-1.055.015-.16-.133-.3-.133-.457-.133Zm0 0"/><path style="stroke:none;fill-rule:nonzero;fill:#fff;fill-opacity:1" d="m5.004 23.86-.543-.188s.059-2.8-.926-3.004c-.656-.766.102-32.793 2.48-.102 0 0-.824.407-.952 1.114-.157.718-.06 2.18-.06 2.18Zm0 0"/><path style="stroke:none;fill-rule:nonzero;fill:#a6a385;fill-opacity:1" d="m5.004 23.86-.543-.188s.059-2.8-.926-3.004c-.656-.766.102-32.793 2.48-.102 0 0-.824.407-.952 1.114-.157.718-.06 2.18-.06 2.18Zm0 0"/><path style="stroke:none;fill-rule:nonzero;fill:#fff;fill-opacity:1" d="M5.305 21.16s4.718-3.133 3.62-9.7C7.872 6.696 5.349 5.138 5.063 4.532c-.3-.418-.601-1.168-.601-1.168l.203 13.235c0 .027-.402 4.086.64 4.562"/><path style="stroke:none;fill-rule:nonzero;fill:#499d4a;fill-opacity:1" d="M5.305 21.16s4.718-3.133 3.62-9.7C7.872 6.696 5.349 5.138 5.063 4.532c-.3-.418-.601-1.168-.601-1.168l.203 13.235c0 .027-.402 4.086.64 4.562"/><path style="stroke:none;fill-rule:nonzero;fill:#fff;fill-opacity:1" d="M4.191 21.348S-.242 18.285.016 12.887C.27 7.492 3.395 4.836 4.008 4.344c.398-.418.398-.59.441-1.008.285.605.215 8.96.254 9.957.117 3.797-.21 7.316-.512 8.055Zm0 0"/><path style="stroke:none;fill-rule:nonzero;fill:#58aa50;fill-opacity:1" d="M4.191 21.348S-.242 18.285.016 12.887C.27 7.492 3.395 4.836 4.008 4.344c.398-.418.398-.59.441-1.008.285.605.215 8.96.254 9.957.117 3.797-.21 7.316-.512 8.055Zm0 0"/></svg>