<svg xmlns="http://www.w3.org/2000/svg" width="75" height="px" viewBox="0 0 75 58"><path style="stroke:none;fill-rule:nonzero;fill:#6a7e91;fill-opacity:1" d="M18.047 49.89h-2.899a167.544 167.544 0 0 0-.851-13.855h-.016L9.887 49.891H7.69L3.313 36.035h-.016c-.324 4.153-.527 8.774-.617 13.856H0c.16-6.168.602-11.985 1.273-17.371h3.59L9.04 45.28h.016l4.187-12.761h3.43c.773 6.328 1.226 12.128 1.375 17.37M30.57 37.066c-1.172 6.418-2.738 11.086-4.656 14-1.496 2.254-3.152 3.371-4.953 3.371-.469 0-1.07-.148-1.773-.44v-1.548c.351.047.75.09 1.218.09.848 0 1.524-.223 2.02-.707.617-.559.926-1.191.926-1.898 0-.473-.25-1.473-.72-2.961l-3.179-9.907h2.844l2.281 7.418c.516 1.696.719 2.86.649 3.536 1.257-3.344 2.109-6.993 2.605-10.954Zm0 0"/><path style="stroke:none;fill-rule:nonzero;fill:#fa8a3b;fill-opacity:1" d="M69.098 49.89h-8.22V32.505h2.786v15.234h5.434Zm0 0"/><path style="stroke:none;fill-rule:evenodd;fill:#fa8a3b;fill-opacity:1" d="m58.727 50.3-3.18-1.573c.293-.223.555-.473.805-.782 1.363-1.59 2.035-3.945 2.035-7.082 0-5.738-2.239-8.625-6.739-8.625-2.195 0-3.925.723-5.156 2.196-1.36 1.59-2.02 3.945-2.02 7.062 0 3.063.602 5.285 1.786 6.715 1.086 1.281 2.742 1.914 4.953 1.914.82 0 1.582-.105 2.254-.309l4.133 2.414ZM48.43 46.399c-.703-1.132-1.043-2.957-1.043-5.445 0-4.371 1.32-6.566 3.972-6.566 1.375 0 2.399.515 3.047 1.578.703 1.133 1.04 2.926 1.04 5.414 0 4.418-1.321 6.61-3.97 6.61-1.378 0-2.39-.528-3.046-1.59"/><path style="stroke:none;fill-rule:nonzero;fill:#fa8a3b;fill-opacity:1" d="M43.258 45.074c0 1.473-.528 2.68-1.598 3.637-1.07.957-2.535 1.43-4.336 1.43-1.683 0-3.324-.532-4.906-1.637l.746-1.484c1.363.675 2.61 1.027 3.723 1.027 1.039 0 1.843-.219 2.445-.703a2.343 2.343 0 0 0 .953-1.914c0-1.032-.719-1.914-2.039-2.653-1.215-.66-3.633-2.058-3.633-2.058-1.316-.973-1.976-2.004-1.976-3.696 0-1.398.5-2.546 1.48-3.402.98-.851 2.254-1.293 3.793-1.293 1.598 0 3.063.442 4.38 1.281l-.673 1.485c-1.129-.469-2.242-.719-3.324-.719-.879 0-1.57.203-2.05.645-.47.44-.778.972-.778 1.648 0 1.031.746 1.914 2.078 2.68 1.23.664 3.723 2.09 3.723 2.09 1.332.914 1.992 1.945 1.992 3.636"/><path style="stroke:none;fill-rule:evenodd;fill:#6a7e91;fill-opacity:1" d="M72.582 26.703c-1.668-.043-2.957.117-4.043.574-.305.118-.82.118-.863.516.16.16.191.426.324.676.246.414.672.988 1.082 1.281.441.324.879.664 1.332.973.82.515 1.73.808 2.535 1.297.453.292.922.66 1.38.984.218.16.362.441.655.531v-.058c-.144-.192-.187-.457-.32-.68-.207-.203-.41-.395-.644-.602a10.482 10.482 0 0 0-2.184-2.136c-.672-.454-2.14-1.09-2.402-1.856l-.043-.043c.453-.043 1.007-.207 1.433-.324.719-.191 1.364-.145 2.098-.324a34.5 34.5 0 0 0 1.008-.293v-.192c-.368-.367-.657-.882-1.04-1.238a28.873 28.873 0 0 0-3.456-2.574c-.66-.414-1.48-.676-2.184-1.047-.25-.117-.656-.191-.82-.395-.368-.457-.602-1.074-.864-1.605a54.334 54.334 0 0 1-1.699-3.652c-.367-.825-.601-1.633-1.07-2.399-2.152-3.562-4.496-5.726-8.07-7.832-.778-.426-1.684-.633-2.664-.867-.516-.016-1.043-.059-1.57-.09-.321-.144-.673-.543-.966-.75-1.187-.766-4.25-2.398-5.144-.223-.555 1.372.851 2.711 1.32 3.418.352.47.82 1.032 1.07 1.575.145.351.188.75.32 1.117.325.93.645 1.96 1.087 2.812.218.426.468.914.773 1.297.164.219.457.324.516.723-.293.41-.309 1.043-.469 1.574-.762 2.367-.453 5.313.613 7.067.325.515 1.13 1.675 2.2 1.234.953-.367.73-1.574 1.007-2.621.059-.25.016-.41.149-.574v.046c.293.575.57 1.16.863 1.735.66 1.031 1.773 2.105 2.711 2.812.496.367.906 1.032 1.523 1.266v-.059h-.043c-.117-.191-.308-.265-.468-.41-.367-.37-.809-.855-1.086-1.265-.88-1.18-1.64-2.477-2.344-3.813a30.916 30.916 0 0 1-.906-2.035c-.117-.25-.117-.617-.324-.762-.31.453-.778.867-1.012 1.426-.395.914-.438 2.031-.598 3.18-.09.015-.047 0-.09.043-.66-.16-.906-.868-1.156-1.442-.617-1.488-.734-3.887-.191-5.61.148-.425.777-1.808.511-2.25-.117-.398-.527-.62-.773-.944a9.473 9.473 0 0 1-.762-1.336c-.5-1.18-.761-2.477-1.289-3.653-.25-.543-.703-1.117-1.043-1.605-.394-.559-.847-.973-1.156-1.633-.102-.223-.25-.617-.086-.867.043-.164.117-.223.293-.266.262-.223 1.039.059 1.316.192.778.308 1.422.617 2.082 1.058.293.207.614.606.98.723h.438c.676.144 1.422.043 2.051.219 1.113.355 2.125.882 3.004 1.445a18.41 18.41 0 0 1 6.52 7.183c.25.47.351.926.601 1.426.438 1.032.98 2.09 1.418 3.094.442.984.867 2 1.48 2.809.31.43 1.567.664 2.141.914.41.191 1.067.351 1.434.574.719.426 1.422.941 2.094 1.426.367.148 1.406.664 1.48 1.105"/><path style="stroke:none;fill-rule:evenodd;fill:#6a7e91;fill-opacity:1" d="M51.27 8.45c-.352 0-.602.042-.864.105v.043h.043c.16.324.453.558.676.867.16.324.305.664.469 1.015l.043-.043c.293-.207.437-.546.437-1.058-.117-.149-.144-.297-.246-.43-.133-.234-.398-.336-.558-.5"/><path style="stroke:none;fill-rule:nonzero;fill:#fa8a3b;fill-opacity:1" d="M74.563 49.89H75v-2.136h-.66l-.528 1.441-.57-1.441h-.617v2.137h.414v-1.637h.012l.601 1.605h.309l.602-1.605Zm-3.489 0h.453v-1.78h.602v-.372h-1.684v.371h.614v1.782Zm0 0"/></svg>