<svg xmlns="http://www.w3.org/2000/svg" width="75" height="px" viewBox="0 0 75 51"><defs><clipPath id="a"><path d="M19 12h17v20H19Zm0 0"/></clipPath><clipPath id="b"><path d="m27.246 13.074-7.148 4.156a.864.864 0 0 0-.426.754v8.313c0 .308.16.601.426.734l7.148 4.16a.914.914 0 0 0 .863 0l7.149-4.16a.866.866 0 0 0 .426-.734v-8.313a.86.86 0 0 0-.426-.754l-7.149-4.156a.791.791 0 0 0-.425-.117.812.812 0 0 0-.438.117"/></clipPath><clipPath id="d"><path d="M19 12h17v20H19Zm0 0"/></clipPath><clipPath id="e"><path d="M19.836 26.797c.055.09.144.164.246.223l6.125 3.55 1.023.606a.87.87 0 0 0 .5.101.306.306 0 0 0 .16-.043l7.544-13.87c-.059-.06-.118-.118-.204-.16l-4.687-2.716-2.461-1.43c-.059-.042-.148-.058-.223-.085Zm0 0"/></clipPath><clipPath id="g"><path d="M20 12h16v20H20Zm0 0"/></clipPath><clipPath id="h"><path d="M27.598 12.941a.987.987 0 0 0-.352.102l-7.133 4.145 7.692 14.09a.85.85 0 0 0 .304-.102l7.149-4.156a.86.86 0 0 0 .41-.606l-7.836-13.441c-.059-.016-.117-.016-.16-.016-.047-.016-.059-.016-.074-.016"/></clipPath><linearGradient id="c" gradientUnits="userSpaceOnUse" x1="-42.173" y1="63.492" x2="-41.305" y2="63.492" gradientTransform="matrix(-11.88897 24.40481 -24.2534 -11.96318 1071.339 1800.344)"><stop offset="0" style="stop-color:#3e863d;stop-opacity:1"/><stop offset=".3" style="stop-color:#3e863d;stop-opacity:1"/><stop offset=".5" style="stop-color:#55934f;stop-opacity:1"/><stop offset=".8" style="stop-color:#5aad45;stop-opacity:1"/><stop offset="1" style="stop-color:#5aad45;stop-opacity:1"/></linearGradient><linearGradient id="f" gradientUnits="userSpaceOnUse" x1="-43.373" y1="64.808" x2="-42.505" y2="64.808" gradientTransform="matrix(21.6517 -16.09791 15.99804 21.78688 -79.465 -2081.064)"><stop offset="0" style="stop-color:#3e863d;stop-opacity:1"/><stop offset=".57" style="stop-color:#3e863d;stop-opacity:1"/><stop offset=".72" style="stop-color:#619857;stop-opacity:1"/><stop offset="1" style="stop-color:#76ac64;stop-opacity:1"/></linearGradient><linearGradient id="i" gradientUnits="userSpaceOnUse" x1="-42.747" y1="65.366" x2="-41.88" y2="65.366" gradientTransform="matrix(17.9068 0 0 18.0186 785.6 -1155.701)"><stop offset="0" style="stop-color:#6bbf47;stop-opacity:1"/><stop offset=".16" style="stop-color:#6bbf47;stop-opacity:1"/><stop offset=".38" style="stop-color:#79b461;stop-opacity:1"/><stop offset=".47" style="stop-color:#75ac64;stop-opacity:1"/><stop offset=".7" style="stop-color:#659e5a;stop-opacity:1"/><stop offset=".9" style="stop-color:#3e863d;stop-opacity:1"/><stop offset="1" style="stop-color:#3e863d;stop-opacity:1"/></linearGradient></defs><path style="stroke:none;fill-rule:nonzero;fill:#689f63;fill-opacity:1" d="M37.063 48.625c-.25 0-.5-.059-.72-.191l-2.257-1.34c-.336-.192-.16-.25-.059-.293.457-.164.528-.192 1.028-.473.043-.016.117-.016.16.016l1.742 1.031a.182.182 0 0 0 .207 0l6.781-3.938a.226.226 0 0 0 .102-.19V35.39a.226.226 0 0 0-.102-.192l-6.765-3.937a.182.182 0 0 0-.207 0l-6.754 3.965a.238.238 0 0 0-.102.195v7.855c0 .086.043.145.102.192l1.847 1.074c1.012.516 1.625-.086 1.625-.676V36.07c0-.105.09-.195.207-.195h.864c.101 0 .191.09.191.195v7.782c0 1.34-.75 2.136-2.023 2.136-.395 0-.703 0-1.567-.441l-1.773-1.031a1.456 1.456 0 0 1-.719-1.239v-7.855c0-.52.266-.988.719-1.238l6.781-3.938c.426-.25 1.012-.25 1.422 0l6.781 3.938c.442.25.719.718.719 1.238v7.855c0 .516-.262.989-.719 1.239l-6.781 3.933c-.234.09-.484.176-.73.176"/><path style="stroke:none;fill-rule:nonzero;fill:#689f63;fill-opacity:1" d="M39.172 43.203c-2.961 0-3.578-1.371-3.578-2.52 0-.105.09-.19.207-.19h.879c.101 0 .191.058.191.16.117.882.527 1.34 2.328 1.34 1.422 0 2.035-.337 2.035-1.09 0-.442-.16-.766-2.386-.989-1.848-.191-3.004-.602-3.004-2.09 0-1.386 1.156-2.199 3.09-2.199 2.183 0 3.254.77 3.37 2.375a.2.2 0 0 1-.202.207h-.883a.198.198 0 0 1-.188-.148c-.207-.957-.718-1.239-2.125-1.239-1.566 0-1.742.532-1.742.957 0 .504.203.649 2.328.93 2.078.266 3.063.664 3.063 2.152-.016 1.504-1.262 2.344-3.383 2.344m8.23-8.328h.22c.19 0 .222-.117.222-.207 0-.207-.149-.207-.207-.207h-.219Zm-.293-.664h.512c.164 0 .512 0 .512.398 0 .266-.16.34-.262.356.207.012.207.144.25.324.012.117.043.324.086.395h-.309c0-.059-.054-.442-.054-.457-.016-.086-.047-.118-.149-.118h-.25v.606h-.293v-1.488Zm-.586.738a1.084 1.084 0 1 0 2.168 0c0-.62-.496-1.09-1.082-1.09-.601 0-1.086.47-1.086 1.09m2.403 0c0 .723-.602 1.324-1.317 1.324-.718 0-1.32-.574-1.32-1.324 0-.738.617-1.328 1.32-1.328.703.031 1.317.59 1.317 1.328"/><path style="stroke:none;fill-rule:nonzero;fill:#404137;fill-opacity:1" d="M16.086 17.82a.907.907 0 0 0-.426-.765l-7.18-4.157a1.153 1.153 0 0 0-.394-.117h-.09a.772.772 0 0 0-.394.117L.437 17.07a.918.918 0 0 0-.437.766l.016 11.203c0 .16.086.309.203.367.117.09.308.09.441 0l4.246-2.46a.918.918 0 0 0 .442-.766v-5.235c0-.308.16-.605.437-.765l1.8-1.063A.825.825 0 0 1 8.028 19c.145 0 .309.043.442.117l1.8 1.063c.262.16.426.425.426.765v5.235c0 .308.16.601.422.765l4.278 2.461c.148.09.308.09.425 0 .117-.09.207-.222.207-.367Zm33.879 5.836c0 .09-.043.149-.102.192l-2.46 1.43c-.06.046-.145.046-.22 0l-2.46-1.43c-.059-.043-.106-.102-.106-.192v-2.87c0-.09.047-.15.106-.196l2.46-1.43c.06-.043.145-.043.22 0l2.46 1.43a.238.238 0 0 1 .102.195Zm.691-21.21a.41.41 0 0 0-.441 0 .44.44 0 0 0-.203.37v11.098a.324.324 0 0 1-.149.266.293.293 0 0 1-.308 0l-1.801-1.032a.819.819 0 0 0-.863 0l-7.196 4.188a.872.872 0 0 0-.437.75v8.355c0 .313.16.606.437.77l7.196 4.172c.261.16.601.16.863 0l7.191-4.172a.9.9 0 0 0 .442-.77V5.601a.862.862 0 0 0-.457-.765Zm23.918 18.277a.853.853 0 0 0 .426-.75v-2.035a.888.888 0 0 0-.438-.766L67.427 13a.836.836 0 0 0-.864 0l-7.19 4.172a.878.878 0 0 0-.442.765v8.344c0 .309.164.606.441.766l7.133 4.098c.262.148.57.148.848 0l4.324-2.418a.419.419 0 0 0 .219-.368c0-.16-.09-.308-.22-.367l-7.237-4.172a.43.43 0 0 1-.22-.37v-2.622a.41.41 0 0 1 .22-.371l2.242-1.297a.403.403 0 0 1 .437 0l2.242 1.297c.149.09.223.223.223.371v2.063c0 .164.086.308.219.367.144.09.308.09.437 0Zm0 0"/><path style="stroke:none;fill-rule:nonzero;fill:#689f63;fill-opacity:1" d="M66.883 20.328a.293.293 0 0 1 .164 0l1.375.809c.058.015.09.09.09.148v1.59a.189.189 0 0 1-.09.148l-1.375.813a.386.386 0 0 1-.164 0l-1.375-.813c-.059-.015-.086-.09-.086-.148v-1.59c0-.058.012-.117.086-.148Zm0 0"/><g clip-path="url(#a)"><g clip-path="url(#b)"><path style="stroke:none;fill-rule:nonzero;fill:url(#c)" d="m42.906 16.508-20.14-9.934L12.438 27.77l20.14 9.933Zm0 0"/></g></g><g clip-path="url(#d)"><g clip-path="url(#e)"><path style="stroke:none;fill-rule:nonzero;fill:url(#f)" d="m11.148 19.441 14.207 19.356 18.793-13.961L29.926 5.453Zm0 0"/></g></g><g clip-path="url(#g)"><g clip-path="url(#h)"><path style="stroke:none;fill-rule:nonzero;fill:url(#i)" d="M20.125 12.941h15.543v18.32H20.125Zm0 0"/></g></g></svg>