<?xml version="1.0" encoding="utf-8"?>
<!-- Generator: Adobe Illustrator 24.0.2, SVG Export Plug-In . SVG Version: 6.00 Build 0)  -->
<svg version="1.1" id="Layer_1" xmlns="http://www.w3.org/2000/svg" xmlns:xlink="http://www.w3.org/1999/xlink" x="0px" y="0px"
	 viewBox="0 0 512 346" style="enable-background:new 0 0 512 346;" xml:space="preserve">
<style type="text/css">
	.st0{fill:#689F63;}
	.st1{fill:#404137;}
	.st2{clip-path:url(#SVGID_2_);fill:url(#SVGID_3_);}
	.st3{clip-path:url(#SVGID_5_);fill:url(#SVGID_6_);}
	.st4{clip-path:url(#SVGID_8_);fill:url(#SVGID_9_);}
</style>
<g id="XMLID_1_">
	<path id="XMLID_2_" class="st0" d="M253,329.9c-1.7,0-3.4-0.4-4.9-1.3l-15.4-9.1c-2.3-1.3-1.1-1.7-0.4-2c3.1-1.1,3.6-1.3,7-3.2
		c0.3-0.1,0.8-0.1,1.1,0.1l11.9,7c0.4,0.3,1,0.3,1.4,0l46.3-26.7c0.4-0.3,0.7-0.7,0.7-1.3v-53.3c0-0.6-0.3-1-0.7-1.3l-46.2-26.7
		c-0.4-0.3-1-0.3-1.4,0L206.3,239c-0.4,0.3-0.7,0.7-0.7,1.3v53.3c0,0.6,0.3,1,0.7,1.3l12.6,7.3c6.9,3.5,11.1-0.6,11.1-4.6v-52.9
		c0-0.7,0.6-1.3,1.4-1.3h5.9c0.7,0,1.3,0.6,1.3,1.3v52.8c0,9.1-5.1,14.5-13.8,14.5c-2.7,0-4.8,0-10.7-3l-12.1-7
		c-2.9-1.7-4.9-4.9-4.9-8.4v-53.3c0-3.5,1.8-6.7,4.9-8.4l46.3-26.7c2.9-1.7,6.9-1.7,9.7,0l46.3,26.7c3,1.7,4.9,4.9,4.9,8.4v53.3
		c0,3.5-1.8,6.7-4.9,8.4l-46.3,26.7C256.4,329.3,254.7,329.9,253,329.9"/>
	<path id="XMLID_3_" class="st0" d="M267.4,293.1c-20.2,0-24.4-9.3-24.4-17.1c0-0.7,0.6-1.3,1.4-1.3h6c0.7,0,1.3,0.4,1.3,1.1
		c0.8,6,3.6,9.1,15.9,9.1c9.7,0,13.9-2.3,13.9-7.4c0-3-1.1-5.2-16.3-6.7c-12.6-1.3-20.5-4.1-20.5-14.2c0-9.4,7.9-14.9,21.1-14.9
		c14.9,0,22.2,5.2,23,16.1c0,0.4-0.1,0.7-0.4,1s-0.6,0.4-1,0.4h-6c-0.6,0-1.1-0.4-1.3-1c-1.4-6.5-4.9-8.4-14.5-8.4
		c-10.7,0-11.9,3.6-11.9,6.5c0,3.4,1.4,4.4,15.9,6.3c14.2,1.8,20.9,4.5,20.9,14.6C290.4,287.4,281.9,293.1,267.4,293.1 M323.6,236.6
		h1.5c1.3,0,1.5-0.8,1.5-1.4c0-1.4-1-1.4-1.4-1.4h-1.5L323.6,236.6z M321.6,232.1h3.5c1.1,0,3.5,0,3.5,2.7c0,1.8-1.1,2.3-1.8,2.4
		c1.4,0.1,1.4,1,1.7,2.2c0.1,0.8,0.3,2.2,0.6,2.7H327c0-0.4-0.4-3-0.4-3.1c-0.1-0.6-0.3-0.8-1-0.8h-1.7v4.1h-2v-10.1L321.6,232.1
		L321.6,232.1z M317.6,237.1c0,4.2,3.4,7.4,7.4,7.4c4.2,0,7.4-3.4,7.4-7.4c0-4.2-3.4-7.4-7.4-7.4
		C320.9,229.7,317.6,232.9,317.6,237.1 M334,237.1c0,4.9-4.1,9-9,9s-9-3.9-9-9c0-5,4.2-9,9-9C329.8,228.3,334,232.1,334,237.1"/>
	<path id="XMLID_9_" class="st1" d="M109.8,120.9c0-2.1-1.1-4.1-2.9-5.2l-49-28.2c-0.8-0.4-1.8-0.7-2.7-0.8h-0.6
		c-1,0-1.8,0.3-2.7,0.8L3,115.8c-1.8,1.1-3,3.1-3,5.2l0.1,76c0,1.1,0.6,2.1,1.4,2.5c0.8,0.6,2.1,0.6,3,0l29-16.7
		c1.8-1.1,3-3.1,3-5.2v-35.5c0-2.1,1.1-4.1,3-5.2l12.3-7.2c1-0.6,2-0.8,3-0.8s2.1,0.3,3,0.8l12.3,7.2c1.8,1.1,2.9,2.9,2.9,5.2v35.5
		c0,2.1,1.1,4.1,2.9,5.2l29.2,16.7c1,0.6,2.1,0.6,2.9,0c0.8-0.6,1.4-1.5,1.4-2.5L109.8,120.9z M341.1,160.5c0,0.6-0.3,1-0.7,1.3
		l-16.8,9.7c-0.4,0.3-1,0.3-1.5,0l-16.8-9.7c-0.4-0.3-0.7-0.7-0.7-1.3V141c0-0.6,0.3-1,0.7-1.3l16.8-9.7c0.4-0.3,1-0.3,1.5,0
		l16.8,9.7c0.4,0.3,0.7,0.7,0.7,1.3V160.5z M345.8,16.6c-1-0.6-2.1-0.6-3,0s-1.4,1.5-1.4,2.5v75.3c0,0.7-0.4,1.4-1,1.8
		c-0.7,0.4-1.4,0.4-2.1,0l-12.3-7c-1.8-1.1-4.1-1.1-5.9,0L271,117.6c-1.8,1.1-3,2.9-3,5.1v56.7c0,2.1,1.1,4.1,3,5.2l49.1,28.3
		c1.8,1.1,4.1,1.1,5.9,0l49.1-28.3c1.8-1.1,3-3,3-5.2V38c0-2.1-1.1-4.1-3.1-5.2L345.8,16.6z M509.1,140.6c1.8-1.1,2.9-2.9,2.9-5.1
		v-13.8c0-2.1-1.1-4.1-3-5.2l-48.7-28.3c-1.8-1.1-4.1-1.1-5.9,0l-49.1,28.3c-1.8,1.1-3,2.9-3,5.2v56.6c0,2.1,1.1,4.1,3,5.2
		l48.7,27.8c1.8,1,3.9,1,5.8,0l29.5-16.4c1-0.6,1.5-1.5,1.5-2.5c0-1.1-0.6-2.1-1.5-2.5l-49.4-28.3c-1-0.6-1.5-1.5-1.5-2.5v-17.8
		c0-1.1,0.6-2.1,1.5-2.5l15.3-8.8c1-0.6,2.1-0.6,3,0l15.3,8.8c1,0.6,1.5,1.5,1.5,2.5v14c0,1.1,0.6,2.1,1.5,2.5c1,0.6,2.1,0.6,3,0
		L509.1,140.6z"/>
	<path id="XMLID_14_" class="st0" d="M456.6,137.9c0.3-0.1,0.8-0.1,1.1,0l9.4,5.5c0.4,0.1,0.6,0.6,0.6,1v10.8c0,0.4-0.3,0.8-0.6,1
		l-9.4,5.5c-0.4,0.1-0.8,0.1-1.1,0l-9.4-5.5c-0.4-0.1-0.6-0.6-0.6-1v-10.8c0-0.4,0.1-0.8,0.6-1L456.6,137.9z"/>
	<g id="XMLID_15_">
		<g>
			<g>
				<defs>
					<path id="SVGID_1_" d="M186,88.7l-48.8,28.2c-1.8,1.1-2.9,2.9-2.9,5.1v56.4c0,2.1,1.1,4.1,2.9,5l48.8,28.2c1.8,1,4.1,1,5.9,0
						l48.8-28.2c1.8-1.1,2.9-3,2.9-5v-56.4c0-2.1-1.1-4.1-2.9-5.1l-48.8-28.2c-1-0.6-2-0.8-2.9-0.8S186.9,88.1,186,88.7"/>
				</defs>
				<clipPath id="SVGID_2_">
					<use xlink:href="#SVGID_1_"  style="overflow:visible;"/>
				</clipPath>
				
					<linearGradient id="SVGID_3_" gradientUnits="userSpaceOnUse" x1="-42.1735" y1="63.4922" x2="-41.3048" y2="63.4922" gradientTransform="matrix(-81.162 165.5699 -165.5699 -81.162 7313.6709 12214.0986)">
					<stop  offset="0" style="stop-color:#3E863D"/>
					<stop  offset="0.3" style="stop-color:#3E863D"/>
					<stop  offset="0.5" style="stop-color:#55934F"/>
					<stop  offset="0.8" style="stop-color:#5AAD45"/>
					<stop  offset="1" style="stop-color:#5AAD45"/>
				</linearGradient>
				<polygon class="st2" points="292.9,112 155.4,44.6 84.9,188.4 222.4,255.8 				"/>
			</g>
		</g>
	</g>
	<g id="XMLID_17_">
		<g>
			<g>
				<defs>
					<path id="SVGID_4_" d="M135.4,181.8c0.4,0.6,1,1.1,1.7,1.5l41.8,24.1l7,4.1c1,0.6,2.3,0.8,3.4,0.7c0.4,0,0.8-0.1,1.1-0.3
						l51.5-94.1c-0.4-0.4-0.8-0.8-1.4-1.1l-32-18.4l-16.8-9.7c-0.4-0.3-1-0.4-1.5-0.6L135.4,181.8z"/>
				</defs>
				<clipPath id="SVGID_5_">
					<use xlink:href="#SVGID_4_"  style="overflow:visible;"/>
				</clipPath>
				
					<linearGradient id="SVGID_6_" gradientUnits="userSpaceOnUse" x1="-43.3729" y1="64.8085" x2="-42.5046" y2="64.8085" gradientTransform="matrix(147.809 -109.2133 109.2133 147.809 -542.4842 -14118.5928)">
					<stop  offset="0" style="stop-color:#3E863D"/>
					<stop  offset="0.57" style="stop-color:#3E863D"/>
					<stop  offset="0.72" style="stop-color:#619857"/>
					<stop  offset="1" style="stop-color:#76AC64"/>
				</linearGradient>
				<polygon class="st3" points="76.1,131.9 173.1,263.2 301.4,168.5 204.3,37 				"/>
			</g>
		</g>
	</g>
	<g id="XMLID_19_">
		<g>
			<g>
				<defs>
					<path id="SVGID_7_" d="M188.4,87.8c-0.8,0.1-1.7,0.3-2.4,0.7l-48.7,28.1l52.5,95.6c0.7-0.1,1.4-0.3,2.1-0.7l48.8-28.2
						c1.5-0.8,2.5-2.4,2.8-4.1L190,88c-0.4-0.1-0.8-0.1-1.1-0.1C188.6,87.8,188.5,87.8,188.4,87.8"/>
				</defs>
				<clipPath id="SVGID_8_">
					<use xlink:href="#SVGID_7_"  style="overflow:visible;"/>
				</clipPath>
				
					<linearGradient id="SVGID_9_" gradientUnits="userSpaceOnUse" x1="-42.7474" y1="65.3663" x2="-41.8797" y2="65.3663" gradientTransform="matrix(122.2438 0 0 122.2438 5363.0298 -7840.6401)">
					<stop  offset="0" style="stop-color:#6BBF47"/>
					<stop  offset="0.16" style="stop-color:#6BBF47"/>
					<stop  offset="0.38" style="stop-color:#79B461"/>
					<stop  offset="0.47" style="stop-color:#75AC64"/>
					<stop  offset="0.7" style="stop-color:#659E5A"/>
					<stop  offset="0.9" style="stop-color:#3E863D"/>
					<stop  offset="1" style="stop-color:#3E863D"/>
				</linearGradient>
				<rect x="137.4" y="87.8" class="st4" width="106.1" height="124.3"/>
			</g>
		</g>
	</g>
</g>
</svg>
