<svg xmlns="http://www.w3.org/2000/svg" width="75" height="px" viewBox="0 0 75 39"><defs><radialGradient id="b" gradientUnits="userSpaceOnUse" cx="-266.5" cy="409.2" fx="-266.5" fy="409.2" r="1" gradientTransform="matrix(48.93081 0 0 -48.6766 13062.923 19923.34)"><stop offset="0" style="stop-color:#aeb2d5;stop-opacity:1"/><stop offset=".3" style="stop-color:#aeb2d5;stop-opacity:1"/><stop offset=".75" style="stop-color:#484c89;stop-opacity:1"/><stop offset="1" style="stop-color:#484c89;stop-opacity:1"/></radialGradient><clipPath id="a"><path d="M.238 19.492c0 10.77 16.688 19.555 37.262 19.555s37.262-8.738 37.262-19.504C74.762 8.773 58.074 0 37.5 0S.238 8.738.238 19.492"/></clipPath></defs><g clip-path="url(#a)"><path style="stroke:none;fill-rule:nonzero;fill:url(#b)" d="M.238 19.492c0 10.77 16.688 19.555 37.262 19.555s37.262-8.738 37.262-19.504C74.762 8.773 58.074 0 37.5 0S.238 8.738.238 19.492"/></g><path style="stroke:none;fill-rule:nonzero;fill:#777bb3;fill-opacity:1" d="M37.5 37.543c19.797 0 35.809-8.078 35.809-18.05 0-9.97-16.012-18.024-35.809-18.024-19.797 0-35.809 8.066-35.809 18.023 0 9.961 16.012 18.051 35.809 18.051"/><path style="stroke:none;fill-rule:nonzero;fill:#000;fill-opacity:1" d="M20.488 21.738a5.985 5.985 0 0 0 3.598-.883 4.707 4.707 0 0 0 1.559-2.945c.32-.906.214-1.91-.29-2.726a4.053 4.053 0 0 0-2.992-.797h-2.55l-1.446 7.375Zm-8.5 9.09a.394.394 0 0 1-.398-.473l3.785-19.492a.417.417 0 0 1 .406-.328h8.223c2.586 0 4.52.692 5.719 2.078a6.442 6.442 0 0 1 1.164 5.754 8.836 8.836 0 0 1-.992 2.735 8.871 8.871 0 0 1-1.817 2.27 7.982 7.982 0 0 1-2.992 1.784c-1.34.383-2.73.563-4.121.528h-3.356l-.953 4.87a.397.397 0 0 1-.394.321Zm0 0"/><path style="stroke:none;fill-rule:nonzero;fill:#fff;fill-opacity:1" d="M20.148 14.762h2.215c1.805 0 2.434.398 2.653.633.222.234.422 1.175.187 2.351a4.36 4.36 0 0 1-1.41 2.746 5.5 5.5 0 0 1-3.352.809h-1.574l1.293-6.574Zm3.88-4.7h-8.223a.822.822 0 0 0-.801.649l-3.809 19.55a.78.78 0 0 0 .121.602c.118.176.301.301.508.34h4.438a.814.814 0 0 0 .789-.66L17.949 26h2.992c1.434.04 2.86-.145 4.239-.54a8.576 8.576 0 0 0 3.156-1.878 9.768 9.768 0 0 0 1.898-2.352 9.69 9.69 0 0 0 1.024-2.863 6.833 6.833 0 0 0-1.164-6.094c-1.293-1.468-3.32-2.21-6.032-2.21M17.88 22.136h2.61a6.297 6.297 0 0 0 3.85-.965c.95-.836 1.556-2 1.704-3.262a3.558 3.558 0 0 0-.387-3.078 4.341 4.341 0 0 0-3.293-.867h-2.89l-1.594 8.219m6.148-11.32c2.485 0 4.29.644 5.414 1.937a6.032 6.032 0 0 1 1.07 5.426 8.575 8.575 0 0 1-.94 2.617 8.812 8.812 0 0 1-1.735 2.172 7.556 7.556 0 0 1-2.856 1.703c-1.296.367-2.644.539-3.992.508h-3.715l-1.011 5.187h-4.274l3.817-19.55h8.222"/><path style="stroke:none;fill-rule:nonzero;fill:#000;fill-opacity:1" d="M40.68 25.625a.465.465 0 0 1-.317-.14.46.46 0 0 1-.082-.34l1.692-8.645c.16-.824.117-1.41-.118-1.656-.234-.246-.57-.457-1.828-.457h-3.062L34.844 25.25a.413.413 0 0 1-.395.328H30.2a.407.407 0 0 1-.406-.398v-.082l3.828-19.496c.04-.184.2-.317.387-.317h4.238a.374.374 0 0 1 .285.113.39.39 0 0 1 .121.286v.07l-.93 4.7h3.27c2.504 0 4.203.444 5.207 1.347 1 .906 1.317 2.351.93 4.383l-1.781 9.09a.395.395 0 0 1-.395.328Zm0 0"/><path style="stroke:none;fill-rule:nonzero;fill:#fff;fill-opacity:1" d="M38.258 4.875h-4.25a.814.814 0 0 0-.793.656l-3.809 19.543a.802.802 0 0 0 .64.938h4.403a.818.818 0 0 0 .793-.645l2.059-10.57h2.726c1.258 0 1.524.27 1.535.281.012.012.176.457 0 1.317l-1.675 8.68a.802.802 0 0 0 .64.937h4.461a.796.796 0 0 0 .793-.645l1.782-9.09c.417-2.136 0-3.734-1.063-4.77-1.059-1.03-2.852-1.444-5.473-1.444h-2.793l.825-4.239a.807.807 0 0 0-.637-.937h-.152m0 .808-1.028 5.168h3.75c2.332 0 4.02.41 4.926 1.246.91.832 1.164 2.16.816 4.016l-1.78 9.09h-4.31l1.688-8.645a2.355 2.355 0 0 0-.176-2.008 3.016 3.016 0 0 0-2.129-.527h-3.402l-2.176 11.192H30.2l3.809-19.543h4.25"/><path style="stroke:none;fill-rule:nonzero;fill:#000;fill-opacity:1" d="M53.883 21.738a5.986 5.986 0 0 0 3.61-.883 4.85 4.85 0 0 0 1.562-2.945 3.235 3.235 0 0 0-.293-2.726 4.114 4.114 0 0 0-2.957-.797h-2.598l-1.441 7.375Zm-8.5 9.09a.412.412 0 0 1-.313-.14.407.407 0 0 1-.082-.333l3.82-19.492a.392.392 0 0 1 .395-.328h8.223c2.594 0 4.515.692 5.726 2.078a6.503 6.503 0 0 1 1.164 5.754 9.48 9.48 0 0 1-.988 2.735 9.412 9.412 0 0 1-1.828 2.27 7.86 7.86 0 0 1-3.04 1.726c-1.339.382-2.73.562-4.12.527h-3.332l-.953 4.871a.398.398 0 0 1-.399.32Zm0 0"/><path style="stroke:none;fill-rule:nonzero;fill:#fff;fill-opacity:1" d="M53.547 14.762h2.258c1.816 0 2.445.398 2.656.633.387.722.457 1.574.2 2.351a4.38 4.38 0 0 1-1.364 2.781 5.485 5.485 0 0 1-3.356.809h-1.675Zm3.879-4.7h-8.223a.81.81 0 0 0-.793.649l-3.82 19.55c-.04.212.008.43.125.606a.812.812 0 0 0 .515.336h4.426a.834.834 0 0 0 .805-.66L51.344 26h2.996c1.433.04 2.867-.145 4.25-.54a8.561 8.561 0 0 0 3.144-1.878 9.514 9.514 0 0 0 1.895-2.352c.488-.894.84-1.859 1.039-2.863a6.833 6.833 0 0 0-1.164-6.094c-1.293-1.468-3.32-2.21-6.035-2.21m-6.192 12.074h2.606a6.302 6.302 0 0 0 3.855-.965c.95-.84 1.559-2 1.711-3.262a3.545 3.545 0 0 0-.394-3.078 4.344 4.344 0 0 0-3.25-.89h-2.922l-1.606 8.218m6.149-11.297c2.48 0 4.293.645 5.426 1.938a6.11 6.11 0 0 1 1.023 5.414 8.666 8.666 0 0 1-.953 2.617 8.92 8.92 0 0 1-1.738 2.172 7.54 7.54 0 0 1-2.852 1.703c-1.3.367-2.645.54-3.992.508h-3.656l-1.028 5.187h-4.273l3.82-19.539h8.223"/></svg>