<svg xmlns="http://www.w3.org/2000/svg" width="75" height="px" viewBox="0 0 75 75"><defs><linearGradient id="a" gradientUnits="userSpaceOnUse" x1=".285" y1="511.08" x2="2.29" y2="511.08" gradientTransform="matrix(18.49803 18.39524 -18.35432 18.53928 9382.286 -9473.224)"><stop offset="0" style="stop-color:#387eb8;stop-opacity:1"/><stop offset="1" style="stop-color:#366994;stop-opacity:1"/></linearGradient><linearGradient id="b" gradientUnits="userSpaceOnUse" x1=".892" y1="511.157" x2="2.897" y2="511.157" gradientTransform="matrix(19.86694 18.8647 -18.82271 19.91126 9633.483 -10163.888)"><stop offset="0" style="stop-color:#ffe052;stop-opacity:1"/><stop offset="1" style="stop-color:#ffc331;stop-opacity:1"/></linearGradient></defs><path style="stroke:none;fill-rule:nonzero;fill:url(#a)" d="M37.234.191C18.195.191 19.38 8.453 19.38 8.453l.016 8.555h18.164v2.562H12.188S0 18.195 0 37.398C0 56.602 10.633 55.93 10.633 55.93h6.344v-8.907s-.336-10.636 10.46-10.636h18.016s10.125.16 10.125-9.785v-16.45c.012 0 1.55-9.96-18.344-9.96ZM27.22 5.945c1.8 0 3.265 1.47 3.265 3.27a3.27 3.27 0 0 1-3.265 3.265 3.27 3.27 0 0 1-3.27-3.265 3.256 3.256 0 0 1 3.27-3.27Zm0 0"/><path style="stroke:none;fill-rule:nonzero;fill:url(#b)" d="M37.766 74.809c19.039 0 17.855-8.262 17.855-8.262l-.016-8.555H37.441V55.43h25.387s12.188 1.375 12.188-17.828c0-19.204-10.637-18.528-10.637-18.528h-6.34v8.903s.336 10.636-10.46 10.636h-18.02s-10.122-.16-10.122 9.785v16.45c-.027 0-1.566 9.96 18.329 9.96Zm10.015-5.754a3.273 3.273 0 0 1-3.265-3.27 3.27 3.27 0 0 1 3.265-3.265 3.27 3.27 0 0 1 3.27 3.265 3.256 3.256 0 0 1-3.27 3.27Zm0 0"/></svg>