<svg xmlns="http://www.w3.org/2000/svg" width="75" height="px" viewBox="0 0 74 31"><path style="stroke:none;fill-rule:nonzero;fill:#c00;fill-opacity:1" d="M31.71 24.29s3.267-.29 3.267-4.524c0-4.239-3.961-4.63-3.961-4.63h-7.141v13.391h3.586v-3.234l3.11 3.234h5.316Zm-1.374-2.735h-2.86V18.5h2.876s.808.305.808 1.527c0 1.223-.824 1.528-.824 1.528Zm13.5-6.36H40.18c-2.602 0-3.47 2.371-3.47 3.492v9.825h3.642v-2.344h3.441v2.344h3.527v-9.825c-.015-2.84-2.601-3.492-3.484-3.492Zm-.059 7.176h-3.425v-3.246s0-.73 1.144-.73h1.258c1.012 0 1.023.73 1.023.73Zm5.192-7.176h3.785v13.317h-3.785Zm9.117 9.883v-9.871h-3.77v13.32h8.86v-3.449Zm6.348.043v3.406h6.097c1.258 0 3.41-.918 3.469-3.496v-1.308c0-2.2-1.777-3.493-3.469-3.493h-3.035v-1.57h6.027v-3.437h-5.78c-1.505 0-3.485 1.254-3.485 3.55v1.18c0 2.317 1.996 3.492 3.484 3.492 4.192.016-1.012 0 2.875 0v1.66h-6.183Zm0 0"/><path style="stroke:none;fill-rule:nonzero;fill:#c00;fill-opacity:1" d="M1.3 28.496h14.743s-2.816-12.937 6.504-18.191C24.57 9.3 31.059 5.59 41.668 13.492c.348-.293.652-.512.652-.512s-9.715-9.765-20.523-8.656c-5.438.492-12.129 5.469-16.043 12.051C1.864 22.938 1.3 28.496 1.3 28.496Zm30.727-23.14.086-1.266c-.156-.102-.633-.32-1.804-.656l-.086 1.253c.62.204 1.226.422 1.804.668Zm-1.761 3.988-.086 1.18c.605.011 1.242.101 1.847.218l.086-1.164a17.324 17.324 0 0 0-1.847-.234Zm-6.91-5.867h.187l-.36-1.149c-.593 0-1.171.043-1.777.117l.344 1.106a19.253 19.253 0 0 1 1.605-.074Zm.898 6.93.418 1.308c.55-.262 1.07-.492 1.617-.652l-.402-1.254c-.621.16-1.172.394-1.633.597Zm-8.484-4.95-.84-1.309c-.461.247-.953.508-1.461.817l.855 1.308c.489-.304.969-.582 1.446-.816Zm3.828 8.457.898 1.352c.317-.465.692-.903 1.098-1.325l-.84-1.28c-.418.394-.824.816-1.156 1.253Zm-2.715 6.04 1.515 1.206c.086-.726.204-1.469.391-2.195l-1.344-1.063c-.23.684-.39 1.383-.562 2.051ZM8.715 11.03 7.398 9.867c-.488.465-.953.934-1.37 1.414l1.445 1.25a16.96 16.96 0 0 1 1.242-1.5Zm-5.637 8.414-2.152-.8c-.348.812-.754 1.761-.926 2.242l2.152.797c.23-.625.621-1.54.926-2.239Zm13.527 5.282c.043 1.003.118 1.789.22 2.37l2.226.817c-.16-.727-.348-1.559-.45-2.445Zm0 0"/></svg>