<svg xmlns="http://www.w3.org/2000/svg" width="75" height="px" viewBox="0 0 75 75"><path style="stroke:none;fill-rule:nonzero;fill:#00d8ff;fill-opacity:1" d="M61.656 25.766a67.035 67.035 0 0 0-2.402-.758c.144-.555.266-1.11.371-1.645 1.828-8.879.637-16.027-3.453-18.37-3.906-2.259-10.317.105-16.77 5.714a49.182 49.182 0 0 0-1.867 1.703c-.41-.39-.82-.777-1.234-1.148-6.781-6.024-13.563-8.547-17.63-6.188-3.905 2.262-5.077 8.98-3.433 17.387.164.82.348 1.64.555 2.484-.965.266-1.89.555-2.773.864C5.09 28.582.016 32.918.016 37.418c0 4.64 5.445 9.305 13.703 12.14.66.227 1.336.434 2.035.641a46.865 46.865 0 0 0-.598 2.672c-1.558 8.258-.347 14.813 3.559 17.074 4.023 2.32 10.785-.062 17.36-5.816.515-.453 1.05-.945 1.562-1.438a41.47 41.47 0 0 0 2.035 1.848c6.371 5.488 12.68 7.707 16.562 5.445 4.028-2.32 5.32-9.367 3.637-17.957-.121-.66-.285-1.316-.453-2.015.473-.145.945-.29 1.398-.434 8.59-2.855 14.2-7.457 14.2-12.164-.024-4.496-5.262-8.852-13.36-11.648ZM59.79 46.563c-.41.144-.82.265-1.254.39-.945-3-2.238-6.207-3.8-9.492 1.5-3.227 2.734-6.371 3.656-9.371.761.226 1.523.453 2.242.7 6.945 2.382 11.176 5.917 11.176 8.651-.02 2.895-4.582 6.653-12.02 9.121Zm-3.082 6.101c.762 3.8.863 7.211.371 9.902-.453 2.407-1.336 4.008-2.469 4.664-2.359 1.38-7.418-.41-12.859-5.093a46.122 46.122 0 0 1-1.895-1.727c2.118-2.3 4.235-4.992 6.29-7.972 3.617-.329 7.046-.844 10.152-1.563.164.598.305 1.191.41 1.79Zm-31.152 14.32c-2.301.825-4.149.844-5.258.207-2.363-1.355-3.352-6.636-2.016-13.707.145-.8.328-1.64.555-2.484 3.082.68 6.473 1.172 10.11 1.457 2.074 2.918 4.253 5.61 6.433 7.953-.473.453-.945.906-1.441 1.317-2.895 2.546-5.813 4.355-8.383 5.257ZM14.746 46.54c-3.656-1.254-6.676-2.875-8.754-4.64C4.125 40.296 3.2 38.733 3.2 37.436c0-2.734 4.067-6.203 10.867-8.585a58.19 58.19 0 0 1 2.59-.825c.946 3.063 2.18 6.246 3.657 9.473-1.5 3.27-2.75 6.516-3.696 9.617a35.546 35.546 0 0 1-1.87-.578Zm3.617-24.676c-1.418-7.215-.472-12.636 1.89-13.996 2.509-1.457 8.056.617 13.911 5.817.371.328.742.68 1.133 1.046-2.18 2.344-4.336 5.016-6.39 7.915-3.536.328-6.903.84-10.009 1.558-.207-.82-.37-1.601-.535-2.34Zm32.364 7.973c-.739-1.277-1.5-2.527-2.282-3.762 2.383.309 4.688.7 6.844 1.192-.637 2.078-1.46 4.234-2.402 6.453-.68-1.254-1.399-2.57-2.16-3.883ZM37.535 16.992c1.48 1.602 2.957 3.39 4.418 5.32a111.245 111.245 0 0 0-4.457-.101c-1.48 0-2.96.043-4.418.102a74.327 74.327 0 0 1 4.457-5.32ZM24.262 29.875a115.535 115.535 0 0 0-2.117 3.883 75.93 75.93 0 0 1-2.383-6.492 78.016 78.016 0 0 1 6.8-1.172 69.487 69.487 0 0 0-2.3 3.781Zm2.363 19.133c-2.469-.27-4.77-.64-6.906-1.11a73.25 73.25 0 0 1 2.426-6.617 115.533 115.533 0 0 0 2.117 3.883 77.79 77.79 0 0 0 2.363 3.844Zm10.992 9.101a72.632 72.632 0 0 1-4.52-5.406c1.438.063 2.895.086 4.395.086a107.5 107.5 0 0 0 4.524-.105 70.305 70.305 0 0 1-4.399 5.425Zm15.29-16.953a69.097 69.097 0 0 1 2.527 6.598c-2.18.492-4.52.902-6.989 1.191a116.249 116.249 0 0 0 2.305-3.82 87.227 87.227 0 0 0 2.156-3.969Zm-4.954 2.383a115.34 115.34 0 0 1-3.598 5.816c-2.218.165-4.52.247-6.863.247-2.34 0-4.601-.082-6.777-.204a81.524 81.524 0 0 1-3.66-5.816 86.051 86.051 0 0 1-3.203-6.039 89.734 89.734 0 0 1 3.183-6.043 88.973 88.973 0 0 1 3.637-5.793 93.546 93.546 0 0 1 6.824-.246c2.32 0 4.602.082 6.84.266a101.459 101.459 0 0 1 3.617 5.773 101.661 101.661 0 0 1 3.227 6.02 106.808 106.808 0 0 1-3.227 6.02ZM54.57 7.766c2.508 1.437 3.492 7.296 1.91 14.96-.101.493-.203.985-.328 1.5-3.101-.718-6.492-1.253-10.027-1.581-2.055-2.942-4.191-5.61-6.348-7.915a42.313 42.313 0 0 1 1.727-1.582C47.027 8.301 52.207 6.41 54.57 7.766ZM37.492 30.738a6.7 6.7 0 0 1 0 13.399 6.7 6.7 0 0 1 0-13.399Zm0 0"/></svg>