<svg xmlns="http://www.w3.org/2000/svg" width="75" height="px" viewBox="0 0 75 75"><defs><linearGradient id="i" gradientUnits="userSpaceOnUse" x1="5.743" y1="506.095" x2="7.206" y2="506.095" gradientTransform="scale(56.9998 -56.9998) rotate(45.799 603.096 245.588)"><stop offset="0" style="stop-color:#bd0012;stop-opacity:1"/><stop offset="0" style="stop-color:#bd0012;stop-opacity:1"/><stop offset=".07" style="stop-color:#fff;stop-opacity:1"/><stop offset=".17" style="stop-color:#fff;stop-opacity:1"/><stop offset=".27" style="stop-color:#c82f1c;stop-opacity:1"/><stop offset=".33" style="stop-color:#820c01;stop-opacity:1"/><stop offset=".46" style="stop-color:#a31601;stop-opacity:1"/><stop offset=".72" style="stop-color:#b31301;stop-opacity:1"/><stop offset=".99" style="stop-color:#e82609;stop-opacity:1"/><stop offset="1" style="stop-color:#e82609;stop-opacity:1"/></linearGradient><linearGradient id="a" gradientUnits="userSpaceOnUse" x1="5.244" y1="505.958" x2="6.707" y2="505.958" gradientTransform="scale(-21.94613 21.94613) rotate(-60.473 -429.711 261.914)"><stop offset="0" style="stop-color:#fb7655;stop-opacity:1"/><stop offset="0" style="stop-color:#fb7655;stop-opacity:1"/><stop offset=".41" style="stop-color:#e42b1e;stop-opacity:1"/><stop offset=".99" style="stop-color:#900;stop-opacity:1"/><stop offset="1" style="stop-color:#900;stop-opacity:1"/></linearGradient><linearGradient id="c" gradientUnits="userSpaceOnUse" x1="5.215" y1="506.496" x2="6.677" y2="506.496" gradientTransform="scale(-16.78627 16.78627) rotate(-33.864 -822.894 269.893)"><stop offset="0" style="stop-color:#871101;stop-opacity:1"/><stop offset="0" style="stop-color:#871101;stop-opacity:1"/><stop offset=".99" style="stop-color:#911209;stop-opacity:1"/><stop offset="1" style="stop-color:#911209;stop-opacity:1"/></linearGradient><linearGradient id="d" gradientUnits="userSpaceOnUse" x1="6.161" y1="505.46" x2="7.624" y2="505.46" gradientTransform="scale(14.20879 -14.20879) rotate(-81.253 -292.978 254.02)"><stop offset="0" style="stop-color:#fff;stop-opacity:1"/><stop offset="0" style="stop-color:#fff;stop-opacity:1"/><stop offset=".23" style="stop-color:#e57252;stop-opacity:1"/><stop offset=".46" style="stop-color:#de3b20;stop-opacity:1"/><stop offset=".99" style="stop-color:#a60003;stop-opacity:1"/><stop offset="1" style="stop-color:#a60003;stop-opacity:1"/></linearGradient><linearGradient id="e" gradientUnits="userSpaceOnUse" x1="5.815" y1="505.986" x2="7.278" y2="505.986" gradientTransform="scale(14.35438 -14.35438) rotate(-86.82 -264.335 253.711)"><stop offset="0" style="stop-color:#fff;stop-opacity:1"/><stop offset="0" style="stop-color:#fff;stop-opacity:1"/><stop offset=".23" style="stop-color:#e4714e;stop-opacity:1"/><stop offset=".56" style="stop-color:#be1a0d;stop-opacity:1"/><stop offset=".99" style="stop-color:#a80d00;stop-opacity:1"/><stop offset="1" style="stop-color:#a80d00;stop-opacity:1"/></linearGradient><linearGradient id="f" gradientUnits="userSpaceOnUse" x1="5.313" y1="506.72" x2="6.776" y2="506.72" gradientTransform="scale(10.54472 -10.54472) rotate(-76.936 -314.168 252.917)"><stop offset="0" style="stop-color:#fff;stop-opacity:1"/><stop offset="0" style="stop-color:#fff;stop-opacity:1"/><stop offset=".18" style="stop-color:#e46342;stop-opacity:1"/><stop offset=".4" style="stop-color:#c82410;stop-opacity:1"/><stop offset=".99" style="stop-color:#a80d00;stop-opacity:1"/><stop offset="1" style="stop-color:#a80d00;stop-opacity:1"/></linearGradient><linearGradient id="g" gradientUnits="userSpaceOnUse" x1="6.593" y1="506.721" x2="8.056" y2="506.721" gradientTransform="scale(11.48346 -11.48346) rotate(26.565 1079.333 247.509)"><stop offset="0" style="stop-color:#fff;stop-opacity:1"/><stop offset="0" style="stop-color:#fff;stop-opacity:1"/><stop offset=".54" style="stop-color:#c81f11;stop-opacity:1"/><stop offset=".99" style="stop-color:#bf0905;stop-opacity:1"/><stop offset="1" style="stop-color:#bf0905;stop-opacity:1"/></linearGradient><linearGradient id="h" gradientUnits="userSpaceOnUse" x1="6.074" y1="504.647" x2="7.537" y2="504.647" gradientTransform="scale(8.5059 -8.5059) rotate(-84.296 -278.455 253.05)"><stop offset="0" style="stop-color:#fff;stop-opacity:1"/><stop offset="0" style="stop-color:#fff;stop-opacity:1"/><stop offset=".31" style="stop-color:#de4024;stop-opacity:1"/><stop offset=".99" style="stop-color:#bf190b;stop-opacity:1"/><stop offset="1" style="stop-color:#bf190b;stop-opacity:1"/></linearGradient><linearGradient id="b" gradientUnits="userSpaceOnUse" x1="5.215" y1="505.943" x2="6.677" y2="505.943" gradientTransform="scale(-16.78672 16.78672) rotate(-33.864 -824.853 270.489)"><stop offset="0" style="stop-color:#871101;stop-opacity:1"/><stop offset="0" style="stop-color:#871101;stop-opacity:1"/><stop offset=".99" style="stop-color:#911209;stop-opacity:1"/><stop offset="1" style="stop-color:#911209;stop-opacity:1"/></linearGradient><linearGradient id="j" gradientUnits="userSpaceOnUse" x1="5.832" y1="506.682" x2="7.295" y2="506.682" gradientTransform="scale(-12.32896 12.32896) rotate(-13.864 -2060.712 292.464)"><stop offset="0" style="stop-color:#8c0c01;stop-opacity:1"/><stop offset="0" style="stop-color:#8c0c01;stop-opacity:1"/><stop offset=".54" style="stop-color:#990c00;stop-opacity:1"/><stop offset=".99" style="stop-color:#a80d0e;stop-opacity:1"/><stop offset="1" style="stop-color:#a80d0e;stop-opacity:1"/></linearGradient><linearGradient id="k" gradientUnits="userSpaceOnUse" x1="5.41" y1="505.66" x2="6.873" y2="505.66" gradientTransform="scale(-14.27949 14.27949) rotate(-41.869 -656.553 267.621)"><stop offset="0" style="stop-color:#7e110b;stop-opacity:1"/><stop offset="0" style="stop-color:#7e110b;stop-opacity:1"/><stop offset=".99" style="stop-color:#9e0c00;stop-opacity:1"/><stop offset="1" style="stop-color:#9e0c00;stop-opacity:1"/></linearGradient><linearGradient id="l" gradientUnits="userSpaceOnUse" x1="5.576" y1="504.396" x2="7.039" y2="504.396" gradientTransform="scale(-7.7538 7.7538) rotate(-46.912 -580.462 270.693)"><stop offset="0" style="stop-color:#79130d;stop-opacity:1"/><stop offset="0" style="stop-color:#79130d;stop-opacity:1"/><stop offset=".99" style="stop-color:#9e120b;stop-opacity:1"/><stop offset="1" style="stop-color:#9e120b;stop-opacity:1"/></linearGradient><linearGradient id="o" gradientUnits="userSpaceOnUse" x1="5.419" y1="506.763" x2="6.882" y2="506.763" gradientTransform="scale(-15.26755 15.26755) rotate(-73.577 -333.19 259.897)"><stop offset="0" style="stop-color:#8b2114;stop-opacity:1"/><stop offset="0" style="stop-color:#8b2114;stop-opacity:1"/><stop offset=".43" style="stop-color:#9e100a;stop-opacity:1"/><stop offset=".99" style="stop-color:#b3100c;stop-opacity:1"/><stop offset="1" style="stop-color:#b3100c;stop-opacity:1"/></linearGradient><linearGradient id="p" gradientUnits="userSpaceOnUse" x1="6.169" y1="507.175" x2="7.632" y2="507.175" gradientTransform="scale(10.57823 -10.57823) rotate(-23.817 -1197.46 254.913)"><stop offset="0" style="stop-color:#b31000;stop-opacity:1"/><stop offset="0" style="stop-color:#b31000;stop-opacity:1"/><stop offset=".44" style="stop-color:#910f08;stop-opacity:1"/><stop offset=".99" style="stop-color:#791c12;stop-opacity:1"/><stop offset="1" style="stop-color:#791c12;stop-opacity:1"/></linearGradient><radialGradient id="n" gradientUnits="userSpaceOnUse" cx="5.827" cy="505.675" fx="5.827" fy="505.675" r="1.463" gradientTransform="matrix(17.32288 0 0 -17.32288 -72.9 8815.027)"><stop offset="0" style="stop-color:#a30c00;stop-opacity:1"/><stop offset="0" style="stop-color:#a30c00;stop-opacity:1"/><stop offset=".99" style="stop-color:#800e08;stop-opacity:1"/><stop offset="1" style="stop-color:#800e08;stop-opacity:1"/></radialGradient><radialGradient id="m" gradientUnits="userSpaceOnUse" cx="6.412" cy="506.178" fx="6.412" fy="506.178" r="1.463" gradientTransform="matrix(13.03088 0 0 -13.03088 -29.101 6626.106)"><stop offset="0" style="stop-color:#a80d00;stop-opacity:1"/><stop offset="0" style="stop-color:#a80d00;stop-opacity:1"/><stop offset=".99" style="stop-color:#7e0e08;stop-opacity:1"/><stop offset="1" style="stop-color:#7e0e08;stop-opacity:1"/></radialGradient></defs><path style="stroke:none;fill-rule:nonzero;fill:url(#a)" d="M58.113 49.477 15.277 74.895l55.457-3.75L75 15.235Zm0 0"/><path style="stroke:none;fill-rule:nonzero;fill:url(#b)" d="m70.82 71.102-4.757-32.895-12.985 17.145Zm0 0"/><path style="stroke:none;fill-rule:nonzero;fill:url(#c)" d="m70.887 71.102-34.91-2.747-20.504 6.473Zm0 0"/><path style="stroke:none;fill-rule:nonzero;fill:url(#d)" d="m15.516 74.828 8.718-28.562-19.175 4.09Zm0 0"/><path style="stroke:none;fill-rule:nonzero;fill:url(#e)" d="M53.078 55.438 45.043 24 22.07 45.535Zm0 0"/><path style="stroke:none;fill-rule:nonzero;fill:url(#f)" d="M73.18 24.45 51.473 6.706 45.43 26.273Zm0 0"/><path style="stroke:none;fill-rule:nonzero;fill:url(#g)" d="M63.023.387 50.25 7.457 42.195.301Zm0 0"/><path style="stroke:none;fill-rule:nonzero;fill:url(#h)" d="m0 59.957 5.355-9.77L1.027 38.57Zm0 0"/><path style="stroke:none;fill-rule:nonzero;fill:#fff;fill-opacity:1" d="m.727 38.207 4.351 12.344L24 46.309l21.602-20.082 6.086-19.348L42.085.105l-16.309 6.11c-5.14 4.777-15.105 14.25-15.472 14.422-.36.168-6.578 11.957-9.578 17.57Zm0 0"/><path style="stroke:none;fill-rule:nonzero;fill:url(#i)" d="M16.027 16.027c11.145-11.035 25.5-17.57 31.008-12.02 5.508 5.571-.34 19.071-11.46 30.106C24.452 45.153 10.241 52.051 4.734 46.5c-5.528-5.57.152-19.438 11.292-30.473Zm0 0"/><path style="stroke:none;fill-rule:nonzero;fill:url(#j)" d="m15.516 74.828 8.656-28.672 28.734 9.239c-10.39 9.75-21.941 17.976-37.39 19.433Zm0 0"/><path style="stroke:none;fill-rule:nonzero;fill:url(#k)" d="m45.645 26.188 7.37 29.226c8.676-9.129 16.477-18.945 20.29-31.07Zm0 0"/><path style="stroke:none;fill-rule:nonzero;fill:url(#l)" d="M73.223 24.473C76.18 15.559 76.863 2.785 62.938.406L51.516 6.707Zm0 0"/><path style="stroke:none;fill-rule:nonzero;fill:#9e1209;fill-opacity:1" d="M0 59.828c.406 14.7 11.016 14.938 15.535 15.067L5.102 50.485Zm0 0"/><path style="stroke:none;fill-rule:nonzero;fill:url(#m)" d="M45.688 26.227a10572.18 10572.18 0 0 0 20.374 12.492c.43.238 5.79-9.063 7.008-14.313Zm0 0"/><path style="stroke:none;fill-rule:nonzero;fill:url(#n)" d="m24.172 46.156 11.57 22.328c6.836-3.707 12.196-8.226 17.102-13.07Zm0 0"/><path style="stroke:none;fill-rule:nonzero;fill:url(#o)" d="m5.059 50.527-1.63 19.524c3.087 4.222 7.352 4.586 11.805 4.261C12 66.258 5.551 50.189 5.06 50.528Zm0 0"/><path style="stroke:none;fill-rule:nonzero;fill:url(#p)" d="m51.45 6.773 22.972 3.235C73.199 4.8 69.43 1.457 63 .406Zm0 0"/></svg>