<?xml version="1.0" standalone="no"?>
<!DOCTYPE svg PUBLIC "-//W3C//DTD SVG 20010904//EN"
 "http://www.w3.org/TR/2001/REC-SVG-20010904/DTD/svg10.dtd">
<svg version="1.0" xmlns="http://www.w3.org/2000/svg"
 width="75.000000pt" height="28.000000pt" viewBox="0 0 75.000000 28.000000"
 preserveAspectRatio="xMidYMid meet">

<g transform="translate(0.000000,28.000000) scale(0.100000,-0.100000)"
fill="#000000" stroke="none">
<path d="M230 252 c0 -5 -13 -12 -30 -15 -61 -13 -145 -114 -166 -200 l-6 -28
68 3 69 3 3 50 c2 36 6 45 13 35 8 -11 9 -10 4 7 -9 32 19 69 67 88 46 18 85
14 138 -17 34 -20 35 -20 17 0 -10 10 -36 27 -58 37 -28 13 -36 21 -27 27 8 4
0 5 -18 2 -17 -3 -41 -1 -53 5 -11 7 -21 8 -21 3z"/>
<path d="M250 75 c0 -61 13 -86 26 -51 5 12 10 12 34 -2 32 -19 50 -11 30 13
-10 12 -10 19 -2 27 17 17 15 65 -4 72 -9 3 -31 6 -50 6 l-34 0 0 -65z m70 20
c0 -8 -9 -15 -20 -15 -11 0 -20 7 -20 15 0 8 9 15 20 15 11 0 20 -7 20 -15z"/>
<path d="M381 121 c-15 -26 -14 -98 1 -107 6 -4 16 0 23 9 15 21 31 22 39 2 3
-8 10 -15 16 -15 7 0 10 23 8 63 l-3 62 -37 3 c-28 2 -39 -1 -47 -17z m59 -31
c0 -11 -7 -20 -15 -20 -8 0 -15 9 -15 20 0 11 7 20 15 20 8 0 15 -9 15 -20z"/>
<path d="M492 78 c2 -48 7 -63 18 -63 11 0 16 15 18 63 3 57 1 62 -18 62 -19
0 -21 -5 -18 -62z"/>
<path d="M550 74 l0 -65 38 3 c39 3 55 33 17 33 -17 0 -20 8 -23 48 -2 33 -7
47 -18 47 -11 0 -14 -15 -14 -66z"/>
<path d="M650 125 c-19 -23 -7 -49 28 -61 37 -12 32 -24 -10 -24 -28 0 -37
-13 -17 -25 17 -11 77 4 83 21 9 24 -12 54 -39 54 -14 0 -25 5 -25 10 0 6 14
10 30 10 20 0 30 5 30 15 0 20 -63 20 -80 0z"/>
<path d="M20 90 c0 -5 5 -10 10 -10 6 0 10 5 10 10 0 6 -4 10 -10 10 -5 0 -10
-4 -10 -10z"/>
<path d="M180 41 c0 -5 5 -13 10 -16 6 -3 10 -2 10 4 0 5 -4 13 -10 16 -5 3
-10 2 -10 -4z"/>
</g>
</svg>
