<svg xmlns="http://www.w3.org/2000/svg" width="75" height="px" viewBox="0 0 76 18"><path style="stroke:none;fill-rule:evenodd;fill:#000;fill-opacity:1" d="M18.29 6.406c-.774 0-1.517.27-2.095.766V6.48h-1.914v7.516h1.989v-4.8a2.333 2.333 0 0 1 1.808-.93c.27-.016.55.03.805.12V6.45a4.569 4.569 0 0 0-.594-.043M.965 11.7c.562.48 1.293.75 2.035.75.531 0 .95-.27.95-.63 0-1.125-3.595-.734-3.595-3.148 0-1.442 1.383-2.344 2.836-2.344.891 0 1.766.274 2.508.766L4.766 8.55a2.47 2.47 0 0 0-1.426-.512c-.55 0-1.008.211-1.008.602 0 .972 3.59.586 3.59 3.195 0 1.437-1.395 2.324-2.953 2.324A5.076 5.076 0 0 1 0 13.14ZM13.434 10.172c0-2.086-1.454-3.844-3.504-3.844-2.196 0-3.606 1.832-3.606 3.918-.09 2.07 1.5 3.824 3.547 3.899h.328a4.017 4.017 0 0 0 3.043-1.348l-1.129-1.14c-.476.538-1.16.84-1.87.866-1.024.032-1.9-.75-2.005-1.785h5.137c.043-.18.059-.375.059-.566Zm-5.09-.902A1.625 1.625 0 0 1 9.93 7.95c.742 0 1.383.57 1.468 1.32ZM23.602 11.07l2.035-4.59h2.062l-3.398 7.516h-1.383L19.504 6.48h2.062ZM29.375 2.941c.715.012 1.262.598 1.246 1.32a1.277 1.277 0 0 1-2.55-.031c0-.718.577-1.289 1.277-1.289h.027"/><path style="stroke:none;fill-rule:nonzero;fill:#000;fill-opacity:1" d="M28.383 6.48h1.988v7.516h-1.988Zm0 0"/><path style="stroke:none;fill-rule:evenodd;fill:#000;fill-opacity:1" d="M38.578 12.465a3.916 3.916 0 0 1-3.367 1.695c-2.14.059-3.922-1.648-3.98-3.808-.06-2.16 1.632-3.961 3.769-4.024h.21a3.925 3.925 0 0 1 3.118 1.5l-1.41 1.262a2.166 2.166 0 0 0-1.707-.899c-1.102 0-1.992.899-2.004 2.008v.063c-.031 1.093.816 2.008 1.898 2.039h.149a2.167 2.167 0 0 0 1.766-.992ZM45.793 12.809a4.007 4.007 0 0 1-3.043 1.351 3.721 3.721 0 0 1-3.875-3.57v-.328c0-2.102 1.41-3.918 3.61-3.918 2.046 0 3.5 1.758 3.5 3.84 0 .195-.012.39-.044.57h-5.136a1.96 1.96 0 0 0 2.004 1.785 2.593 2.593 0 0 0 1.87-.867Zm-1.84-3.54a1.486 1.486 0 0 0-1.469-1.32c-.773 0-1.441.555-1.59 1.32ZM46.773 13.996V6.48h1.914v.598a3.292 3.292 0 0 1 4.66.453c.579.75.848 1.696.758 2.64v3.825h-1.988v-3.992a1.833 1.833 0 0 0-.445-1.41 1.52 1.52 0 0 0-1.113-.418 2.304 2.304 0 0 0-1.797.93v4.89Zm0 0"/><path style="stroke:none;fill-rule:evenodd;fill:#62d84e;fill-opacity:1" d="M59.227 6.316c-2.407 0-4.348 1.965-4.364 4.395 0 1.215.489 2.367 1.364 3.21a.856.856 0 0 0 1.113.06 3.094 3.094 0 0 1 3.71 0 .857.857 0 0 0 1.13-.06c1.738-1.667 1.812-4.456.164-6.21a4.295 4.295 0 0 0-3.117-1.395m-.032 6.598a2.112 2.112 0 0 1-2.164-2.07v-.117c0-1.215.965-2.192 2.164-2.192 1.203 0 2.168.977 2.168 2.192.032 1.183-.89 2.16-2.047 2.187h-.12"/><path style="stroke:none;fill-rule:evenodd;fill:#000;fill-opacity:1" d="M67.465 13.996H65.98L63.027 6.48h1.989l1.617 4.29 1.59-4.29h1.66l1.574 4.29 1.633-4.29h1.976l-2.941 7.516h-1.484L69.055 9.72Zm0 0"/><path style="stroke:none;fill-rule:nonzero;fill:#000;fill-opacity:1" d="M75.094 13.14h-.164v.313h-.149v-.851h.36a.28.28 0 0 1 .28.285.31.31 0 0 1-.163.254l.191.343h-.148Zm-.164-.12h.21a.148.148 0 0 0 .15-.149c0-.09-.063-.152-.15-.152h-.21Zm0 0"/><path style="stroke:none;fill-rule:nonzero;fill:#000;fill-opacity:1" d="M75.078 12.238c.445 0 .805.364.805.813 0 .449-.36.808-.805.808-.445 0-.8-.359-.8-.808 0-.45.355-.813.8-.813m0-.133a.934.934 0 0 0-.933.946c0 .523.414.945.933.945a.94.94 0 0 0 .938-.945.944.944 0 0 0-.938-.946Zm0 0"/></svg>