<svg xmlns="http://www.w3.org/2000/svg" width="75" height="px" viewBox="0 0 74 39"><defs><linearGradient id="a" gradientUnits="userSpaceOnUse" x1="-389.648" y1="-45.869" x2="-388.648" y2="-45.869" gradientTransform="matrix(0 20.97862 -19.73292 0 -893.715 8179.6)"><stop offset="0" style="stop-color:#97d9f6;stop-opacity:1"/><stop offset=".92" style="stop-color:#0f80cc;stop-opacity:1"/><stop offset="1" style="stop-color:#0f80cc;stop-opacity:1"/></linearGradient></defs><path style="stroke:none;fill-rule:nonzero;fill:#003b57;fill-opacity:1" d="M28.125 18.977c-.996 0-1.777.289-2.414.87-.606.598-.922 1.372-.922 2.317 0 .492.086.945.215 1.352.16.41.39.8.707 1.12.32.348.953.817 1.91 1.41 1.168.716 1.922 1.313 2.297 1.763.363.453.55.945.55 1.425 0 .672-.218 1.207-.667 1.586-.446.41-1.055.598-1.778.598-.793 0-1.457-.29-2.05-.844-.594-.554-.868-1.281-.895-2.199h-.363v3.336h.363c.098-.309.258-.469.461-.469.102 0 .316.059.664.192.852.304 1.563.449 2.125.449.953 0 1.762-.348 2.457-1.016.695-.699 1.012-1.515 1.012-2.476 0-.758-.219-1.41-.664-1.993-.45-.566-1.317-1.265-2.586-2.039-1.113-.668-1.824-1.222-2.172-1.656-.316-.422-.504-.902-.504-1.414 0-.55.203-1.004.606-1.352.406-.32.925-.511 1.578-.511.75 0 1.36.219 1.847.672.493.449.766 1.062.856 1.863h.36v-2.898h-.348a1.41 1.41 0 0 1-.114.292c-.031.043-.101.06-.203.06-.117 0-.32-.048-.637-.15-.562-.16-1.156-.288-1.691-.288Zm11.91 0c-1.2 0-2.297.289-3.281.859-.98.566-1.762 1.367-2.356 2.371-.562 1.004-.867 2.082-.867 3.23 0 1.528.508 2.895 1.504 4.075 1.012 1.207 2.211 1.937 3.613 2.226.317.16.766.598 1.372 1.309.667.8 1.23 1.371 1.707 1.687.46.352.968.598 1.503.758.536.16 1.114.25 1.747.25.753 0 1.445-.117 2.023-.41l-.145-.32a3.395 3.395 0 0 1-1.113.191c-.52 0-1.054-.191-1.601-.523-.52-.352-1.2-1.02-2.008-2.024a10.285 10.285 0 0 0-.77-.902c1.52-.305 2.778-1.035 3.774-2.242.968-1.18 1.472-2.547 1.472-4.075 0-1.82-.648-3.332-1.906-4.57-1.258-1.25-2.816-1.89-4.668-1.89Zm7.414 0 .016.39c.793 0 1.258.25 1.36.715.042.16.054.496.054.945V29.7c0 .656-.098 1.063-.29 1.238-.187.176-.46.293-.91.32l-.011.395h7.977l.203-1.965h-.364c-.101.524-.343.915-.722 1.149-.39.219-1.055.32-2.024.32h-.722c-.868 0-1.371-.32-1.516-.96-.016-.118-.043-.262-.043-.407l.043-8.777c0-.653.086-1.075.246-1.278.156-.207.488-.32.91-.367l-.015-.39Zm-7.285.48c1.36 0 2.457.523 3.324 1.613.856 1.078 1.274 2.578 1.274 4.453 0 1.778-.418 3.204-1.301 4.293-.852 1.079-2.008 1.618-3.426 1.618-1.36 0-2.472-.555-3.324-1.66-.852-1.106-1.273-2.547-1.273-4.32 0-1.821.421-3.263 1.273-4.368.852-1.078 2.008-1.629 3.453-1.629Zm18.344 1.875c-.203 0-.348.059-.45.207-.117.145-.144.29-.101.492a.931.931 0 0 0 .305.496.782.782 0 0 0 .547.203c.187 0 .32-.085.421-.203a.593.593 0 0 0 .098-.496.874.874 0 0 0-.3-.492.757.757 0 0 0-.52-.207Zm5.246 1.324c-.32 1.282-1.055 1.98-2.156 2.082l.015.364h1.274l-.016 4.324c0 .726.016 1.234.086 1.484.117.594.508.902 1.172.902.953 0 1.922-.57 2.976-1.734l-.304-.262c-.75.758-1.414 1.153-1.977 1.153-.363 0-.566-.207-.652-.614-.016-.101-.043-.203-.043-.347l.016-4.918h1.964l-.015-.598h-1.95V22.63h-.406Zm7.574 1.633c-1.101 0-1.98.523-2.676 1.586-.695 1.063-.91 2.238-.636 3.55.16.755.492 1.352.968 1.774.493.41 1.098.64 1.852.64.691 0 1.648-.187 2.05-.523.407-.336.766-.918 1.114-1.718l-.29-.29c-.55 1.02-1.663 1.528-2.5 1.528-1.155 0-1.85-.64-2.108-1.89-.043-.16-.059-.321-.09-.512 1.36-.22 2.386-.594 3.11-1.164.694-.551 1.401-1.149 1.257-1.774a1.442 1.442 0 0 0-.563-.875c-.261-.203-1.058-.332-1.488-.332Zm-11.969.043-2.37.55v.423l.808-.102c.406 0 .637.192.71.524.013.117.044.293.044.511l-.016 3.899c0 .523-.058.86-.187.945-.118.102-.45.148-.953.148l-.016.364h3.742v-.364c-.52 0-.851-.046-1.012-.117-.144-.09-.246-.218-.3-.453-.047-.16-.047-.45-.059-.812l.012-5.489h-.403Zm11.391.727c.215 0 .445.086.664.261.215.176.344.364.402.567.22 1.035-.691 1.761-2.757 2.14a3.805 3.805 0 0 1 .402-2.066c.332-.582.754-.902 1.289-.902Zm0 0"/><path style="stroke:none;fill-rule:nonzero;fill:#0f80cc;fill-opacity:1" d="M22.836 4.133H2.484A2.502 2.502 0 0 0 0 6.62v22.586c0 1.367 1.113 2.488 2.473 2.488H15.87C15.738 25 18.008 11.961 22.836 4.133Zm0 0"/><path style="stroke:none;fill-rule:nonzero;fill:url(#a)" d="M22.098 4.86H2.484c-.98 0-1.761.8-1.761 1.777v20.941c4.437-1.719 11.101-3.203 15.71-3.129.938-4.89 3.657-14.437 5.665-19.59Zm0 0"/><path style="stroke:none;fill-rule:nonzero;fill:#003b57;fill-opacity:1" d="M27.578 3.39c-1.402-1.25-3.078-.757-4.742.743a8.84 8.84 0 0 0-.738.742c-2.86 3.043-5.493 8.672-6.301 12.98.32.657.562 1.485.738 2.125.043.16.086.32.102.45.086.308.101.511.101.511s-.015-.101-.117-.406c-.016-.058-.043-.117-.058-.207-.012-.043-.012-.058-.043-.101-.188-.422-.707-1.352-.926-1.762-.203.57-.36 1.11-.504 1.59.648 1.207 1.055 3.258 1.055 3.258s-.043-.145-.204-.598c-.144-.406-.867-1.688-1.039-1.992-.304 1.105-.406 1.832-.304 2.023.203.348.406.945.562 1.613.39 1.485.652 3.332.652 3.332s0 .118.016.309a28.827 28.827 0 0 0 .086 3.738c.113 1.559.36 2.895.664 3.61l.203-.118c-.449-1.41-.62-3.257-.55-5.382.117-3.262.867-7.203 2.253-11.293C20.812 12.37 24.035 7.39 27 5.02c-2.691 2.445-6.348 10.363-7.445 13.3-1.215 3.29-2.082 6.375-2.617 9.328.898-2.777 3.816-3.957 3.816-3.957s1.418-1.777 3.11-4.308c-1 .219-2.634.64-3.18.86-.809.347-1.028.464-1.028.464s2.63-1.613 4.887-2.344c3.047-4.93 6.43-11.93 3.035-14.972"/></svg>