<?xml version="1.0" standalone="no"?>
<!DOCTYPE svg PUBLIC "-//W3C//DTD SVG 20010904//EN"
 "http://www.w3.org/TR/2001/REC-SVG-20010904/DTD/svg10.dtd">
<svg version="1.0" xmlns="http://www.w3.org/2000/svg"
 width="75.000000pt" height="47.000000pt" viewBox="0 0 75.000000 47.000000"
 preserveAspectRatio="xMidYMid meet">

<g transform="translate(0.000000,47.000000) scale(0.100000,-0.100000)"
fill="#000000" stroke="none">
<path d="M367 433 c-18 -18 -5 -65 29 -103 l36 -40 -36 0 c-35 0 -36 -1 -36
-36 l0 -36 -75 67 c-71 63 -75 66 -75 41 0 -14 -5 -26 -11 -26 -5 0 -7 -4 -4
-10 3 -6 23 -10 43 -10 l36 0 -37 -38 c-39 -40 -37 -62 8 -62 12 0 36 -7 54
-16 22 -11 43 -14 72 -9 l41 7 -21 22 -21 22 35 34 35 34 0 -46 c0 -43 2 -47
31 -57 18 -6 38 -11 45 -11 26 0 14 44 -23 82 l-37 38 36 0 c34 0 37 -3 40
-31 l3 -31 29 31 30 31 -32 0 c-30 0 -32 2 -32 35 0 24 -6 37 -20 45 -11 6
-20 17 -20 24 0 25 -45 56 -81 56 -20 0 -39 -3 -42 -7z"/>
<path d="M110 109 c-1 -17 23 -69 32 -69 5 0 15 14 21 30 6 17 15 30 19 30 4
0 8 -13 8 -30 0 -16 5 -30 10 -30 6 0 10 14 10 30 0 20 5 30 15 30 10 0 15
-10 15 -30 0 -16 5 -30 10 -30 6 0 10 14 10 30 0 20 5 30 15 30 10 0 15 -10
15 -30 0 -16 5 -30 11 -30 6 0 9 14 7 33 l-3 32 -67 3 c-64 3 -68 2 -81 -24
l-14 -28 -16 30 c-9 16 -16 26 -17 23z"/>
</g>
</svg>
