<?xml version="1.0" encoding="UTF-8"?>
<svg xmlns="http://www.w3.org/2000/svg" xmlns:xlink="http://www.w3.org/1999/xlink" width="75px" height="px" viewBox="0 0 75 75" version="1.1">
<g id="surface1">
<rect x="0" y="0" width="75" height="75" style="fill:rgb(100%,48.627451%,0%);fill-opacity:1;stroke:none;"/>
<path style=" stroke:none;fill-rule:nonzero;fill:rgb(14.901961%,7.45098%,0%);fill-opacity:1;" d="M 3.308594 3.308594 L 71.710938 3.308594 L 71.710938 71.710938 L 3.308594 71.710938 Z M 3.308594 3.308594 "/>
<path style=" stroke:none;fill-rule:nonzero;fill:rgb(100%,48.627451%,0%);fill-opacity:1;" d="M 25.910156 42.699219 L 23.21875 51.679688 C 23.179688 51.984375 23.035156 52.089844 22.765625 52.089844 L 18.246094 52.089844 C 17.9375 52.089844 17.855469 51.925781 17.9375 51.574219 C 20.34375 43.683594 24.371094 30.515625 27.207031 21.597656 C 27.328125 21.082031 27.472656 20.570312 27.554688 18.761719 C 27.554688 18.554688 27.675781 18.453125 27.820312 18.453125 L 33.945312 18.453125 C 34.167969 18.453125 34.210938 18.515625 34.292969 18.71875 C 37.578125 29.300781 41.175781 40.953125 44.546875 51.636719 C 44.628906 51.945312 44.546875 52.109375 44.28125 52.109375 L 39.304688 52.109375 C 39.082031 52.109375 39 52.007812 38.914062 51.804688 L 36.078125 42.71875 L 25.90625 42.71875 L 25.90625 42.699219 Z M 34.890625 37.644531 C 34.007812 34.191406 31.828125 27.226562 30.945312 23.609375 L 30.90625 23.609375 C 30.246094 27.019531 28.417969 32.835938 27.082031 37.644531 Z M 34.890625 37.644531 "/>
<path style=" stroke:none;fill-rule:nonzero;fill:rgb(100%,48.627451%,0%);fill-opacity:1;" d="M 49.046875 20.382812 C 49.046875 18.472656 50.320312 17.179688 52.007812 17.179688 C 53.792969 17.179688 54.882812 18.472656 54.882812 20.382812 C 54.882812 22.335938 53.710938 23.589844 51.964844 23.589844 C 50.238281 23.589844 49.046875 22.355469 49.046875 20.382812 Z M 49.355469 27.410156 C 49.355469 27.105469 49.4375 27 49.664062 27 L 54.289062 27 C 54.554688 27 54.636719 27.0625 54.636719 27.410156 L 54.636719 51.65625 C 54.636719 51.925781 54.554688 52.070312 54.289062 52.070312 L 49.746094 52.070312 C 49.480469 52.070312 49.355469 51.96875 49.355469 51.597656 Z M 49.355469 27.410156 "/>
</g>
</svg>
