<?xml version="1.0" encoding="UTF-8"?>
<svg xmlns="http://www.w3.org/2000/svg" xmlns:xlink="http://www.w3.org/1999/xlink" width="75px" height="px" viewBox="0 0 75 75" version="1.1">
<g id="surface1">
<rect x="0" y="0" width="75" height="75" style="fill:rgb(100%,24.705882%,58.039216%);fill-opacity:1;stroke:none;"/>
<path style=" stroke:none;fill-rule:nonzero;fill:rgb(18.039216%,0%,7.45098%);fill-opacity:1;" d="M 3.308594 3.308594 L 71.710938 3.308594 L 71.710938 71.710938 L 3.308594 71.710938 Z M 3.308594 3.308594 "/>
<path style=" stroke:none;fill-rule:nonzero;fill:rgb(100%,24.705882%,58.039216%);fill-opacity:1;" d="M 27.78125 51.328125 C 27.78125 51.636719 27.699219 51.800781 27.390625 51.800781 L 22.765625 51.800781 C 22.5 51.800781 22.417969 51.636719 22.417969 51.328125 L 22.417969 18.492188 C 22.417969 18.1875 22.542969 18.125 22.765625 18.125 L 27.429688 18.125 C 27.699219 18.125 27.78125 18.1875 27.78125 18.492188 Z M 27.78125 51.328125 "/>
<path style=" stroke:none;fill-rule:nonzero;fill:rgb(100%,24.705882%,58.039216%);fill-opacity:1;" d="M 33.203125 39.738281 C 33.203125 32.382812 37.867188 26.179688 45.289062 26.179688 C 46.292969 26.179688 47.035156 26.28125 47.773438 26.527344 L 47.773438 18.285156 C 47.773438 18.039062 47.855469 17.9375 48.039062 17.9375 L 52.785156 17.9375 C 52.949219 17.9375 53.011719 18.039062 53.011719 18.246094 L 53.011719 46.066406 C 53.011719 47.136719 53.09375 48.511719 53.132812 49.3125 C 53.175781 49.558594 53.132812 49.664062 52.910156 49.828125 C 50.15625 51.410156 47.074219 52.3125 44.195312 52.3125 C 37.789062 52.335938 33.203125 48.226562 33.203125 39.738281 Z M 47.773438 31.375 C 47.117188 31.070312 46.210938 30.925781 45.207031 30.925781 C 41.28125 30.925781 38.632812 34.273438 38.632812 39.453125 C 38.632812 45.183594 41.507812 47.464844 44.816406 47.464844 C 45.902344 47.464844 46.992188 47.261719 47.773438 46.953125 Z M 47.773438 31.375 "/>
</g>
</svg>
