<?xml version="1.0" encoding="UTF-8"?>
<svg xmlns="http://www.w3.org/2000/svg" xmlns:xlink="http://www.w3.org/1999/xlink" width="75px" height="px" viewBox="0 0 75 75" version="1.1">
<g id="surface1">
<path style=" stroke:none;fill-rule:nonzero;fill:rgb(0%,59.215686%,61.176471%);fill-opacity:1;" d="M 18.246094 12.066406 C 15.761719 12.066406 13.355469 12.5625 11.179688 13.445312 C 7.910156 14.78125 5.136719 17 3.144531 19.8125 C 2.15625 21.230469 1.355469 22.792969 0.820312 24.457031 C 0.289062 26.121094 0 27.910156 0 29.738281 C 0 32.183594 0.515625 34.527344 1.460938 36.664062 C 2.15625 38.265625 3.082031 39.726562 4.210938 41.019531 C 5.898438 42.972656 7.992188 44.574219 10.375 45.683594 C 12.761719 46.792969 15.433594 47.410156 18.246094 47.410156 L 18.246094 44.285156 L 18.082031 47.390625 C 18.472656 47.410156 18.863281 47.410156 19.234375 47.410156 C 20.609375 47.410156 21.90625 47.265625 23.15625 47.019531 C 24.308594 46.773438 25.417969 46.421875 26.445312 45.972656 C 27.410156 45.558594 28.3125 45.066406 29.15625 44.492188 C 30.738281 43.445312 32.117188 42.191406 33.351562 40.835938 C 34.417969 39.640625 35.40625 38.390625 36.308594 37.074219 C 37.890625 34.792969 39.289062 32.429688 40.6875 30.191406 C 41.734375 28.503906 42.78125 26.882812 43.890625 25.445312 C 44.710938 24.355469 45.574219 23.367188 46.457031 22.484375 C 47.136719 21.828125 47.835938 21.25 48.554688 20.738281 C 49.644531 19.980469 50.816406 19.363281 52.152344 18.953125 C 53.46875 18.539062 54.96875 18.292969 56.710938 18.292969 C 58.398438 18.292969 59.980469 18.621094 61.417969 19.199219 C 63.574219 20.082031 65.425781 21.539062 66.699219 23.371094 C 67.335938 24.273438 67.851562 25.28125 68.179688 26.351562 C 68.527344 27.417969 68.710938 28.546875 68.710938 29.71875 C 68.710938 31.28125 68.382812 32.757812 67.789062 34.136719 C 67.335938 35.164062 66.742188 36.109375 66.023438 36.953125 C 64.933594 38.226562 63.535156 39.273438 61.953125 40.011719 C 60.371094 40.753906 58.605469 41.164062 56.714844 41.164062 L 56.53125 41.164062 C 56.242188 41.183594 55.976562 41.183594 55.707031 41.183594 C 54.742188 41.183594 53.878906 41.082031 53.078125 40.917969 C 52.316406 40.753906 51.640625 40.550781 50.980469 40.261719 C 50.363281 39.996094 49.789062 39.683594 49.214844 39.316406 C 48.167969 38.617188 47.160156 37.734375 46.214844 36.683594 C 45.371094 35.761719 44.570312 34.710938 43.769531 33.5625 C 42.371094 31.546875 41.015625 29.265625 39.578125 26.945312 C 38.488281 25.199219 37.335938 23.429688 36.0625 21.726562 C 35.097656 20.453125 34.046875 19.21875 32.878906 18.070312 C 31.996094 17.207031 31.050781 16.40625 30 15.6875 C 28.441406 14.597656 26.695312 13.691406 24.71875 13.054688 C 22.726562 12.398438 20.566406 12.066406 18.246094 12.066406 L 18.246094 18.292969 C 19.335938 18.292969 20.320312 18.394531 21.246094 18.558594 C 22.109375 18.722656 22.890625 18.949219 23.628906 19.257812 C 25.007812 19.8125 26.238281 20.574219 27.410156 21.519531 C 28.417969 22.359375 29.382812 23.347656 30.289062 24.457031 C 31.089844 25.421875 31.847656 26.492188 32.609375 27.621094 C 33.925781 29.59375 35.195312 31.75 36.554688 33.90625 C 37.558594 35.53125 38.628906 37.15625 39.820312 38.695312 C 40.703125 39.847656 41.667969 40.976562 42.738281 42.003906 C 43.539062 42.785156 44.402344 43.503906 45.328125 44.160156 C 46.722656 45.148438 48.285156 45.96875 50.03125 46.523438 C 51.777344 47.078125 53.667969 47.386719 55.722656 47.386719 C 56.09375 47.386719 56.484375 47.386719 56.875 47.367188 L 56.710938 44.261719 L 56.710938 47.386719 C 59.195312 47.386719 61.601562 46.890625 63.78125 46.007812 C 67.046875 44.671875 69.820312 42.453125 71.8125 39.640625 C 72.800781 38.222656 73.601562 36.660156 74.136719 34.996094 C 74.671875 33.332031 74.957031 31.542969 74.957031 29.714844 C 74.957031 27.269531 74.445312 24.929688 73.5 22.792969 C 72.800781 21.1875 71.875 19.730469 70.746094 18.433594 C 69.058594 16.484375 66.964844 14.878906 64.582031 13.769531 C 62.199219 12.664062 59.527344 12.046875 56.710938 12.046875 C 55.253906 12.046875 53.855469 12.167969 52.539062 12.4375 C 51.304688 12.664062 50.136719 13.011719 49.046875 13.441406 C 46.992188 14.265625 45.164062 15.394531 43.582031 16.710938 C 42.183594 17.859375 40.972656 19.15625 39.859375 20.492188 C 38.894531 21.683594 38.011719 22.894531 37.167969 24.148438 C 35.710938 26.328125 34.414062 28.546875 33.121094 30.601562 C 32.15625 32.140625 31.191406 33.621094 30.183594 34.914062 C 29.445312 35.902344 28.683594 36.765625 27.882812 37.546875 C 27.285156 38.121094 26.691406 38.636719 26.054688 39.066406 C 25.109375 39.726562 24.121094 40.238281 23.011719 40.585938 C 21.902344 40.9375 20.691406 41.144531 19.230469 41.144531 C 18.964844 41.144531 18.699219 41.144531 18.410156 41.121094 L 18.246094 41.121094 C 16.5625 41.121094 14.980469 40.792969 13.542969 40.21875 C 11.382812 39.335938 9.535156 37.875 8.261719 36.046875 C 7.625 35.144531 7.109375 34.136719 6.78125 33.066406 C 6.433594 32 6.246094 30.867188 6.246094 29.699219 C 6.246094 28.136719 6.574219 26.65625 7.171875 25.300781 C 7.625 24.273438 8.21875 23.328125 8.9375 22.484375 C 10.027344 21.210938 11.421875 20.164062 13.003906 19.421875 C 14.585938 18.683594 16.355469 18.273438 18.246094 18.273438 Z M 18.246094 12.066406 "/>
<path style=" stroke:none;fill-rule:nonzero;fill:rgb(0%,59.215686%,61.176471%);fill-opacity:1;" d="M 55.027344 33.335938 L 55.027344 29.921875 L 51.65625 29.921875 L 51.65625 28.507812 L 55.027344 28.507812 L 55.027344 25.117188 L 56.464844 25.117188 L 56.464844 28.507812 L 59.855469 28.507812 L 59.855469 29.921875 L 56.464844 29.921875 L 56.464844 33.335938 Z M 55.027344 33.335938 "/>
<path style=" stroke:none;fill-rule:nonzero;fill:rgb(0%,59.215686%,61.176471%);fill-opacity:1;" d="M 55.027344 33.335938 L 56.074219 33.335938 L 56.074219 28.875 L 52.683594 28.875 L 52.683594 28.507812 L 51.65625 28.507812 L 51.65625 29.53125 L 56.074219 29.53125 L 56.074219 26.164062 L 56.464844 26.164062 L 56.464844 25.117188 L 55.4375 25.117188 L 55.4375 29.53125 L 58.808594 29.53125 L 58.808594 29.921875 L 59.855469 29.921875 L 59.855469 28.875 L 55.4375 28.875 L 55.4375 32.285156 L 55.027344 32.285156 L 55.027344 33.335938 L 56.074219 33.335938 L 55.027344 33.335938 L 55.027344 34.363281 L 57.515625 34.363281 L 57.515625 30.972656 L 60.882812 30.972656 L 60.882812 27.457031 L 57.515625 27.457031 L 57.515625 24.085938 L 54 24.085938 L 54 27.457031 L 50.609375 27.457031 L 50.609375 30.972656 L 54 30.972656 L 54 34.363281 L 55.027344 34.363281 Z M 55.027344 33.335938 "/>
<path style=" stroke:none;fill-rule:nonzero;fill:rgb(0%,59.215686%,61.176471%);fill-opacity:1;" d="M 70.972656 15.109375 L 70.972656 13.691406 L 70.4375 13.691406 L 70.4375 13.445312 L 71.796875 13.445312 L 71.796875 13.691406 L 71.261719 13.691406 L 71.261719 15.109375 Z M 71.980469 15.109375 L 71.980469 13.464844 L 72.390625 13.464844 L 72.804688 14.78125 L 73.214844 13.464844 L 73.605469 13.464844 L 73.605469 15.109375 L 73.359375 15.109375 L 73.359375 13.710938 L 72.925781 15.109375 L 72.679688 15.109375 L 72.226562 13.691406 L 72.226562 15.109375 Z M 71.980469 15.109375 "/>
<path style=" stroke:none;fill-rule:nonzero;fill:rgb(0%,59.215686%,61.176471%);fill-opacity:1;" d="M 70.972656 15.109375 L 71.035156 15.109375 L 71.035156 13.648438 L 70.5 13.648438 L 70.5 13.507812 L 71.753906 13.507812 L 71.753906 13.648438 L 71.199219 13.648438 L 71.199219 15.066406 L 70.972656 15.066406 L 70.972656 15.109375 L 71.035156 15.109375 L 70.972656 15.109375 L 70.972656 15.171875 L 71.300781 15.171875 L 71.300781 13.75 L 71.835938 13.75 L 71.835938 13.402344 L 70.375 13.402344 L 70.375 13.75 L 70.910156 13.75 L 70.910156 15.171875 L 70.972656 15.171875 Z M 71.980469 15.109375 L 72.039062 15.109375 L 72.039062 13.507812 L 72.347656 13.507812 L 72.800781 14.945312 L 73.234375 13.507812 L 73.539062 13.507812 L 73.539062 15.046875 L 73.398438 15.046875 L 73.398438 13.710938 L 73.296875 13.691406 L 72.882812 15.046875 L 72.71875 15.046875 L 72.289062 13.667969 L 72.183594 13.691406 L 72.183594 15.046875 L 71.980469 15.046875 L 71.980469 15.109375 L 72.042969 15.109375 L 71.980469 15.109375 L 71.980469 15.171875 L 72.289062 15.171875 L 72.289062 14.039062 L 72.636719 15.171875 L 72.964844 15.171875 L 73.292969 14.082031 L 73.292969 15.171875 L 73.640625 15.171875 L 73.640625 13.402344 L 73.148438 13.402344 L 72.777344 14.59375 L 72.410156 13.402344 L 71.914062 13.402344 L 71.914062 15.171875 L 71.976562 15.171875 Z M 71.980469 15.109375 "/>
<path style=" stroke:none;fill-rule:nonzero;fill:rgb(0%,59.215686%,61.176471%);fill-opacity:1;" d="M 8.960938 62.617188 L 8.28125 60.273438 L 3.984375 60.273438 L 3.289062 62.617188 L 1.007812 62.617188 L 4.644531 50.738281 L 7.867188 50.738281 L 11.507812 62.617188 Z M 6.164062 52.917969 L 4.539062 58.445312 L 7.765625 58.445312 Z M 6.164062 52.917969 "/>
<path style=" stroke:none;fill-rule:nonzero;fill:rgb(0%,59.215686%,61.176471%);fill-opacity:1;" d="M 8.960938 62.617188 L 9.082031 62.574219 L 8.382812 60.128906 L 3.902344 60.128906 L 3.207031 62.472656 L 1.171875 62.472656 L 4.726562 50.863281 L 7.789062 50.863281 L 11.34375 62.496094 L 8.960938 62.496094 L 8.960938 62.617188 L 9.082031 62.574219 L 8.960938 62.617188 L 8.960938 62.738281 L 11.691406 62.738281 L 7.972656 50.617188 L 4.5625 50.617188 L 0.84375 62.738281 L 3.390625 62.738281 L 4.089844 60.398438 L 8.195312 60.398438 L 8.875 62.738281 L 8.976562 62.738281 L 8.976562 62.617188 Z M 6.164062 52.917969 L 6.039062 52.875 L 4.375 58.570312 L 7.933594 58.570312 L 6.164062 52.464844 L 6.042969 52.878906 L 6.164062 52.917969 L 6.039062 52.957031 L 7.601562 58.320312 L 4.726562 58.320312 L 6.289062 52.957031 L 6.164062 52.917969 L 6.039062 52.957031 Z M 6.164062 52.917969 "/>
<path style=" stroke:none;fill-rule:nonzero;fill:rgb(0%,59.215686%,61.176471%);fill-opacity:1;" d="M 18.984375 62.617188 L 17.261719 58.792969 C 17.097656 58.425781 16.867188 58.15625 16.582031 57.972656 C 16.296875 57.789062 15.945312 57.707031 15.554688 57.707031 L 15.101562 57.707031 L 15.101562 62.617188 L 12.78125 62.617188 L 12.78125 50.742188 L 16.355469 50.742188 C 17.035156 50.742188 17.652344 50.800781 18.203125 50.90625 C 18.761719 51.007812 19.230469 51.210938 19.625 51.460938 C 20.015625 51.726562 20.300781 52.054688 20.527344 52.488281 C 20.730469 52.898438 20.835938 53.410156 20.835938 54.027344 C 20.835938 54.460938 20.773438 54.851562 20.628906 55.199219 C 20.507812 55.546875 20.320312 55.835938 20.074219 56.082031 C 19.828125 56.328125 19.558594 56.535156 19.230469 56.679688 C 18.902344 56.824219 18.554688 56.945312 18.164062 56.988281 C 18.472656 57.046875 18.738281 57.210938 18.984375 57.480469 C 19.230469 57.746094 19.480469 58.136719 19.746094 58.652344 L 21.71875 62.636719 L 18.984375 62.636719 Z M 18.410156 54.230469 C 18.410156 53.65625 18.226562 53.226562 17.835938 52.976562 C 17.445312 52.730469 16.871094 52.585938 16.109375 52.585938 L 15.105469 52.585938 L 15.105469 55.933594 L 16.046875 55.933594 C 16.398438 55.933594 16.726562 55.894531 17.015625 55.832031 C 17.300781 55.75 17.546875 55.648438 17.753906 55.503906 C 17.957031 55.359375 18.121094 55.175781 18.226562 54.96875 C 18.347656 54.765625 18.410156 54.519531 18.410156 54.230469 Z M 18.410156 54.230469 "/>
<path style=" stroke:none;fill-rule:nonzero;fill:rgb(0%,59.215686%,61.176471%);fill-opacity:1;" d="M 18.984375 62.617188 L 19.109375 62.554688 L 17.382812 58.734375 C 17.21875 58.339844 16.972656 58.054688 16.664062 57.851562 C 16.355469 57.644531 15.984375 57.5625 15.574219 57.5625 L 15 57.5625 L 15 62.472656 L 12.945312 62.472656 L 12.945312 50.867188 L 16.398438 50.867188 C 17.074219 50.867188 17.671875 50.925781 18.203125 51.03125 C 18.738281 51.132812 19.191406 51.316406 19.582031 51.5625 C 19.953125 51.808594 20.238281 52.140625 20.445312 52.527344 C 20.648438 52.917969 20.753906 53.414062 20.753906 54.007812 C 20.753906 54.421875 20.691406 54.789062 20.566406 55.117188 C 20.445312 55.445312 20.261719 55.714844 20.03125 55.960938 C 19.808594 56.1875 19.539062 56.390625 19.210938 56.535156 C 18.902344 56.679688 18.554688 56.78125 18.164062 56.84375 L 18.164062 57.089844 C 18.429688 57.152344 18.679688 57.292969 18.925781 57.542969 C 19.171875 57.789062 19.417969 58.179688 19.664062 58.671875 L 21.53125 62.472656 L 19.007812 62.472656 L 19.007812 62.617188 L 19.128906 62.554688 L 18.984375 62.617188 L 18.984375 62.738281 L 21.902344 62.738281 L 19.847656 58.566406 C 19.601562 58.054688 19.335938 57.644531 19.066406 57.375 C 18.800781 57.085938 18.511719 56.902344 18.164062 56.839844 L 18.144531 56.964844 L 18.164062 57.085938 C 18.554688 57.023438 18.925781 56.921875 19.273438 56.757812 C 19.621094 56.59375 19.910156 56.390625 20.15625 56.140625 C 20.402344 55.875 20.609375 55.566406 20.730469 55.21875 C 20.875 54.867188 20.9375 54.457031 20.9375 54.023438 C 20.9375 53.40625 20.835938 52.875 20.609375 52.421875 C 20.382812 51.988281 20.074219 51.621094 19.664062 51.355469 C 19.253906 51.085938 18.78125 50.882812 18.203125 50.777344 C 17.648438 50.65625 17.011719 50.613281 16.335938 50.613281 L 12.636719 50.613281 L 12.636719 62.738281 L 15.203125 62.738281 L 15.203125 57.824219 L 15.511719 57.824219 C 15.882812 57.824219 16.210938 57.90625 16.476562 58.09375 C 16.746094 58.257812 16.953125 58.523438 17.117188 58.851562 L 18.882812 62.734375 L 18.964844 62.734375 L 18.964844 62.613281 L 18.984375 62.613281 Z M 18.410156 54.230469 L 18.535156 54.230469 C 18.535156 53.921875 18.492188 53.65625 18.371094 53.429688 C 18.269531 53.203125 18.105469 53.019531 17.898438 52.875 C 17.484375 52.609375 16.890625 52.464844 16.109375 52.464844 L 14.957031 52.464844 L 14.957031 56.058594 L 16.027344 56.058594 C 16.394531 56.058594 16.726562 56.019531 17.03125 55.957031 C 17.339844 55.875 17.609375 55.773438 17.8125 55.609375 C 18.039062 55.445312 18.203125 55.257812 18.328125 55.03125 C 18.453125 54.804688 18.511719 54.519531 18.511719 54.230469 L 18.511719 54.210938 L 18.492188 54.191406 L 18.410156 54.230469 L 18.535156 54.230469 L 18.410156 54.230469 L 18.308594 54.292969 L 18.410156 54.230469 L 18.289062 54.230469 C 18.289062 54.496094 18.226562 54.726562 18.125 54.910156 C 18.023438 55.113281 17.878906 55.277344 17.691406 55.402344 C 17.507812 55.546875 17.261719 55.648438 16.992188 55.710938 C 16.707031 55.773438 16.398438 55.8125 16.046875 55.8125 L 15.226562 55.8125 L 15.226562 52.710938 L 16.109375 52.710938 C 16.871094 52.710938 17.40625 52.832031 17.753906 53.078125 C 17.917969 53.203125 18.0625 53.347656 18.144531 53.53125 C 18.226562 53.71875 18.269531 53.945312 18.269531 54.230469 L 18.269531 54.25 L 18.289062 54.273438 Z M 18.410156 54.230469 "/>
<path style=" stroke:none;fill-rule:nonzero;fill:rgb(0%,59.215686%,61.176471%);fill-opacity:1;" d="M 32.28125 56.511719 C 32.28125 57.4375 32.15625 58.277344 31.933594 59.019531 C 31.707031 59.777344 31.335938 60.414062 30.824219 60.949219 C 30.328125 61.484375 29.691406 61.894531 28.910156 62.183594 C 28.132812 62.472656 27.207031 62.617188 26.117188 62.617188 L 22.992188 62.617188 L 22.992188 50.738281 L 26.632812 50.738281 C 27.574219 50.738281 28.398438 50.863281 29.097656 51.085938 C 29.796875 51.3125 30.390625 51.664062 30.863281 52.136719 C 31.335938 52.609375 31.683594 53.203125 31.929688 53.941406 C 32.15625 54.644531 32.28125 55.503906 32.28125 56.511719 Z M 29.796875 56.675781 C 29.796875 56.039062 29.734375 55.464844 29.632812 54.953125 C 29.527344 54.457031 29.34375 54.027344 29.097656 53.679688 C 28.851562 53.328125 28.5 53.0625 28.070312 52.875 C 27.636719 52.691406 27.105469 52.609375 26.488281 52.609375 L 25.316406 52.609375 L 25.316406 60.746094 L 26.320312 60.746094 C 27.453125 60.746094 28.316406 60.417969 28.910156 59.761719 C 29.507812 59.101562 29.796875 58.074219 29.796875 56.675781 Z M 29.796875 56.675781 "/>
<path style=" stroke:none;fill-rule:nonzero;fill:rgb(0%,59.215686%,61.176471%);fill-opacity:1;" d="M 32.28125 56.511719 L 32.15625 56.511719 C 32.15625 57.414062 32.035156 58.238281 31.808594 58.976562 C 31.582031 59.71875 31.214844 60.332031 30.742188 60.847656 C 30.246094 61.359375 29.632812 61.75 28.871094 62.039062 C 28.113281 62.324219 27.1875 62.472656 26.117188 62.472656 L 23.117188 62.472656 L 23.117188 50.863281 L 26.632812 50.863281 C 27.558594 50.863281 28.378906 50.964844 29.058594 51.191406 C 29.753906 51.414062 30.3125 51.746094 30.761719 52.21875 C 31.214844 52.667969 31.5625 53.265625 31.789062 53.964844 C 32.015625 54.683594 32.136719 55.523438 32.136719 56.53125 L 32.28125 56.53125 L 32.363281 56.449219 L 32.15625 56.242188 L 32.15625 56.550781 L 32.28125 56.550781 L 32.199219 56.632812 L 32.402344 56.839844 L 32.402344 56.53125 C 32.402344 55.523438 32.28125 54.640625 32.054688 53.898438 C 31.808594 53.160156 31.460938 52.542969 30.96875 52.050781 C 30.472656 51.558594 29.878906 51.210938 29.160156 50.964844 C 28.441406 50.738281 27.597656 50.613281 26.652344 50.613281 L 22.890625 50.613281 L 22.890625 62.738281 L 26.136719 62.738281 C 27.226562 62.738281 28.171875 62.59375 28.972656 62.304688 C 29.777344 62.019531 30.433594 61.585938 30.925781 61.050781 C 31.441406 60.496094 31.808594 59.839844 32.058594 59.078125 C 32.304688 58.316406 32.40625 57.457031 32.40625 56.53125 L 32.285156 56.53125 L 32.203125 56.613281 Z M 29.796875 56.675781 L 29.917969 56.675781 C 29.917969 56.019531 29.855469 55.445312 29.753906 54.929688 C 29.652344 54.417969 29.46875 53.964844 29.199219 53.617188 C 28.933594 53.246094 28.5625 52.957031 28.132812 52.773438 C 27.679688 52.589844 27.144531 52.488281 26.488281 52.488281 L 25.191406 52.488281 L 25.191406 60.871094 L 26.363281 60.871094 C 26.941406 60.871094 27.453125 60.789062 27.90625 60.625 C 28.359375 60.460938 28.726562 60.191406 29.035156 59.863281 C 29.34375 59.515625 29.570312 59.082031 29.714844 58.570312 C 29.859375 58.054688 29.941406 57.4375 29.941406 56.742188 C 29.941406 56.71875 29.941406 56.71875 29.941406 56.699219 L 29.796875 56.699219 L 29.796875 56.824219 L 29.917969 56.824219 L 29.917969 56.699219 L 29.796875 56.675781 L 29.796875 56.554688 L 29.671875 56.554688 L 29.671875 56.675781 C 29.671875 56.699219 29.671875 56.699219 29.671875 56.71875 C 29.671875 57.398438 29.589844 57.992188 29.445312 58.484375 C 29.304688 58.980469 29.097656 59.367188 28.808594 59.675781 C 28.523438 59.984375 28.191406 60.234375 27.78125 60.375 C 27.371094 60.539062 26.898438 60.621094 26.34375 60.621094 L 25.441406 60.621094 L 25.441406 52.730469 L 26.488281 52.730469 C 27.105469 52.730469 27.617188 52.8125 28.027344 52.996094 C 28.441406 53.160156 28.746094 53.429688 28.992188 53.757812 C 29.238281 54.085938 29.40625 54.496094 29.507812 54.992188 C 29.609375 55.484375 29.671875 56.039062 29.671875 56.675781 L 29.796875 56.675781 L 29.796875 56.554688 Z M 29.796875 56.675781 "/>
<path style=" stroke:none;fill-rule:nonzero;fill:rgb(0%,59.215686%,61.176471%);fill-opacity:1;" d="M 42.574219 58.238281 C 42.574219 59 42.472656 59.65625 42.269531 60.234375 C 42.0625 60.808594 41.753906 61.28125 41.363281 61.671875 C 40.972656 62.0625 40.5 62.351562 39.925781 62.535156 C 39.371094 62.71875 38.734375 62.820312 38.035156 62.820312 C 37.253906 62.820312 36.574219 62.71875 36 62.535156 C 35.445312 62.351562 34.972656 62.0625 34.625 61.691406 C 34.273438 61.324219 34.027344 60.890625 33.863281 60.355469 C 33.699219 59.84375 33.636719 59.246094 33.636719 58.609375 L 33.636719 50.71875 L 35.960938 50.71875 L 35.960938 58.464844 C 35.960938 58.855469 36 59.226562 36.0625 59.53125 C 36.144531 59.839844 36.265625 60.109375 36.429688 60.3125 C 36.617188 60.519531 36.84375 60.683594 37.109375 60.808594 C 37.375 60.910156 37.726562 60.972656 38.117188 60.972656 C 38.507812 60.972656 38.8125 60.929688 39.082031 60.828125 C 39.347656 60.726562 39.574219 60.582031 39.738281 60.375 C 39.921875 60.171875 40.046875 59.902344 40.128906 59.574219 C 40.210938 59.246094 40.253906 58.855469 40.253906 58.382812 L 40.253906 50.71875 L 42.574219 50.71875 Z M 42.574219 58.238281 "/>
<path style=" stroke:none;fill-rule:nonzero;fill:rgb(0%,59.215686%,61.176471%);fill-opacity:1;" d="M 42.574219 58.238281 L 42.453125 58.238281 C 42.453125 58.980469 42.351562 59.636719 42.144531 60.191406 C 41.941406 60.746094 41.652344 61.21875 41.28125 61.570312 C 40.914062 61.9375 40.441406 62.207031 39.886719 62.410156 C 39.328125 62.59375 38.714844 62.699219 38.015625 62.699219 C 37.234375 62.699219 36.578125 62.59375 36.023438 62.410156 C 35.46875 62.226562 35.035156 61.957031 34.707031 61.609375 C 34.378906 61.261719 34.132812 60.828125 33.96875 60.335938 C 33.824219 59.820312 33.742188 59.246094 33.742188 58.609375 L 33.742188 50.863281 L 35.796875 50.863281 L 35.796875 58.488281 C 35.796875 58.898438 35.835938 59.246094 35.898438 59.574219 C 35.980469 59.902344 36.105469 60.191406 36.3125 60.417969 C 36.496094 60.644531 36.742188 60.828125 37.03125 60.929688 C 37.316406 61.054688 37.667969 61.09375 38.097656 61.09375 C 38.488281 61.09375 38.816406 61.054688 39.105469 60.953125 C 39.390625 60.851562 39.617188 60.683594 39.824219 60.457031 C 40.007812 60.234375 40.152344 59.945312 40.234375 59.617188 C 40.316406 59.265625 40.378906 58.875 40.378906 58.382812 L 40.296875 58.382812 L 40.378906 58.382812 L 40.296875 58.382812 L 40.378906 58.382812 L 40.378906 50.863281 L 42.433594 50.863281 L 42.433594 58.238281 L 42.699219 58.238281 L 42.699219 50.59375 L 40.132812 50.59375 L 40.132812 58.382812 L 40.253906 58.382812 L 40.132812 58.382812 C 40.132812 58.835938 40.089844 59.226562 40.007812 59.535156 C 39.925781 59.84375 39.804688 60.089844 39.640625 60.292969 C 39.476562 60.480469 39.269531 60.621094 39.042969 60.707031 C 38.796875 60.789062 38.488281 60.851562 38.117188 60.851562 C 37.726562 60.851562 37.398438 60.789062 37.152344 60.6875 C 36.90625 60.582031 36.699219 60.4375 36.535156 60.234375 C 36.371094 60.027344 36.25 59.78125 36.1875 59.492188 C 36.125 59.207031 36.085938 58.855469 36.085938 58.464844 L 36.085938 50.597656 L 33.515625 50.597656 L 33.515625 58.609375 C 33.515625 59.269531 33.597656 59.867188 33.761719 60.398438 C 33.925781 60.929688 34.195312 61.40625 34.566406 61.773438 C 34.933594 62.144531 35.40625 62.453125 35.984375 62.636719 C 36.558594 62.84375 37.257812 62.925781 38.058594 62.925781 C 38.777344 62.925781 39.414062 62.824219 39.992188 62.636719 C 40.566406 62.433594 41.058594 62.144531 41.46875 61.753906 C 41.882812 61.367188 42.1875 60.871094 42.394531 60.273438 C 42.597656 59.679688 42.722656 59 42.722656 58.242188 Z M 42.574219 58.238281 "/>
<path style=" stroke:none;fill-rule:nonzero;fill:rgb(0%,59.215686%,61.176471%);fill-opacity:1;" d="M 44.816406 52.566406 L 44.816406 50.738281 L 52.582031 50.738281 L 52.582031 52.566406 L 49.890625 52.566406 L 49.890625 60.765625 L 52.582031 60.765625 L 52.582031 62.617188 L 44.816406 62.617188 L 44.816406 60.765625 L 47.527344 60.765625 L 47.527344 52.566406 Z M 44.816406 52.566406 "/>
<path style=" stroke:none;fill-rule:nonzero;fill:rgb(0%,59.215686%,61.176471%);fill-opacity:1;" d="M 44.816406 52.566406 L 44.9375 52.566406 L 44.9375 50.863281 L 52.460938 50.863281 L 52.460938 52.421875 L 49.765625 52.421875 L 49.765625 60.890625 L 52.460938 60.890625 L 52.460938 62.492188 L 44.9375 62.492188 L 44.9375 60.890625 L 47.652344 60.890625 L 47.652344 52.421875 L 44.816406 52.421875 L 44.816406 52.566406 L 44.9375 52.566406 L 44.816406 52.566406 L 44.816406 52.691406 L 47.402344 52.691406 L 47.402344 60.644531 L 44.691406 60.644531 L 44.691406 62.738281 L 52.703125 62.738281 L 52.703125 60.644531 L 50.015625 60.644531 L 50.015625 52.691406 L 52.703125 52.691406 L 52.703125 50.617188 L 44.691406 50.617188 L 44.691406 52.691406 L 44.816406 52.691406 Z M 44.816406 52.566406 "/>
<path style=" stroke:none;fill-rule:nonzero;fill:rgb(0%,59.215686%,61.176471%);fill-opacity:1;" d="M 60.984375 62.617188 L 57.699219 55.527344 L 57.019531 53.984375 L 57.019531 62.617188 L 54.902344 62.617188 L 54.902344 50.738281 L 57.738281 50.738281 L 61.109375 57.867188 L 61.703125 59.265625 L 61.703125 50.738281 L 63.800781 50.738281 L 63.800781 62.617188 Z M 60.984375 62.617188 "/>
<path style=" stroke:none;fill-rule:nonzero;fill:rgb(0%,59.215686%,61.176471%);fill-opacity:1;" d="M 60.984375 62.617188 L 61.089844 62.554688 L 57.800781 55.464844 L 57.125 53.945312 L 56.898438 53.984375 L 56.898438 62.492188 L 55.027344 62.492188 L 55.027344 50.863281 L 57.65625 50.863281 L 60.984375 57.910156 L 61.582031 59.308594 L 61.828125 59.265625 L 61.828125 50.863281 L 63.679688 50.863281 L 63.679688 62.492188 L 60.984375 62.492188 L 60.984375 62.617188 L 61.089844 62.554688 L 60.984375 62.617188 L 60.984375 62.738281 L 63.925781 62.738281 L 63.925781 50.617188 L 61.5625 50.617188 L 61.5625 58.648438 L 61.210938 57.808594 L 57.820312 50.617188 L 54.78125 50.617188 L 54.78125 62.738281 L 57.144531 62.738281 L 57.144531 54.582031 L 57.574219 55.566406 L 60.902344 62.738281 L 60.984375 62.738281 Z M 60.984375 62.617188 "/>
<path style=" stroke:none;fill-rule:nonzero;fill:rgb(0%,59.215686%,61.176471%);fill-opacity:1;" d="M 74.875 56.617188 C 74.875 57.703125 74.753906 58.628906 74.484375 59.410156 C 74.21875 60.191406 73.867188 60.828125 73.417969 61.34375 C 72.964844 61.835938 72.433594 62.226562 71.816406 62.453125 C 71.199219 62.699219 70.539062 62.820312 69.863281 62.820312 C 68.238281 62.820312 67.027344 62.308594 66.203125 61.257812 C 65.382812 60.210938 64.972656 58.710938 64.972656 56.71875 C 64.972656 55.628906 65.09375 54.703125 65.363281 53.921875 C 65.628906 53.144531 65.980469 52.503906 66.429688 51.992188 C 66.882812 51.496094 67.417969 51.109375 68.035156 50.882812 C 68.648438 50.636719 69.308594 50.511719 69.984375 50.511719 C 71.609375 50.511719 72.820312 51.027344 73.644531 52.074219 C 74.464844 53.121094 74.875 54.644531 74.875 56.617188 Z M 72.433594 56.738281 C 72.433594 55.34375 72.246094 54.292969 71.855469 53.597656 C 71.464844 52.898438 70.828125 52.570312 69.945312 52.570312 C 69.492188 52.570312 69.121094 52.652344 68.8125 52.835938 C 68.507812 53.019531 68.238281 53.269531 68.03125 53.617188 C 67.828125 53.964844 67.683594 54.398438 67.582031 54.890625 C 67.476562 55.40625 67.4375 55.980469 67.4375 56.636719 C 67.4375 58.035156 67.640625 59.082031 68.03125 59.78125 C 68.425781 60.480469 69.058594 60.808594 69.945312 60.808594 C 70.398438 60.808594 70.765625 60.726562 71.097656 60.539062 C 71.402344 60.355469 71.671875 60.109375 71.875 59.761719 C 72.082031 59.410156 72.226562 58.980469 72.328125 58.484375 C 72.390625 57.972656 72.433594 57.375 72.433594 56.738281 Z M 72.433594 56.738281 "/>
<path style=" stroke:none;fill-rule:nonzero;fill:rgb(0%,59.215686%,61.176471%);fill-opacity:1;" d="M 74.875 56.617188 L 74.753906 56.617188 C 74.753906 57.683594 74.632812 58.609375 74.363281 59.371094 C 74.117188 60.128906 73.765625 60.769531 73.316406 61.261719 C 72.863281 61.753906 72.351562 62.105469 71.753906 62.351562 C 71.15625 62.597656 70.519531 62.699219 69.84375 62.699219 C 69.039062 62.699219 68.363281 62.574219 67.765625 62.328125 C 67.171875 62.082031 66.679688 61.691406 66.289062 61.199219 C 65.484375 60.191406 65.09375 58.710938 65.09375 56.738281 C 65.09375 55.671875 65.21875 54.746094 65.484375 53.984375 C 65.730469 53.226562 66.082031 52.585938 66.53125 52.09375 C 66.984375 51.601562 67.5 51.25 68.09375 51.007812 C 68.691406 50.757812 69.328125 50.65625 70.007812 50.65625 C 70.808594 50.65625 71.484375 50.78125 72.082031 51.027344 C 72.679688 51.273438 73.171875 51.644531 73.5625 52.15625 C 74.34375 53.164062 74.753906 54.621094 74.753906 56.59375 C 74.753906 56.617188 74.753906 56.617188 74.753906 56.636719 L 74.875 56.617188 L 75 56.617188 C 75 56.59375 75 56.59375 75 56.574219 C 75 54.582031 74.589844 53.0625 73.746094 51.992188 C 73.335938 51.457031 72.800781 51.046875 72.164062 50.78125 C 71.527344 50.515625 70.808594 50.390625 69.984375 50.390625 C 69.265625 50.390625 68.609375 50.511719 67.972656 50.757812 C 67.335938 51.003906 66.800781 51.394531 66.328125 51.910156 C 65.855469 52.425781 65.484375 53.082031 65.238281 53.882812 C 64.972656 54.683594 64.847656 55.628906 64.847656 56.71875 C 64.847656 58.710938 65.261719 60.253906 66.101562 61.320312 C 66.515625 61.855469 67.046875 62.265625 67.683594 62.535156 C 68.320312 62.800781 69.039062 62.925781 69.863281 62.925781 C 70.582031 62.925781 71.238281 62.800781 71.875 62.554688 C 72.515625 62.308594 73.046875 61.917969 73.519531 61.40625 C 73.992188 60.890625 74.363281 60.234375 74.609375 59.433594 C 74.875 58.628906 75 57.6875 75 56.597656 L 74.875 56.597656 Z M 72.433594 56.738281 L 72.554688 56.738281 C 72.554688 55.320312 72.371094 54.253906 71.960938 53.535156 C 71.753906 53.164062 71.484375 52.898438 71.136719 52.710938 C 70.789062 52.527344 70.398438 52.445312 69.925781 52.445312 C 69.472656 52.445312 69.0625 52.546875 68.730469 52.734375 C 68.402344 52.917969 68.117188 53.207031 67.910156 53.554688 C 67.703125 53.921875 67.539062 54.355469 67.457031 54.871094 C 67.355469 55.382812 67.3125 55.980469 67.3125 56.636719 C 67.3125 58.054688 67.5 59.121094 67.910156 59.84375 C 68.113281 60.210938 68.382812 60.480469 68.730469 60.664062 C 69.082031 60.847656 69.472656 60.929688 69.925781 60.929688 C 70.375 60.929688 70.789062 60.828125 71.136719 60.644531 C 71.464844 60.457031 71.753906 60.171875 71.960938 59.800781 C 72.164062 59.433594 72.328125 59 72.410156 58.484375 C 72.515625 57.972656 72.554688 57.375 72.554688 56.71875 L 72.554688 56.636719 L 72.492188 56.597656 L 72.433594 56.738281 L 72.554688 56.738281 L 72.433594 56.738281 L 72.371094 56.84375 L 72.433594 56.738281 L 72.308594 56.738281 C 72.308594 57.398438 72.269531 57.953125 72.164062 58.464844 C 72.082031 58.957031 71.941406 59.367188 71.734375 59.699219 C 71.546875 60.027344 71.300781 60.273438 70.992188 60.4375 C 70.707031 60.601562 70.335938 60.683594 69.90625 60.683594 C 69.472656 60.683594 69.125 60.601562 68.816406 60.4375 C 68.53125 60.273438 68.28125 60.027344 68.097656 59.71875 C 67.726562 59.0625 67.523438 58.035156 67.523438 56.636719 C 67.523438 55.980469 67.5625 55.421875 67.664062 54.910156 C 67.746094 54.417969 67.910156 54.007812 68.097656 53.679688 C 68.28125 53.351562 68.53125 53.101562 68.835938 52.9375 C 69.125 52.773438 69.496094 52.691406 69.90625 52.691406 C 70.335938 52.691406 70.6875 52.773438 70.992188 52.9375 C 71.300781 53.101562 71.527344 53.351562 71.710938 53.65625 C 72.082031 54.316406 72.289062 55.34375 72.289062 56.738281 L 72.289062 56.820312 L 72.351562 56.863281 Z M 72.433594 56.738281 "/>
<path style=" stroke:none;fill-rule:nonzero;fill:rgb(0%,59.215686%,61.176471%);fill-opacity:1;" d="M 14.402344 28.648438 L 23.054688 28.648438 L 23.054688 29.800781 L 14.402344 29.800781 Z M 14.402344 28.648438 "/>
<path style=" stroke:none;fill-rule:nonzero;fill:rgb(0%,59.215686%,61.176471%);fill-opacity:1;" d="M 14.402344 29.800781 L 15.636719 29.800781 L 15.636719 28.648438 L 14.402344 28.648438 L 14.402344 29.882812 L 23.054688 29.882812 L 23.054688 28.648438 L 21.84375 28.648438 L 21.84375 29.800781 L 23.054688 29.800781 L 23.054688 28.566406 L 14.402344 28.566406 L 14.402344 29.800781 L 15.636719 29.800781 L 14.402344 29.800781 L 14.402344 31.03125 L 24.289062 31.03125 L 24.289062 27.417969 L 13.171875 27.417969 L 13.171875 31.03125 L 14.402344 31.03125 Z M 14.402344 29.800781 "/>
</g>
</svg>
