<?xml version="1.0" encoding="UTF-8"?>
<svg xmlns="http://www.w3.org/2000/svg" xmlns:xlink="http://www.w3.org/1999/xlink" width="75px" height="px" viewBox="0 0 75 75" version="1.1">
<g id="surface1">
<path style=" stroke:none;fill-rule:nonzero;fill:rgb(60.392157%,28.627451%,57.647059%);fill-opacity:1;" d="M 70.859375 22.042969 C 70.859375 20.789062 70.589844 19.660156 70.035156 18.714844 C 69.5 17.773438 68.699219 16.992188 67.632812 16.375 C 58.757812 11.257812 49.863281 6.140625 40.984375 1.027344 C 38.582031 -0.351562 36.28125 -0.308594 33.898438 1.089844 C 30.363281 3.164062 12.65625 13.3125 7.398438 16.375 C 5.21875 17.628906 4.171875 19.558594 4.171875 22.066406 C 4.171875 32.355469 4.171875 42.671875 4.171875 52.960938 C 4.171875 54.195312 4.4375 55.285156 4.953125 56.230469 C 5.488281 57.195312 6.308594 58.015625 7.398438 58.652344 C 12.675781 61.714844 30.367188 71.84375 33.898438 73.9375 C 36.28125 75.335938 38.605469 75.398438 40.988281 74 C 49.863281 68.863281 58.757812 63.769531 67.632812 58.652344 C 68.742188 58.015625 69.542969 57.214844 70.078125 56.226562 C 70.59375 55.285156 70.859375 54.195312 70.859375 52.960938 C 70.859375 52.941406 70.859375 32.335938 70.859375 22.042969 "/>
<path style=" stroke:none;fill-rule:nonzero;fill:rgb(41.568627%,8.235294%,46.666667%);fill-opacity:1;" d="M 37.597656 37.390625 L 4.910156 56.207031 C 5.445312 57.175781 6.269531 57.996094 7.355469 58.632812 C 12.636719 61.695312 30.324219 71.824219 33.859375 73.917969 C 36.242188 75.316406 38.5625 75.375 40.945312 73.980469 C 49.820312 68.84375 58.71875 63.75 67.59375 58.632812 C 68.703125 57.996094 69.503906 57.195312 70.039062 56.207031 L 37.597656 37.390625 "/>
<path style=" stroke:none;fill-rule:nonzero;fill:rgb(41.568627%,8.235294%,46.666667%);fill-opacity:1;" d="M 27.921875 42.957031 C 29.828125 46.285156 33.40625 48.527344 37.492188 48.527344 C 41.625 48.527344 45.21875 46.265625 47.109375 42.894531 L 37.597656 37.390625 L 27.921875 42.957031 "/>
<path style=" stroke:none;fill-rule:nonzero;fill:rgb(50.588235%,18.823529%,51.764706%);fill-opacity:1;" d="M 70.859375 22.042969 C 70.859375 20.789062 70.589844 19.660156 70.035156 18.714844 L 37.597656 37.390625 L 70.078125 56.210938 C 70.589844 55.265625 70.859375 54.175781 70.859375 52.941406 C 70.859375 52.941406 70.859375 32.335938 70.859375 22.042969 "/>
<path style=" stroke:none;fill-rule:nonzero;fill:rgb(100%,100%,100%);fill-opacity:1;" d="M 47.109375 42.898438 C 45.21875 46.246094 41.625 48.527344 37.496094 48.527344 C 33.386719 48.527344 29.8125 46.285156 27.921875 42.957031 C 26.996094 41.335938 26.460938 39.488281 26.460938 37.492188 C 26.460938 31.390625 31.390625 26.460938 37.492188 26.460938 C 41.5625 26.460938 45.113281 28.679688 47.027344 31.96875 L 56.660156 26.421875 C 52.820312 19.804688 45.671875 15.347656 37.472656 15.347656 C 25.230469 15.347656 15.328125 25.269531 15.328125 37.496094 C 15.328125 41.5 16.394531 45.28125 18.265625 48.527344 C 22.085938 55.160156 29.277344 59.640625 37.496094 59.640625 C 45.734375 59.640625 52.921875 55.140625 56.742188 48.464844 L 47.109375 42.898438 "/>
<path style=" stroke:none;fill-rule:nonzero;fill:rgb(100%,100%,100%);fill-opacity:1;" d="M 57.09375 32.253906 L 59.292969 32.253906 L 59.292969 42.875 L 57.09375 42.875 Z M 57.09375 32.253906 "/>
<path style=" stroke:none;fill-rule:nonzero;fill:rgb(100%,100%,100%);fill-opacity:1;" d="M 61.960938 32.253906 L 64.160156 32.253906 L 64.160156 42.875 L 61.960938 42.875 Z M 61.960938 32.253906 "/>
<path style=" stroke:none;fill-rule:nonzero;fill:rgb(100%,100%,100%);fill-opacity:1;" d="M 55.328125 34.042969 L 65.949219 34.042969 L 65.949219 36.242188 L 55.328125 36.242188 Z M 55.328125 34.042969 "/>
<path style=" stroke:none;fill-rule:nonzero;fill:rgb(100%,100%,100%);fill-opacity:1;" d="M 55.328125 38.890625 L 65.949219 38.890625 L 65.949219 41.089844 L 55.328125 41.089844 Z M 55.328125 38.890625 "/>
</g>
</svg>
