<?xml version="1.0" encoding="UTF-8"?>
<svg xmlns="http://www.w3.org/2000/svg" xmlns:xlink="http://www.w3.org/1999/xlink" width="75px" height="px" viewBox="0 0 75 75" version="1.1">
<g id="surface1">
<path style=" stroke:none;fill-rule:nonzero;fill:rgb(100%,76.078431%,29.019608%);fill-opacity:1;" d="M 10.203125 60.53125 L 10.652344 59.894531 L 32.121094 19.15625 L 32.164062 18.722656 L 22.691406 0.933594 C 21.890625 -0.566406 19.671875 -0.175781 19.402344 1.488281 Z M 10.203125 60.53125 "/>
<path style=" stroke:none;fill-rule:nonzero;fill:rgb(95.686275%,74.117647%,38.431373%);fill-opacity:1;" d="M 39.0625 32.179688 L 46.109375 24.96875 L 39.0625 11.511719 C 38.386719 10.238281 36.515625 10.238281 35.859375 11.511719 L 32.101562 18.703125 L 32.101562 19.320312 Z M 39.0625 32.179688 "/>
<path style=" stroke:none;fill-rule:nonzero;fill:rgb(96.470588%,50.980392%,4.705882%);fill-opacity:1;" d="M 10.203125 60.53125 L 10.40625 60.324219 L 11.144531 60.015625 L 38.632812 32.652344 L 38.960938 31.707031 L 32.121094 18.640625 Z M 10.203125 60.53125 "/>
<path style=" stroke:none;fill-rule:nonzero;fill:rgb(99.215686%,87.843137%,40.784314%);fill-opacity:1;" d="M 39.949219 74.335938 L 64.804688 60.46875 L 57.699219 16.730469 C 57.472656 15.355469 55.789062 14.820312 54.824219 15.808594 L 10.203125 60.53125 L 34.933594 74.335938 C 36.476562 75.21875 38.386719 75.21875 39.949219 74.335938 "/>
<path style=" stroke:none;fill-rule:nonzero;fill:rgb(98.823529%,79.215686%,24.705882%);fill-opacity:1;" d="M 64.601562 60.34375 L 57.554688 16.957031 C 57.328125 15.601562 55.929688 15.046875 54.964844 16.011719 L 10.46875 60.449219 L 34.914062 74.109375 C 36.457031 74.972656 38.34375 74.972656 39.90625 74.109375 Z M 64.601562 60.34375 "/>
<path style=" stroke:none;fill-rule:nonzero;fill:rgb(93.333333%,67.058824%,21.568627%);fill-opacity:1;" d="M 39.949219 73.925781 C 38.386719 74.789062 36.476562 74.789062 34.914062 73.925781 L 10.386719 60.324219 L 10.179688 60.53125 L 34.914062 74.335938 C 36.476562 75.199219 38.386719 75.199219 39.949219 74.335938 L 64.804688 60.46875 L 64.746094 60.097656 Z M 39.949219 73.925781 "/>
</g>
</svg>
