<?xml version="1.0" encoding="UTF-8"?>
<svg xmlns="http://www.w3.org/2000/svg" xmlns:xlink="http://www.w3.org/1999/xlink" width="75px" height="px" viewBox="0 0 75 75" version="1.1">
<g id="surface1">
<path style=" stroke:none;fill-rule:nonzero;fill:rgb(87.058824%,29.803922%,21.176471%);fill-opacity:1;" d="M 73.578125 34.160156 L 40.839844 1.421875 C 38.949219 -0.46875 35.902344 -0.46875 34.015625 1.421875 L 27.21875 8.21875 L 35.84375 16.84375 C 37.851562 16.171875 40.152344 16.625 41.75 18.222656 C 43.359375 19.835938 43.796875 22.148438 43.109375 24.15625 L 51.429688 32.476562 C 53.4375 31.789062 55.765625 32.226562 57.363281 33.835938 C 59.605469 36.078125 59.605469 39.726562 57.363281 41.96875 C 55.121094 44.210938 51.476562 44.210938 49.234375 41.96875 C 47.546875 40.28125 47.125 37.792969 47.988281 35.710938 L 40.238281 27.964844 L 40.238281 48.371094 C 40.78125 48.648438 41.308594 49 41.761719 49.453125 C 44.003906 51.695312 44.003906 55.328125 41.761719 57.582031 C 39.523438 59.824219 35.875 59.824219 33.632812 57.582031 C 31.390625 55.34375 31.390625 51.695312 33.632812 49.453125 C 34.191406 48.898438 34.835938 48.484375 35.507812 48.195312 L 35.507812 27.597656 C 34.820312 27.320312 34.191406 26.894531 33.632812 26.335938 C 31.933594 24.640625 31.523438 22.148438 32.386719 20.054688 L 23.890625 11.542969 L 1.421875 34.015625 C -0.46875 35.902344 -0.46875 38.964844 1.421875 40.839844 L 34.160156 73.578125 C 36.050781 75.46875 39.097656 75.46875 40.984375 73.578125 L 73.578125 40.984375 C 75.46875 39.109375 75.46875 36.050781 73.578125 34.160156 "/>
</g>
</svg>
