<?xml version="1.0" encoding="UTF-8"?>
<svg xmlns="http://www.w3.org/2000/svg" xmlns:xlink="http://www.w3.org/1999/xlink" width="75px" height="px" viewBox="0 0 75 75" version="1.1">
<g id="surface1">
<path style=" stroke:none;fill-rule:nonzero;fill:rgb(21.176471%,15.294118%,0.392157%);fill-opacity:1;" d="M 44.9375 32.503906 C 43.292969 32.503906 42.0625 33.304688 42.0625 35.257812 C 42.0625 36.71875 42.863281 37.746094 44.835938 37.746094 C 46.5 37.746094 47.652344 36.761719 47.652344 35.195312 C 47.671875 33.429688 46.644531 32.503906 44.9375 32.503906 Z M 41.648438 46.210938 C 41.257812 46.683594 40.867188 47.195312 40.867188 47.792969 C 40.867188 48.984375 42.390625 49.355469 44.484375 49.355469 C 46.210938 49.355469 48.574219 49.230469 48.574219 47.628906 C 48.574219 46.664062 47.445312 46.601562 46.007812 46.519531 Z M 50.507812 32.585938 C 51.042969 33.265625 51.617188 34.230469 51.617188 35.609375 C 51.617188 38.917969 49.007812 40.867188 45.246094 40.867188 C 44.28125 40.867188 43.417969 40.746094 42.882812 40.601562 L 41.898438 42.183594 L 44.835938 42.367188 C 50.015625 42.695312 53.058594 42.84375 53.058594 46.828125 C 53.058594 50.261719 50.039062 52.210938 44.835938 52.210938 C 39.433594 52.210938 37.355469 50.835938 37.355469 48.472656 C 37.355469 47.136719 37.953125 46.417969 39 45.433594 C 38.015625 45.019531 37.683594 44.261719 37.683594 43.457031 C 37.683594 42.800781 38.011719 42.203125 38.546875 41.628906 C 39.082031 41.054688 39.679688 40.5 40.398438 39.839844 C 38.9375 39.121094 37.828125 37.558594 37.828125 35.359375 C 37.828125 31.929688 40.109375 29.566406 44.671875 29.566406 C 45.964844 29.566406 46.726562 29.6875 47.425781 29.875 L 53.261719 29.875 L 53.261719 32.421875 L 50.507812 32.585938 "/>
<path style=" stroke:none;fill-rule:nonzero;fill:rgb(21.176471%,15.294118%,0.392157%);fill-opacity:1;" d="M 58.523438 27.160156 C 56.816406 27.160156 55.828125 26.175781 55.828125 24.46875 C 55.828125 22.761719 56.816406 21.839844 58.523438 21.839844 C 60.246094 21.839844 61.234375 22.761719 61.234375 24.46875 C 61.234375 26.175781 60.246094 27.160156 58.523438 27.160156 Z M 54.65625 45.125 L 54.65625 42.757812 L 56.179688 42.554688 C 56.589844 42.492188 56.652344 42.410156 56.652344 41.957031 L 56.652344 33.160156 C 56.652344 32.832031 56.570312 32.625 56.261719 32.523438 L 54.636719 31.949219 L 54.964844 29.523438 L 61.152344 29.523438 L 61.152344 41.9375 C 61.152344 42.410156 61.171875 42.472656 61.625 42.53125 L 63.144531 42.738281 L 63.144531 45.101562 L 54.65625 45.125 "/>
<path style=" stroke:none;fill-rule:nonzero;fill:rgb(21.176471%,15.294118%,0.392157%);fill-opacity:1;" d="M 75.003906 43.953125 C 73.710938 44.589844 71.839844 45.144531 70.132812 45.144531 C 66.578125 45.144531 65.222656 43.703125 65.222656 40.335938 L 65.222656 32.503906 C 65.222656 32.320312 65.222656 32.195312 64.976562 32.195312 L 62.878906 32.195312 L 62.878906 29.546875 C 65.511719 29.238281 66.558594 27.921875 66.886719 24.675781 L 69.722656 24.675781 L 69.722656 28.929688 C 69.722656 29.132812 69.722656 29.238281 69.96875 29.238281 L 74.183594 29.238281 L 74.183594 32.214844 L 69.722656 32.214844 L 69.722656 39.347656 C 69.722656 41.117188 70.136719 41.792969 71.757812 41.792969 C 72.601562 41.792969 73.464844 41.585938 74.183594 41.320312 L 75.003906 43.953125 "/>
<path style=" stroke:none;fill-rule:nonzero;fill:rgb(94.117647%,23.529412%,18.039216%);fill-opacity:1;" d="M 30.714844 36.121094 L 17.050781 22.457031 C 16.269531 21.675781 14.996094 21.675781 14.195312 22.457031 L 11.359375 25.292969 L 14.953125 28.886719 C 15.796875 28.601562 16.742188 28.785156 17.421875 29.464844 C 18.101562 30.140625 18.285156 31.109375 17.996094 31.953125 L 21.46875 35.425781 C 22.3125 35.136719 23.28125 35.320312 23.957031 36 C 24.902344 36.945312 24.902344 38.445312 23.957031 39.390625 C 23.011719 40.335938 21.511719 40.335938 20.566406 39.390625 C 19.867188 38.691406 19.683594 37.644531 20.050781 36.78125 L 16.824219 33.554688 L 16.824219 42.0625 C 17.050781 42.183594 17.277344 42.328125 17.460938 42.515625 C 18.40625 43.460938 18.40625 44.960938 17.460938 45.90625 C 16.515625 46.851562 14.996094 46.851562 14.070312 45.90625 C 13.125 44.960938 13.125 43.4375 14.070312 42.515625 C 14.296875 42.289062 14.566406 42.101562 14.851562 42 L 14.851562 33.410156 C 14.566406 33.289062 14.296875 33.125 14.070312 32.894531 C 13.351562 32.175781 13.1875 31.148438 13.558594 30.265625 L 9.960938 26.6875 L 0.589844 36.058594 C -0.191406 36.839844 -0.191406 38.117188 0.589844 38.917969 L 14.253906 52.582031 C 15.035156 53.363281 16.308594 53.363281 17.109375 52.582031 L 30.714844 38.976562 C 31.496094 38.175781 31.496094 36.902344 30.714844 36.121094 "/>
</g>
</svg>
