<?xml version="1.0" encoding="UTF-8"?>
<svg xmlns="http://www.w3.org/2000/svg" xmlns:xlink="http://www.w3.org/1999/xlink" width="75px" height="px" viewBox="0 0 75 18" version="1.1">
<g id="surface1">
<path style=" stroke:none;fill-rule:nonzero;fill:rgb(91.764706%,26.27451%,20.784314%);fill-opacity:1;" d="M 8.820312 6.183594 L 9.242188 6.183594 L 10.460938 4.957031 L 10.519531 4.441406 C 8.277344 2.433594 4.835938 2.671875 2.855469 4.929688 C 2.300781 5.546875 1.917969 6.316406 1.683594 7.125 C 1.832031 7.066406 1.976562 7.066406 2.109375 7.113281 L 4.539062 6.699219 C 4.539062 6.699219 4.65625 6.492188 4.730469 6.507812 C 5.785156 5.3125 7.585938 5.179688 8.820312 6.183594 Z M 8.820312 6.183594 "/>
<path style=" stroke:none;fill-rule:nonzero;fill:rgb(25.882353%,52.156863%,95.686275%);fill-opacity:1;" d="M 12.1875 7.113281 C 11.894531 6.078125 11.335938 5.148438 10.546875 4.441406 L 8.832031 6.167969 C 9.550781 6.742188 9.960938 7.644531 9.945312 8.570312 L 9.945312 8.882812 C 10.796875 8.882812 11.441406 9.5625 11.441406 10.386719 C 11.441406 11.242188 10.765625 11.890625 9.945312 11.890625 L 6.929688 11.890625 L 6.621094 12.203125 L 6.621094 14.015625 L 6.929688 14.328125 L 9.945312 14.328125 C 12.128906 14.355469 13.886719 12.601562 13.914062 10.402344 C 13.914062 9.101562 13.273438 7.863281 12.1875 7.113281 Z M 12.1875 7.113281 "/>
<path style=" stroke:none;fill-rule:nonzero;fill:rgb(20.392157%,65.882353%,32.54902%);fill-opacity:1;" d="M 3.910156 14.339844 L 6.929688 14.339844 L 6.929688 11.890625 L 3.910156 11.890625 C 3.707031 11.890625 3.484375 11.847656 3.296875 11.746094 L 2.871094 11.863281 L 1.65625 13.085938 L 1.554688 13.515625 C 2.226562 14.046875 3.046875 14.339844 3.910156 14.339844 Z M 3.910156 14.339844 "/>
<path style=" stroke:none;fill-rule:nonzero;fill:rgb(98.431373%,73.72549%,1.960784%);fill-opacity:1;" d="M 3.910156 6.433594 C 1.726562 6.460938 -0.015625 8.234375 0.015625 10.402344 C 0.015625 11.625 0.585938 12.761719 1.554688 13.5 L 3.296875 11.746094 C 2.535156 11.390625 2.210938 10.503906 2.535156 9.738281 C 2.855469 8.96875 3.765625 8.644531 4.527344 8.96875 C 4.847656 9.117188 5.125 9.382812 5.289062 9.738281 L 7.03125 7.980469 C 6.296875 7.007812 5.140625 6.433594 3.910156 6.433594 Z M 3.910156 6.433594 "/>
<path style=" stroke:none;fill-rule:nonzero;fill:rgb(37.254902%,38.823529%,40.784314%);fill-opacity:1;" d="M 21.945312 12.644531 C 20.902344 12.660156 19.890625 12.230469 19.144531 11.480469 C 18.382812 10.753906 17.960938 9.738281 17.972656 8.691406 C 17.960938 7.644531 18.382812 6.625 19.144531 5.902344 C 19.890625 5.132812 20.890625 4.722656 21.945312 4.722656 C 22.953125 4.707031 23.921875 5.089844 24.640625 5.8125 L 23.878906 6.582031 C 23.363281 6.078125 22.660156 5.796875 21.945312 5.8125 C 21.183594 5.8125 20.464844 6.121094 19.953125 6.667969 C 19.425781 7.199219 19.132812 7.9375 19.132812 8.691406 C 19.132812 9.441406 19.425781 10.164062 19.953125 10.695312 C 21.035156 11.789062 22.808594 11.816406 23.921875 10.742188 C 24.242188 10.371094 24.449219 9.914062 24.492188 9.414062 L 21.945312 9.414062 L 21.945312 8.320312 L 25.53125 8.320312 C 25.578125 8.542969 25.578125 8.75 25.578125 8.984375 C 25.621094 9.914062 25.285156 10.828125 24.652344 11.507812 C 23.964844 12.277344 22.96875 12.660156 21.945312 12.644531 Z M 30.308594 11.921875 C 29.296875 12.894531 27.714844 12.894531 26.71875 11.921875 C 26.21875 11.449219 25.957031 10.785156 25.972656 10.105469 C 25.957031 9.429688 26.21875 8.765625 26.71875 8.292969 C 27.730469 7.316406 29.3125 7.316406 30.308594 8.292969 C 30.804688 8.765625 31.070312 9.429688 31.054688 10.105469 C 31.070312 10.785156 30.804688 11.433594 30.308594 11.921875 Z M 27.507812 11.199219 C 28.023438 11.757812 28.902344 11.773438 29.457031 11.257812 C 29.472656 11.242188 29.503906 11.214844 29.515625 11.199219 C 29.808594 10.902344 29.941406 10.519531 29.941406 10.105469 C 29.957031 9.695312 29.796875 9.296875 29.515625 9.015625 C 28.988281 8.453125 28.097656 8.4375 27.539062 8.96875 C 27.523438 8.984375 27.523438 8.984375 27.496094 9.015625 C 27.203125 9.308594 27.070312 9.722656 27.070312 10.105469 C 27.054688 10.503906 27.230469 10.902344 27.507812 11.199219 Z M 35.828125 11.921875 C 34.820312 12.894531 33.238281 12.894531 32.242188 11.921875 C 31.742188 11.449219 31.480469 10.785156 31.492188 10.105469 C 31.480469 9.429688 31.742188 8.765625 32.242188 8.292969 C 33.25 7.316406 34.835938 7.316406 35.828125 8.292969 C 36.328125 8.765625 36.59375 9.429688 36.578125 10.105469 C 36.578125 10.785156 36.328125 11.433594 35.828125 11.921875 Z M 33.046875 11.199219 C 33.558594 11.757812 34.4375 11.773438 34.996094 11.257812 C 35.007812 11.242188 35.039062 11.214844 35.054688 11.199219 C 35.347656 10.902344 35.476562 10.519531 35.476562 10.105469 C 35.492188 9.695312 35.332031 9.296875 35.054688 9.015625 C 34.527344 8.453125 33.632812 8.4375 33.078125 8.96875 C 33.0625 8.984375 33.0625 8.984375 33.03125 9.015625 C 32.738281 9.308594 32.609375 9.722656 32.609375 10.105469 C 32.59375 10.503906 32.753906 10.902344 33.046875 11.199219 Z M 39.449219 14.917969 C 38.9375 14.929688 38.4375 14.769531 38.027344 14.460938 C 37.660156 14.195312 37.382812 13.808594 37.207031 13.410156 L 38.171875 13 C 38.277344 13.25 38.4375 13.46875 38.640625 13.648438 C 38.863281 13.839844 39.15625 13.914062 39.449219 13.914062 C 39.8125 13.929688 40.179688 13.796875 40.429688 13.515625 C 40.679688 13.203125 40.824219 12.804688 40.78125 12.394531 L 40.78125 12.023438 L 40.738281 12.023438 C 40.414062 12.421875 39.917969 12.628906 39.402344 12.601562 C 38.757812 12.601562 38.160156 12.335938 37.703125 11.863281 C 37.234375 11.390625 36.957031 10.742188 36.988281 10.078125 C 36.972656 9.398438 37.234375 8.75 37.703125 8.277344 C 38.128906 7.804688 38.746094 7.523438 39.402344 7.523438 C 39.667969 7.523438 39.929688 7.582031 40.179688 7.6875 C 40.386719 7.777344 40.574219 7.90625 40.738281 8.101562 L 40.78125 8.101562 L 40.78125 7.6875 L 41.820312 7.6875 L 41.820312 12.246094 C 41.878906 12.96875 41.632812 13.691406 41.148438 14.238281 C 40.722656 14.695312 40.109375 14.945312 39.449219 14.917969 Z M 39.535156 11.625 C 39.902344 11.625 40.253906 11.480469 40.503906 11.199219 C 40.765625 10.886719 40.898438 10.519531 40.898438 10.105469 C 40.914062 9.695312 40.78125 9.296875 40.503906 8.984375 C 40.253906 8.71875 39.902344 8.558594 39.535156 8.558594 C 39.171875 8.558594 38.804688 8.703125 38.554688 8.984375 C 38.261719 9.28125 38.128906 9.695312 38.128906 10.078125 C 38.128906 10.488281 38.277344 10.886719 38.554688 11.167969 C 38.789062 11.480469 39.15625 11.65625 39.535156 11.625 Z M 43.726562 5 L 43.726562 12.46875 L 42.613281 12.46875 L 42.613281 5 Z M 46.757812 12.644531 C 46.082031 12.660156 45.4375 12.394531 44.96875 11.921875 C 44.5 11.449219 44.238281 10.785156 44.253906 10.121094 C 44.238281 9.441406 44.472656 8.777344 44.957031 8.304688 C 45.382812 7.835938 45.996094 7.582031 46.65625 7.597656 C 46.949219 7.597656 47.226562 7.65625 47.503906 7.761719 C 47.753906 7.863281 47.960938 8.011719 48.164062 8.1875 C 48.324219 8.351562 48.472656 8.511719 48.589844 8.703125 C 48.691406 8.867188 48.78125 9.03125 48.839844 9.207031 L 48.957031 9.5 L 45.570312 10.902344 C 45.777344 11.375 46.273438 11.683594 46.789062 11.671875 C 47.300781 11.671875 47.769531 11.40625 48.015625 10.960938 L 48.867188 11.539062 C 48.648438 11.847656 48.371094 12.113281 48.046875 12.320312 C 47.664062 12.511719 47.210938 12.644531 46.757812 12.644531 Z M 45.335938 10.019531 L 47.59375 9.058594 C 47.535156 8.898438 47.402344 8.75 47.242188 8.660156 C 47.050781 8.558594 46.875 8.511719 46.671875 8.511719 C 46.320312 8.511719 45.996094 8.660156 45.761719 8.925781 C 45.46875 9.222656 45.320312 9.621094 45.335938 10.019531 Z M 45.335938 10.019531 "/>
<path style=" stroke:none;fill-rule:nonzero;fill:rgb(37.254902%,38.823529%,40.784314%);fill-opacity:1;" d="M 54.726562 12.644531 C 52.792969 12.6875 51.210938 11.140625 51.167969 9.191406 C 51.167969 9.148438 51.167969 9.089844 51.167969 9.042969 C 51.125 7.097656 52.648438 5.488281 54.578125 5.445312 C 54.625 5.445312 54.683594 5.445312 54.726562 5.445312 C 55.695312 5.429688 56.617188 5.84375 57.230469 6.566406 L 56.617188 7.171875 C 56.164062 6.59375 55.445312 6.253906 54.726562 6.300781 C 54.023438 6.285156 53.335938 6.550781 52.835938 7.066406 C 52.324219 7.582031 52.03125 8.304688 52.074219 9.058594 C 52.0625 9.796875 52.324219 10.535156 52.835938 11.050781 C 53.335938 11.550781 54.007812 11.832031 54.726562 11.816406 C 55.546875 11.816406 56.324219 11.464844 56.835938 10.828125 L 57.453125 11.449219 C 57.128906 11.847656 56.734375 12.128906 56.28125 12.363281 C 55.796875 12.539062 55.269531 12.644531 54.726562 12.644531 Z M 54.726562 12.644531 "/>
<path style=" stroke:none;fill-rule:nonzero;fill:rgb(37.254902%,38.823529%,40.784314%);fill-opacity:1;" d="M 59.105469 12.480469 L 58.226562 12.480469 L 58.226562 5.59375 L 59.105469 5.59375 Z M 59.105469 12.480469 "/>
<path style=" stroke:none;fill-rule:nonzero;fill:rgb(37.254902%,38.823529%,40.784314%);fill-opacity:1;" d="M 60.542969 8.335938 C 61.507812 7.390625 63.046875 7.390625 64 8.335938 C 64.453125 8.808594 64.703125 9.472656 64.671875 10.136719 C 64.6875 10.800781 64.453125 11.433594 64 11.9375 C 63.03125 12.894531 61.492188 12.894531 60.542969 11.9375 C 60.085938 11.464844 59.839844 10.800781 59.867188 10.136719 C 59.851562 9.457031 60.074219 8.808594 60.542969 8.335938 Z M 61.1875 11.359375 C 61.742188 11.964844 62.679688 11.980469 63.28125 11.417969 C 63.296875 11.40625 63.324219 11.375 63.339844 11.359375 C 63.648438 11.035156 63.808594 10.578125 63.792969 10.121094 C 63.808594 9.664062 63.648438 9.207031 63.339844 8.882812 C 62.78125 8.277344 61.84375 8.261719 61.246094 8.824219 C 61.230469 8.835938 61.199219 8.867188 61.1875 8.882812 C 60.878906 9.207031 60.71875 9.664062 60.730469 10.121094 C 60.71875 10.578125 60.878906 11.035156 61.1875 11.359375 Z M 61.1875 11.359375 "/>
<path style=" stroke:none;fill-rule:nonzero;fill:rgb(37.254902%,38.823529%,40.784314%);fill-opacity:1;" d="M 69.550781 12.480469 L 68.6875 12.480469 L 68.6875 11.816406 L 68.671875 11.816406 C 68.523438 12.070312 68.304688 12.277344 68.054688 12.394531 C 67.792969 12.539062 67.5 12.613281 67.191406 12.613281 C 66.695312 12.660156 66.210938 12.453125 65.859375 12.082031 C 65.539062 11.671875 65.390625 11.152344 65.40625 10.636719 L 65.40625 7.730469 L 66.285156 7.730469 L 66.285156 10.476562 C 66.285156 11.359375 66.679688 11.804688 67.441406 11.804688 C 67.792969 11.816406 68.117188 11.65625 68.320312 11.375 C 68.539062 11.082031 68.671875 10.726562 68.671875 10.355469 L 68.671875 7.761719 L 69.550781 7.761719 Z M 69.550781 12.480469 "/>
<path style=" stroke:none;fill-rule:nonzero;fill:rgb(37.254902%,38.823529%,40.784314%);fill-opacity:1;" d="M 72.523438 12.644531 C 71.921875 12.644531 71.351562 12.378906 70.957031 11.921875 C 70.53125 11.417969 70.28125 10.785156 70.296875 10.136719 C 70.28125 9.472656 70.515625 8.835938 70.957031 8.351562 C 71.351562 7.894531 71.925781 7.628906 72.523438 7.628906 C 72.847656 7.628906 73.183594 7.714844 73.492188 7.847656 C 73.753906 7.96875 73.960938 8.171875 74.136719 8.425781 L 74.179688 8.425781 L 74.136719 7.761719 L 74.136719 5.605469 L 75.015625 5.605469 L 75.015625 12.496094 L 74.164062 12.496094 L 74.164062 11.832031 L 74.121094 11.832031 C 73.960938 12.082031 73.753906 12.289062 73.476562 12.40625 C 73.183594 12.554688 72.847656 12.644531 72.523438 12.644531 Z M 72.671875 11.832031 C 73.082031 11.832031 73.445312 11.671875 73.710938 11.375 C 74.019531 11.019531 74.164062 10.59375 74.136719 10.136719 C 74.148438 9.679688 74.019531 9.222656 73.710938 8.898438 C 73.183594 8.320312 72.273438 8.246094 71.675781 8.792969 C 71.632812 8.808594 71.617188 8.851562 71.574219 8.898438 C 71.265625 9.222656 71.117188 9.679688 71.148438 10.136719 C 71.132812 10.59375 71.265625 11.019531 71.574219 11.375 C 71.867188 11.671875 72.261719 11.832031 72.671875 11.832031 Z M 72.671875 11.832031 "/>
</g>
</svg>
