<?xml version="1.0" encoding="UTF-8"?>
<svg xmlns="http://www.w3.org/2000/svg" xmlns:xlink="http://www.w3.org/1999/xlink" width="75px" height="px" viewBox="0 0 75 75" version="1.1">
<g id="surface1">
<path style=" stroke:none;fill-rule:nonzero;fill:rgb(89.411765%,30.196078%,14.901961%);fill-opacity:1;" d="M 15.769531 68.980469 L 10.9375 14.730469 L 64.0625 14.730469 L 59.230469 68.960938 L 37.460938 75 Z M 15.769531 68.980469 "/>
<path style=" stroke:none;fill-rule:nonzero;fill:rgb(94.509804%,39.607843%,16.078431%);fill-opacity:1;" d="M 37.5 70.394531 L 55.085938 65.519531 L 59.230469 19.164062 L 37.5 19.164062 Z M 37.5 70.394531 "/>
<path style=" stroke:none;fill-rule:nonzero;fill:rgb(92.156863%,92.156863%,92.156863%);fill-opacity:1;" d="M 37.5 39.292969 L 28.6875 39.292969 L 28.085938 32.476562 L 37.5 32.476562 L 37.5 25.835938 L 20.8125 25.835938 L 20.980469 27.601562 L 22.605469 45.9375 L 37.5 45.9375 Z M 37.5 39.292969 "/>
<path style=" stroke:none;fill-rule:nonzero;fill:rgb(92.156863%,92.156863%,92.156863%);fill-opacity:1;" d="M 37.5 56.5625 L 37.480469 56.582031 L 30.0625 54.5625 L 29.585938 49.273438 L 22.914062 49.273438 L 23.832031 59.707031 L 37.480469 63.5 L 37.5 63.480469 Z M 37.5 56.5625 "/>
<path style=" stroke:none;fill-rule:nonzero;fill:rgb(0%,0%,0%);fill-opacity:1;" d="M 15.875 0 L 19.25 0 L 19.25 3.332031 L 22.332031 3.332031 L 22.332031 0 L 25.707031 0 L 25.707031 10.105469 L 22.332031 10.105469 L 22.332031 6.710938 L 19.25 6.710938 L 19.25 10.105469 L 15.875 10.105469 Z M 15.875 0 "/>
<path style=" stroke:none;fill-rule:nonzero;fill:rgb(0%,0%,0%);fill-opacity:1;" d="M 30.167969 3.355469 L 27.1875 3.355469 L 27.1875 0 L 36.523438 0 L 36.523438 3.355469 L 33.542969 3.355469 L 33.542969 10.105469 L 30.167969 10.105469 Z M 30.167969 3.355469 "/>
<path style=" stroke:none;fill-rule:nonzero;fill:rgb(0%,0%,0%);fill-opacity:1;" d="M 38.023438 0 L 41.542969 0 L 43.710938 3.5625 L 45.875 0 L 49.394531 0 L 49.394531 10.105469 L 46.042969 10.105469 L 46.042969 5.101562 L 43.707031 8.707031 L 43.644531 8.707031 L 41.3125 5.101562 L 41.3125 10.125 L 38 10.125 L 38 0 Z M 38.023438 0 "/>
<path style=" stroke:none;fill-rule:nonzero;fill:rgb(0%,0%,0%);fill-opacity:1;" d="M 51.082031 0 L 54.457031 0 L 54.457031 6.769531 L 59.210938 6.769531 L 59.210938 10.105469 L 51.082031 10.105469 Z M 51.082031 0 "/>
<path style=" stroke:none;fill-rule:nonzero;fill:rgb(100%,100%,100%);fill-opacity:1;" d="M 37.480469 39.292969 L 37.480469 45.9375 L 45.667969 45.9375 L 44.894531 54.5625 L 37.480469 56.5625 L 37.480469 63.5 L 51.105469 59.707031 L 51.207031 58.582031 L 52.769531 41.082031 L 52.9375 39.292969 Z M 37.480469 39.292969 "/>
<path style=" stroke:none;fill-rule:nonzero;fill:rgb(100%,100%,100%);fill-opacity:1;" d="M 37.480469 25.835938 L 37.480469 32.476562 L 53.542969 32.476562 L 53.6875 30.976562 L 53.980469 27.601562 L 54.148438 25.835938 Z M 37.480469 25.835938 "/>
</g>
</svg>
