<?xml version="1.0" encoding="UTF-8"?>
<svg xmlns="http://www.w3.org/2000/svg" xmlns:xlink="http://www.w3.org/1999/xlink" width="75px" height="px" viewBox="0 0 75 75" version="1.1">
<g id="surface1">
<rect x="0" y="0" width="75" height="75" style="fill:rgb(96.862745%,87.45098%,11.764706%);fill-opacity:1;stroke:none;"/>
<path style=" stroke:none;fill-rule:nonzero;fill:rgb(0%,0%,0%);fill-opacity:1;" d="M 19.726562 62.671875 L 25.460938 59.199219 C 26.566406 61.171875 27.574219 62.816406 29.980469 62.816406 C 32.300781 62.816406 33.761719 61.910156 33.761719 58.378906 L 33.761719 34.4375 L 40.808594 34.4375 L 40.808594 58.5 C 40.808594 65.796875 36.535156 69.125 30.289062 69.125 C 24.65625 69.125 21.390625 66.203125 19.726562 62.671875 "/>
<path style=" stroke:none;fill-rule:nonzero;fill:rgb(0%,0%,0%);fill-opacity:1;" d="M 44.652344 61.910156 L 50.382812 58.582031 C 51.90625 61.050781 53.859375 62.859375 57.328125 62.859375 C 60.246094 62.859375 62.117188 61.398438 62.117188 59.386719 C 62.117188 56.960938 60.203125 56.117188 56.980469 54.699219 L 55.210938 53.941406 C 50.136719 51.78125 46.746094 49.050781 46.746094 43.316406 C 46.746094 38.035156 50.773438 34.007812 57.0625 34.007812 C 61.542969 34.007812 64.769531 35.570312 67.089844 39.640625 L 61.605469 43.15625 C 60.390625 40.996094 59.097656 40.132812 57.082031 40.132812 C 55.027344 40.132812 53.714844 41.449219 53.714844 43.15625 C 53.714844 45.269531 55.03125 46.132812 58.050781 47.429688 L 59.816406 48.1875 C 65.816406 50.757812 69.1875 53.367188 69.1875 59.265625 C 69.1875 65.613281 64.191406 69.085938 57.515625 69.085938 C 50.9375 69.125 46.707031 66 44.652344 61.910156 "/>
</g>
</svg>
