<?xml version="1.0" encoding="UTF-8"?>
<svg xmlns="http://www.w3.org/2000/svg" xmlns:xlink="http://www.w3.org/1999/xlink" width="75px" height="px" viewBox="0 0 75 75" version="1.1">
<g id="surface1">
<path style=" stroke:none;fill-rule:nonzero;fill:rgb(32.54902%,50.980392%,63.137255%);fill-opacity:1;" d="M 27.65625 58.007812 C 27.65625 58.007812 24.785156 59.679688 29.691406 60.234375 C 35.640625 60.90625 38.671875 60.820312 45.21875 59.574219 C 45.21875 59.574219 46.949219 60.660156 49.351562 61.597656 C 34.671875 67.882812 16.128906 61.230469 27.65625 58.007812 "/>
<path style=" stroke:none;fill-rule:nonzero;fill:rgb(32.54902%,50.980392%,63.137255%);fill-opacity:1;" d="M 25.867188 49.789062 C 25.867188 49.789062 22.660156 52.164062 27.570312 52.675781 C 33.910156 53.335938 38.933594 53.378906 47.609375 51.707031 C 47.609375 51.707031 48.808594 52.925781 50.699219 53.582031 C 32.929688 58.785156 13.15625 54.007812 25.867188 49.789062 "/>
<path style=" stroke:none;fill-rule:nonzero;fill:rgb(90.588235%,43.529412%,0%);fill-opacity:1;" d="M 40.984375 35.859375 C 44.605469 40.019531 40.035156 43.769531 40.035156 43.769531 C 40.035156 43.769531 49.21875 39.023438 45 33.089844 C 41.058594 27.554688 38.042969 24.800781 54.390625 15.324219 C 54.40625 15.320312 28.726562 21.738281 40.984375 35.859375 "/>
<path style=" stroke:none;fill-rule:nonzero;fill:rgb(32.54902%,50.980392%,63.137255%);fill-opacity:1;" d="M 60.410156 64.070312 C 60.410156 64.070312 62.535156 65.816406 58.082031 67.179688 C 49.601562 69.742188 22.808594 70.515625 15.367188 67.28125 C 12.683594 66.125 17.710938 64.496094 19.292969 64.160156 C 20.933594 63.808594 21.882812 63.867188 21.882812 63.867188 C 18.910156 61.773438 2.652344 67.984375 13.621094 69.753906 C 43.535156 74.617188 68.171875 67.574219 60.410156 64.070312 "/>
<path style=" stroke:none;fill-rule:nonzero;fill:rgb(32.54902%,50.980392%,63.137255%);fill-opacity:1;" d="M 29.03125 41.28125 C 29.03125 41.28125 15.394531 44.515625 24.199219 45.6875 C 27.921875 46.1875 35.332031 46.070312 42.230469 45.5 C 47.871094 45.03125 53.539062 44.003906 53.539062 44.003906 C 53.539062 44.003906 51.546875 44.855469 50.113281 45.835938 C 36.269531 49.484375 9.535156 47.785156 17.226562 44.0625 C 23.746094 40.929688 29.03125 41.28125 29.03125 41.28125 "/>
<path style=" stroke:none;fill-rule:nonzero;fill:rgb(32.54902%,50.980392%,63.137255%);fill-opacity:1;" d="M 53.480469 54.945312 C 67.558594 47.636719 61.039062 40.605469 56.5 41.558594 C 55.386719 41.792969 54.886719 41.996094 54.886719 41.996094 C 54.886719 41.996094 55.296875 41.351562 56.089844 41.074219 C 65.070312 37.910156 71.984375 50.390625 53.1875 55.328125 C 53.203125 55.3125 53.421875 55.121094 53.480469 54.945312 "/>
<path style=" stroke:none;fill-rule:nonzero;fill:rgb(90.588235%,43.529412%,0%);fill-opacity:1;" d="M 45 0 C 45 0 52.792969 7.792969 37.601562 19.773438 C 25.429688 29.382812 34.820312 34.878906 37.601562 41.132812 C 30.5 34.71875 25.28125 29.078125 28.785156 23.820312 C 33.925781 16.128906 48.148438 12.378906 45 0 "/>
<path style=" stroke:none;fill-rule:nonzero;fill:rgb(32.54902%,50.980392%,63.137255%);fill-opacity:1;" d="M 30.425781 74.765625 C 43.929688 75.628906 64.671875 74.28125 65.15625 67.894531 C 65.15625 67.894531 64.21875 70.3125 53.992188 72.246094 C 42.464844 74.414062 28.242188 74.164062 19.820312 72.773438 C 19.820312 72.757812 21.546875 74.195312 30.425781 74.765625 "/>
</g>
</svg>
