<?xml version="1.0" encoding="UTF-8"?>
<svg xmlns="http://www.w3.org/2000/svg" xmlns:xlink="http://www.w3.org/1999/xlink" width="75px" height="px" viewBox="0 0 73 28" version="1.1">
<g id="surface1">
<path style=" stroke:none;fill-rule:nonzero;fill:rgb(55.686275%,44.313725%,30.588235%);fill-opacity:1;" d="M 68.039062 12.039062 C 67.980469 12.050781 67.894531 12.195312 67.894531 12.28125 C 67.882812 12.800781 67.882812 14.230469 67.882812 15.199219 C 67.882812 15.210938 67.925781 15.285156 67.96875 15.285156 C 68.167969 15.300781 68.652344 15.300781 69.050781 15.300781 C 69.605469 15.300781 69.949219 15.210938 70.132812 15.140625 C 70.617188 14.894531 70.832031 14.375 70.832031 13.796875 C 70.832031 12.5 69.933594 12.023438 68.609375 12.023438 C 68.496094 11.992188 68.238281 11.992188 68.039062 12.039062 Z M 71.429688 18.011719 C 71.429688 16.699219 70.476562 15.960938 68.738281 15.960938 C 68.652344 15.960938 68.09375 15.949219 67.980469 15.976562 C 67.9375 15.992188 67.882812 16.019531 67.882812 16.0625 C 67.882812 17.015625 67.867188 18.515625 67.894531 19.09375 C 67.910156 19.355469 68.109375 19.699219 68.335938 19.816406 C 68.582031 19.960938 69.121094 19.976562 69.476562 19.976562 C 70.535156 19.945312 71.429688 19.355469 71.429688 18.011719 Z M 65.359375 11.300781 C 65.5 11.300781 65.871094 11.34375 66.898438 11.34375 C 67.851562 11.34375 68.621094 11.328125 69.550781 11.328125 C 70.691406 11.328125 72.273438 11.734375 72.273438 13.480469 C 72.273438 14.332031 71.675781 15.023438 70.917969 15.34375 C 70.875 15.355469 70.875 15.386719 70.917969 15.398438 C 72.015625 15.6875 73 16.367188 73 17.695312 C 73 18.964844 72.203125 19.789062 71.0625 20.292969 C 70.363281 20.597656 69.507812 20.695312 68.59375 20.695312 C 67.910156 20.695312 66.113281 20.609375 65.117188 20.640625 C 65.015625 20.597656 65.214844 20.121094 65.300781 20.03125 C 65.542969 20.019531 65.726562 20.019531 65.984375 19.933594 C 66.339844 19.832031 66.382812 19.730469 66.425781 19.179688 C 66.441406 18.71875 66.441406 17.058594 66.441406 15.875 C 66.441406 14.261719 66.457031 13.164062 66.441406 12.644531 C 66.425781 12.238281 66.285156 12.09375 66 12.007812 C 65.785156 11.964844 65.402344 11.90625 65.101562 11.863281 C 65.058594 11.804688 65.273438 11.375 65.359375 11.300781 Z M 57.757812 19.601562 C 58.070312 19.859375 58.699219 19.960938 59.242188 19.960938 C 59.953125 19.960938 60.667969 19.816406 61.335938 19.195312 C 62.035156 18.546875 62.519531 17.578125 62.519531 15.992188 C 62.519531 14.492188 61.964844 13.265625 60.796875 12.527344 C 60.140625 12.125 59.296875 11.9375 58.3125 11.9375 C 58.03125 11.9375 57.757812 11.949219 57.574219 12.039062 C 57.53125 12.050781 57.429688 12.179688 57.429688 12.253906 C 57.417969 12.511719 57.417969 14.578125 57.417969 15.773438 C 57.417969 17.015625 57.417969 18.75 57.429688 18.949219 C 57.460938 19.167969 57.558594 19.46875 57.757812 19.601562 Z M 54.765625 11.300781 C 55.019531 11.300781 55.992188 11.34375 56.445312 11.34375 C 57.273438 11.34375 57.871094 11.300781 59.441406 11.300781 C 60.765625 11.300781 61.863281 11.660156 62.664062 12.324219 C 63.617188 13.164062 64.117188 14.332031 64.117188 15.746094 C 64.117188 17.753906 63.21875 18.921875 62.292969 19.585938 C 61.394531 20.277344 60.195312 20.652344 58.515625 20.652344 C 57.617188 20.652344 56.074219 20.640625 54.792969 20.609375 L 54.777344 20.609375 C 54.722656 20.496094 54.878906 20.019531 54.992188 20.003906 C 55.335938 19.960938 55.433594 19.945312 55.589844 19.886719 C 55.875 19.789062 55.90625 19.628906 55.949219 19.136719 C 55.992188 18.230469 55.960938 17.117188 55.960938 15.863281 C 55.960938 14.96875 55.976562 13.234375 55.949219 12.65625 C 55.90625 12.195312 55.707031 12.066406 55.304688 11.992188 C 55.105469 11.949219 54.851562 11.894531 54.480469 11.847656 C 54.464844 11.792969 54.691406 11.386719 54.765625 11.300781 Z M 54.765625 11.300781 "/>
<path style=" stroke:none;fill-rule:nonzero;fill:rgb(26.666667%,17.647059%,13.333333%);fill-opacity:1;" d="M 38.839844 20.105469 C 38.523438 20.0625 38.28125 20.003906 37.984375 19.886719 C 37.941406 19.875 37.882812 19.730469 37.882812 19.671875 C 37.867188 19.210938 37.867188 17.867188 37.867188 16.988281 C 37.867188 16.265625 37.753906 15.632812 37.441406 15.210938 C 37.085938 14.707031 36.585938 14.402344 35.914062 14.402344 C 35.332031 14.402344 34.5625 14.808594 33.917969 15.355469 C 33.90625 15.371094 33.804688 15.457031 33.820312 15.3125 C 33.820312 15.167969 33.832031 14.867188 33.863281 14.664062 C 33.875 14.476562 33.761719 14.375 33.761719 14.375 C 33.347656 14.589844 32.164062 14.867188 31.722656 14.894531 C 31.410156 14.953125 31.324219 15.253906 31.667969 15.386719 L 31.679688 15.386719 C 32.039062 15.488281 32.28125 15.601562 32.464844 15.730469 C 32.609375 15.832031 32.578125 15.992188 32.578125 16.09375 C 32.59375 17.089844 32.59375 18.617188 32.566406 19.46875 C 32.550781 19.789062 32.464844 19.917969 32.222656 19.976562 L 32.238281 19.960938 C 32.050781 20.003906 31.921875 20.046875 31.679688 20.0625 C 31.59375 20.148438 31.59375 20.566406 31.679688 20.667969 C 31.824219 20.667969 32.578125 20.625 33.21875 20.625 C 34.078125 20.625 34.546875 20.667969 34.761719 20.667969 C 34.859375 20.566406 34.875 20.164062 34.816406 20.0625 C 34.5625 20.046875 34.375 20.019531 34.21875 19.960938 C 33.976562 19.902344 33.917969 19.773438 33.90625 19.511719 C 33.890625 18.804688 33.890625 17.304688 33.890625 16.292969 C 33.890625 16.007812 33.976562 15.890625 34.046875 15.804688 C 34.347656 15.542969 34.847656 15.355469 35.273438 15.355469 C 35.703125 15.355469 35.972656 15.5 36.171875 15.660156 C 36.457031 15.90625 36.558594 16.25 36.601562 16.496094 C 36.65625 17.058594 36.644531 18.199219 36.644531 19.179688 C 36.644531 19.699219 36.601562 19.84375 36.398438 19.902344 C 36.300781 19.945312 36.085938 20.003906 35.800781 20.019531 C 35.703125 20.121094 35.746094 20.523438 35.800781 20.625 C 36.1875 20.625 36.613281 20.582031 37.285156 20.582031 C 38.109375 20.582031 38.625 20.625 38.839844 20.625 C 38.867188 20.609375 38.882812 20.207031 38.839844 20.105469 Z M 42.488281 15.023438 C 41.789062 15.023438 41.347656 15.574219 41.347656 16.425781 C 41.347656 17.289062 41.734375 18.285156 42.800781 18.285156 C 42.988281 18.285156 43.316406 18.199219 43.484375 18.027344 C 43.742188 17.78125 43.914062 17.304688 43.914062 16.785156 C 43.914062 15.703125 43.386719 15.023438 42.488281 15.023438 Z M 42.386719 20.929688 C 42.132812 20.929688 41.945312 21.015625 41.832031 21.070312 C 41.277344 21.433594 41.035156 21.78125 41.035156 22.183594 C 41.035156 22.574219 41.175781 22.875 41.492188 23.136719 C 41.875 23.453125 42.386719 23.625 43.074219 23.625 C 44.414062 23.625 45.011719 22.90625 45.011719 22.167969 C 45.011719 21.664062 44.753906 21.332031 44.257812 21.144531 C 43.855469 21 43.203125 20.929688 42.386719 20.929688 Z M 42.488281 24.378906 C 41.691406 24.378906 41.105469 24.191406 40.605469 23.8125 C 40.121094 23.453125 39.90625 22.875 39.90625 22.5 C 39.90625 22.398438 39.921875 22.097656 40.164062 21.835938 C 40.308594 21.679688 40.621094 21.375 41.390625 20.839844 C 41.40625 20.828125 41.433594 20.828125 41.433594 20.785156 C 41.433594 20.738281 41.417969 20.726562 41.375 20.726562 C 40.75 20.480469 40.578125 20.089844 40.519531 19.886719 L 40.519531 19.875 C 40.507812 19.789062 40.476562 19.714844 40.605469 19.628906 C 40.707031 19.570312 40.820312 19.484375 40.960938 19.382812 C 41.175781 19.238281 41.417969 19.09375 41.5625 18.980469 C 41.574219 18.964844 41.574219 18.921875 41.574219 18.894531 C 41.574219 18.863281 41.5625 18.835938 41.519531 18.835938 C 40.59375 18.53125 40.136719 17.839844 40.136719 16.785156 C 40.136719 16.09375 40.433594 15.488281 40.976562 15.113281 C 41.332031 14.824219 42.273438 14.460938 42.875 14.460938 L 42.917969 14.460938 C 43.542969 14.476562 43.871094 14.605469 44.355469 14.78125 C 44.613281 14.878906 44.871094 14.921875 45.210938 14.921875 C 45.726562 14.921875 45.953125 14.765625 46.136719 14.578125 C 46.152344 14.589844 46.179688 14.679688 46.195312 14.835938 C 46.210938 15.023438 46.152344 15.269531 46.011719 15.441406 C 45.910156 15.585938 45.667969 15.703125 45.425781 15.703125 L 45.367188 15.703125 C 45.125 15.6875 45.027344 15.644531 45.027344 15.644531 L 44.96875 15.660156 C 44.953125 15.675781 44.96875 15.71875 44.984375 15.761719 L 44.996094 15.773438 C 45.011719 15.890625 45.082031 16.265625 45.082031 16.339844 C 45.082031 17.433594 44.640625 17.910156 44.183594 18.257812 C 43.742188 18.574219 43.230469 18.804688 42.644531 18.863281 C 42.632812 18.863281 42.589844 18.863281 42.460938 18.878906 C 42.402344 18.878906 42.304688 18.894531 42.273438 18.894531 L 42.289062 18.894531 C 42.1875 18.90625 41.933594 19.050781 41.933594 19.28125 C 41.933594 19.484375 42.046875 19.730469 42.617188 19.773438 C 42.730469 19.789062 42.859375 19.789062 42.972656 19.789062 C 43.730469 19.84375 44.65625 19.902344 45.097656 20.046875 C 45.695312 20.265625 46.082031 20.8125 46.082031 21.460938 C 46.082031 22.457031 45.382812 23.367188 44.226562 23.929688 C 43.65625 24.246094 43.101562 24.378906 42.488281 24.378906 Z M 49.972656 15.097656 C 49.6875 15.097656 49.460938 15.15625 49.261719 15.300781 C 48.746094 15.617188 48.476562 16.25 48.476562 17.203125 C 48.476562 18.949219 49.332031 20.175781 50.574219 20.175781 C 50.929688 20.175781 51.226562 20.078125 51.46875 19.859375 C 51.855469 19.542969 52.054688 18.90625 52.054688 17.996094 C 52.097656 16.238281 51.242188 15.097656 49.972656 15.097656 Z M 50.214844 20.796875 C 47.976562 20.796875 47.179688 19.136719 47.179688 17.578125 C 47.179688 16.484375 47.621094 15.632812 48.476562 15.054688 C 49.105469 14.664062 49.832031 14.449219 50.5 14.449219 C 52.226562 14.449219 53.425781 15.6875 53.425781 17.476562 C 53.425781 18.691406 52.9375 19.644531 52.039062 20.234375 C 51.597656 20.507812 50.84375 20.796875 50.214844 20.796875 Z M 26.761719 15.097656 C 26.476562 15.097656 26.25 15.15625 26.035156 15.300781 C 25.523438 15.617188 25.25 16.25 25.25 17.203125 C 25.25 18.949219 26.105469 20.175781 27.347656 20.175781 C 27.703125 20.175781 28.003906 20.078125 28.246094 19.859375 C 28.628906 19.542969 28.828125 18.90625 28.828125 17.996094 C 28.859375 16.238281 28.015625 15.097656 26.761719 15.097656 Z M 26.988281 20.796875 C 24.75 20.796875 23.953125 19.136719 23.953125 17.578125 C 23.953125 16.484375 24.394531 15.632812 25.25 15.054688 C 25.878906 14.664062 26.605469 14.449219 27.273438 14.449219 C 29 14.449219 30.199219 15.6875 30.199219 17.476562 C 30.199219 18.691406 29.714844 19.644531 28.816406 20.234375 C 28.386719 20.507812 27.617188 20.796875 26.988281 20.796875 Z M 11.949219 20.652344 C 11.933594 20.609375 11.890625 20.496094 11.90625 20.351562 C 11.90625 20.25 11.917969 20.164062 11.949219 20.148438 C 12.234375 20.105469 12.363281 20.0625 12.53125 20.03125 C 12.789062 19.976562 12.890625 19.816406 12.917969 19.484375 C 12.960938 18.675781 12.960938 17.160156 12.933594 16.105469 L 12.933594 16.09375 C 12.933594 15.976562 12.933594 15.832031 12.789062 15.730469 C 12.574219 15.585938 12.332031 15.472656 11.992188 15.386719 C 11.875 15.34375 11.792969 15.285156 11.804688 15.199219 C 11.804688 15.113281 11.890625 15.011719 12.0625 14.996094 C 12.503906 14.953125 13.617188 14.679688 14.085938 14.476562 C 14.101562 14.492188 14.144531 14.578125 14.144531 14.691406 L 14.128906 14.835938 C 14.117188 14.980469 14.117188 15.15625 14.117188 15.328125 C 14.117188 15.386719 14.171875 15.429688 14.214844 15.429688 C 14.230469 15.429688 14.273438 15.414062 14.300781 15.414062 C 15.140625 14.75 15.898438 14.503906 16.296875 14.503906 C 16.9375 14.503906 17.4375 14.808594 17.824219 15.457031 C 17.835938 15.5 17.878906 15.515625 17.921875 15.515625 C 17.9375 15.515625 17.980469 15.5 18.007812 15.472656 C 18.792969 14.867188 19.5625 14.519531 20.0625 14.519531 C 21.285156 14.519531 22 15.429688 22 17.015625 C 22 17.464844 22 18.027344 21.984375 18.5625 C 21.984375 19.023438 21.972656 19.457031 21.972656 19.757812 C 21.972656 19.816406 22.070312 20.046875 22.214844 20.078125 C 22.398438 20.175781 22.65625 20.21875 22.96875 20.265625 L 22.984375 20.265625 C 22.996094 20.363281 22.96875 20.710938 22.898438 20.769531 C 22.8125 20.769531 22.699219 20.769531 22.585938 20.753906 C 22.328125 20.738281 21.984375 20.738281 21.585938 20.738281 C 20.757812 20.738281 20.347656 20.753906 19.945312 20.785156 C 19.933594 20.683594 19.902344 20.351562 19.945312 20.277344 C 20.1875 20.234375 20.304688 20.191406 20.445312 20.164062 C 20.703125 20.078125 20.757812 19.960938 20.789062 19.613281 C 20.789062 19.355469 20.84375 17.203125 20.773438 16.683594 C 20.703125 16.164062 20.289062 15.53125 19.433594 15.53125 C 19.121094 15.53125 18.59375 15.675781 18.09375 16.050781 C 18.078125 16.0625 18.035156 16.152344 18.035156 16.195312 L 18.035156 16.207031 C 18.09375 16.496094 18.09375 16.8125 18.09375 17.304688 L 18.09375 18.171875 C 18.09375 18.777344 18.078125 19.324219 18.09375 19.746094 C 18.09375 20.03125 18.277344 20.105469 18.40625 20.148438 C 18.492188 20.164062 18.550781 20.164062 18.605469 20.191406 C 18.71875 20.207031 18.847656 20.25 19.019531 20.292969 C 19.035156 20.351562 19.035156 20.507812 19.003906 20.652344 C 18.992188 20.738281 18.964844 20.769531 18.949219 20.796875 C 18.507812 20.785156 18.050781 20.785156 17.367188 20.785156 C 17.167969 20.785156 16.824219 20.796875 16.539062 20.796875 C 16.296875 20.796875 16.082031 20.8125 15.941406 20.8125 C 15.925781 20.796875 15.898438 20.695312 15.898438 20.550781 C 15.898438 20.4375 15.910156 20.335938 15.953125 20.308594 C 16.011719 20.292969 16.070312 20.292969 16.140625 20.292969 C 16.296875 20.277344 16.425781 20.234375 16.554688 20.207031 C 16.765625 20.148438 16.851562 20.019531 16.867188 19.714844 C 16.910156 19.050781 16.953125 17.144531 16.851562 16.65625 C 16.695312 15.890625 16.253906 15.5 15.554688 15.5 C 15.15625 15.5 14.644531 15.703125 14.214844 16.019531 C 14.15625 16.078125 14.101562 16.207031 14.101562 16.324219 L 14.101562 17.117188 C 14.101562 18.070312 14.101562 19.28125 14.117188 19.789062 C 14.128906 19.945312 14.171875 20.132812 14.472656 20.191406 C 14.527344 20.207031 14.65625 20.234375 14.769531 20.25 L 15.011719 20.292969 C 15.027344 20.378906 15.027344 20.695312 14.972656 20.796875 C 14.828125 20.796875 14.6875 20.785156 14.484375 20.785156 C 14.199219 20.769531 13.84375 20.769531 13.460938 20.769531 C 13.003906 20.769531 12.660156 20.785156 12.40625 20.785156 C 12.246094 20.652344 12.105469 20.652344 11.949219 20.652344 Z M 11.949219 20.652344 "/>
<path style=" stroke:none;fill-rule:nonzero;fill:rgb(100%,100%,100%);fill-opacity:1;" d="M 5.003906 23.859375 L 4.460938 23.671875 C 4.460938 23.671875 4.519531 20.871094 3.535156 20.667969 C 2.878906 19.902344 3.636719 -12.125 6.015625 20.566406 C 6.015625 20.566406 5.191406 20.972656 5.0625 21.679688 C 4.90625 22.398438 5.003906 23.859375 5.003906 23.859375 Z M 5.003906 23.859375 "/>
<path style=" stroke:none;fill-rule:nonzero;fill:rgb(65.098039%,63.921569%,52.156863%);fill-opacity:1;" d="M 5.003906 23.859375 L 4.460938 23.671875 C 4.460938 23.671875 4.519531 20.871094 3.535156 20.667969 C 2.878906 19.902344 3.636719 -12.125 6.015625 20.566406 C 6.015625 20.566406 5.191406 20.972656 5.0625 21.679688 C 4.90625 22.398438 5.003906 23.859375 5.003906 23.859375 Z M 5.003906 23.859375 "/>
<path style=" stroke:none;fill-rule:nonzero;fill:rgb(100%,100%,100%);fill-opacity:1;" d="M 5.304688 21.160156 C 5.304688 21.160156 10.023438 18.027344 8.925781 11.460938 C 7.871094 6.695312 5.347656 5.136719 5.0625 4.53125 C 4.761719 4.113281 4.460938 3.363281 4.460938 3.363281 L 4.664062 16.597656 C 4.664062 16.625 4.261719 20.683594 5.304688 21.160156 "/>
<path style=" stroke:none;fill-rule:nonzero;fill:rgb(28.627451%,61.568627%,29.019608%);fill-opacity:1;" d="M 5.304688 21.160156 C 5.304688 21.160156 10.023438 18.027344 8.925781 11.460938 C 7.871094 6.695312 5.347656 5.136719 5.0625 4.53125 C 4.761719 4.113281 4.460938 3.363281 4.460938 3.363281 L 4.664062 16.597656 C 4.664062 16.625 4.261719 20.683594 5.304688 21.160156 "/>
<path style=" stroke:none;fill-rule:nonzero;fill:rgb(100%,100%,100%);fill-opacity:1;" d="M 4.191406 21.347656 C 4.191406 21.347656 -0.242188 18.285156 0.015625 12.886719 C 0.269531 7.492188 3.394531 4.835938 4.007812 4.34375 C 4.40625 3.925781 4.40625 3.753906 4.449219 3.335938 C 4.734375 3.941406 4.664062 12.296875 4.703125 13.292969 C 4.820312 17.089844 4.492188 20.609375 4.191406 21.347656 Z M 4.191406 21.347656 "/>
<path style=" stroke:none;fill-rule:nonzero;fill:rgb(34.509804%,66.666667%,31.372549%);fill-opacity:1;" d="M 4.191406 21.347656 C 4.191406 21.347656 -0.242188 18.285156 0.015625 12.886719 C 0.269531 7.492188 3.394531 4.835938 4.007812 4.34375 C 4.40625 3.925781 4.40625 3.753906 4.449219 3.335938 C 4.734375 3.941406 4.664062 12.296875 4.703125 13.292969 C 4.820312 17.089844 4.492188 20.609375 4.191406 21.347656 Z M 4.191406 21.347656 "/>
</g>
</svg>
