<?xml version="1.0" encoding="UTF-8"?>
<svg xmlns="http://www.w3.org/2000/svg" xmlns:xlink="http://www.w3.org/1999/xlink" width="75px" height="px" viewBox="0 0 75 58" version="1.1">
<g id="surface1">
<path style=" stroke:none;fill-rule:nonzero;fill:rgb(41.568627%,49.411765%,56.862745%);fill-opacity:1;" d="M 18.046875 49.890625 L 15.148438 49.890625 C 15.042969 44.972656 14.75 40.363281 14.296875 36.035156 L 14.28125 36.035156 L 9.886719 49.890625 L 7.691406 49.890625 L 3.3125 36.035156 L 3.296875 36.035156 C 2.972656 40.1875 2.769531 44.808594 2.679688 49.890625 L 0 49.890625 C 0.160156 43.722656 0.601562 37.90625 1.273438 32.519531 L 4.863281 32.519531 L 9.039062 45.28125 L 9.054688 45.28125 L 13.242188 32.519531 L 16.671875 32.519531 C 17.445312 38.847656 17.898438 44.648438 18.046875 49.890625 "/>
<path style=" stroke:none;fill-rule:nonzero;fill:rgb(41.568627%,49.411765%,56.862745%);fill-opacity:1;" d="M 30.570312 37.066406 C 29.398438 43.484375 27.832031 48.152344 25.914062 51.066406 C 24.417969 53.320312 22.761719 54.4375 20.960938 54.4375 C 20.492188 54.4375 19.890625 54.289062 19.1875 53.996094 L 19.1875 52.449219 C 19.539062 52.496094 19.9375 52.539062 20.40625 52.539062 C 21.253906 52.539062 21.929688 52.316406 22.425781 51.832031 C 23.042969 51.273438 23.351562 50.640625 23.351562 49.933594 C 23.351562 49.460938 23.101562 48.460938 22.632812 46.972656 L 19.453125 37.066406 L 22.296875 37.066406 L 24.578125 44.484375 C 25.09375 46.179688 25.296875 47.34375 25.226562 48.019531 C 26.484375 44.675781 27.335938 41.027344 27.832031 37.066406 Z M 30.570312 37.066406 "/>
<path style=" stroke:none;fill-rule:nonzero;fill:rgb(98.039216%,54.117647%,23.137255%);fill-opacity:1;" d="M 69.097656 49.890625 L 60.878906 49.890625 L 60.878906 32.503906 L 63.664062 32.503906 L 63.664062 47.738281 L 69.097656 47.738281 Z M 69.097656 49.890625 "/>
<path style=" stroke:none;fill-rule:evenodd;fill:rgb(98.039216%,54.117647%,23.137255%);fill-opacity:1;" d="M 58.726562 50.300781 L 55.546875 48.726562 C 55.839844 48.503906 56.101562 48.253906 56.351562 47.945312 C 57.714844 46.355469 58.386719 44 58.386719 40.863281 C 58.386719 35.125 56.148438 32.238281 51.648438 32.238281 C 49.453125 32.238281 47.722656 32.960938 46.492188 34.433594 C 45.132812 36.023438 44.472656 38.378906 44.472656 41.496094 C 44.472656 44.558594 45.074219 46.78125 46.257812 48.210938 C 47.34375 49.492188 49 50.125 51.210938 50.125 C 52.03125 50.125 52.792969 50.019531 53.464844 49.816406 L 57.597656 52.230469 Z M 48.429688 46.398438 C 47.726562 45.265625 47.386719 43.441406 47.386719 40.953125 C 47.386719 36.582031 48.707031 34.386719 51.359375 34.386719 C 52.734375 34.386719 53.757812 34.902344 54.40625 35.964844 C 55.109375 37.097656 55.445312 38.890625 55.445312 41.378906 C 55.445312 45.796875 54.125 47.988281 51.476562 47.988281 C 50.097656 47.988281 49.085938 47.460938 48.429688 46.398438 "/>
<path style=" stroke:none;fill-rule:nonzero;fill:rgb(98.039216%,54.117647%,23.137255%);fill-opacity:1;" d="M 43.257812 45.074219 C 43.257812 46.546875 42.730469 47.753906 41.660156 48.710938 C 40.589844 49.667969 39.125 50.140625 37.324219 50.140625 C 35.640625 50.140625 34 49.609375 32.417969 48.503906 L 33.164062 47.019531 C 34.527344 47.695312 35.773438 48.046875 36.886719 48.046875 C 37.925781 48.046875 38.730469 47.828125 39.332031 47.34375 C 39.933594 46.886719 40.285156 46.222656 40.285156 45.429688 C 40.285156 44.398438 39.566406 43.515625 38.246094 42.777344 C 37.03125 42.117188 34.613281 40.71875 34.613281 40.71875 C 33.296875 39.746094 32.636719 38.714844 32.636719 37.023438 C 32.636719 35.625 33.136719 34.476562 34.117188 33.621094 C 35.097656 32.769531 36.371094 32.328125 37.910156 32.328125 C 39.507812 32.328125 40.972656 32.769531 42.289062 33.609375 L 41.617188 35.09375 C 40.488281 34.625 39.375 34.375 38.292969 34.375 C 37.414062 34.375 36.722656 34.578125 36.242188 35.019531 C 35.773438 35.460938 35.464844 35.992188 35.464844 36.667969 C 35.464844 37.699219 36.210938 38.582031 37.542969 39.347656 C 38.773438 40.011719 41.265625 41.4375 41.265625 41.4375 C 42.597656 42.351562 43.257812 43.382812 43.257812 45.074219 "/>
<path style=" stroke:none;fill-rule:evenodd;fill:rgb(41.568627%,49.411765%,56.862745%);fill-opacity:1;" d="M 72.582031 26.703125 C 70.914062 26.660156 69.625 26.820312 68.539062 27.277344 C 68.234375 27.394531 67.71875 27.394531 67.675781 27.792969 C 67.835938 27.953125 67.867188 28.21875 68 28.46875 C 68.246094 28.882812 68.671875 29.457031 69.082031 29.75 C 69.523438 30.074219 69.960938 30.414062 70.414062 30.722656 C 71.234375 31.238281 72.144531 31.53125 72.949219 32.019531 C 73.402344 32.3125 73.871094 32.679688 74.328125 33.003906 C 74.546875 33.164062 74.691406 33.445312 74.984375 33.535156 L 74.984375 33.476562 C 74.839844 33.285156 74.796875 33.019531 74.664062 32.796875 C 74.457031 32.59375 74.253906 32.402344 74.019531 32.195312 C 73.402344 31.371094 72.65625 30.664062 71.835938 30.058594 C 71.164062 29.605469 69.695312 28.96875 69.433594 28.203125 L 69.390625 28.160156 C 69.84375 28.117188 70.398438 27.953125 70.824219 27.835938 C 71.542969 27.644531 72.1875 27.691406 72.921875 27.511719 C 73.242188 27.425781 73.59375 27.320312 73.929688 27.21875 L 73.929688 27.027344 C 73.5625 26.660156 73.273438 26.144531 72.890625 25.789062 C 71.820312 24.863281 70.648438 23.980469 69.433594 23.214844 C 68.773438 22.800781 67.953125 22.539062 67.25 22.167969 C 67 22.050781 66.59375 21.976562 66.429688 21.773438 C 66.0625 21.316406 65.828125 20.699219 65.566406 20.167969 C 64.964844 19.003906 64.378906 17.722656 63.867188 16.515625 C 63.5 15.691406 63.265625 14.882812 62.796875 14.117188 C 60.644531 10.554688 58.300781 8.390625 54.726562 6.285156 C 53.949219 5.859375 53.042969 5.652344 52.0625 5.417969 C 51.546875 5.402344 51.019531 5.359375 50.492188 5.328125 C 50.171875 5.183594 49.820312 4.785156 49.527344 4.578125 C 48.339844 3.8125 45.277344 2.179688 44.382812 4.355469 C 43.828125 5.726562 45.234375 7.066406 45.703125 7.773438 C 46.054688 8.242188 46.523438 8.804688 46.773438 9.347656 C 46.917969 9.699219 46.960938 10.097656 47.09375 10.464844 C 47.417969 11.394531 47.738281 12.425781 48.179688 13.277344 C 48.398438 13.703125 48.648438 14.191406 48.953125 14.574219 C 49.117188 14.792969 49.410156 14.898438 49.46875 15.296875 C 49.175781 15.707031 49.160156 16.339844 49 16.871094 C 48.238281 19.238281 48.546875 22.183594 49.613281 23.9375 C 49.9375 24.453125 50.742188 25.613281 51.8125 25.171875 C 52.765625 24.804688 52.542969 23.597656 52.820312 22.550781 C 52.878906 22.300781 52.835938 22.140625 52.96875 21.976562 L 52.96875 22.023438 C 53.261719 22.597656 53.539062 23.183594 53.832031 23.757812 C 54.492188 24.789062 55.605469 25.863281 56.542969 26.570312 C 57.039062 26.9375 57.449219 27.601562 58.066406 27.835938 L 58.066406 27.777344 L 58.023438 27.777344 C 57.90625 27.585938 57.714844 27.511719 57.554688 27.367188 C 57.1875 26.996094 56.746094 26.511719 56.46875 26.101562 C 55.589844 24.921875 54.828125 23.625 54.125 22.289062 C 53.804688 21.625 53.480469 20.917969 53.21875 20.253906 C 53.101562 20.003906 53.101562 19.636719 52.894531 19.492188 C 52.585938 19.945312 52.117188 20.359375 51.882812 20.917969 C 51.488281 21.832031 51.445312 22.949219 51.285156 24.097656 C 51.195312 24.113281 51.238281 24.097656 51.195312 24.140625 C 50.535156 23.980469 50.289062 23.273438 50.039062 22.699219 C 49.421875 21.210938 49.304688 18.8125 49.847656 17.089844 C 49.996094 16.664062 50.625 15.28125 50.359375 14.839844 C 50.242188 14.441406 49.832031 14.21875 49.585938 13.894531 C 49.320312 13.5 49.011719 12.984375 48.824219 12.558594 C 48.324219 11.378906 48.0625 10.082031 47.535156 8.90625 C 47.285156 8.363281 46.832031 7.789062 46.492188 7.300781 C 46.097656 6.742188 45.644531 6.328125 45.335938 5.667969 C 45.234375 5.445312 45.085938 5.050781 45.25 4.800781 C 45.292969 4.636719 45.367188 4.578125 45.542969 4.535156 C 45.804688 4.3125 46.582031 4.59375 46.859375 4.726562 C 47.636719 5.035156 48.28125 5.34375 48.941406 5.785156 C 49.234375 5.992188 49.554688 6.390625 49.921875 6.507812 L 50.359375 6.507812 C 51.035156 6.652344 51.78125 6.550781 52.410156 6.726562 C 53.523438 7.082031 54.535156 7.609375 55.414062 8.171875 C 58.152344 9.90625 60.410156 12.378906 61.933594 15.355469 C 62.183594 15.824219 62.285156 16.28125 62.535156 16.78125 C 62.972656 17.8125 63.515625 18.871094 63.953125 19.875 C 64.394531 20.859375 64.820312 21.875 65.433594 22.683594 C 65.742188 23.113281 67 23.347656 67.574219 23.597656 C 67.984375 23.789062 68.640625 23.949219 69.007812 24.171875 C 69.726562 24.597656 70.429688 25.113281 71.101562 25.597656 C 71.46875 25.746094 72.507812 26.261719 72.582031 26.703125 "/>
<path style=" stroke:none;fill-rule:evenodd;fill:rgb(41.568627%,49.411765%,56.862745%);fill-opacity:1;" d="M 51.269531 8.449219 C 50.917969 8.449219 50.667969 8.492188 50.40625 8.554688 L 50.40625 8.597656 L 50.449219 8.597656 C 50.609375 8.921875 50.902344 9.15625 51.125 9.464844 C 51.285156 9.789062 51.429688 10.128906 51.59375 10.480469 L 51.636719 10.4375 C 51.929688 10.230469 52.074219 9.890625 52.074219 9.378906 C 51.957031 9.230469 51.929688 9.082031 51.828125 8.949219 C 51.695312 8.714844 51.429688 8.613281 51.269531 8.449219 "/>
<path style=" stroke:none;fill-rule:nonzero;fill:rgb(98.039216%,54.117647%,23.137255%);fill-opacity:1;" d="M 74.5625 49.890625 L 75 49.890625 L 75 47.753906 L 74.339844 47.753906 L 73.8125 49.195312 L 73.242188 47.753906 L 72.625 47.753906 L 72.625 49.890625 L 73.039062 49.890625 L 73.039062 48.253906 L 73.050781 48.253906 L 73.652344 49.859375 L 73.960938 49.859375 L 74.5625 48.253906 Z M 71.074219 49.890625 L 71.527344 49.890625 L 71.527344 48.109375 L 72.128906 48.109375 L 72.128906 47.738281 L 70.445312 47.738281 L 70.445312 48.109375 L 71.058594 48.109375 L 71.058594 49.890625 Z M 71.074219 49.890625 "/>
</g>
</svg>
