<?xml version="1.0" encoding="UTF-8"?>
<svg xmlns="http://www.w3.org/2000/svg" xmlns:xlink="http://www.w3.org/1999/xlink" width="75px" height="px" viewBox="0 0 75 39" version="1.1">
<defs>
<clipPath id="clip1">
  <path d="M 0.238281 19.492188 C 0.238281 30.261719 16.925781 39.046875 37.5 39.046875 C 58.074219 39.046875 74.761719 30.308594 74.761719 19.542969 C 74.761719 8.773438 58.074219 0 37.5 0 C 16.925781 0 0.238281 8.738281 0.238281 19.492188 "/>
</clipPath>
<radialGradient id="radial0" gradientUnits="userSpaceOnUse" cx="-266.5" cy="409.2" fx="-266.5" fy="409.2" r="1" gradientTransform="matrix(48.93081,0,0,-48.676603,13062.923442,19923.339657)">
<stop offset="0" style="stop-color:rgb(68.235294%,69.803922%,83.529412%);stop-opacity:1;"/>
<stop offset="0.3" style="stop-color:rgb(68.235294%,69.803922%,83.529412%);stop-opacity:1;"/>
<stop offset="0.75" style="stop-color:rgb(28.235294%,29.803922%,53.72549%);stop-opacity:1;"/>
<stop offset="1" style="stop-color:rgb(28.235294%,29.803922%,53.72549%);stop-opacity:1;"/>
</radialGradient>
</defs>
<g id="surface1">
<g clip-path="url(#clip1)" clip-rule="nonzero">
<path style=" stroke:none;fill-rule:nonzero;fill:url(#radial0);" d="M 0.238281 19.492188 C 0.238281 30.261719 16.925781 39.046875 37.5 39.046875 C 58.074219 39.046875 74.761719 30.308594 74.761719 19.542969 C 74.761719 8.773438 58.074219 0 37.5 0 C 16.925781 0 0.238281 8.738281 0.238281 19.492188 "/>
</g>
<path style=" stroke:none;fill-rule:nonzero;fill:rgb(46.666667%,48.235294%,70.196078%);fill-opacity:1;" d="M 37.5 37.542969 C 57.296875 37.542969 73.308594 29.464844 73.308594 19.492188 C 73.308594 9.523438 57.296875 1.46875 37.5 1.46875 C 17.703125 1.46875 1.691406 9.535156 1.691406 19.492188 C 1.691406 29.453125 17.703125 37.542969 37.5 37.542969 "/>
<path style=" stroke:none;fill-rule:nonzero;fill:rgb(0%,0%,0%);fill-opacity:1;" d="M 20.488281 21.738281 C 21.75 21.832031 23.007812 21.523438 24.085938 20.855469 C 24.945312 20.101562 25.5 19.050781 25.644531 17.910156 C 25.964844 17.003906 25.859375 16 25.355469 15.183594 C 24.5 14.53125 23.425781 14.246094 22.363281 14.386719 L 19.8125 14.386719 L 18.367188 21.761719 Z M 11.988281 30.828125 C 11.867188 30.832031 11.75 30.78125 11.671875 30.6875 C 11.59375 30.59375 11.566406 30.472656 11.589844 30.355469 L 15.375 10.863281 C 15.417969 10.671875 15.585938 10.535156 15.78125 10.535156 L 24.003906 10.535156 C 26.589844 10.535156 28.523438 11.226562 29.722656 12.613281 C 31.011719 14.226562 31.445312 16.371094 30.886719 18.367188 C 30.707031 19.328125 30.375 20.253906 29.894531 21.101562 C 29.417969 21.953125 28.804688 22.71875 28.078125 23.371094 C 27.222656 24.179688 26.203125 24.789062 25.085938 25.15625 C 23.746094 25.539062 22.355469 25.71875 20.964844 25.683594 L 17.609375 25.683594 L 16.65625 30.554688 C 16.617188 30.746094 16.449219 30.878906 16.261719 30.875 Z M 11.988281 30.828125 "/>
<path style=" stroke:none;fill-rule:nonzero;fill:rgb(100%,100%,100%);fill-opacity:1;" d="M 20.148438 14.761719 L 22.363281 14.761719 C 24.167969 14.761719 24.796875 15.160156 25.015625 15.394531 C 25.238281 15.628906 25.4375 16.570312 25.203125 17.746094 C 25.082031 18.804688 24.582031 19.78125 23.792969 20.492188 C 22.789062 21.113281 21.617188 21.398438 20.441406 21.300781 L 18.867188 21.300781 L 20.160156 14.726562 Z M 24.027344 10.0625 L 15.804688 10.0625 C 15.421875 10.0625 15.085938 10.332031 15.003906 10.710938 L 11.195312 30.261719 C 11.152344 30.472656 11.195312 30.6875 11.316406 30.863281 C 11.433594 31.039062 11.617188 31.164062 11.824219 31.203125 L 16.261719 31.203125 C 16.644531 31.199219 16.976562 30.925781 17.050781 30.542969 L 17.949219 26 L 20.941406 26 C 22.375 26.039062 23.800781 25.855469 25.179688 25.460938 C 26.355469 25.070312 27.429688 24.429688 28.335938 23.582031 C 29.085938 22.902344 29.726562 22.109375 30.234375 21.230469 C 30.722656 20.335938 31.070312 19.371094 31.257812 18.367188 C 31.867188 16.265625 31.433594 13.996094 30.09375 12.273438 C 28.800781 10.804688 26.773438 10.0625 24.0625 10.0625 M 17.878906 22.136719 L 20.488281 22.136719 C 21.839844 22.238281 23.191406 21.902344 24.339844 21.171875 C 25.289062 20.335938 25.894531 19.171875 26.042969 17.910156 C 26.390625 16.878906 26.25 15.742188 25.65625 14.832031 C 24.71875 14.105469 23.53125 13.792969 22.363281 13.964844 L 19.472656 13.964844 L 17.878906 22.183594 M 24.027344 10.863281 C 26.511719 10.863281 28.316406 11.507812 29.441406 12.800781 C 30.652344 14.324219 31.054688 16.347656 30.511719 18.226562 C 30.34375 19.144531 30.023438 20.027344 29.570312 20.84375 C 29.109375 21.65625 28.523438 22.390625 27.835938 23.015625 C 27.019531 23.789062 26.046875 24.371094 24.980469 24.71875 C 23.683594 25.085938 22.335938 25.257812 20.988281 25.226562 L 17.273438 25.226562 L 16.261719 30.414062 L 11.988281 30.414062 L 15.804688 10.863281 L 24.027344 10.863281 "/>
<path style=" stroke:none;fill-rule:nonzero;fill:rgb(0%,0%,0%);fill-opacity:1;" d="M 40.679688 25.625 C 40.558594 25.621094 40.449219 25.570312 40.363281 25.484375 C 40.292969 25.386719 40.261719 25.261719 40.28125 25.144531 L 41.972656 16.5 C 42.132812 15.675781 42.089844 15.089844 41.855469 14.84375 C 41.621094 14.597656 41.285156 14.386719 40.027344 14.386719 L 36.964844 14.386719 L 34.84375 25.25 C 34.804688 25.4375 34.640625 25.574219 34.449219 25.578125 L 30.199219 25.578125 C 29.976562 25.578125 29.796875 25.398438 29.792969 25.179688 C 29.792969 25.179688 29.792969 25.121094 29.792969 25.097656 L 33.621094 5.601562 C 33.660156 5.417969 33.820312 5.285156 34.007812 5.285156 L 38.246094 5.285156 C 38.351562 5.28125 38.457031 5.320312 38.53125 5.398438 C 38.609375 5.472656 38.652344 5.574219 38.652344 5.683594 L 38.652344 5.753906 L 37.722656 10.453125 L 40.992188 10.453125 C 43.496094 10.453125 45.195312 10.898438 46.199219 11.800781 C 47.199219 12.707031 47.515625 14.152344 47.128906 16.183594 L 45.347656 25.273438 C 45.3125 25.464844 45.148438 25.605469 44.953125 25.601562 Z M 40.679688 25.625 "/>
<path style=" stroke:none;fill-rule:nonzero;fill:rgb(100%,100%,100%);fill-opacity:1;" d="M 38.257812 4.875 L 34.007812 4.875 C 33.621094 4.875 33.292969 5.152344 33.214844 5.53125 L 29.40625 25.074219 C 29.367188 25.28125 29.410156 25.5 29.53125 25.675781 C 29.652344 25.855469 29.839844 25.976562 30.046875 26.011719 L 34.449219 26.011719 C 34.832031 26.007812 35.160156 25.742188 35.242188 25.367188 L 37.300781 14.796875 L 40.027344 14.796875 C 41.285156 14.796875 41.550781 15.066406 41.5625 15.078125 C 41.574219 15.089844 41.738281 15.535156 41.5625 16.394531 L 39.886719 25.074219 C 39.847656 25.28125 39.890625 25.5 40.011719 25.675781 C 40.132812 25.855469 40.316406 25.976562 40.527344 26.011719 L 44.988281 26.011719 C 45.371094 26.019531 45.707031 25.746094 45.78125 25.367188 L 47.5625 16.277344 C 47.980469 14.140625 47.5625 12.542969 46.5 11.507812 C 45.441406 10.476562 43.648438 10.0625 41.027344 10.0625 L 38.234375 10.0625 L 39.058594 5.824219 C 39.136719 5.386719 38.851562 4.96875 38.421875 4.886719 L 38.269531 4.886719 M 38.269531 5.695312 L 37.242188 10.863281 L 40.992188 10.863281 C 43.324219 10.863281 45.011719 11.273438 45.917969 12.109375 C 46.828125 12.941406 47.082031 14.269531 46.734375 16.125 L 44.953125 25.214844 L 40.644531 25.214844 L 42.332031 16.570312 C 42.578125 15.90625 42.511719 15.171875 42.15625 14.5625 C 41.535156 14.125 40.777344 13.9375 40.027344 14.035156 L 36.625 14.035156 L 34.449219 25.226562 L 30.199219 25.226562 L 34.007812 5.683594 L 38.257812 5.683594 "/>
<path style=" stroke:none;fill-rule:nonzero;fill:rgb(0%,0%,0%);fill-opacity:1;" d="M 53.882812 21.738281 C 55.148438 21.832031 56.414062 21.527344 57.492188 20.855469 C 58.34375 20.089844 58.898438 19.046875 59.054688 17.910156 C 59.367188 17.003906 59.257812 16.003906 58.761719 15.183594 C 57.914062 14.546875 56.855469 14.261719 55.804688 14.386719 L 53.207031 14.386719 L 51.765625 21.761719 Z M 45.382812 30.828125 C 45.261719 30.828125 45.148438 30.777344 45.070312 30.6875 C 44.996094 30.59375 44.964844 30.472656 44.988281 30.355469 L 48.808594 10.863281 C 48.839844 10.671875 49.007812 10.53125 49.203125 10.535156 L 57.425781 10.535156 C 60.019531 10.535156 61.941406 11.226562 63.152344 12.613281 C 64.433594 14.230469 64.863281 16.371094 64.316406 18.367188 C 64.128906 19.324219 63.796875 20.246094 63.328125 21.101562 C 62.839844 21.949219 62.222656 22.714844 61.5 23.371094 C 60.628906 24.167969 59.589844 24.757812 58.460938 25.097656 C 57.121094 25.480469 55.730469 25.660156 54.339844 25.625 L 51.007812 25.625 L 50.054688 30.496094 C 50.015625 30.6875 49.847656 30.820312 49.65625 30.816406 Z M 45.382812 30.828125 "/>
<path style=" stroke:none;fill-rule:nonzero;fill:rgb(100%,100%,100%);fill-opacity:1;" d="M 53.546875 14.761719 L 55.804688 14.761719 C 57.621094 14.761719 58.25 15.160156 58.460938 15.394531 C 58.847656 16.117188 58.917969 16.96875 58.660156 17.746094 C 58.558594 18.808594 58.074219 19.800781 57.296875 20.527344 C 56.292969 21.152344 55.117188 21.433594 53.941406 21.335938 L 52.265625 21.335938 Z M 57.425781 10.0625 L 49.203125 10.0625 C 48.820312 10.0625 48.488281 10.332031 48.410156 10.710938 L 44.589844 30.261719 C 44.550781 30.472656 44.597656 30.691406 44.714844 30.867188 C 44.835938 31.042969 45.023438 31.164062 45.230469 31.203125 L 49.65625 31.203125 C 50.042969 31.199219 50.378906 30.925781 50.460938 30.542969 L 51.34375 26 L 54.339844 26 C 55.773438 26.039062 57.207031 25.855469 58.589844 25.460938 C 59.757812 25.070312 60.832031 24.429688 61.734375 23.582031 C 62.484375 22.90625 63.125 22.113281 63.628906 21.230469 C 64.117188 20.335938 64.46875 19.371094 64.667969 18.367188 C 65.277344 16.265625 64.84375 13.996094 63.503906 12.273438 C 62.210938 10.804688 60.183594 10.0625 57.46875 10.0625 M 51.277344 22.136719 L 53.882812 22.136719 C 55.238281 22.238281 56.589844 21.902344 57.738281 21.171875 C 58.6875 20.332031 59.296875 19.171875 59.449219 17.910156 C 59.796875 16.875 59.652344 15.742188 59.054688 14.832031 C 58.132812 14.109375 56.964844 13.789062 55.804688 13.941406 L 52.882812 13.941406 L 51.277344 22.160156 M 57.425781 10.863281 C 59.90625 10.863281 61.71875 11.507812 62.851562 12.800781 C 64.03125 14.335938 64.414062 16.347656 63.875 18.214844 C 63.699219 19.132812 63.378906 20.019531 62.921875 20.832031 C 62.457031 21.644531 61.871094 22.378906 61.183594 23.003906 C 60.371094 23.777344 59.394531 24.359375 58.332031 24.707031 C 57.03125 25.074219 55.6875 25.246094 54.339844 25.214844 L 50.683594 25.214844 L 49.65625 30.402344 L 45.382812 30.402344 L 49.203125 10.863281 L 57.425781 10.863281 "/>
</g>
</svg>
