<?xml version="1.0" encoding="UTF-8"?>
<svg xmlns="http://www.w3.org/2000/svg" xmlns:xlink="http://www.w3.org/1999/xlink" width="75px" height="px" viewBox="0 0 75 75" version="1.1">
<g id="surface1">
<path style=" stroke:none;fill-rule:nonzero;fill:rgb(0%,0%,0%);fill-opacity:1;" d="M 73.683594 44.914062 C 73.253906 43.597656 72.101562 42.671875 70.625 42.445312 C 69.925781 42.34375 69.125 42.386719 68.179688 42.589844 C 66.535156 42.9375 65.300781 43.0625 64.417969 43.085938 C 67.789062 37.390625 70.539062 30.898438 72.101562 24.796875 C 74.648438 14.914062 73.296875 10.414062 71.691406 8.378906 C 67.480469 2.996094 61.316406 0.0976562 53.898438 0.015625 C 49.933594 -0.0234375 46.457031 0.757812 44.652344 1.3125 C 42.96875 1.023438 41.136719 0.835938 39.246094 0.816406 C 35.671875 0.757812 32.527344 1.535156 29.816406 3.140625 C 28.316406 2.625 25.933594 1.925781 23.160156 1.476562 C 16.644531 0.40625 11.40625 1.25 7.5625 3.941406 C 2.917969 7.226562 0.761719 12.921875 1.171875 20.890625 C 1.296875 23.417969 2.710938 31.101562 4.933594 38.398438 C 6.207031 42.589844 7.582031 46.0625 8.980469 48.753906 C 10.972656 52.554688 13.128906 54.773438 15.535156 55.578125 C 16.890625 56.027344 19.335938 56.335938 21.902344 54.199219 C 22.230469 54.589844 22.664062 54.980469 23.238281 55.351562 C 23.980469 55.824219 24.863281 56.191406 25.765625 56.417969 C 28.992188 57.21875 32.011719 57.015625 34.601562 55.882812 C 34.625 56.335938 34.625 56.789062 34.644531 57.160156 C 34.664062 57.773438 34.683594 58.371094 34.703125 58.945312 C 34.847656 62.746094 35.117188 65.726562 35.875 67.78125 C 35.917969 67.90625 35.980469 68.070312 36.039062 68.253906 C 36.433594 69.425781 37.066406 71.398438 38.691406 72.9375 C 40.375 74.542969 42.410156 75.015625 44.277344 75.015625 C 45.222656 75.015625 46.109375 74.890625 46.886719 74.726562 C 49.683594 74.132812 52.867188 73.207031 55.167969 69.941406 C 57.347656 66.835938 58.394531 62.195312 58.582031 54.835938 C 58.601562 54.632812 58.621094 54.425781 58.640625 54.242188 C 58.664062 54.117188 58.664062 53.976562 58.683594 53.851562 L 59.195312 53.890625 L 59.320312 53.890625 C 62.175781 54.015625 65.648438 53.417969 67.785156 52.433594 C 69.53125 51.652344 74.960938 48.773438 73.683594 44.914062 "/>
<path style=" stroke:none;fill-rule:nonzero;fill:rgb(20%,40.392157%,56.862745%);fill-opacity:1;" d="M 68.8125 45.671875 C 60.347656 47.417969 59.753906 44.542969 59.753906 44.542969 C 68.691406 31.269531 72.429688 14.421875 69.203125 10.3125 C 60.410156 -0.929688 45.164062 4.394531 44.917969 4.515625 L 44.835938 4.535156 C 43.171875 4.1875 41.277344 3.980469 39.183594 3.941406 C 35.34375 3.878906 32.445312 4.945312 30.246094 6.613281 C 30.246094 6.613281 3.0625 -4.585938 4.335938 20.6875 C 4.601562 26.070312 12.039062 61.394531 20.917969 50.707031 C 24.164062 46.804688 27.285156 43.515625 27.285156 43.515625 C 28.847656 44.542969 30.699219 45.078125 32.671875 44.894531 L 32.8125 44.769531 C 32.773438 45.265625 32.792969 45.738281 32.875 46.292969 C 30.59375 48.839844 31.253906 49.292969 26.691406 50.238281 C 22.066406 51.179688 24.777344 52.886719 26.546875 53.339844 C 28.703125 53.875 33.675781 54.632812 37.027344 49.925781 L 36.882812 50.460938 C 37.785156 51.179688 38.402344 55.125 38.300781 58.703125 C 38.199219 62.277344 38.117188 64.742188 38.835938 66.652344 C 39.535156 68.566406 40.253906 72.898438 46.253906 71.605469 C 51.269531 70.539062 53.875 67.742188 54.246094 63.097656 C 54.492188 59.792969 55.089844 60.285156 55.128906 57.324219 L 55.605469 55.925781 C 56.136719 51.449219 55.6875 50.007812 58.789062 50.667969 L 59.546875 50.730469 C 61.828125 50.832031 64.808594 50.359375 66.554688 49.558594 C 70.292969 47.828125 72.511719 44.914062 68.8125 45.671875 "/>
<path style=" stroke:none;fill-rule:nonzero;fill:rgb(100%,100%,100%);fill-opacity:1;" d="M 31.828125 23.109375 C 31.070312 23.007812 30.371094 23.109375 30.023438 23.355469 C 29.816406 23.5 29.753906 23.683594 29.753906 23.789062 C 29.714844 24.097656 29.941406 24.445312 30.0625 24.632812 C 30.453125 25.144531 31.007812 25.492188 31.5625 25.554688 C 31.644531 25.574219 31.726562 25.574219 31.808594 25.574219 C 32.734375 25.574219 33.574219 24.855469 33.636719 24.320312 C 33.738281 23.6875 32.773438 23.234375 31.828125 23.109375 "/>
<path style=" stroke:none;fill-rule:nonzero;fill:rgb(100%,100%,100%);fill-opacity:1;" d="M 57.125 23.132812 C 57.039062 22.617188 56.117188 22.453125 55.234375 22.578125 C 54.351562 22.699219 53.507812 23.089844 53.570312 23.625 C 53.632812 24.035156 54.351562 24.734375 55.234375 24.734375 C 55.316406 24.734375 55.375 24.734375 55.460938 24.710938 C 56.035156 24.628906 56.464844 24.257812 56.671875 24.054688 C 56.980469 23.726562 57.144531 23.378906 57.125 23.132812 "/>
<path style=" stroke:none;fill-rule:nonzero;fill:rgb(100%,100%,100%);fill-opacity:1;" d="M 71.628906 45.46875 C 71.300781 44.480469 70.273438 44.171875 68.546875 44.542969 C 63.410156 45.609375 61.582031 44.871094 60.984375 44.421875 C 64.972656 38.339844 68.261719 31.003906 70.027344 24.160156 C 70.867188 20.914062 71.320312 17.894531 71.363281 15.449219 C 71.402344 12.757812 70.953125 10.765625 70.007812 9.570312 C 66.183594 4.703125 60.597656 2.070312 53.796875 2.007812 C 49.132812 1.949219 45.1875 3.160156 44.425781 3.488281 C 42.824219 3.097656 41.058594 2.851562 39.164062 2.8125 C 35.671875 2.75 32.632812 3.59375 30.125 5.296875 C 29.035156 4.886719 26.21875 3.917969 22.789062 3.363281 C 16.851562 2.398438 12.125 3.140625 8.753906 5.523438 C 4.707031 8.359375 2.855469 13.453125 3.207031 20.644531 C 3.328125 23.070312 4.707031 30.507812 6.882812 37.65625 C 9.742188 47.046875 12.863281 52.371094 16.152344 53.460938 C 16.542969 53.582031 16.972656 53.683594 17.46875 53.683594 C 18.660156 53.683594 20.140625 53.152344 21.660156 51.320312 C 24.1875 48.28125 26.546875 45.714844 27.433594 44.789062 C 28.730469 45.484375 30.148438 45.855469 31.582031 45.898438 C 31.582031 45.9375 31.582031 45.976562 31.582031 46.019531 C 31.296875 46.367188 31.050781 46.65625 30.84375 46.921875 C 29.835938 48.199219 29.632812 48.464844 26.40625 49.121094 C 25.480469 49.304688 23.058594 49.820312 23.015625 51.527344 C 22.976562 53.394531 25.890625 54.175781 26.242188 54.257812 C 27.390625 54.546875 28.523438 54.691406 29.589844 54.691406 C 32.179688 54.691406 34.460938 53.847656 36.289062 52.183594 C 36.226562 58.84375 36.515625 65.417969 37.316406 67.410156 C 37.972656 69.054688 39.574219 73.039062 44.632812 73.039062 C 45.371094 73.039062 46.191406 72.957031 47.097656 72.753906 C 52.375 71.625 54.65625 69.28125 55.539062 64.144531 C 56.015625 61.390625 56.835938 54.835938 57.203125 51.320312 C 58.007812 51.570312 59.054688 51.691406 60.183594 51.691406 C 62.527344 51.691406 65.238281 51.199219 66.925781 50.398438 C 68.8125 49.535156 72.246094 47.355469 71.628906 45.46875 Z M 59.054688 21.691406 C 59.035156 22.742188 58.890625 23.664062 58.746094 24.652344 C 58.582031 25.71875 58.417969 26.808594 58.378906 28.125 C 58.335938 29.421875 58.5 30.753906 58.644531 32.070312 C 58.953125 34.699219 59.28125 37.390625 58.027344 40.0625 C 57.84375 39.714844 57.636719 39.34375 57.472656 38.914062 C 57.308594 38.542969 56.980469 37.925781 56.507812 37.085938 C 54.679688 33.816406 50.425781 26.152344 52.605469 23.027344 C 53.261719 22.144531 54.925781 21.179688 59.054688 21.691406 Z M 54.039062 4.105469 C 60.121094 4.25 64.929688 6.507812 68.320312 10.863281 C 70.929688 14.191406 68.054688 29.378906 59.734375 42.46875 C 59.652344 42.363281 59.570312 42.261719 59.488281 42.160156 C 59.445312 42.117188 59.425781 42.078125 59.382812 42.035156 C 61.542969 38.480469 61.109375 34.96875 60.742188 31.867188 C 60.597656 30.589844 60.433594 29.378906 60.472656 28.25 C 60.515625 27.035156 60.679688 26.007812 60.824219 25.023438 C 61.007812 23.789062 61.214844 22.515625 61.152344 21.015625 C 61.191406 20.851562 61.210938 20.667969 61.191406 20.460938 C 61.046875 19.023438 59.425781 14.730469 56.074219 10.824219 C 54.246094 8.6875 51.574219 6.304688 47.9375 4.703125 C 49.5 4.351562 51.636719 4.042969 54.039062 4.105469 Z M 20.035156 49.96875 C 18.351562 51.980469 17.199219 51.589844 16.808594 51.46875 C 14.324219 50.644531 11.445312 45.386719 8.898438 37.042969 C 6.699219 29.828125 5.40625 22.578125 5.304688 20.542969 C 4.976562 14.113281 6.535156 9.632812 9.945312 7.226562 C 15.472656 3.304688 24.554688 5.644531 28.214844 6.835938 C 28.152344 6.898438 28.109375 6.9375 28.050781 6.980469 C 22.046875 13.042969 22.191406 23.378906 22.210938 23.992188 C 22.210938 24.242188 22.234375 24.589844 22.253906 25.0625 C 22.355469 26.808594 22.539062 30.035156 22.027344 33.710938 C 21.554688 37.125 22.605469 40.453125 24.90625 42.855469 C 25.152344 43.101562 25.398438 43.347656 25.644531 43.554688 C 24.636719 44.664062 22.417969 47.109375 20.035156 49.96875 Z M 26.445312 41.417969 C 24.597656 39.484375 23.734375 36.773438 24.125 34.019531 C 24.660156 30.15625 24.472656 26.765625 24.351562 24.960938 C 24.328125 24.714844 24.328125 24.484375 24.308594 24.300781 C 25.191406 23.519531 29.242188 21.34375 32.136719 22.019531 C 33.453125 22.328125 34.253906 23.214844 34.601562 24.773438 C 36.328125 32.789062 34.828125 36.117188 33.617188 38.789062 C 33.371094 39.34375 33.125 39.855469 32.9375 40.410156 L 32.773438 40.820312 C 32.382812 41.871094 32.015625 42.855469 31.789062 43.800781 C 29.816406 43.78125 27.902344 42.9375 26.445312 41.417969 Z M 26.734375 52.207031 C 26.15625 52.0625 25.644531 51.816406 25.335938 51.609375 C 25.582031 51.488281 26.035156 51.324219 26.835938 51.15625 C 30.636719 50.378906 31.214844 49.820312 32.507812 48.199219 C 32.792969 47.832031 33.144531 47.398438 33.59375 46.882812 C 34.273438 46.125 34.601562 46.246094 35.15625 46.472656 C 35.609375 46.65625 36.058594 47.234375 36.246094 47.871094 C 36.328125 48.175781 36.429688 48.734375 36.101562 49.183594 C 33.433594 52.96875 29.546875 52.90625 26.734375 52.207031 Z M 46.621094 70.71875 C 41.980469 71.707031 40.335938 69.34375 39.246094 66.632812 C 38.546875 64.886719 38.199219 56.992188 38.445312 48.28125 C 38.445312 48.160156 38.425781 48.058594 38.402344 47.953125 C 38.382812 47.75 38.34375 47.542969 38.28125 47.335938 C 37.910156 46.0625 37.027344 45.015625 35.980469 44.5625 C 35.546875 44.398438 34.789062 44.070312 33.863281 44.296875 C 34.066406 43.476562 34.398438 42.550781 34.789062 41.5625 L 34.953125 41.152344 C 35.136719 40.679688 35.34375 40.1875 35.589844 39.671875 C 36.84375 36.855469 38.589844 33.015625 36.695312 24.34375 C 36 21.097656 33.65625 19.515625 30.082031 19.863281 C 27.941406 20.089844 25.992188 20.953125 25.023438 21.445312 C 24.820312 21.550781 24.613281 21.652344 24.449219 21.753906 C 24.714844 18.488281 25.746094 12.363281 29.585938 8.480469 C 31.949219 6.035156 35.175781 4.820312 39.101562 4.882812 C 46.828125 5.007812 51.777344 8.972656 54.59375 12.28125 C 56.996094 15.136719 58.3125 17.992188 58.828125 19.554688 C 54.902344 19.164062 52.25 19.925781 50.894531 21.855469 C 47.957031 26.050781 52.5 34.207031 54.695312 38.128906 C 55.089844 38.847656 55.4375 39.464844 55.558594 39.730469 C 56.277344 41.457031 57.183594 42.609375 57.859375 43.453125 C 58.066406 43.71875 58.273438 43.964844 58.417969 44.171875 C 57.222656 44.519531 55.109375 45.300781 55.292969 49.246094 C 55.128906 51.21875 54.019531 60.507812 53.464844 63.792969 C 52.703125 68.132812 51.101562 69.753906 46.621094 70.71875 Z M 66.019531 48.507812 C 64.808594 49.0625 62.773438 49.496094 60.84375 49.578125 C 58.707031 49.679688 57.636719 49.332031 57.371094 49.125 C 57.246094 46.660156 58.171875 46.410156 59.136719 46.125 C 59.28125 46.082031 59.445312 46.042969 59.589844 45.980469 C 59.671875 46.0625 59.773438 46.125 59.875 46.183594 C 61.582031 47.3125 64.640625 47.4375 68.957031 46.554688 L 69 46.554688 C 68.425781 47.132812 67.4375 47.851562 66.019531 48.507812 Z M 66.019531 48.507812 "/>
</g>
</svg>
