<?xml version="1.0" encoding="UTF-8"?>
<svg xmlns="http://www.w3.org/2000/svg" xmlns:xlink="http://www.w3.org/1999/xlink" width="75px" height="px" viewBox="0 0 75 75" version="1.1">
<defs>
<linearGradient id="linear0" gradientUnits="userSpaceOnUse" x1="0.2852" y1="511.0804" x2="2.2901" y2="511.0804" gradientTransform="matrix(18.498032,18.395244,-18.354316,18.539282,9382.286455,-9473.224072)">
<stop offset="0" style="stop-color:rgb(21.960784%,49.411765%,72.156863%);stop-opacity:1;"/>
<stop offset="1" style="stop-color:rgb(21.176471%,41.176471%,58.039216%);stop-opacity:1;"/>
</linearGradient>
<linearGradient id="linear1" gradientUnits="userSpaceOnUse" x1="0.8921" y1="511.1571" x2="2.8969" y2="511.1571" gradientTransform="matrix(19.866943,18.864697,-18.822715,19.911255,9633.48312,-10163.888174)">
<stop offset="0" style="stop-color:rgb(100%,87.843137%,32.156863%);stop-opacity:1;"/>
<stop offset="1" style="stop-color:rgb(100%,76.470588%,19.215686%);stop-opacity:1;"/>
</linearGradient>
</defs>
<g id="surface1">
<path style=" stroke:none;fill-rule:nonzero;fill:url(#linear0);" d="M 37.234375 0.191406 C 18.195312 0.191406 19.378906 8.453125 19.378906 8.453125 L 19.394531 17.007812 L 37.558594 17.007812 L 37.558594 19.570312 L 12.1875 19.570312 C 12.1875 19.570312 0 18.195312 0 37.398438 C 0 56.601562 10.632812 55.929688 10.632812 55.929688 L 16.976562 55.929688 L 16.976562 47.023438 C 16.976562 47.023438 16.640625 36.386719 27.4375 36.386719 L 45.453125 36.386719 C 45.453125 36.386719 55.578125 36.546875 55.578125 26.601562 L 55.578125 10.152344 C 55.589844 10.152344 57.128906 0.191406 37.234375 0.191406 Z M 27.21875 5.945312 C 29.019531 5.945312 30.484375 7.414062 30.484375 9.214844 C 30.484375 11.015625 29.019531 12.480469 27.21875 12.480469 C 25.414062 12.480469 23.949219 11.015625 23.949219 9.214844 C 23.9375 7.414062 25.398438 5.945312 27.21875 5.945312 Z M 27.21875 5.945312 "/>
<path style=" stroke:none;fill-rule:nonzero;fill:url(#linear1);" d="M 37.765625 74.808594 C 56.804688 74.808594 55.621094 66.546875 55.621094 66.546875 L 55.605469 57.992188 L 37.441406 57.992188 L 37.441406 55.429688 L 62.828125 55.429688 C 62.828125 55.429688 75.015625 56.804688 75.015625 37.601562 C 75.015625 18.398438 64.378906 19.074219 64.378906 19.074219 L 58.039062 19.074219 L 58.039062 27.976562 C 58.039062 27.976562 58.375 38.613281 47.578125 38.613281 L 29.558594 38.613281 C 29.558594 38.613281 19.4375 38.453125 19.4375 48.398438 L 19.4375 64.847656 C 19.410156 64.847656 17.871094 74.808594 37.765625 74.808594 Z M 47.78125 69.054688 C 45.980469 69.054688 44.515625 67.585938 44.515625 65.785156 C 44.515625 63.984375 45.980469 62.519531 47.78125 62.519531 C 49.585938 62.519531 51.050781 63.984375 51.050781 65.785156 C 51.0625 67.585938 49.601562 69.054688 47.78125 69.054688 Z M 47.78125 69.054688 "/>
</g>
</svg>
