<?xml version="1.0" encoding="UTF-8"?>
<svg xmlns="http://www.w3.org/2000/svg" xmlns:xlink="http://www.w3.org/1999/xlink" width="75px" height="px" viewBox="0 0 74 31" version="1.1">
<g id="surface1">
<path style=" stroke:none;fill-rule:nonzero;fill:rgb(80%,0%,0%);fill-opacity:1;" d="M 31.710938 24.289062 C 31.710938 24.289062 34.976562 24 34.976562 19.765625 C 34.976562 15.527344 31.015625 15.136719 31.015625 15.136719 L 23.875 15.136719 L 23.875 28.527344 L 27.460938 28.527344 L 27.460938 25.292969 L 30.570312 28.527344 L 35.886719 28.527344 Z M 30.335938 21.554688 L 27.476562 21.554688 L 27.476562 18.5 L 30.351562 18.5 C 30.351562 18.5 31.160156 18.804688 31.160156 20.027344 C 31.160156 21.25 30.335938 21.554688 30.335938 21.554688 Z M 43.835938 15.195312 L 40.179688 15.195312 C 37.578125 15.195312 36.710938 17.566406 36.710938 18.6875 L 36.710938 28.511719 L 40.351562 28.511719 L 40.351562 26.167969 L 43.792969 26.167969 L 43.792969 28.511719 L 47.320312 28.511719 L 47.320312 18.6875 C 47.304688 15.847656 44.71875 15.195312 43.835938 15.195312 Z M 43.777344 22.371094 L 40.351562 22.371094 L 40.351562 19.125 C 40.351562 19.125 40.351562 18.394531 41.496094 18.394531 L 42.753906 18.394531 C 43.765625 18.394531 43.777344 19.125 43.777344 19.125 Z M 48.96875 15.195312 L 52.753906 15.195312 L 52.753906 28.511719 L 48.96875 28.511719 Z M 58.085938 25.078125 L 58.085938 15.207031 L 54.316406 15.207031 L 54.316406 28.527344 L 63.175781 28.527344 L 63.175781 25.078125 Z M 64.433594 25.121094 L 64.433594 28.527344 L 70.53125 28.527344 C 71.789062 28.527344 73.941406 27.609375 74 25.03125 L 74 23.722656 C 74 21.523438 72.222656 20.230469 70.53125 20.230469 L 67.496094 20.230469 L 67.496094 18.660156 L 73.523438 18.660156 L 73.523438 15.222656 L 67.742188 15.222656 C 66.238281 15.222656 64.257812 16.476562 64.257812 18.773438 L 64.257812 19.953125 C 64.257812 22.269531 66.253906 23.445312 67.742188 23.445312 C 71.933594 23.460938 66.730469 23.445312 70.617188 23.445312 L 70.617188 25.105469 L 64.433594 25.105469 Z M 64.433594 25.121094 "/>
<path style=" stroke:none;fill-rule:nonzero;fill:rgb(80%,0%,0%);fill-opacity:1;" d="M 1.300781 28.496094 L 16.042969 28.496094 C 16.042969 28.496094 13.226562 15.558594 22.546875 10.304688 C 24.570312 9.300781 31.058594 5.589844 41.667969 13.492188 C 42.015625 13.199219 42.320312 12.980469 42.320312 12.980469 C 42.320312 12.980469 32.605469 3.214844 21.796875 4.324219 C 16.359375 4.816406 9.667969 9.792969 5.753906 16.375 C 1.863281 22.9375 1.300781 28.496094 1.300781 28.496094 Z M 32.027344 5.355469 L 32.113281 4.089844 C 31.957031 3.988281 31.480469 3.769531 30.308594 3.433594 L 30.222656 4.6875 C 30.84375 4.890625 31.449219 5.109375 32.027344 5.355469 Z M 30.265625 9.34375 L 30.179688 10.523438 C 30.785156 10.535156 31.421875 10.625 32.027344 10.742188 L 32.113281 9.578125 C 31.464844 9.460938 30.859375 9.386719 30.265625 9.34375 Z M 23.355469 3.476562 L 23.542969 3.476562 L 23.183594 2.328125 C 22.589844 2.328125 22.011719 2.371094 21.40625 2.445312 L 21.75 3.550781 C 22.257812 3.507812 22.808594 3.476562 23.355469 3.476562 Z M 24.253906 10.40625 L 24.671875 11.714844 C 25.222656 11.453125 25.742188 11.222656 26.289062 11.0625 L 25.886719 9.808594 C 25.265625 9.96875 24.714844 10.203125 24.253906 10.40625 Z M 15.769531 5.457031 L 14.929688 4.148438 C 14.46875 4.394531 13.976562 4.65625 13.46875 4.964844 L 14.324219 6.273438 C 14.8125 5.96875 15.292969 5.691406 15.769531 5.457031 Z M 19.597656 13.914062 L 20.496094 15.265625 C 20.8125 14.800781 21.1875 14.363281 21.59375 13.941406 L 20.753906 12.660156 C 20.335938 13.054688 19.929688 13.476562 19.597656 13.914062 Z M 16.882812 19.953125 L 18.398438 21.160156 C 18.484375 20.433594 18.601562 19.691406 18.789062 18.964844 L 17.445312 17.902344 C 17.214844 18.585938 17.054688 19.285156 16.882812 19.953125 Z M 8.714844 11.03125 L 7.398438 9.867188 C 6.910156 10.332031 6.445312 10.800781 6.027344 11.28125 L 7.472656 12.53125 C 7.847656 12.023438 8.265625 11.511719 8.714844 11.03125 Z M 3.078125 19.445312 L 0.925781 18.644531 C 0.578125 19.457031 0.171875 20.40625 0 20.886719 L 2.152344 21.683594 C 2.382812 21.058594 2.773438 20.144531 3.078125 19.445312 Z M 16.605469 24.726562 C 16.648438 25.730469 16.722656 26.515625 16.824219 27.097656 L 19.050781 27.914062 C 18.890625 27.1875 18.703125 26.355469 18.601562 25.46875 Z M 16.605469 24.726562 "/>
</g>
</svg>
