<?xml version="1.0" encoding="UTF-8"?>
<svg xmlns="http://www.w3.org/2000/svg" xmlns:xlink="http://www.w3.org/1999/xlink" width="75px" height="px" viewBox="0 0 75 75" version="1.1">
<g id="surface1">
<path style=" stroke:none;fill-rule:nonzero;fill:rgb(0%,84.705882%,100%);fill-opacity:1;" d="M 61.65625 25.765625 C 60.878906 25.5 60.074219 25.253906 59.253906 25.007812 C 59.398438 24.453125 59.519531 23.898438 59.625 23.363281 C 61.453125 14.484375 60.261719 7.335938 56.171875 4.992188 C 52.265625 2.734375 45.855469 5.097656 39.402344 10.707031 C 38.789062 11.242188 38.148438 11.816406 37.535156 12.410156 C 37.125 12.019531 36.714844 11.632812 36.300781 11.261719 C 29.519531 5.238281 22.738281 2.714844 18.671875 5.074219 C 14.765625 7.335938 13.59375 14.054688 15.238281 22.460938 C 15.402344 23.28125 15.585938 24.101562 15.792969 24.945312 C 14.828125 25.210938 13.902344 25.5 13.019531 25.808594 C 5.089844 28.582031 0.015625 32.917969 0.015625 37.417969 C 0.015625 42.058594 5.460938 46.722656 13.71875 49.558594 C 14.378906 49.785156 15.054688 49.992188 15.753906 50.199219 C 15.527344 51.101562 15.320312 52.003906 15.15625 52.871094 C 13.597656 61.128906 14.808594 67.683594 18.714844 69.945312 C 22.738281 72.265625 29.5 69.882812 36.074219 64.128906 C 36.589844 63.675781 37.125 63.183594 37.636719 62.691406 C 38.316406 63.347656 38.992188 63.964844 39.671875 64.539062 C 46.042969 70.027344 52.351562 72.246094 56.234375 69.984375 C 60.261719 67.664062 61.554688 60.617188 59.871094 52.027344 C 59.75 51.367188 59.585938 50.710938 59.417969 50.011719 C 59.890625 49.867188 60.363281 49.722656 60.816406 49.578125 C 69.40625 46.722656 75.015625 42.121094 75.015625 37.414062 C 74.992188 32.917969 69.753906 28.5625 61.65625 25.765625 Z M 59.789062 46.5625 C 59.378906 46.707031 58.96875 46.828125 58.535156 46.953125 C 57.589844 43.953125 56.296875 40.746094 54.734375 37.460938 C 56.234375 34.234375 57.46875 31.089844 58.390625 28.089844 C 59.152344 28.316406 59.914062 28.542969 60.632812 28.789062 C 67.578125 31.171875 71.808594 34.707031 71.808594 37.441406 C 71.789062 40.335938 67.226562 44.09375 59.789062 46.5625 Z M 56.707031 52.664062 C 57.46875 56.464844 57.570312 59.875 57.078125 62.566406 C 56.625 64.972656 55.742188 66.574219 54.609375 67.230469 C 52.25 68.609375 47.191406 66.820312 41.75 62.136719 C 41.132812 61.601562 40.492188 61.027344 39.855469 60.410156 C 41.972656 58.109375 44.089844 55.417969 46.144531 52.4375 C 49.761719 52.109375 53.191406 51.59375 56.296875 50.875 C 56.460938 51.472656 56.601562 52.066406 56.707031 52.664062 Z M 25.554688 66.984375 C 23.253906 67.808594 21.40625 67.828125 20.296875 67.191406 C 17.933594 65.835938 16.945312 60.554688 18.28125 53.484375 C 18.425781 52.683594 18.609375 51.84375 18.835938 51 C 21.917969 51.679688 25.308594 52.171875 28.945312 52.457031 C 31.019531 55.375 33.199219 58.066406 35.378906 60.410156 C 34.90625 60.863281 34.433594 61.316406 33.9375 61.726562 C 31.042969 64.273438 28.125 66.082031 25.554688 66.984375 Z M 14.746094 46.539062 C 11.089844 45.285156 8.070312 43.664062 5.992188 41.898438 C 4.125 40.296875 3.199219 38.734375 3.199219 37.4375 C 3.199219 34.703125 7.265625 31.234375 14.066406 28.851562 C 14.890625 28.5625 15.753906 28.296875 16.65625 28.027344 C 17.601562 31.089844 18.835938 34.273438 20.3125 37.5 C 18.8125 40.769531 17.5625 44.015625 16.617188 47.117188 C 15.960938 46.929688 15.34375 46.746094 14.746094 46.539062 Z M 18.363281 21.863281 C 16.945312 14.648438 17.890625 9.226562 20.253906 7.867188 C 22.761719 6.410156 28.308594 8.484375 34.164062 13.683594 C 34.535156 14.011719 34.90625 14.363281 35.296875 14.730469 C 33.117188 17.074219 30.960938 19.746094 28.90625 22.644531 C 25.371094 22.972656 22.003906 23.484375 18.898438 24.203125 C 18.691406 23.382812 18.527344 22.601562 18.363281 21.863281 Z M 50.726562 29.835938 C 49.988281 28.558594 49.226562 27.308594 48.445312 26.074219 C 50.828125 26.382812 53.132812 26.773438 55.289062 27.265625 C 54.652344 29.34375 53.828125 31.5 52.886719 33.71875 C 52.207031 32.464844 51.488281 31.148438 50.726562 29.835938 Z M 37.535156 16.992188 C 39.015625 18.59375 40.492188 20.382812 41.953125 22.3125 C 40.496094 22.253906 38.996094 22.210938 37.496094 22.210938 C 36.015625 22.210938 34.535156 22.253906 33.078125 22.3125 C 34.535156 20.402344 36.035156 18.617188 37.535156 16.992188 Z M 24.261719 29.875 C 23.519531 31.171875 22.820312 32.464844 22.144531 33.757812 C 21.21875 31.539062 20.417969 29.359375 19.761719 27.265625 C 21.898438 26.792969 24.179688 26.402344 26.5625 26.09375 C 25.761719 27.308594 25 28.582031 24.261719 29.875 Z M 26.625 49.007812 C 24.15625 48.738281 21.855469 48.367188 19.71875 47.898438 C 20.378906 45.761719 21.199219 43.539062 22.144531 41.28125 C 22.820312 42.574219 23.519531 43.867188 24.261719 45.164062 C 25.019531 46.476562 25.800781 47.753906 26.625 49.007812 Z M 37.617188 58.109375 C 36.097656 56.464844 34.578125 54.65625 33.097656 52.703125 C 34.535156 52.765625 35.992188 52.789062 37.492188 52.789062 C 39.015625 52.789062 40.535156 52.746094 42.015625 52.683594 C 40.554688 54.675781 39.078125 56.484375 37.617188 58.109375 Z M 52.90625 41.15625 C 53.914062 43.4375 54.753906 45.65625 55.433594 47.753906 C 53.253906 48.246094 50.914062 48.65625 48.445312 48.945312 C 49.226562 47.710938 49.988281 46.4375 50.75 45.125 C 51.507812 43.808594 52.226562 42.492188 52.90625 41.15625 Z M 47.953125 43.539062 C 46.78125 45.574219 45.570312 47.507812 44.355469 49.355469 C 42.136719 49.519531 39.835938 49.601562 37.492188 49.601562 C 35.152344 49.601562 32.890625 49.519531 30.714844 49.398438 C 29.4375 47.546875 28.207031 45.597656 27.054688 43.582031 C 25.882812 41.566406 24.816406 39.554688 23.851562 37.542969 C 24.816406 35.527344 25.886719 33.492188 27.035156 31.5 C 28.1875 29.484375 29.417969 27.554688 30.671875 25.707031 C 32.914062 25.542969 35.191406 25.460938 37.496094 25.460938 C 39.816406 25.460938 42.097656 25.542969 44.335938 25.726562 C 45.570312 27.554688 46.78125 29.484375 47.953125 31.5 C 49.125 33.535156 50.214844 35.546875 51.179688 37.519531 C 50.214844 39.472656 49.125 41.507812 47.953125 43.539062 Z M 54.570312 7.765625 C 57.078125 9.203125 58.0625 15.0625 56.480469 22.726562 C 56.378906 23.21875 56.277344 23.710938 56.152344 24.226562 C 53.050781 23.507812 49.660156 22.972656 46.125 22.644531 C 44.070312 19.703125 41.933594 17.035156 39.777344 14.730469 C 40.351562 14.175781 40.929688 13.644531 41.503906 13.148438 C 47.027344 8.300781 52.207031 6.410156 54.570312 7.765625 Z M 37.492188 30.738281 C 41.191406 30.738281 44.191406 33.738281 44.191406 37.4375 C 44.191406 41.136719 41.191406 44.136719 37.492188 44.136719 C 33.796875 44.136719 30.796875 41.136719 30.796875 37.4375 C 30.796875 33.738281 33.796875 30.738281 37.492188 30.738281 Z M 37.492188 30.738281 "/>
</g>
</svg>
