<?xml version="1.0" encoding="UTF-8"?>
<svg xmlns="http://www.w3.org/2000/svg" xmlns:xlink="http://www.w3.org/1999/xlink" width="75px" height="px" viewBox="0 0 76 18" version="1.1">
<g id="surface1">
<path style=" stroke:none;fill-rule:evenodd;fill:rgb(0%,0%,0%);fill-opacity:1;" d="M 18.289062 6.40625 C 17.515625 6.40625 16.773438 6.675781 16.195312 7.171875 L 16.195312 6.480469 L 14.28125 6.480469 L 14.28125 13.996094 L 16.269531 13.996094 L 16.269531 9.195312 C 16.699219 8.625 17.367188 8.28125 18.078125 8.265625 C 18.347656 8.25 18.628906 8.296875 18.882812 8.386719 L 18.882812 6.449219 C 18.671875 6.421875 18.480469 6.40625 18.289062 6.40625 "/>
<path style=" stroke:none;fill-rule:evenodd;fill:rgb(0%,0%,0%);fill-opacity:1;" d="M 0.964844 11.699219 C 1.527344 12.179688 2.257812 12.449219 3 12.449219 C 3.53125 12.449219 3.949219 12.179688 3.949219 11.820312 C 3.949219 10.695312 0.355469 11.085938 0.355469 8.671875 C 0.355469 7.230469 1.738281 6.328125 3.191406 6.328125 C 4.082031 6.328125 4.957031 6.601562 5.699219 7.09375 L 4.765625 8.550781 C 4.347656 8.234375 3.859375 8.054688 3.339844 8.039062 C 2.789062 8.039062 2.332031 8.25 2.332031 8.640625 C 2.332031 9.613281 5.921875 9.226562 5.921875 11.835938 C 5.921875 13.273438 4.527344 14.160156 2.96875 14.160156 C 1.898438 14.144531 0.859375 13.785156 0 13.140625 Z M 0.964844 11.699219 "/>
<path style=" stroke:none;fill-rule:evenodd;fill:rgb(0%,0%,0%);fill-opacity:1;" d="M 13.433594 10.171875 C 13.433594 8.085938 11.980469 6.328125 9.929688 6.328125 C 7.734375 6.328125 6.324219 8.160156 6.324219 10.246094 C 6.234375 12.316406 7.824219 14.070312 9.871094 14.144531 C 9.976562 14.144531 10.09375 14.144531 10.199219 14.144531 C 11.355469 14.160156 12.46875 13.664062 13.242188 12.796875 L 12.113281 11.65625 C 11.636719 12.195312 10.953125 12.496094 10.242188 12.523438 C 9.21875 12.554688 8.34375 11.773438 8.238281 10.738281 L 13.375 10.738281 C 13.417969 10.558594 13.433594 10.363281 13.433594 10.171875 Z M 8.34375 9.269531 C 8.492188 8.503906 9.160156 7.949219 9.929688 7.949219 C 10.671875 7.949219 11.3125 8.519531 11.398438 9.269531 Z M 8.34375 9.269531 "/>
<path style=" stroke:none;fill-rule:evenodd;fill:rgb(0%,0%,0%);fill-opacity:1;" d="M 23.601562 11.070312 L 25.636719 6.480469 L 27.699219 6.480469 L 24.300781 13.996094 L 22.917969 13.996094 L 19.503906 6.480469 L 21.566406 6.480469 Z M 23.601562 11.070312 "/>
<path style=" stroke:none;fill-rule:evenodd;fill:rgb(0%,0%,0%);fill-opacity:1;" d="M 29.375 2.941406 C 30.089844 2.953125 30.636719 3.539062 30.621094 4.261719 C 30.609375 4.980469 30.027344 5.535156 29.316406 5.519531 C 28.617188 5.503906 28.070312 4.933594 28.070312 4.230469 C 28.070312 3.511719 28.648438 2.941406 29.347656 2.941406 L 29.375 2.941406 "/>
<path style=" stroke:none;fill-rule:nonzero;fill:rgb(0%,0%,0%);fill-opacity:1;" d="M 28.382812 6.480469 L 30.371094 6.480469 L 30.371094 13.996094 L 28.382812 13.996094 Z M 28.382812 6.480469 "/>
<path style=" stroke:none;fill-rule:evenodd;fill:rgb(0%,0%,0%);fill-opacity:1;" d="M 38.578125 12.464844 C 37.820312 13.574219 36.546875 14.203125 35.210938 14.160156 C 33.070312 14.21875 31.289062 12.511719 31.230469 10.351562 C 31.171875 8.191406 32.863281 6.390625 35 6.328125 C 35.074219 6.328125 35.136719 6.328125 35.210938 6.328125 C 36.425781 6.316406 37.570312 6.871094 38.328125 7.828125 L 36.917969 9.089844 C 36.515625 8.535156 35.878906 8.203125 35.210938 8.191406 C 34.109375 8.191406 33.21875 9.089844 33.207031 10.199219 L 33.207031 10.261719 C 33.175781 11.355469 34.023438 12.269531 35.105469 12.300781 L 35.253906 12.300781 C 35.964844 12.285156 36.632812 11.910156 37.019531 11.308594 Z M 38.578125 12.464844 "/>
<path style=" stroke:none;fill-rule:evenodd;fill:rgb(0%,0%,0%);fill-opacity:1;" d="M 45.792969 12.808594 C 45.019531 13.679688 43.90625 14.175781 42.75 14.160156 C 40.703125 14.25 38.964844 12.660156 38.875 10.589844 C 38.875 10.484375 38.875 10.363281 38.875 10.261719 C 38.875 8.160156 40.285156 6.34375 42.484375 6.34375 C 44.53125 6.34375 45.984375 8.101562 45.984375 10.183594 C 45.984375 10.378906 45.972656 10.574219 45.941406 10.753906 L 40.804688 10.753906 C 40.894531 11.789062 41.785156 12.570312 42.808594 12.539062 C 43.523438 12.523438 44.191406 12.210938 44.679688 11.671875 Z M 43.953125 9.269531 C 43.863281 8.519531 43.238281 7.949219 42.484375 7.949219 C 41.710938 7.949219 41.042969 8.503906 40.894531 9.269531 Z M 43.953125 9.269531 "/>
<path style=" stroke:none;fill-rule:evenodd;fill:rgb(0%,0%,0%);fill-opacity:1;" d="M 46.773438 13.996094 L 46.773438 6.480469 L 48.6875 6.480469 L 48.6875 7.078125 C 49.28125 6.585938 50.023438 6.316406 50.78125 6.316406 C 51.773438 6.316406 52.710938 6.75 53.347656 7.53125 C 53.925781 8.28125 54.195312 9.226562 54.105469 10.171875 L 54.105469 13.996094 L 52.117188 13.996094 L 52.117188 10.003906 C 52.175781 9.496094 52.011719 8.984375 51.671875 8.59375 C 51.375 8.308594 50.972656 8.160156 50.558594 8.175781 C 49.84375 8.191406 49.191406 8.535156 48.761719 9.105469 L 48.761719 13.996094 Z M 46.773438 13.996094 "/>
<path style=" stroke:none;fill-rule:evenodd;fill:rgb(38.431373%,84.705882%,30.588235%);fill-opacity:1;" d="M 59.226562 6.316406 C 56.820312 6.316406 54.878906 8.28125 54.863281 10.710938 C 54.863281 11.925781 55.351562 13.078125 56.226562 13.921875 C 56.539062 14.21875 57.015625 14.234375 57.339844 13.980469 C 58.441406 13.15625 59.953125 13.15625 61.050781 13.980469 C 61.394531 14.25 61.867188 14.21875 62.179688 13.921875 C 63.917969 12.253906 63.992188 9.464844 62.34375 7.710938 C 61.527344 6.824219 60.398438 6.328125 59.226562 6.316406 M 59.195312 12.914062 C 58.023438 12.945312 57.058594 12.015625 57.03125 10.84375 L 57.03125 10.726562 C 57.03125 9.511719 57.996094 8.535156 59.195312 8.535156 C 60.398438 8.535156 61.363281 9.511719 61.363281 10.726562 C 61.394531 11.910156 60.472656 12.886719 59.316406 12.914062 L 59.195312 12.914062 "/>
<path style=" stroke:none;fill-rule:evenodd;fill:rgb(0%,0%,0%);fill-opacity:1;" d="M 67.464844 13.996094 L 65.980469 13.996094 L 63.027344 6.480469 L 65.015625 6.480469 L 66.632812 10.769531 L 68.222656 6.480469 L 69.882812 6.480469 L 71.457031 10.769531 L 73.089844 6.480469 L 75.066406 6.480469 L 72.125 13.996094 L 70.640625 13.996094 L 69.054688 9.71875 Z M 67.464844 13.996094 "/>
<path style=" stroke:none;fill-rule:nonzero;fill:rgb(0%,0%,0%);fill-opacity:1;" d="M 75.09375 13.140625 L 74.929688 13.140625 L 74.929688 13.453125 L 74.78125 13.453125 L 74.78125 12.601562 L 75.140625 12.601562 C 75.289062 12.601562 75.421875 12.71875 75.421875 12.886719 C 75.421875 12.988281 75.347656 13.09375 75.257812 13.140625 L 75.449219 13.484375 L 75.300781 13.484375 Z M 74.929688 13.019531 L 75.140625 13.019531 C 75.214844 13.019531 75.289062 12.960938 75.289062 12.871094 C 75.289062 12.78125 75.226562 12.71875 75.140625 12.71875 L 74.929688 12.71875 Z M 74.929688 13.019531 "/>
<path style=" stroke:none;fill-rule:nonzero;fill:rgb(0%,0%,0%);fill-opacity:1;" d="M 75.078125 12.238281 C 75.523438 12.238281 75.882812 12.601562 75.882812 13.050781 C 75.882812 13.5 75.523438 13.859375 75.078125 13.859375 C 74.632812 13.859375 74.277344 13.5 74.277344 13.050781 C 74.277344 12.601562 74.632812 12.238281 75.078125 12.238281 M 75.078125 12.105469 C 74.558594 12.105469 74.144531 12.523438 74.144531 13.050781 C 74.144531 13.574219 74.558594 13.996094 75.078125 13.996094 C 75.597656 13.996094 76.015625 13.574219 76.015625 13.050781 C 76.015625 12.523438 75.585938 12.105469 75.078125 12.105469 Z M 75.078125 12.105469 "/>
</g>
</svg>
