<?xml version="1.0" encoding="UTF-8"?>
<svg xmlns="http://www.w3.org/2000/svg" xmlns:xlink="http://www.w3.org/1999/xlink" width="75px" height="px" viewBox="0 0 74 39" version="1.1">
<defs>
<linearGradient id="linear0" gradientUnits="userSpaceOnUse" x1="-389.6481" y1="-45.8687" x2="-388.648" y2="-45.8687" gradientTransform="matrix(0,20.978624,-19.732924,0,-893.715329,8179.600839)">
<stop offset="0" style="stop-color:rgb(59.215686%,85.098039%,96.470588%);stop-opacity:1;"/>
<stop offset="0.9202" style="stop-color:rgb(5.882353%,50.196078%,80%);stop-opacity:1;"/>
<stop offset="1" style="stop-color:rgb(5.882353%,50.196078%,80%);stop-opacity:1;"/>
</linearGradient>
</defs>
<g id="surface1">
<path style=" stroke:none;fill-rule:nonzero;fill:rgb(0%,23.137255%,34.117647%);fill-opacity:1;" d="M 28.125 18.976562 C 27.128906 18.976562 26.347656 19.265625 25.710938 19.847656 C 25.105469 20.445312 24.789062 21.21875 24.789062 22.164062 C 24.789062 22.65625 24.875 23.109375 25.003906 23.515625 C 25.164062 23.925781 25.394531 24.316406 25.710938 24.636719 C 26.03125 24.984375 26.664062 25.453125 27.621094 26.046875 C 28.789062 26.761719 29.542969 27.359375 29.917969 27.808594 C 30.28125 28.261719 30.46875 28.753906 30.46875 29.234375 C 30.46875 29.90625 30.25 30.441406 29.800781 30.820312 C 29.355469 31.230469 28.746094 31.417969 28.023438 31.417969 C 27.230469 31.417969 26.566406 31.128906 25.972656 30.574219 C 25.378906 30.019531 25.105469 29.292969 25.078125 28.375 L 24.714844 28.375 L 24.714844 31.710938 L 25.078125 31.710938 C 25.175781 31.402344 25.335938 31.242188 25.539062 31.242188 C 25.640625 31.242188 25.855469 31.300781 26.203125 31.433594 C 27.054688 31.738281 27.765625 31.882812 28.328125 31.882812 C 29.28125 31.882812 30.089844 31.535156 30.785156 30.867188 C 31.480469 30.167969 31.796875 29.351562 31.796875 28.390625 C 31.796875 27.632812 31.578125 26.980469 31.132812 26.398438 C 30.683594 25.832031 29.816406 25.132812 28.546875 24.359375 C 27.433594 23.691406 26.722656 23.136719 26.375 22.703125 C 26.058594 22.28125 25.871094 21.800781 25.871094 21.289062 C 25.871094 20.738281 26.074219 20.285156 26.476562 19.9375 C 26.882812 19.617188 27.402344 19.425781 28.054688 19.425781 C 28.804688 19.425781 29.414062 19.644531 29.902344 20.097656 C 30.394531 20.546875 30.667969 21.160156 30.757812 21.960938 L 31.117188 21.960938 L 31.117188 19.0625 L 30.769531 19.0625 C 30.726562 19.207031 30.683594 19.3125 30.65625 19.355469 C 30.625 19.398438 30.554688 19.414062 30.453125 19.414062 C 30.335938 19.414062 30.132812 19.367188 29.816406 19.265625 C 29.253906 19.105469 28.660156 18.976562 28.125 18.976562 Z M 40.035156 18.976562 C 38.835938 18.976562 37.738281 19.265625 36.753906 19.835938 C 35.773438 20.402344 34.992188 21.203125 34.398438 22.207031 C 33.835938 23.210938 33.53125 24.289062 33.53125 25.4375 C 33.53125 26.964844 34.039062 28.332031 35.035156 29.511719 C 36.046875 30.71875 37.246094 31.449219 38.648438 31.738281 C 38.964844 31.898438 39.414062 32.335938 40.019531 33.046875 C 40.6875 33.847656 41.25 34.417969 41.726562 34.734375 C 42.1875 35.085938 42.695312 35.332031 43.230469 35.492188 C 43.765625 35.652344 44.34375 35.742188 44.976562 35.742188 C 45.730469 35.742188 46.421875 35.625 47 35.332031 L 46.855469 35.011719 C 46.511719 35.128906 46.148438 35.203125 45.742188 35.203125 C 45.222656 35.203125 44.6875 35.011719 44.140625 34.679688 C 43.621094 34.328125 42.941406 33.660156 42.132812 32.65625 C 41.769531 32.191406 41.496094 31.882812 41.363281 31.753906 C 42.882812 31.449219 44.140625 30.71875 45.136719 29.511719 C 46.105469 28.332031 46.609375 26.964844 46.609375 25.4375 C 46.609375 23.617188 45.960938 22.105469 44.703125 20.867188 C 43.445312 19.617188 41.886719 18.976562 40.035156 18.976562 Z M 47.449219 18.976562 L 47.464844 19.367188 C 48.257812 19.367188 48.722656 19.617188 48.824219 20.082031 C 48.867188 20.242188 48.878906 20.578125 48.878906 21.027344 L 48.878906 29.699219 C 48.878906 30.355469 48.78125 30.761719 48.589844 30.9375 C 48.402344 31.113281 48.128906 31.230469 47.679688 31.257812 L 47.667969 31.652344 L 55.644531 31.652344 L 55.847656 29.6875 L 55.484375 29.6875 C 55.382812 30.210938 55.140625 30.601562 54.761719 30.835938 C 54.371094 31.054688 53.707031 31.15625 52.738281 31.15625 L 52.015625 31.15625 C 51.148438 31.15625 50.644531 30.835938 50.5 30.195312 C 50.484375 30.078125 50.457031 29.933594 50.457031 29.789062 L 50.5 21.011719 C 50.5 20.359375 50.585938 19.9375 50.746094 19.734375 C 50.902344 19.527344 51.234375 19.414062 51.65625 19.367188 L 51.640625 18.976562 Z M 40.164062 19.457031 C 41.523438 19.457031 42.621094 19.980469 43.488281 21.070312 C 44.34375 22.148438 44.761719 23.648438 44.761719 25.523438 C 44.761719 27.300781 44.34375 28.726562 43.460938 29.816406 C 42.609375 30.894531 41.453125 31.433594 40.035156 31.433594 C 38.675781 31.433594 37.5625 30.878906 36.710938 29.773438 C 35.859375 28.667969 35.4375 27.226562 35.4375 25.453125 C 35.4375 23.632812 35.859375 22.191406 36.710938 21.085938 C 37.5625 20.007812 38.71875 19.457031 40.164062 19.457031 Z M 58.507812 21.332031 C 58.304688 21.332031 58.160156 21.390625 58.058594 21.539062 C 57.941406 21.683594 57.914062 21.828125 57.957031 22.03125 C 58 22.222656 58.101562 22.382812 58.261719 22.527344 C 58.417969 22.671875 58.609375 22.730469 58.808594 22.730469 C 58.996094 22.730469 59.128906 22.644531 59.230469 22.527344 C 59.328125 22.382812 59.375 22.222656 59.328125 22.03125 C 59.285156 21.828125 59.1875 21.683594 59.027344 21.539062 C 58.867188 21.390625 58.679688 21.332031 58.507812 21.332031 Z M 63.753906 22.65625 C 63.433594 23.9375 62.699219 24.636719 61.597656 24.738281 L 61.613281 25.101562 L 62.886719 25.101562 L 62.871094 29.425781 C 62.871094 30.152344 62.886719 30.660156 62.957031 30.910156 C 63.074219 31.503906 63.464844 31.8125 64.128906 31.8125 C 65.082031 31.8125 66.050781 31.242188 67.105469 30.078125 L 66.800781 29.816406 C 66.050781 30.574219 65.386719 30.96875 64.824219 30.96875 C 64.460938 30.96875 64.257812 30.761719 64.171875 30.355469 C 64.15625 30.253906 64.128906 30.152344 64.128906 30.007812 L 64.144531 25.089844 L 66.109375 25.089844 L 66.09375 24.492188 L 64.144531 24.492188 L 64.144531 22.628906 L 63.738281 22.628906 Z M 71.328125 24.289062 C 70.226562 24.289062 69.347656 24.8125 68.652344 25.875 C 67.957031 26.9375 67.742188 28.113281 68.015625 29.425781 C 68.175781 30.179688 68.507812 30.777344 68.984375 31.199219 C 69.476562 31.609375 70.082031 31.839844 70.835938 31.839844 C 71.527344 31.839844 72.484375 31.652344 72.886719 31.316406 C 73.292969 30.980469 73.652344 30.398438 74 29.597656 L 73.710938 29.308594 C 73.160156 30.328125 72.046875 30.835938 71.210938 30.835938 C 70.054688 30.835938 69.359375 30.195312 69.101562 28.945312 C 69.058594 28.785156 69.042969 28.625 69.011719 28.433594 C 70.371094 28.214844 71.398438 27.839844 72.121094 27.269531 C 72.816406 26.71875 73.523438 26.121094 73.378906 25.496094 C 73.292969 25.132812 73.117188 24.839844 72.816406 24.621094 C 72.554688 24.417969 71.757812 24.289062 71.328125 24.289062 Z M 59.359375 24.332031 L 56.988281 24.882812 L 56.988281 25.304688 L 57.796875 25.203125 C 58.203125 25.203125 58.433594 25.394531 58.507812 25.726562 C 58.519531 25.84375 58.550781 26.019531 58.550781 26.238281 L 58.535156 30.136719 C 58.535156 30.660156 58.476562 30.996094 58.347656 31.082031 C 58.230469 31.183594 57.898438 31.230469 57.394531 31.230469 L 57.378906 31.59375 L 61.121094 31.59375 L 61.121094 31.230469 C 60.601562 31.230469 60.269531 31.183594 60.109375 31.113281 C 59.964844 31.023438 59.863281 30.894531 59.808594 30.660156 C 59.761719 30.5 59.761719 30.210938 59.75 29.847656 L 59.761719 24.359375 L 59.359375 24.359375 Z M 70.75 25.058594 C 70.964844 25.058594 71.195312 25.144531 71.414062 25.320312 C 71.628906 25.496094 71.757812 25.683594 71.816406 25.886719 C 72.035156 26.921875 71.125 27.648438 69.058594 28.027344 C 69 27.269531 69.144531 26.574219 69.460938 25.960938 C 69.792969 25.378906 70.214844 25.058594 70.75 25.058594 Z M 70.75 25.058594 "/>
<path style=" stroke:none;fill-rule:nonzero;fill:rgb(5.882353%,50.196078%,80%);fill-opacity:1;" d="M 22.835938 4.132812 L 2.484375 4.132812 C 1.128906 4.132812 0 5.253906 0 6.621094 L 0 29.207031 C 0 30.574219 1.113281 31.695312 2.472656 31.695312 L 15.871094 31.695312 C 15.738281 25 18.007812 11.960938 22.835938 4.132812 Z M 22.835938 4.132812 "/>
<path style=" stroke:none;fill-rule:nonzero;fill:url(#linear0);" d="M 22.097656 4.859375 L 2.484375 4.859375 C 1.503906 4.859375 0.722656 5.660156 0.722656 6.636719 L 0.722656 27.578125 C 5.160156 25.859375 11.824219 24.375 16.433594 24.449219 C 17.371094 19.558594 20.089844 10.011719 22.097656 4.859375 Z M 22.097656 4.859375 "/>
<path style=" stroke:none;fill-rule:nonzero;fill:rgb(0%,23.137255%,34.117647%);fill-opacity:1;" d="M 27.578125 3.390625 C 26.175781 2.140625 24.5 2.632812 22.835938 4.132812 C 22.589844 4.351562 22.34375 4.597656 22.097656 4.875 C 19.238281 7.917969 16.605469 13.546875 15.796875 17.855469 C 16.117188 18.511719 16.359375 19.339844 16.535156 19.980469 C 16.578125 20.140625 16.621094 20.300781 16.636719 20.429688 C 16.722656 20.738281 16.738281 20.941406 16.738281 20.941406 C 16.738281 20.941406 16.722656 20.839844 16.621094 20.535156 C 16.605469 20.476562 16.578125 20.417969 16.5625 20.328125 C 16.550781 20.285156 16.550781 20.269531 16.519531 20.226562 C 16.332031 19.804688 15.8125 18.875 15.59375 18.464844 C 15.390625 19.035156 15.234375 19.574219 15.089844 20.054688 C 15.738281 21.261719 16.144531 23.3125 16.144531 23.3125 C 16.144531 23.3125 16.101562 23.167969 15.941406 22.714844 C 15.796875 22.308594 15.074219 21.027344 14.902344 20.722656 C 14.597656 21.828125 14.496094 22.554688 14.597656 22.746094 C 14.800781 23.09375 15.003906 23.691406 15.160156 24.359375 C 15.550781 25.84375 15.8125 27.691406 15.8125 27.691406 C 15.8125 27.691406 15.8125 27.808594 15.828125 28 C 15.769531 29.265625 15.8125 30.546875 15.914062 31.738281 C 16.027344 33.296875 16.273438 34.632812 16.578125 35.347656 L 16.78125 35.230469 C 16.332031 33.820312 16.160156 31.972656 16.230469 29.847656 C 16.347656 26.585938 17.097656 22.644531 18.484375 18.554688 C 20.8125 12.371094 24.035156 7.390625 27 5.019531 C 24.308594 7.464844 20.652344 15.382812 19.554688 18.320312 C 18.339844 21.609375 17.472656 24.695312 16.9375 27.648438 C 17.835938 24.871094 20.753906 23.691406 20.753906 23.691406 C 20.753906 23.691406 22.171875 21.914062 23.863281 19.382812 C 22.863281 19.601562 21.230469 20.023438 20.683594 20.242188 C 19.875 20.589844 19.65625 20.707031 19.65625 20.707031 C 19.65625 20.707031 22.285156 19.09375 24.542969 18.363281 C 27.589844 13.433594 30.972656 6.433594 27.578125 3.390625 "/>
</g>
</svg>
